<svg xmlns="http://www.w3.org/2000/svg" xmlns:xlink="http://www.w3.org/1999/xlink" contentStyleType="text/css" data-diagram-type="STATE" height="715px" preserveAspectRatio="none" style="width:343px;height:715px;background:#FFFFFF;" version="1.1" viewBox="0 0 343 715" width="343px" zoomAndPan="magnify"><defs/><g><path d="M19.5,7 L317.71,7 A12.5,12.5 0 0 1 330.21,19.5 L330.21,33.2969 L7,33.2969 L7,19.5 A12.5,12.5 0 0 1 19.5,7" fill="#F1F1F1"/><rect fill="none" height="557.2969" rx="12.5" ry="12.5" style="stroke:#181818;stroke-width:0.5;" width="323.21" x="7" y="7"/><line style="stroke:#181818;stroke-width:0.5;" x1="7" x2="330.21" y1="33.2969" y2="33.2969"/><text fill="#000000" font-family="sans-serif" font-size="14" lengthAdjust="spacing" textLength="131.4414" x="102.8843" y="24.9951">verEspacioActual()</text><g id="verEspacioActual.SolicitandoVerUbicacion"><rect fill="#F1F1F1" height="50" rx="12.5" ry="12.5" style="stroke:#181818;stroke-width:0.5;" width="50" x="75.21" y="150.2969"/><line style="stroke:#181818;stroke-width:0.5;" x1="75.21" x2="125.21" y1="176.5938" y2="176.5938"/><text fill="#000000" font-family="sans-serif" font-size="14" lengthAdjust="spacing" textLength="4.4502" x="97.9849" y="168.292">&#160;</text></g><g id="verEspacioActual.MostrandoUbicacion"><rect fill="#F1F1F1" height="50" rx="12.5" ry="12.5" style="stroke:#181818;stroke-width:0.5;" width="162.4131" x="19" y="301.2969"/><line style="stroke:#181818;stroke-width:0.5;" x1="19" x2="181.4131" y1="327.5938" y2="327.5938"/><text fill="#000000" font-family="sans-serif" font-size="14" lengthAdjust="spacing" textLength="142.4131" x="29" y="319.292">MostrandoUbicacion</text></g><g class="entity" data-entity="c" data-uid="ent0005" id="entity_c"><polygon fill="#F1F1F1" points="100.21,437.2969,112.21,449.2969,100.21,461.2969,88.21,449.2969,100.21,437.2969" style="stroke:#181818;stroke-width:0.5;"/></g><ellipse cx="100.21" cy="54.2969" fill="#222222" rx="10" ry="10" style="stroke:#222222;stroke-width:1;"/><ellipse cx="100.21" cy="543.2969" fill="none" rx="11" ry="11" style="stroke:#222222;stroke-width:1;"/><ellipse cx="100.21" cy="543.2969" fill="#222222" rx="6" ry="6" style="stroke:#222222;stroke-width:1;"/><!--link *start*verEspacioActual to SolicitandoVerUbicacion--><g class="link" data-entity-1=".start.verEspacioActual" data-entity-2="SolicitandoVerUbicacion" data-source-line="9" data-uid="lnk3" id="link_.start.verEspacioActual_SolicitandoVerUbicacion"><path d="M100.21,64.6369 C100.21,82.8269 100.21,117.5369 100.21,143.9069" fill="none" id="*start*verEspacioActual-to-SolicitandoVerUbicacion" style="stroke:#008000;stroke-width:1;"/><polygon fill="#008000" points="100.21,149.9069,104.21,140.9069,100.21,144.9069,96.21,140.9069,100.21,149.9069" style="stroke:#008000;stroke-width:1;"/><path d="M105.21,87.2969 L105.21,127.2969 L321.21,127.2969 L321.21,97.2969 L311.21,87.2969 L105.21,87.2969" fill="#FEFFDD" style="stroke:#181818;stroke-width:0.5;"/><path d="M311.21,87.2969 L311.21,97.2969 L321.21,97.2969 L311.21,87.2969" fill="#FEFFDD" style="stroke:#181818;stroke-width:0.5;"/><text fill="#000000" font-family="sans-serif" font-size="13" font-weight="bold" lengthAdjust="spacing" textLength="65.9839" x="111.21" y="104.3638">Visitante</text><text fill="#000000" font-family="sans-serif" font-size="13" lengthAdjust="spacing" textLength="70.9414" x="181.3262" y="104.3638">solicita ver</text><text fill="#000000" font-family="sans-serif" font-size="13" lengthAdjust="spacing" textLength="125.4741" x="181.4595" y="119.4966">su ubicaci&#243;n actual</text></g><!--link SolicitandoVerUbicacion to MostrandoUbicacion--><g class="link" data-entity-1="SolicitandoVerUbicacion" data-entity-2="MostrandoUbicacion" data-source-line="15" data-uid="lnk4" id="link_SolicitandoVerUbicacion_MostrandoUbicacion"><path d="M100.21,200.5669 C100.21,228.2769 100.21,267.3369 100.21,295.0369" fill="none" id="SolicitandoVerUbicacion-to-MostrandoUbicacion" style="stroke:#008000;stroke-width:1;"/><polygon fill="#008000" points="100.21,301.0369,104.21,292.0369,100.21,296.0369,96.21,292.0369,100.21,301.0369" style="stroke:#008000;stroke-width:1;"/><path d="M105.21,223.2969 L105.21,278.2969 L306.21,278.2969 L306.21,233.2969 L296.21,223.2969 L105.21,223.2969" fill="#FEFFDD" style="stroke:#181818;stroke-width:0.5;"/><path d="M296.21,223.2969 L296.21,233.2969 L306.21,233.2969 L296.21,223.2969" fill="#FEFFDD" style="stroke:#181818;stroke-width:0.5;"/><text fill="#000000" font-family="sans-serif" font-size="13" font-weight="bold" lengthAdjust="spacing" textLength="58.9063" x="111.21" y="240.3638">Sistema</text><text fill="#000000" font-family="sans-serif" font-size="13" lengthAdjust="spacing" textLength="57.6685" x="174.2486" y="240.3638">presenta</text><text fill="#000000" font-family="sans-serif" font-size="13" lengthAdjust="spacing" textLength="180.7559" x="111.21" y="255.4966">&#8226; Ubicaci&#243;n actual en mapa</text><text fill="#000000" font-family="sans-serif" font-size="13" lengthAdjust="spacing" textLength="167.2607" x="111.21" y="270.6294">&#8226; Detalles de la ubicaci&#243;n</text></g><!--link MostrandoUbicacion to c--><g class="link" data-entity-1="MostrandoUbicacion" data-entity-2="c" data-source-line="22" data-uid="lnk5" id="link_MostrandoUbicacion_c"><path d="M100.21,351.7869 C100.21,377.6069 100.21,411.2069 100.21,430.6669" fill="none" id="MostrandoUbicacion-to-c" style="stroke:#008000;stroke-width:1;"/><polygon fill="#008000" points="100.21,436.6669,104.21,427.6669,100.21,431.6669,96.21,427.6669,100.21,436.6669" style="stroke:#008000;stroke-width:1;"/><path d="M105.21,374.2969 L105.21,414.2969 L241.21,414.2969 L241.21,384.2969 L231.21,374.2969 L105.21,374.2969" fill="#FEFFDD" style="stroke:#181818;stroke-width:0.5;"/><path d="M231.21,374.2969 L231.21,384.2969 L241.21,384.2969 L231.21,374.2969" fill="#FEFFDD" style="stroke:#181818;stroke-width:0.5;"/><text fill="#000000" font-family="sans-serif" font-size="13" font-weight="bold" lengthAdjust="spacing" textLength="65.9839" x="111.21" y="391.3638">Visitante</text><text fill="#000000" font-family="sans-serif" font-size="13" lengthAdjust="spacing" textLength="45.7729" x="181.3262" y="391.3638">solicita</text><text fill="#000000" font-family="sans-serif" font-size="13" lengthAdjust="spacing" textLength="94.7642" x="111.21" y="406.4966">&#8226; salir de vista</text></g><!--link c to *end*verEspacioActual--><g class="link" data-entity-1="c" data-entity-2=".end.verEspacioActual" data-source-line="28" data-uid="lnk7" id="link_c_.end.verEspacioActual"><path d="M100.21,461.9469 C100.21,480.0369 100.21,508.5669 100.21,525.8769" fill="none" id="c-to-*end*verEspacioActual" style="stroke:#008000;stroke-width:1;"/><polygon fill="#008000" points="100.21,531.8769,104.21,522.8769,100.21,526.8769,96.21,522.8769,100.21,531.8769" style="stroke:#008000;stroke-width:1;"/><path d="M105.21,484.2969 L105.21,509.2969 L153.21,509.2969 L153.21,494.2969 L143.21,484.2969 L105.21,484.2969" fill="#FEFFDD" style="stroke:#181818;stroke-width:0.5;"/><path d="M143.21,484.2969 L143.21,494.2969 L153.21,494.2969 L143.21,484.2969" fill="#FEFFDD" style="stroke:#181818;stroke-width:0.5;"/><text fill="#000000" font-family="sans-serif" font-size="13" lengthAdjust="spacing" textLength="27.3076" x="111.21" y="501.3638">salir</text></g><g id="ESPACIO_ABIERTO"><rect fill="#F1F1F1" height="50" rx="12.5" ry="12.5" style="stroke:#181818;stroke-width:0.5;" width="149.1309" x="94.04" y="659.3"/><line style="stroke:#181818;stroke-width:0.5;" x1="94.04" x2="243.1709" y1="685.5969" y2="685.5969"/><text fill="#000000" font-family="sans-serif" font-size="14" lengthAdjust="spacing" textLength="129.1309" x="104.04" y="677.2951">ESPACIO_ABIERTO</text></g><!--link verEspacioActual to ESPACIO_ABIERTO--><g class="link" data-entity-1="verEspacioActual" data-entity-2="ESPACIO_ABIERTO" data-source-line="34" data-uid="lnk9" id="link_verEspacioActual_ESPACIO_ABIERTO"><path d="M168.61,564.56 C168.61,603.55 168.61,631.61 168.61,653.14" fill="none" id="verEspacioActual-to-ESPACIO_ABIERTO" style="stroke:#008000;stroke-width:1;"/><polygon fill="#008000" points="168.61,659.14,172.61,650.14,168.61,654.14,164.61,650.14,168.61,659.14" style="stroke:#008000;stroke-width:1;"/><path d="M173.61,599.3 L173.61,624.3 L243.61,624.3 L243.61,609.3 L233.61,599.3 L173.61,599.3" fill="#FEFFDD" style="stroke:#181818;stroke-width:0.5;"/><path d="M233.61,599.3 L233.61,609.3 L243.61,609.3 L233.61,599.3" fill="#FEFFDD" style="stroke:#181818;stroke-width:0.5;"/><text fill="#000000" font-family="sans-serif" font-size="13" lengthAdjust="spacing" textLength="49.6768" x="179.61" y="616.3669">regresa</text></g><!--SRC=[bLBTIiCm5BxFKnpcZGh35oY5gRtOXKoisyqOSfOTD2nBIauw62BuBBw2Z-2R-2IcgMxjkbwOGY4dtszQNYjJeCCDQ6N8xmg2mkfTjH62FNg2BRcC2vJAZgGlKGCo38w7vnS3U1K2mgfPW_04O6wraigZMTaPkUbIoOfZci0xozvLWFrfP7R73PA4994lLabAqzfrVhc0uVpisH6PnJ3jCuO8DZPeX4sekOw3P9dE55TmJydLCWN-fLVjQqvdSGbbBVlrQG3ZDKGacLNj49ROl_e2DKFtT3uLDrViQOCnRE68oNYCPz_l7p0zpXKomGQB0-AMF6fD32i2ZOqYhGQ7zDrahU3odzUwpy6ebQj2R4CVx36NBQ_mfK-xHQssn9iGdT-tgPNbzwERyUHfT3tE7XudegNfAE0OnP_Q3m00]--></g></svg>