<svg xmlns="http://www.w3.org/2000/svg" xmlns:xlink="http://www.w3.org/1999/xlink" contentStyleType="text/css" data-diagram-type="DESCRIPTION" height="463px" preserveAspectRatio="none" style="width:598px;height:463px;background:#FFFFFF;" version="1.1" viewBox="0 0 598 463" width="598px" zoomAndPan="magnify"><defs/><g><!--cluster Interacci?n de Espacios--><g class="cluster" data-entity="Interacci.n de Espacios" data-source-line="5" data-uid="ent0003" id="cluster_Interacci.n de Espacios"><path d="M376.5,6 L563.875,6 A3.75,3.75 0 0 1 566.375,8.5 L573.375,28.2969 L588.5,28.2969 A2.5,2.5 0 0 1 591,30.7969 L591,453.5 A2.5,2.5 0 0 1 588.5,456 L376.5,456 A2.5,2.5 0 0 1 374,453.5 L374,8.5 A2.5,2.5 0 0 1 376.5,6" fill="none" style="stroke:#000000;stroke-width:1.5;"/><line style="stroke:#000000;stroke-width:1.5;" x1="374" x2="573.375" y1="28.2969" y2="28.2969"/><text fill="#000000" font-family="sans-serif" font-size="14" font-weight="bold" lengthAdjust="spacing" textLength="186.375" x="378" y="20.9951">Interacci&#243;n de Espacios</text></g><!--cluster Interacci?n de Recorridos--><g class="cluster" data-entity="Interacci.n de Recorridos" data-source-line="14" data-uid="ent0010" id="cluster_Interacci.n de Recorridos"><path d="M8.5,144 L212.2334,144 A3.75,3.75 0 0 1 214.7334,146.5 L221.7334,166.2969 L221.5,166.2969 A2.5,2.5 0 0 1 224,168.7969 L224,305.5 A2.5,2.5 0 0 1 221.5,308 L8.5,308 A2.5,2.5 0 0 1 6,305.5 L6,146.5 A2.5,2.5 0 0 1 8.5,144" fill="none" style="stroke:#000000;stroke-width:1.5;"/><line style="stroke:#000000;stroke-width:1.5;" x1="6" x2="221.7334" y1="166.2969" y2="166.2969"/><text fill="#000000" font-family="sans-serif" font-size="14" font-weight="bold" lengthAdjust="spacing" textLength="202.7334" x="10" y="158.9951">Interacci&#243;n de Recorridos</text></g><!--entity verEspacio--><g class="entity" data-entity="verEspacio" data-source-line="6" data-uid="ent0004" id="entity_verEspacio"><ellipse cx="482.7228" cy="55.9446" fill="#F1F1F1" rx="62.7228" ry="14.9446" style="stroke:#181818;stroke-width:0.5;"/><text fill="#000000" font-family="sans-serif" font-size="14" lengthAdjust="spacing" textLength="87.3359" x="439.0549" y="60.593">verEspacio()</text></g><!--entity cambiarDeEspacio--><g class="entity" data-entity="cambiarDeEspacio" data-source-line="7" data-uid="ent0005" id="entity_cambiarDeEspacio"><ellipse cx="482.4694" cy="125.7939" fill="#F1F1F1" rx="84.4694" ry="19.2939" style="stroke:#181818;stroke-width:0.5;"/><text fill="#000000" font-family="sans-serif" font-size="14" lengthAdjust="spacing" textLength="141.1006" x="411.9191" y="130.4423">cambiarDeEspacio()</text></g><!--entity buscarEspacio--><g class="entity" data-entity="buscarEspacio" data-source-line="8" data-uid="ent0006" id="entity_buscarEspacio"><ellipse cx="482.6587" cy="197.8317" fill="#F1F1F1" rx="72.1587" ry="16.8317" style="stroke:#181818;stroke-width:0.5;"/><text fill="#000000" font-family="sans-serif" font-size="14" lengthAdjust="spacing" textLength="111.7676" x="426.7749" y="202.4802">buscarEspacio()</text></g><!--entity verDetallesEspacio--><g class="entity" data-entity="verDetallesEspacio" data-source-line="9" data-uid="ent0007" id="entity_verDetallesEspacio"><ellipse cx="482.4389" cy="270.0878" fill="#F1F1F1" rx="85.9389" ry="19.5878" style="stroke:#181818;stroke-width:0.5;"/><text fill="#000000" font-family="sans-serif" font-size="14" lengthAdjust="spacing" textLength="144.4844" x="410.1967" y="274.7362">verDetallesEspacio()</text></g><!--entity verEspaciosCercanos--><g class="entity" data-entity="verEspaciosCercanos" data-source-line="10" data-uid="ent0008" id="entity_verEspaciosCercanos"><ellipse cx="482.6805" cy="345.9361" fill="#F1F1F1" rx="92.6805" ry="20.9361" style="stroke:#181818;stroke-width:0.5;"/><text fill="#000000" font-family="sans-serif" font-size="14" lengthAdjust="spacing" textLength="159.7832" x="402.7889" y="350.5845">verEspaciosCercanos()</text></g><!--entity verEspaciosPlanta--><g class="entity" data-entity="verEspaciosPlanta" data-source-line="11" data-uid="ent0009" id="entity_verEspaciosPlanta"><ellipse cx="482.3385" cy="421.0677" fill="#F1F1F1" rx="83.3385" ry="19.0677" style="stroke:#181818;stroke-width:0.5;"/><text fill="#000000" font-family="sans-serif" font-size="14" lengthAdjust="spacing" textLength="138.4824" x="413.0973" y="425.7161">verEspaciosPlanta()</text></g><!--entity listarRecorridos--><g class="entity" data-entity="listarRecorridos" data-source-line="15" data-uid="ent0011" id="entity_listarRecorridos"><ellipse cx="114.7622" cy="197.0524" fill="#F1F1F1" rx="75.7622" ry="17.5524" style="stroke:#181818;stroke-width:0.5;"/><text fill="#000000" font-family="sans-serif" font-size="14" lengthAdjust="spacing" textLength="120.5723" x="54.4761" y="201.7009">listarRecorridos()</text></g><!--entity seleccionarRecorrido--><g class="entity" data-entity="seleccionarRecorrido" data-source-line="16" data-uid="ent0012" id="entity_seleccionarRecorrido"><ellipse cx="114.8199" cy="270.764" fill="#F1F1F1" rx="91.8199" ry="20.764" style="stroke:#181818;stroke-width:0.5;"/><text fill="#000000" font-family="sans-serif" font-size="14" lengthAdjust="spacing" textLength="157.8486" x="35.8956" y="275.4124">seleccionarRecorrido()</text></g><!--entity visitante--><g class="entity" data-entity="visitante" data-source-line="3" data-uid="ent0002" id="entity_visitante"><ellipse cx="298.8472" cy="204.5" fill="#F1F1F1" rx="8" ry="8" style="stroke:#181818;stroke-width:0.5;"/><path d="M298.8472,212.5 L298.8472,239.5 M285.8472,220.5 L311.8472,220.5 M298.8472,239.5 L285.8472,254.5 M298.8472,239.5 L311.8472,254.5" fill="none" style="stroke:#181818;stroke-width:0.5;"/><text fill="#000000" font-family="sans-serif" font-size="14" lengthAdjust="spacing" textLength="61.6943" x="268" y="268.9951">Visitante</text></g><!--link visitante to verEspacio--><g class="link" data-entity-1="visitante" data-entity-2="verEspacio" data-source-line="19" data-uid="lnk13" id="link_visitante_verEspacio"><path d="M307.88,195.88 C316.62,163.01 333.93,116.62 366,89 C382.43,74.85 398.7274,68.0718 419.2274,63.4418" fill="none" id="visitante-to-verEspacio" style="stroke:#181818;stroke-width:1;"/><polygon fill="#181818" points="425.08,62.12,415.4199,60.201,420.2028,63.2215,417.1823,68.0045,425.08,62.12" style="stroke:#181818;stroke-width:1;"/></g><!--link visitante to cambiarDeEspacio--><g class="link" data-entity-1="visitante" data-entity-2="cambiarDeEspacio" data-source-line="20" data-uid="lnk14" id="link_visitante_cambiarDeEspacio"><path d="M328.81,195.99 C339.41,184.07 352.22,171.75 366,163 C382.35,152.61 396.1329,146.6666 414.4229,141.0666" fill="none" id="visitante-to-cambiarDeEspacio" style="stroke:#181818;stroke-width:1;"/><polygon fill="#181818" points="420.16,139.31,410.3833,138.1201,415.3791,140.7738,412.7254,145.7696,420.16,139.31" style="stroke:#181818;stroke-width:1;"/></g><!--link visitante to buscarEspacio--><g class="link" data-entity-1="visitante" data-entity-2="buscarEspacio" data-source-line="21" data-uid="lnk15" id="link_visitante_buscarEspacio"><path d="M330.38,227.97 C356.62,222.77 389.2947,216.2877 420.8947,210.0177" fill="none" id="visitante-to-buscarEspacio" style="stroke:#181818;stroke-width:1;"/><polygon fill="#181818" points="426.78,208.85,417.1736,206.6781,421.8756,209.8231,418.7306,214.5251,426.78,208.85" style="stroke:#181818;stroke-width:1;"/></g><!--link visitante to verDetallesEspacio--><g class="link" data-entity-1="visitante" data-entity-2="verDetallesEspacio" data-source-line="22" data-uid="lnk16" id="link_visitante_verDetallesEspacio"><path d="M330.38,240.03 C353.99,244.71 381.7048,250.2017 411.2248,256.0617" fill="none" id="visitante-to-verDetallesEspacio" style="stroke:#181818;stroke-width:1;"/><polygon fill="#181818" points="417.11,257.23,409.0611,251.5542,412.2057,256.2564,407.5034,259.4011,417.11,257.23" style="stroke:#181818;stroke-width:1;"/></g><!--link visitante to verEspaciosCercanos--><g class="link" data-entity-1="visitante" data-entity-2="verEspaciosCercanos" data-source-line="23" data-uid="lnk17" id="link_visitante_verEspaciosCercanos"><path d="M328.07,272.22 C338.78,284.7 351.86,297.72 366,307 C381.57,317.22 394.3956,323.1294 411.9856,328.9694" fill="none" id="visitante-to-verEspaciosCercanos" style="stroke:#181818;stroke-width:1;"/><polygon fill="#181818" points="417.68,330.86,410.3988,324.2279,412.9347,329.2845,407.8781,331.8204,417.68,330.86" style="stroke:#181818;stroke-width:1;"/></g><!--link visitante to verEspaciosPlanta--><g class="link" data-entity-1="visitante" data-entity-2="verEspaciosPlanta" data-source-line="24" data-uid="lnk18" id="link_visitante_verEspaciosPlanta"><path d="M307.49,272.17 C316.06,306.04 333.34,354.58 366,384 C379.53,396.19 391.3899,402.5489 408.7299,408.0389" fill="none" id="visitante-to-verEspaciosPlanta" style="stroke:#181818;stroke-width:1;"/><polygon fill="#181818" points="414.45,409.85,407.0771,403.32,409.6832,408.3408,404.6624,410.9469,414.45,409.85" style="stroke:#181818;stroke-width:1;"/></g><!--reverse link seleccionarRecorrido to visitante--><g class="link" data-entity-1="seleccionarRecorrido" data-entity-2="visitante" data-source-line="26" data-uid="lnk19" id="link_seleccionarRecorrido_visitante"><path d="M190.1695,255.9237 C219.0195,250.0537 245.24,244.73 267.95,240.11" fill="none" id="seleccionarRecorrido-backto-visitante" style="stroke:#181818;stroke-width:1;"/><polygon fill="#181818" points="184.29,257.12,193.9068,259.2453,189.1896,256.1231,192.3118,251.4059,184.29,257.12" style="stroke:#181818;stroke-width:1;"/></g><!--reverse link listarRecorridos to visitante--><g class="link" data-entity-1="listarRecorridos" data-entity-2="visitante" data-source-line="27" data-uid="lnk20" id="link_listarRecorridos_visitante"><path d="M178.4696,209.6961 C209.9796,216.1061 242.07,222.63 267.92,227.88" fill="none" id="listarRecorridos-backto-visitante" style="stroke:#181818;stroke-width:1;"/><polygon fill="#181818" points="172.59,208.5,180.612,214.2138,177.4896,209.4967,182.2067,206.3744,172.59,208.5" style="stroke:#181818;stroke-width:1;"/></g><!--SRC=[VL8xKWCn3Erz2eshTR4tOD8G2Zg6WbxHYk31s8pbf64uLOwGY-7yzgCiwqvFx-dpvC3l1Kg2xBSV1JgVcOfFqHYaaZBODo- -O2ni0GNsjyYORwHFt3BOvnfc9FB7GuIEuKbgoYUnFmRgsmaJ2iEUypLpAcI7i75sGYJysdZCQnxJDQX5cvqGJXfC44sltTTSC0GMDPI2PuIt_Huv4yOaQfqUNv2-XEeXQk45FSb-5-nzPKev- -xEuE2bO1xIv_8Qr4C91wwrKnoHpiAvn7Mq_XD0swwW6JPmEgMlTaUO7CdDL5RdSFytxtrVubmiTiOqS_ivU6ZRqHzlj7kAy0S0]--></g></svg>