<svg xmlns="http://www.w3.org/2000/svg" xmlns:xlink="http://www.w3.org/1999/xlink" contentStyleType="text/css" data-diagram-type="DESCRIPTION" height="459px" preserveAspectRatio="none" style="width:624px;height:459px;background:#FFFFFF;" version="1.1" viewBox="0 0 624 459" width="624px" zoomAndPan="magnify"><defs/><g><!--cluster Gesti?n de Espacio--><g class="cluster" data-entity="Gesti.n de Espacio" data-source-line="5" data-uid="ent0003" id="cluster_Gesti.n de Espacio"><path d="M402.5,6 L553.2412,6 A3.75,3.75 0 0 1 555.7412,8.5 L562.7412,28.2969 L614.5,28.2969 A2.5,2.5 0 0 1 617,30.7969 L617,449.5 A2.5,2.5 0 0 1 614.5,452 L402.5,452 A2.5,2.5 0 0 1 400,449.5 L400,8.5 A2.5,2.5 0 0 1 402.5,6" fill="none" style="stroke:#000000;stroke-width:1.5;"/><line style="stroke:#000000;stroke-width:1.5;" x1="400" x2="562.7412" y1="28.2969" y2="28.2969"/><text fill="#000000" font-family="sans-serif" font-size="14" font-weight="bold" lengthAdjust="spacing" textLength="149.7412" x="404" y="20.9951">Gesti&#243;n de Espacio</text></g><!--cluster Gesti?n de Recorrido--><g class="cluster" data-entity="Gesti.n de Recorrido" data-source-line="14" data-uid="ent0010" id="cluster_Gesti.n de Recorrido"><path d="M8.5,96 L175.5996,96 A3.75,3.75 0 0 1 178.0996,98.5 L185.0996,118.2969 L247.5,118.2969 A2.5,2.5 0 0 1 250,120.7969 L250,337.5 A2.5,2.5 0 0 1 247.5,340 L8.5,340 A2.5,2.5 0 0 1 6,337.5 L6,98.5 A2.5,2.5 0 0 1 8.5,96" fill="none" style="stroke:#000000;stroke-width:1.5;"/><line style="stroke:#000000;stroke-width:1.5;" x1="6" x2="185.0996" y1="118.2969" y2="118.2969"/><text fill="#000000" font-family="sans-serif" font-size="14" font-weight="bold" lengthAdjust="spacing" textLength="166.0996" x="10" y="110.9951">Gesti&#243;n de Recorrido</text></g><!--entity verEspacio--><g class="entity" data-entity="verEspacio" data-source-line="6" data-uid="ent0004" id="entity_verEspacio"><ellipse cx="508.7228" cy="55.9446" fill="#F1F1F1" rx="62.7228" ry="14.9446" style="stroke:#181818;stroke-width:0.5;"/><text fill="#000000" font-family="sans-serif" font-size="14" lengthAdjust="spacing" textLength="87.3359" x="465.0549" y="60.593">verEspacio()</text></g><!--entity cambiarEspacio--><g class="entity" data-entity="cambiarEspacio" data-source-line="7" data-uid="ent0005" id="entity_cambiarEspacio"><ellipse cx="508.733" cy="124.1466" fill="#F1F1F1" rx="76.233" ry="17.6466" style="stroke:#181818;stroke-width:0.5;"/><text fill="#000000" font-family="sans-serif" font-size="14" lengthAdjust="spacing" textLength="121.707" x="447.8795" y="128.795">cambiarEspacio()</text></g><!--entity buscarEspacio--><g class="entity" data-entity="buscarEspacio" data-source-line="8" data-uid="ent0006" id="entity_buscarEspacio"><ellipse cx="508.6587" cy="193.8317" fill="#F1F1F1" rx="72.1587" ry="16.8317" style="stroke:#181818;stroke-width:0.5;"/><text fill="#000000" font-family="sans-serif" font-size="14" lengthAdjust="spacing" textLength="111.7676" x="452.7749" y="198.4802">buscarEspacio()</text></g><!--entity verDetallesEspacio--><g class="entity" data-entity="verDetallesEspacio" data-source-line="9" data-uid="ent0007" id="entity_verDetallesEspacio"><ellipse cx="508.4389" cy="266.0878" fill="#F1F1F1" rx="85.9389" ry="19.5878" style="stroke:#181818;stroke-width:0.5;"/><text fill="#000000" font-family="sans-serif" font-size="14" lengthAdjust="spacing" textLength="144.4844" x="436.1967" y="270.7362">verDetallesEspacio()</text></g><!--entity verEspaciosCercanos--><g class="entity" data-entity="verEspaciosCercanos" data-source-line="10" data-uid="ent0008" id="entity_verEspaciosCercanos"><ellipse cx="508.6805" cy="341.9361" fill="#F1F1F1" rx="92.6805" ry="20.9361" style="stroke:#181818;stroke-width:0.5;"/><text fill="#000000" font-family="sans-serif" font-size="14" lengthAdjust="spacing" textLength="159.7832" x="428.7889" y="346.5845">verEspaciosCercanos()</text></g><!--entity verEspaciosPlanta--><g class="entity" data-entity="verEspaciosPlanta" data-source-line="11" data-uid="ent0009" id="entity_verEspaciosPlanta"><ellipse cx="508.3385" cy="417.0677" fill="#F1F1F1" rx="83.3385" ry="19.0677" style="stroke:#181818;stroke-width:0.5;"/><text fill="#000000" font-family="sans-serif" font-size="14" lengthAdjust="spacing" textLength="138.4824" x="439.0973" y="421.7161">verEspaciosPlanta()</text></g><!--entity verRecorridosDisponibles--><g class="entity" data-entity="verRecorridosDisponibles" data-source-line="15" data-uid="ent0011" id="entity_verRecorridosDisponibles"><ellipse cx="127.9965" cy="155.0993" fill="#F1F1F1" rx="105.9965" ry="23.5993" style="stroke:#181818;stroke-width:0.5;"/><text fill="#000000" font-family="sans-serif" font-size="14" lengthAdjust="spacing" textLength="189.1914" x="33.4008" y="159.7477">verRecorridosDisponibles()</text></g><!--entity salirrRecorrido--><g class="entity" data-entity="salirrRecorrido" data-source-line="16" data-uid="ent0012" id="entity_salirrRecorrido"><ellipse cx="128.0614" cy="230.0123" fill="#F1F1F1" rx="70.5614" ry="16.5123" style="stroke:#181818;stroke-width:0.5;"/><text fill="#000000" font-family="sans-serif" font-size="14" lengthAdjust="spacing" textLength="107.7891" x="74.1669" y="234.6607">salirRecorrido()</text></g><!--entity seleccionarRecorrido--><g class="entity" data-entity="seleccionarRecorrido" data-source-line="17" data-uid="ent0013" id="entity_seleccionarRecorrido"><ellipse cx="127.8199" cy="302.764" fill="#F1F1F1" rx="91.8199" ry="20.764" style="stroke:#181818;stroke-width:0.5;"/><text fill="#000000" font-family="sans-serif" font-size="14" lengthAdjust="spacing" textLength="157.8486" x="48.8956" y="307.4124">seleccionarRecorrido()</text></g><!--entity visitante--><g class="entity" data-entity="visitante" data-source-line="3" data-uid="ent0002" id="entity_visitante"><ellipse cx="324.8472" cy="200.5" fill="#F1F1F1" rx="8" ry="8" style="stroke:#181818;stroke-width:0.5;"/><path d="M324.8472,208.5 L324.8472,235.5 M311.8472,216.5 L337.8472,216.5 M324.8472,235.5 L311.8472,250.5 M324.8472,235.5 L337.8472,250.5" fill="none" style="stroke:#181818;stroke-width:0.5;"/><text fill="#000000" font-family="sans-serif" font-size="14" lengthAdjust="spacing" textLength="61.6943" x="294" y="264.9951">Visitante</text></g><!--link visitante to verEspacio--><g class="link" data-entity-1="visitante" data-entity-2="verEspacio" data-source-line="20" data-uid="lnk14" id="link_visitante_verEspacio"><path d="M334.43,191.97 C343.44,160.06 360.83,115.56 392,89 C408.59,74.87 425.0264,68.0875 445.5964,63.4575" fill="none" id="visitante-to-verEspacio" style="stroke:#181818;stroke-width:1;"/><polygon fill="#181818" points="451.45,62.14,441.7913,60.214,446.572,63.238,443.548,68.0187,451.45,62.14" style="stroke:#181818;stroke-width:1;"/></g><!--link visitante to cambiarEspacio--><g class="link" data-entity-1="visitante" data-entity-2="cambiarEspacio" data-source-line="21" data-uid="lnk15" id="link_visitante_cambiarEspacio"><path d="M354.73,191.86 C365.32,179.93 378.15,167.64 392,159 C409.42,148.13 424.6475,142.0508 443.9375,136.7108" fill="none" id="visitante-to-cambiarEspacio" style="stroke:#181818;stroke-width:1;"/><polygon fill="#181818" points="449.72,135.11,439.979,133.6561,444.9012,136.444,442.1134,141.3662,449.72,135.11" style="stroke:#181818;stroke-width:1;"/></g><!--link visitante to buscarEspacio--><g class="link" data-entity-1="visitante" data-entity-2="buscarEspacio" data-source-line="22" data-uid="lnk16" id="link_visitante_buscarEspacio"><path d="M356.38,223.97 C382.62,218.77 415.2947,212.2877 446.8947,206.0177" fill="none" id="visitante-to-buscarEspacio" style="stroke:#181818;stroke-width:1;"/><polygon fill="#181818" points="452.78,204.85,443.1736,202.6781,447.8756,205.8231,444.7306,210.5251,452.78,204.85" style="stroke:#181818;stroke-width:1;"/></g><!--link visitante to verDetallesEspacio--><g class="link" data-entity-1="visitante" data-entity-2="verDetallesEspacio" data-source-line="23" data-uid="lnk17" id="link_visitante_verDetallesEspacio"><path d="M356.38,236.03 C379.99,240.71 407.7048,246.2017 437.2248,252.0617" fill="none" id="visitante-to-verDetallesEspacio" style="stroke:#181818;stroke-width:1;"/><polygon fill="#181818" points="443.11,253.23,435.0611,247.5542,438.2057,252.2564,433.5034,255.4011,443.11,253.23" style="stroke:#181818;stroke-width:1;"/></g><!--link visitante to verEspaciosCercanos--><g class="link" data-entity-1="visitante" data-entity-2="verEspaciosCercanos" data-source-line="24" data-uid="lnk18" id="link_visitante_verEspaciosCercanos"><path d="M354.07,268.22 C364.78,280.7 377.86,293.72 392,303 C407.57,313.22 420.3956,319.1294 437.9856,324.9694" fill="none" id="visitante-to-verEspaciosCercanos" style="stroke:#181818;stroke-width:1;"/><polygon fill="#181818" points="443.68,326.86,436.3988,320.2279,438.9347,325.2845,433.8781,327.8204,443.68,326.86" style="stroke:#181818;stroke-width:1;"/></g><!--link visitante to verEspaciosPlanta--><g class="link" data-entity-1="visitante" data-entity-2="verEspaciosPlanta" data-source-line="25" data-uid="lnk19" id="link_visitante_verEspaciosPlanta"><path d="M333.49,268.17 C342.06,302.04 359.34,350.58 392,380 C405.53,392.19 417.3899,398.5489 434.7299,404.0389" fill="none" id="visitante-to-verEspaciosPlanta" style="stroke:#181818;stroke-width:1;"/><polygon fill="#181818" points="440.45,405.85,433.0771,399.32,435.6832,404.3408,430.6624,406.9469,440.45,405.85" style="stroke:#181818;stroke-width:1;"/></g><!--reverse link seleccionarRecorrido to visitante--><g class="link" data-entity-1="seleccionarRecorrido" data-entity-2="visitante" data-source-line="27" data-uid="lnk20" id="link_seleccionarRecorrido_visitante"><path d="M194.9518,285.596 C216.9118,279.216 235.99,272.91 258,264 C270.07,259.12 282.89,252.79 293.98,246.93" fill="none" id="seleccionarRecorrido-backto-visitante" style="stroke:#181818;stroke-width:1;"/><polygon fill="#181818" points="189.19,287.27,198.9486,288.6002,193.9915,285.875,196.7167,280.9179,189.19,287.27" style="stroke:#181818;stroke-width:1;"/></g><!--reverse link verRecorridosDisponibles to visitante--><g class="link" data-entity-1="verRecorridosDisponibles" data-entity-2="visitante" data-source-line="28" data-uid="lnk21" id="link_verRecorridosDisponibles_visitante"><path d="M200.1277,175.237 C220.7377,181.667 237.69,187.61 258,196 C270.03,200.97 282.84,207.31 293.95,213.17" fill="none" id="verRecorridosDisponibles-backto-visitante" style="stroke:#181818;stroke-width:1;"/><polygon fill="#181818" points="194.4,173.45,201.8003,179.9489,199.1731,174.9391,204.1829,172.312,194.4,173.45" style="stroke:#181818;stroke-width:1;"/></g><!--reverse link salirrRecorrido to visitante--><g class="link" data-entity-1="salirrRecorrido" data-entity-2="visitante" data-source-line="29" data-uid="lnk22" id="link_salirrRecorrido_visitante"><path d="M204.57,230 C237.28,230 268.56,230 293.92,230" fill="none" id="salirrRecorrido-backto-visitante" style="stroke:#181818;stroke-width:1;"/><polygon fill="#181818" points="198.57,230,207.57,234,203.57,230,207.57,226,198.57,230" style="stroke:#181818;stroke-width:1;"/></g><!--SRC=[VLEzKiCm3Dxz53fFyP0tu5Wenyeni2kEA3gCtRFSBXnFnIFmOhXjcc3NQJP_FvRqoN7qbY05YBnzJp1o99iuUANGfX11lx9mGfz80meSBYUbTcW_S4kWdqWI__vu60aU9SCSz9U2_Es5B0h1WU947E_Gox4pkX1Q_1mO2t49rOPXBxRK5qWjpvKtbD0vaggX2cuO9qOUA5hqGQfHPlo6zTdbwB0sdj6ZxNibrHUo8KOU6xdEb6nOTi7pa8UuL6YITN-2ZkCYFNbFs0nTESYHpPrxh6qDOffhVZZGz_VGBUERcYeNVaKN-pMDUwjDclNIyyfkQSxRCKfrhUaCtFNzlx-YMqlzIbZ5Nl5_]--></g></svg>