<svg xmlns="http://www.w3.org/2000/svg" xmlns:xlink="http://www.w3.org/1999/xlink" contentStyleType="text/css" data-diagram-type="STATE" height="645px" preserveAspectRatio="none" style="width:1318px;height:645px;background:#FFFFFF;" version="1.1" viewBox="0 0 1318 645" width="1318px" zoomAndPan="magnify"><defs/><g><g id="NoAuth"><rect fill="#F1F1F1" height="50" rx="12.5" ry="12.5" style="stroke:#181818;stroke-width:0.5;" width="147.251" x="87" y="325"/><line style="stroke:#181818;stroke-width:0.5;" x1="87" x2="234.251" y1="351.2969" y2="351.2969"/><text fill="#000000" font-family="sans-serif" font-size="14" lengthAdjust="spacing" textLength="127.251" x="97" y="342.9951">SESION_CERRADA</text></g><g id="UnivDisponible"><rect fill="#F1F1F1" height="50" rx="12.5" ry="12.5" style="stroke:#181818;stroke-width:0.5;" width="208.2617" x="388" y="325"/><line style="stroke:#181818;stroke-width:0.5;" x1="388" x2="596.2617" y1="351.2969" y2="351.2969"/><text fill="#000000" font-family="sans-serif" font-size="14" lengthAdjust="spacing" textLength="188.2617" x="398" y="342.9951">UNIVERSIDAD_DISPONIBLE</text></g><g id="ListRegiones"><rect fill="#F1F1F1" height="50" rx="12.5" ry="12.5" style="stroke:#181818;stroke-width:0.5;" width="161.2305" x="793.5" y="119"/><line style="stroke:#181818;stroke-width:0.5;" x1="793.5" x2="954.7305" y1="145.2969" y2="145.2969"/><text fill="#000000" font-family="sans-serif" font-size="14" lengthAdjust="spacing" textLength="141.2305" x="803.5" y="136.9951">REGIONES_ABIERTO</text></g><g id="EditRegion"><rect fill="#F1F1F1" height="50" rx="12.5" ry="12.5" style="stroke:#181818;stroke-width:0.5;" width="143.498" x="1153" y="68"/><line style="stroke:#181818;stroke-width:0.5;" x1="1153" x2="1296.498" y1="94.2969" y2="94.2969"/><text fill="#000000" font-family="sans-serif" font-size="14" lengthAdjust="spacing" textLength="123.498" x="1163" y="85.9951">REGION_ABIERTO</text></g><g id="ListPlantas"><rect fill="#F1F1F1" height="50" rx="12.5" ry="12.5" style="stroke:#181818;stroke-width:0.5;" width="151.7627" x="798" y="249"/><line style="stroke:#181818;stroke-width:0.5;" x1="798" x2="949.7627" y1="275.2969" y2="275.2969"/><text fill="#000000" font-family="sans-serif" font-size="14" lengthAdjust="spacing" textLength="131.7627" x="808" y="266.9951">PLANTAS_ABIERTO</text></g><g id="EditPlanta"><rect fill="#F1F1F1" height="50" rx="12.5" ry="12.5" style="stroke:#181818;stroke-width:0.5;" width="142.876" x="1153" y="239"/><line style="stroke:#181818;stroke-width:0.5;" x1="1153" x2="1295.876" y1="265.2969" y2="265.2969"/><text fill="#000000" font-family="sans-serif" font-size="14" lengthAdjust="spacing" textLength="122.876" x="1163" y="256.9951">PLANTA_ABIERTO</text></g><g id="ListEspacios"><rect fill="#F1F1F1" height="50" rx="12.5" ry="12.5" style="stroke:#181818;stroke-width:0.5;" width="158.0176" x="795" y="402"/><line style="stroke:#181818;stroke-width:0.5;" x1="795" x2="953.0176" y1="428.2969" y2="428.2969"/><text fill="#000000" font-family="sans-serif" font-size="14" lengthAdjust="spacing" textLength="138.0176" x="805" y="419.9951">ESPACIOS_ABIERTO</text></g><g id="EditEspacio"><rect fill="#F1F1F1" height="50" rx="12.5" ry="12.5" style="stroke:#181818;stroke-width:0.5;" width="149.1309" x="1150" y="410"/><line style="stroke:#181818;stroke-width:0.5;" x1="1150" x2="1299.1309" y1="436.2969" y2="436.2969"/><text fill="#000000" font-family="sans-serif" font-size="14" lengthAdjust="spacing" textLength="129.1309" x="1160" y="427.9951">ESPACIO_ABIERTO</text></g><g id="ListRecorridos"><rect fill="#F1F1F1" height="50" rx="12.5" ry="12.5" style="stroke:#181818;stroke-width:0.5;" width="182.0938" x="783" y="532"/><line style="stroke:#181818;stroke-width:0.5;" x1="783" x2="965.0938" y1="558.2969" y2="558.2969"/><text fill="#000000" font-family="sans-serif" font-size="14" lengthAdjust="spacing" textLength="162.0938" x="793" y="549.9951">RECORRIDOS_ABIERTO</text></g><g id="EditRecorrido"><rect fill="#F1F1F1" height="50" rx="12.5" ry="12.5" style="stroke:#181818;stroke-width:0.5;" width="173.207" x="1138" y="581"/><line style="stroke:#181818;stroke-width:0.5;" x1="1138" x2="1311.207" y1="607.2969" y2="607.2969"/><text fill="#000000" font-family="sans-serif" font-size="14" lengthAdjust="spacing" textLength="153.207" x="1148" y="598.9951">RECORRIDO_ABIERTO</text></g><ellipse cx="16" cy="350" fill="#222222" rx="10" ry="10" style="stroke:#222222;stroke-width:1;"/><!--link *start* to NoAuth--><g class="link" data-entity-1=".start." data-entity-2="NoAuth" data-source-line="16" data-uid="lnk3" id="link_.start._NoAuth"><path d="M26.35,350 C39.04,350 56.92,350 80.98,350" fill="none" id="*start*-to-NoAuth" style="stroke:#181818;stroke-width:1;"/><polygon fill="#181818" points="86.98,350,77.98,346,81.98,350,77.98,354,86.98,350" style="stroke:#181818;stroke-width:1;"/></g><!--link NoAuth to UnivDisponible--><g class="link" data-entity-1="NoAuth" data-entity-2="UnivDisponible" data-source-line="18" data-uid="lnk4" id="link_NoAuth_UnivDisponible"><path d="M234.22,350 C279.32,350 331.98,350 381.84,350" fill="none" id="NoAuth-to-UnivDisponible" style="stroke:#181818;stroke-width:1;"/><polygon fill="#181818" points="387.84,350,378.84,346,382.84,350,378.84,354,387.84,350" style="stroke:#181818;stroke-width:1;"/><text fill="#000000" font-family="sans-serif" font-size="13" lengthAdjust="spacing" textLength="92.5044" x="265" y="346.0669">iniciarSesion()</text></g><!--link UnivDisponible to NoAuth--><g class="link" data-entity-1="UnivDisponible" data-entity-2="NoAuth" data-source-line="19" data-uid="lnk5" id="link_UnivDisponible_NoAuth"><path d="M387.85,369.39 C370.51,372.65 358,375 358,375 C358,375 264,375 264,375 C264,375 256.7387,373.2334 239.9087,369.1234" fill="none" id="UnivDisponible-to-NoAuth" style="stroke:#181818;stroke-width:1;"/><polygon fill="#181818" points="234.08,367.7,241.8741,373.7209,238.9373,368.8862,243.772,365.9493,234.08,367.7" style="stroke:#181818;stroke-width:1;"/><text fill="#000000" font-family="sans-serif" font-size="13" lengthAdjust="spacing" textLength="92.1172" x="265" y="371.0669">cerrarSesion()</text></g><!--link UnivDisponible to ListRegiones--><g class="link" data-entity-1="UnivDisponible" data-entity-2="ListRegiones" data-source-line="21" data-uid="lnk6" id="link_UnivDisponible_ListRegiones"><path d="M513.49,324.89 C550.8,279.17 626,187 626,187 C626,187 715.3689,171.439 787.5789,158.869" fill="none" id="UnivDisponible-to-ListRegiones" style="stroke:#181818;stroke-width:1;"/><polygon fill="#181818" points="793.49,157.84,783.9374,155.4427,788.5641,158.6975,785.3093,163.3242,793.49,157.84" style="stroke:#181818;stroke-width:1;"/><text fill="#000000" font-family="sans-serif" font-size="13" lengthAdjust="spacing" textLength="100.5215" x="639.5" y="162.0669">abrirRegiones()</text></g><!--link ListRegiones to UnivDisponible--><g class="link" data-entity-1="ListRegiones" data-entity-2="UnivDisponible" data-source-line="22" data-uid="lnk7" id="link_ListRegiones_UnivDisponible"><path d="M819.35,169.04 C800.07,178.03 783,186 783,186 C783,186 753,212 753,212 C753,212 626,264 626,264 C626,264 576.1184,296.252 536.8684,321.632" fill="none" id="ListRegiones-to-UnivDisponible" style="stroke:#181818;stroke-width:1;"/><polygon fill="#181818" points="531.83,324.89,541.5596,323.362,536.0287,322.175,537.2157,316.6441,531.83,324.89" style="stroke:#181818;stroke-width:1;"/><text fill="#000000" font-family="sans-serif" font-size="13" lengthAdjust="spacing" textLength="125.9248" x="627" y="208.0669">completarGestion()</text></g><!--link UnivDisponible to ListPlantas--><g class="link" data-entity-1="UnivDisponible" data-entity-2="ListPlantas" data-source-line="23" data-uid="lnk8" id="link_UnivDisponible_ListPlantas"><path d="M563.78,324.99 C595.55,313.76 626,303 626,303 C626,303 719.2609,292.0495 791.9309,283.5195" fill="none" id="UnivDisponible-to-ListPlantas" style="stroke:#181818;stroke-width:1;"/><polygon fill="#181818" points="797.89,282.82,788.485,279.8965,792.9241,283.4029,789.4177,287.8419,797.89,282.82" style="stroke:#181818;stroke-width:1;"/><text fill="#000000" font-family="sans-serif" font-size="13" lengthAdjust="spacing" textLength="88.1563" x="645.5" y="285.0669">abrirPlantas()</text></g><!--link ListPlantas to UnivDisponible--><g class="link" data-entity-1="ListPlantas" data-entity-2="UnivDisponible" data-source-line="24" data-uid="lnk9" id="link_ListPlantas_UnivDisponible"><path d="M817.22,299.1 C785.88,313.2 753,328 753,328 C753,328 674.6987,334.6243 602.1087,340.7643" fill="none" id="ListPlantas-to-UnivDisponible" style="stroke:#181818;stroke-width:1;"/><polygon fill="#181818" points="596.13,341.27,605.4351,344.4972,601.1122,340.8486,604.7608,336.5257,596.13,341.27" style="stroke:#181818;stroke-width:1;"/><text fill="#000000" font-family="sans-serif" font-size="13" lengthAdjust="spacing" textLength="125.9248" x="627" y="324.0669">completarGestion()</text></g><!--link UnivDisponible to ListEspacios--><g class="link" data-entity-1="UnivDisponible" data-entity-2="ListEspacios" data-source-line="25" data-uid="lnk10" id="link_UnivDisponible_ListEspacios"><path d="M596.08,370.89 C658.72,383.58 731.5496,398.3382 789.0296,409.9882" fill="none" id="UnivDisponible-to-ListEspacios" style="stroke:#181818;stroke-width:1;"/><polygon fill="#181818" points="794.91,411.18,786.8839,405.4719,790.0096,410.1868,785.2948,413.3125,794.91,411.18" style="stroke:#181818;stroke-width:1;"/><text fill="#000000" font-family="sans-serif" font-size="13" lengthAdjust="spacing" textLength="97.354" x="641" y="373.0669">abrirEspacios()</text></g><!--link ListEspacios to UnivDisponible--><g class="link" data-entity-1="ListEspacios" data-entity-2="UnivDisponible" data-source-line="26" data-uid="lnk11" id="link_ListEspacios_UnivDisponible"><path d="M794.85,427 C722.48,427 626,427 626,427 C626,427 580.5324,400.6765 541.7424,378.2165" fill="none" id="ListEspacios-to-UnivDisponible" style="stroke:#181818;stroke-width:1;"/><polygon fill="#181818" points="536.55,375.21,542.3343,383.1813,540.877,377.7154,546.3429,376.2581,536.55,375.21" style="stroke:#181818;stroke-width:1;"/><text fill="#000000" font-family="sans-serif" font-size="13" lengthAdjust="spacing" textLength="125.9248" x="627" y="423.0669">completarGestion()</text></g><!--link UnivDisponible to ListRecorridos--><g class="link" data-entity-1="UnivDisponible" data-entity-2="ListRecorridos" data-source-line="27" data-uid="lnk12" id="link_UnivDisponible_ListRecorridos"><path d="M525.88,375.21 C565.26,405.42 626,452 626,452 C626,452 735.568,498.5832 808.628,529.6332" fill="none" id="UnivDisponible-to-ListRecorridos" style="stroke:#181818;stroke-width:1;"/><polygon fill="#181818" points="814.15,531.98,807.4315,524.7784,809.5483,530.0243,804.3025,532.1411,814.15,531.98" style="stroke:#181818;stroke-width:1;"/><text fill="#000000" font-family="sans-serif" font-size="13" lengthAdjust="spacing" textLength="110.0747" x="634.5" y="448.0669">abrirRecorridos()</text></g><!--link ListRecorridos to UnivDisponible--><g class="link" data-entity-1="ListRecorridos" data-entity-2="UnivDisponible" data-source-line="28" data-uid="lnk13" id="link_ListRecorridos_UnivDisponible"><path d="M782.78,546.77 C712.22,538.77 626,529 626,529 C626,529 552.019,429.4256 515.349,380.0856" fill="none" id="ListRecorridos-to-UnivDisponible" style="stroke:#181818;stroke-width:1;"/><polygon fill="#181818" points="511.77,375.27,513.9281,384.8795,514.7525,379.283,520.349,380.1074,511.77,375.27" style="stroke:#181818;stroke-width:1;"/><text fill="#000000" font-family="sans-serif" font-size="13" lengthAdjust="spacing" textLength="125.9248" x="627" y="525.0669">completarGestion()</text></g><!--link ListRegiones to EditRegion--><g class="link" data-entity-1="ListRegiones" data-entity-2="EditRegion" data-source-line="30" data-uid="lnk14" id="link_ListRegiones_EditRegion"><path d="M918.66,118.89 C952.97,99.17 995,75 995,75 C995,75 1108,75 1108,75 C1108,75 1123.0116,77.3356 1147.0616,81.0856" fill="none" id="ListRegiones-to-EditRegion" style="stroke:#181818;stroke-width:1;"/><polygon fill="#181818" points="1152.99,82.01,1144.7137,76.6712,1148.0497,81.2397,1143.4812,84.5757,1152.99,82.01" style="stroke:#181818;stroke-width:1;"/><text fill="#000000" font-family="sans-serif" font-size="13" lengthAdjust="spacing" textLength="89.0322" x="1007" y="71.0669">crearRegion()</text></g><!--link ListRegiones to EditRegion--><g class="link" data-entity-1="ListRegiones" data-entity-2="EditRegion" data-source-line="31" data-uid="lnk15" id="link_ListRegiones_EditRegion"><path d="M954.52,132.36 C1014.28,123.62 1089.4734,112.6196 1146.9534,104.1996" fill="none" id="ListRegiones-to-EditRegion-1" style="stroke:#181818;stroke-width:1;"/><polygon fill="#181818" points="1152.89,103.33,1143.4053,100.6767,1147.9428,104.0547,1144.5648,108.5922,1152.89,103.33" style="stroke:#181818;stroke-width:1;"/><text fill="#000000" font-family="sans-serif" font-size="13" lengthAdjust="spacing" textLength="93.501" x="1005" y="107.0669">editarRegion()</text></g><!--link EditRegion to ListRegiones--><g class="link" data-entity-1="EditRegion" data-entity-2="ListRegiones" data-source-line="34" data-uid="lnk18" id="link_EditRegion_ListRegiones"><path d="M1174.52,118.02 C1143.04,134.1 1108,152 1108,152 C1108,152 995,152 995,152 C995,152 982.8567,151.1898 960.6967,149.7098" fill="none" id="EditRegion-to-ListRegiones" style="stroke:#181818;stroke-width:1;"/><polygon fill="#181818" points="954.71,149.31,963.4234,153.9009,959.6989,149.6432,963.9565,145.9186,954.71,149.31" style="stroke:#181818;stroke-width:1;"/><text fill="#000000" font-family="sans-serif" font-size="13" lengthAdjust="spacing" textLength="100.5215" x="1001.5" y="148.0669">abrirRegiones()</text></g><!--link ListRegiones to ListRegiones--><g class="link" data-entity-1="ListRegiones" data-entity-2="ListRegiones" data-source-line="32" data-uid="lnk16" id="link_ListRegiones_ListRegiones"><path d="M844.22,118.72 C835.2,101.23 845.12,84 874,84 C902.88,84 915.5501,95.8974 906.5301,113.3874" fill="none" id="ListRegiones-to-ListRegiones" style="stroke:#181818;stroke-width:1;"/><polygon fill="#181818" points="903.78,118.72,911.4603,112.5545,906.0718,114.2762,904.3502,108.8877,903.78,118.72" style="stroke:#181818;stroke-width:1;"/><text fill="#000000" font-family="sans-serif" font-size="13" lengthAdjust="spacing" textLength="108.2783" x="820" y="75.0669">eliminarRegion()</text></g><!--link EditRegion to EditRegion--><g class="link" data-entity-1="EditRegion" data-entity-2="EditRegion" data-source-line="33" data-uid="lnk17" id="link_EditRegion_EditRegion"><path d="M1195.4,67.72 C1186.58,50.23 1196.28,33 1224.5,33 C1252.72,33 1265.1216,44.8727 1256.3016,62.3627" fill="none" id="EditRegion-to-EditRegion" style="stroke:#181818;stroke-width:1;"/><polygon fill="#181818" points="1253.6,67.72,1261.224,61.4851,1255.8514,63.2555,1254.0809,57.8829,1253.6,67.72" style="stroke:#181818;stroke-width:1;"/><text fill="#000000" font-family="sans-serif" font-size="13" lengthAdjust="spacing" textLength="93.501" x="1178" y="24.0669">editarRegion()</text></g><!--link ListPlantas to EditPlanta--><g class="link" data-entity-1="ListPlantas" data-entity-2="EditPlanta" data-source-line="36" data-uid="lnk19" id="link_ListPlantas_EditPlanta"><path d="M950.32,256.43 C974.43,250.8 995,246 995,246 C995,246 1108,246 1108,246 C1108,246 1123.0116,248.3356 1147.0616,252.0856" fill="none" id="ListPlantas-to-EditPlanta" style="stroke:#181818;stroke-width:1;"/><polygon fill="#181818" points="1152.99,253.01,1144.7137,247.6712,1148.0497,252.2397,1143.4812,255.5757,1152.99,253.01" style="stroke:#181818;stroke-width:1;"/><text fill="#000000" font-family="sans-serif" font-size="13" lengthAdjust="spacing" textLength="84.665" x="1009.5" y="242.0669">crearPlanta()</text></g><!--link ListPlantas to EditPlanta--><g class="link" data-entity-1="ListPlantas" data-entity-2="EditPlanta" data-source-line="37" data-uid="lnk20" id="link_ListPlantas_EditPlanta"><path d="M950.01,273.03 C1018.12,272.16 1108,271 1108,271 C1108,271 1122.951,270.0936 1147.001,268.6336" fill="none" id="ListPlantas-to-EditPlanta-1" style="stroke:#181818;stroke-width:1;"/><polygon fill="#181818" points="1152.99,268.27,1143.7642,264.8227,1147.9992,268.573,1144.2489,272.808,1152.99,268.27" style="stroke:#181818;stroke-width:1;"/><text fill="#000000" font-family="sans-serif" font-size="13" lengthAdjust="spacing" textLength="89.1338" x="1007" y="267.0669">editarPlanta()</text></g><!--link EditPlanta to ListPlantas--><g class="link" data-entity-1="EditPlanta" data-entity-2="ListPlantas" data-source-line="40" data-uid="lnk23" id="link_EditPlanta_ListPlantas"><path d="M1152.99,284.76 C1128.94,291.84 1108,298 1108,298 C1108,298 995,298 995,298 C995,298 980.3131,295.0686 956.2031,290.2386" fill="none" id="EditPlanta-to-ListPlantas" style="stroke:#181818;stroke-width:1;"/><polygon fill="#181818" points="950.32,289.06,958.3589,294.7499,955.2226,290.0421,959.9304,286.9058,950.32,289.06" style="stroke:#181818;stroke-width:1;"/><text fill="#000000" font-family="sans-serif" font-size="13" lengthAdjust="spacing" textLength="88.1563" x="1007.5" y="294.0669">abrirPlantas()</text></g><!--link ListPlantas to ListPlantas--><g class="link" data-entity-1="ListPlantas" data-entity-2="ListPlantas" data-source-line="38" data-uid="lnk21" id="link_ListPlantas_ListPlantas"><path d="M844.22,248.72 C835.2,231.23 845.12,214 874,214 C902.88,214 915.5501,225.8974 906.5301,243.3874" fill="none" id="ListPlantas-to-ListPlantas" style="stroke:#181818;stroke-width:1;"/><polygon fill="#181818" points="903.78,248.72,911.4603,242.5545,906.0718,244.2762,904.3502,238.8877,903.78,248.72" style="stroke:#181818;stroke-width:1;"/><text fill="#000000" font-family="sans-serif" font-size="13" lengthAdjust="spacing" textLength="103.9111" x="822.5" y="205.0669">eliminarPlanta()</text></g><!--link EditPlanta to EditPlanta--><g class="link" data-entity-1="EditPlanta" data-entity-2="EditPlanta" data-source-line="39" data-uid="lnk22" id="link_EditPlanta_EditPlanta"><path d="M1195.4,238.72 C1186.58,221.23 1196.28,204 1224.5,204 C1252.72,204 1265.1216,215.8727 1256.3016,233.3627" fill="none" id="EditPlanta-to-EditPlanta" style="stroke:#181818;stroke-width:1;"/><polygon fill="#181818" points="1253.6,238.72,1261.224,232.4851,1255.8514,234.2555,1254.0809,228.8829,1253.6,238.72" style="stroke:#181818;stroke-width:1;"/><text fill="#000000" font-family="sans-serif" font-size="13" lengthAdjust="spacing" textLength="89.1338" x="1180" y="195.0669">editarPlanta()</text></g><!--link ListEspacios to EditEspacio--><g class="link" data-entity-1="ListEspacios" data-entity-2="EditEspacio" data-source-line="42" data-uid="lnk24" id="link_ListEspacios_EditEspacio"><path d="M953.03,420.5 C975.95,418.59 995,417 995,417 C995,417 1108,417 1108,417 C1108,417 1121.1316,419.0457 1143.7716,422.5757" fill="none" id="ListEspacios-to-EditEspacio" style="stroke:#181818;stroke-width:1;"/><polygon fill="#181818" points="1149.7,423.5,1141.4237,418.1612,1144.7597,422.7297,1140.1912,426.0657,1149.7,423.5" style="stroke:#181818;stroke-width:1;"/><text fill="#000000" font-family="sans-serif" font-size="13" lengthAdjust="spacing" textLength="93.8628" x="1005" y="413.0669">crearEspacio()</text></g><!--link ListEspacios to EditEspacio--><g class="link" data-entity-1="ListEspacios" data-entity-2="EditEspacio" data-source-line="43" data-uid="lnk25" id="link_ListEspacios_EditEspacio"><path d="M953.03,436.75 C975.95,439.62 995,442 995,442 C995,442 1108,442 1108,442 C1108,442 1121.071,441.2024 1143.711,439.8324" fill="none" id="ListEspacios-to-EditEspacio-1" style="stroke:#181818;stroke-width:1;"/><polygon fill="#181818" points="1149.7,439.47,1140.4748,436.0209,1144.7091,439.772,1140.958,444.0063,1149.7,439.47" style="stroke:#181818;stroke-width:1;"/><text fill="#000000" font-family="sans-serif" font-size="13" lengthAdjust="spacing" textLength="98.3315" x="1002.5" y="438.0669">editarEspacio()</text></g><!--link EditEspacio to ListEspacios--><g class="link" data-entity-1="EditEspacio" data-entity-2="ListEspacios" data-source-line="46" data-uid="lnk28" id="link_EditEspacio_ListEspacios"><path d="M1149.7,455.45 C1127.06,461.72 1108,467 1108,467 C1108,467 995,467 995,467 C995,467 980.1226,462.0359 956.0126,454.0059" fill="none" id="EditEspacio-to-ListEspacios" style="stroke:#181818;stroke-width:1;"/><polygon fill="#181818" points="950.32,452.11,957.5949,458.749,955.0638,453.69,960.1228,451.1589,950.32,452.11" style="stroke:#181818;stroke-width:1;"/><text fill="#000000" font-family="sans-serif" font-size="13" lengthAdjust="spacing" textLength="97.354" x="1003" y="463.0669">abrirEspacios()</text></g><!--link ListEspacios to ListEspacios--><g class="link" data-entity-1="ListEspacios" data-entity-2="ListEspacios" data-source-line="44" data-uid="lnk26" id="link_ListEspacios_ListEspacios"><path d="M844.22,401.72 C835.2,384.23 845.12,367 874,367 C902.88,367 915.5501,378.8974 906.5301,396.3874" fill="none" id="ListEspacios-to-ListEspacios" style="stroke:#181818;stroke-width:1;"/><polygon fill="#181818" points="903.78,401.72,911.4603,395.5545,906.0718,397.2762,904.3502,391.8877,903.78,401.72" style="stroke:#181818;stroke-width:1;"/><text fill="#000000" font-family="sans-serif" font-size="13" lengthAdjust="spacing" textLength="113.1089" x="817.5" y="358.0669">eliminarEspacio()</text></g><!--link EditEspacio to EditEspacio--><g class="link" data-entity-1="EditEspacio" data-entity-2="EditEspacio" data-source-line="45" data-uid="lnk27" id="link_EditEspacio_EditEspacio"><path d="M1195.4,409.72 C1186.58,392.23 1196.28,375 1224.5,375 C1252.72,375 1265.1216,386.8727 1256.3016,404.3627" fill="none" id="EditEspacio-to-EditEspacio" style="stroke:#181818;stroke-width:1;"/><polygon fill="#181818" points="1253.6,409.72,1261.224,403.4851,1255.8514,405.2555,1254.0809,399.8829,1253.6,409.72" style="stroke:#181818;stroke-width:1;"/><text fill="#000000" font-family="sans-serif" font-size="13" lengthAdjust="spacing" textLength="98.3315" x="1175.5" y="366.0669">editarEspacio()</text></g><!--link ListRecorridos to EditRecorrido--><g class="link" data-entity-1="ListRecorridos" data-entity-2="EditRecorrido" data-source-line="48" data-uid="lnk29" id="link_ListRecorridos_EditRecorrido"><path d="M965.08,568.99 C1030.65,577.71 1108,588 1108,588 C1108,588 1114.802,589.053 1131.812,591.713" fill="none" id="ListRecorridos-to-EditRecorrido" style="stroke:#181818;stroke-width:1;"/><polygon fill="#181818" points="1137.74,592.64,1129.4661,587.2975,1132.8,591.8675,1128.2301,595.2015,1137.74,592.64" style="stroke:#181818;stroke-width:1;"/><text fill="#000000" font-family="sans-serif" font-size="13" lengthAdjust="spacing" textLength="106.5835" x="998.5" y="569.0669">crearRecorrido()</text></g><!--link ListRecorridos to EditRecorrido--><g class="link" data-entity-1="ListRecorridos" data-entity-2="EditRecorrido" data-source-line="49" data-uid="lnk30" id="link_ListRecorridos_EditRecorrido"><path d="M928.68,582.05 C960.63,596.96 995,613 995,613 C995,613 1108,613 1108,613 C1108,613 1114.741,612.5927 1131.751,611.5627" fill="none" id="ListRecorridos-to-EditRecorrido-1" style="stroke:#181818;stroke-width:1;"/><polygon fill="#181818" points="1137.74,611.2,1128.5147,607.7513,1132.7491,611.5022,1128.9982,615.7367,1137.74,611.2" style="stroke:#181818;stroke-width:1;"/><text fill="#000000" font-family="sans-serif" font-size="13" lengthAdjust="spacing" textLength="111.0522" x="996" y="609.0669">editarRecorrido()</text></g><!--link EditRecorrido to ListRecorridos--><g class="link" data-entity-1="EditRecorrido" data-entity-2="ListRecorridos" data-source-line="52" data-uid="lnk33" id="link_EditRecorrido_ListRecorridos"><path d="M1137.74,629.76 C1120.73,634.47 1108,638 1108,638 C1108,638 995,638 995,638 C995,638 952.5131,609.3168 917.2831,585.5368" fill="none" id="EditRecorrido-to-ListRecorridos" style="stroke:#181818;stroke-width:1;"/><polygon fill="#181818" points="912.31,582.18,917.5318,590.5306,916.4543,584.9773,922.0075,583.8998,912.31,582.18" style="stroke:#181818;stroke-width:1;"/><text fill="#000000" font-family="sans-serif" font-size="13" lengthAdjust="spacing" textLength="110.0747" x="996.5" y="634.0669">abrirRecorridos()</text></g><!--link ListRecorridos to ListRecorridos--><g class="link" data-entity-1="ListRecorridos" data-entity-2="ListRecorridos" data-source-line="50" data-uid="lnk31" id="link_ListRecorridos_ListRecorridos"><path d="M844.22,531.72 C835.2,514.23 845.12,497 874,497 C902.88,497 915.5501,508.8974 906.5301,526.3874" fill="none" id="ListRecorridos-to-ListRecorridos" style="stroke:#181818;stroke-width:1;"/><polygon fill="#181818" points="903.78,531.72,911.4603,525.5545,906.0718,527.2762,904.3502,521.8877,903.78,531.72" style="stroke:#181818;stroke-width:1;"/><text fill="#000000" font-family="sans-serif" font-size="13" lengthAdjust="spacing" textLength="125.8296" x="811.5" y="488.0669">eliminarRecorrido()</text></g><!--link EditRecorrido to EditRecorrido--><g class="link" data-entity-1="EditRecorrido" data-entity-2="EditRecorrido" data-source-line="51" data-uid="lnk32" id="link_EditRecorrido_EditRecorrido"><path d="M1195.4,580.72 C1186.58,563.23 1196.28,546 1224.5,546 C1252.72,546 1265.1216,557.8727 1256.3016,575.3627" fill="none" id="EditRecorrido-to-EditRecorrido" style="stroke:#181818;stroke-width:1;"/><polygon fill="#181818" points="1253.6,580.72,1261.224,574.4851,1255.8514,576.2555,1254.0809,570.8829,1253.6,580.72" style="stroke:#181818;stroke-width:1;"/><text fill="#000000" font-family="sans-serif" font-size="13" lengthAdjust="spacing" textLength="111.0522" x="1169" y="537.0669">editarRecorrido()</text></g><!--SRC=[fPJTIiCm5CVl-nJ1AnLy0I-4RWrI6ErefpSY8tPH3tPDIQBWsnlNfFdS9dYrdUHt_YVdgprzbKWonE7jNQ8TSDf9O4CcFc0O2ITxrCD0vVT8qSZwxryZouGaagAB5hTbNMsNk6do8hz0HA2AvP_otG0FLVc8cxOiyc9RbEswhih52X_0Xm6-2X0Z6-2bjv8DlbUIkDtcYn8tc_h0ha38XhwfPr7XWnw6Tw0n0wrNURN9Ox5rJmP9X8z5MXDb8DokysLPns9OZAG39W8majESJM1PDqrPrAbSEyOvx9Y8u4J2cisof-jdT7DpPtgGJR-78x_Qw1R101qGtbAXodLvbGM0bL5iHpbtq1JhTaXva1SEtDZAnRjElgTZ-x6dal1xAkJH9pczCr6qgOEOot_6C2qrGOojeypN_mnZ-snhPaxcgit8NuF5rRQBeHmu9RergSQuA5N_Jx7kWQ9xsCFWy5Rgd790-hhXB4LzjgkgivkCn4IuvFI4ewXZszHcsWgTqmr8JpQOttYqdA-6JarRgJdquEaL9sZtm2Pe7Hory-eXx8k76vIQQ-zBDW-fjjEh4BYOaJhfun-vCslTFDs_HOfTma3HSly0]--></g></svg>