<svg xmlns="http://www.w3.org/2000/svg" xmlns:xlink="http://www.w3.org/1999/xlink" contentStyleType="text/css" data-diagram-type="STATE" height="730px" preserveAspectRatio="none" style="width:350px;height:730px;background:#FFFFFF;" version="1.1" viewBox="0 0 350 730" width="350px" zoomAndPan="magnify"><defs/><g><path d="M19.5,7 L324,7 A12.5,12.5 0 0 1 336.5,19.5 L336.5,33.2969 L7,33.2969 L7,19.5 A12.5,12.5 0 0 1 19.5,7" fill="#F1F1F1"/><rect fill="none" height="572.2969" rx="12.5" ry="12.5" style="stroke:#181818;stroke-width:0.5;" width="329.5" x="7" y="7"/><line style="stroke:#181818;stroke-width:0.5;" x1="7" x2="336.5" y1="33.2969" y2="33.2969"/><text fill="#000000" font-family="sans-serif" font-size="14" lengthAdjust="spacing" textLength="121.707" x="110.8965" y="24.9951">cambiarEspacio()</text><g id="cambiarEspacio.SolicitandoCambio"><rect fill="#F1F1F1" height="50" rx="12.5" ry="12.5" style="stroke:#181818;stroke-width:0.5;" width="50" x="81.5" y="150.2969"/><line style="stroke:#181818;stroke-width:0.5;" x1="81.5" x2="131.5" y1="176.5938" y2="176.5938"/><text fill="#000000" font-family="sans-serif" font-size="14" lengthAdjust="spacing" textLength="4.4502" x="104.2749" y="168.292">&#160;</text></g><g id="cambiarEspacio.SeleccionandoEspacio"><rect fill="#F1F1F1" height="50" rx="12.5" ry="12.5" style="stroke:#181818;stroke-width:0.5;" width="175.3877" x="19" y="301.2969"/><line style="stroke:#181818;stroke-width:0.5;" x1="19" x2="194.3877" y1="327.5938" y2="327.5938"/><text fill="#000000" font-family="sans-serif" font-size="14" lengthAdjust="spacing" textLength="155.3877" x="29" y="319.292">SeleccionandoEsapcio</text></g><g class="entity" data-entity="c" data-uid="ent0005" id="entity_c"><polygon fill="#F1F1F1" points="106.5,452.2969,118.5,464.2969,106.5,476.2969,94.5,464.2969,106.5,452.2969" style="stroke:#181818;stroke-width:0.5;"/></g><ellipse cx="106.5" cy="54.2969" fill="#222222" rx="10" ry="10" style="stroke:#222222;stroke-width:1;"/><ellipse cx="106.5" cy="558.2969" fill="none" rx="11" ry="11" style="stroke:#222222;stroke-width:1;"/><ellipse cx="106.5" cy="558.2969" fill="#222222" rx="6" ry="6" style="stroke:#222222;stroke-width:1;"/><!--link *start*cambiarEspacio to SolicitandoCambio--><g class="link" data-entity-1=".start.cambiarEspacio" data-entity-2="SolicitandoCambio" data-source-line="9" data-uid="lnk3" id="link_.start.cambiarEspacio_SolicitandoCambio"><path d="M106.5,64.6369 C106.5,82.8269 106.5,117.5369 106.5,143.9069" fill="none" id="*start*cambiarEspacio-to-SolicitandoCambio" style="stroke:#008000;stroke-width:1;"/><polygon fill="#008000" points="106.5,149.9069,110.5,140.9069,106.5,144.9069,102.5,140.9069,106.5,149.9069" style="stroke:#008000;stroke-width:1;"/><path d="M111.5,87.2969 L111.5,127.2969 L327.5,127.2969 L327.5,97.2969 L317.5,87.2969 L111.5,87.2969" fill="#FEFFDD" style="stroke:#181818;stroke-width:0.5;"/><path d="M317.5,87.2969 L317.5,97.2969 L327.5,97.2969 L317.5,87.2969" fill="#FEFFDD" style="stroke:#181818;stroke-width:0.5;"/><text fill="#000000" font-family="sans-serif" font-size="13" font-weight="bold" lengthAdjust="spacing" textLength="65.9839" x="117.5" y="104.3638">Visitante</text><text fill="#000000" font-family="sans-serif" font-size="13" lengthAdjust="spacing" textLength="102.8574" x="187.6162" y="104.3638">solicita cambiar</text><text fill="#000000" font-family="sans-serif" font-size="13" lengthAdjust="spacing" textLength="125.4741" x="187.7495" y="119.4966">su ubicaci&#243;n actual</text></g><!--link SolicitandoCambio to SeleccionandoEspacio--><g class="link" data-entity-1="SolicitandoCambio" data-entity-2="SeleccionandoEspacio" data-source-line="15" data-uid="lnk4" id="link_SolicitandoCambio_SeleccionandoEspacio"><path d="M106.5,200.5669 C106.5,228.2769 106.5,267.3369 106.5,295.0369" fill="none" id="SolicitandoCambio-to-SeleccionandoEspacio" style="stroke:#008000;stroke-width:1;"/><polygon fill="#008000" points="106.5,301.0369,110.5,292.0369,106.5,296.0369,102.5,292.0369,106.5,301.0369" style="stroke:#008000;stroke-width:1;"/><path d="M111.5,223.2969 L111.5,278.2969 L290.5,278.2969 L290.5,233.2969 L280.5,223.2969 L111.5,223.2969" fill="#FEFFDD" style="stroke:#181818;stroke-width:0.5;"/><path d="M280.5,223.2969 L280.5,233.2969 L290.5,233.2969 L280.5,223.2969" fill="#FEFFDD" style="stroke:#181818;stroke-width:0.5;"/><text fill="#000000" font-family="sans-serif" font-size="13" font-weight="bold" lengthAdjust="spacing" textLength="58.9063" x="117.5" y="240.3638">Sistema</text><text fill="#000000" font-family="sans-serif" font-size="13" lengthAdjust="spacing" textLength="57.6685" x="180.5386" y="240.3638">presenta</text><text fill="#000000" font-family="sans-serif" font-size="13" lengthAdjust="spacing" textLength="158.6914" x="117.5" y="255.4966">&#8226; Opciones de ubicaci&#243;n</text><text fill="#000000" font-family="sans-serif" font-size="13" lengthAdjust="spacing" textLength="121.0942" x="117.5" y="270.6294">&#8226; Mapa interactivo</text></g><!--link SeleccionandoEspacio to c--><g class="link" data-entity-1="SeleccionandoEspacio" data-entity-2="c" data-source-line="22" data-uid="lnk5" id="link_SeleccionandoEspacio_c"><path d="M106.5,351.2969 C106.5,380.8869 106.5,423.9469 106.5,445.9769" fill="none" id="SeleccionandoEspacio-to-c" style="stroke:#008000;stroke-width:1;"/><polygon fill="#008000" points="106.5,451.9769,110.5,442.9769,106.5,446.9769,102.5,442.9769,106.5,451.9769" style="stroke:#008000;stroke-width:1;"/><path d="M111.5,374.2969 L111.5,429.2969 L317.5,429.2969 L317.5,384.2969 L307.5,374.2969 L111.5,374.2969" fill="#FEFFDD" style="stroke:#181818;stroke-width:0.5;"/><path d="M307.5,374.2969 L307.5,384.2969 L317.5,384.2969 L307.5,374.2969" fill="#FEFFDD" style="stroke:#181818;stroke-width:0.5;"/><text fill="#000000" font-family="sans-serif" font-size="13" font-weight="bold" lengthAdjust="spacing" textLength="65.9839" x="117.5" y="391.3638">Visitante</text><text fill="#000000" font-family="sans-serif" font-size="13" lengthAdjust="spacing" textLength="45.7729" x="187.6162" y="391.3638">solicita</text><text fill="#000000" font-family="sans-serif" font-size="13" lengthAdjust="spacing" textLength="185.2183" x="117.5" y="406.4966">&#8226; confirmar nueva ubicaci&#243;n</text><text fill="#000000" font-family="sans-serif" font-size="13" lengthAdjust="spacing" textLength="118.9487" x="117.5" y="421.6294">&#8226; cancelar cambio</text></g><!--link c to *end*cambiarEspacio--><g class="link" data-entity-1="c" data-entity-2=".end.cambiarEspacio" data-source-line="29" data-uid="lnk7" id="link_c_.end.cambiarEspacio"><path d="M106.5,476.5769 C106.5,494.6169 106.5,523.6969 106.5,541.0569" fill="none" id="c-to-*end*cambiarEspacio" style="stroke:#008000;stroke-width:1;"/><polygon fill="#008000" points="106.5,547.0569,110.5,538.0569,106.5,542.0569,102.5,538.0569,106.5,547.0569" style="stroke:#008000;stroke-width:1;"/><path d="M111.5,499.2969 L111.5,524.2969 L262.5,524.2969 L262.5,509.2969 L252.5,499.2969 L111.5,499.2969" fill="#FEFFDD" style="stroke:#181818;stroke-width:0.5;"/><path d="M252.5,499.2969 L252.5,509.2969 L262.5,509.2969 L252.5,499.2969" fill="#FEFFDD" style="stroke:#181818;stroke-width:0.5;"/><text fill="#000000" font-family="sans-serif" font-size="13" lengthAdjust="spacing" textLength="130.9141" x="117.5" y="516.3638">confirmar / cancelar</text></g><g id="Explorando"><rect fill="#F1F1F1" height="50" rx="12.5" ry="12.5" style="stroke:#181818;stroke-width:0.5;" width="99.1328" x="122.5" y="674"/><line style="stroke:#181818;stroke-width:0.5;" x1="122.5" x2="221.6328" y1="700.2969" y2="700.2969"/><text fill="#000000" font-family="sans-serif" font-size="14" lengthAdjust="spacing" textLength="79.1328" x="132.5" y="691.9951">Explorando</text></g><!--link cambiarEspacio to Explorando--><g class="link" data-entity-1="cambiarEspacio" data-entity-2="Explorando" data-source-line="35" data-uid="lnk9" id="link_cambiarEspacio_Explorando"><path d="M172,579.24 C172,618.34 172,646.39 172,667.89" fill="none" id="cambiarEspacio-to-Explorando" style="stroke:#008000;stroke-width:1;"/><polygon fill="#008000" points="172,673.89,176,664.89,172,668.89,168,664.89,172,673.89" style="stroke:#008000;stroke-width:1;"/><path d="M177,614 L177,639 L247,639 L247,624 L237,614 L177,614" fill="#FEFFDD" style="stroke:#181818;stroke-width:0.5;"/><path d="M237,614 L237,624 L247,624 L237,614" fill="#FEFFDD" style="stroke:#181818;stroke-width:0.5;"/><text fill="#000000" font-family="sans-serif" font-size="13" lengthAdjust="spacing" textLength="49.6768" x="183" y="631.0669">regresa</text></g><!--SRC=[bP91JiCm44NtFiMeR02fwWMYR52NY4KaDbKNa-a0LXtRifsA2Y5n5gx04RW99y5EQ1gJiC2H8iVp_yoRYVrUQeiE6r1ISpXQ1clKCNq8uGC61iAcbkZMtY990-XXaHzTNYtWHGY8gtSiuXDbbL6IP42zCpV9OCQIYXLJDEiKNdkqST-xya1NOMGaA0fwCfAuBFkQc-ijB3SNZuvPRvVbj2nqCcsYs-ZKvxuxAEhoNlea35oiwXByZ_7KSU-RBDz2MqkAN9yV6f12YwfJijxrLU8ImskAay7-rUqSRYLzu0OxMElOimxOnRxUtk4kJL2pXnsF-8RmBLe46LjraLWUJ4OyeftXoO3fdyCS0CZe1-cQE5RTyW7d60ariOeAEb-NAI9bFF7lpnETwws6n7d6Lo5-tUrnulMpLSQbCOWij-CeyIXEQRu1]--></g></svg>