<svg xmlns="http://www.w3.org/2000/svg" xmlns:xlink="http://www.w3.org/1999/xlink" contentStyleType="text/css" data-diagram-type="STATE" height="397px" preserveAspectRatio="none" style="width:323px;height:397px;background:#FFFFFF;" version="1.1" viewBox="0 0 323 397" width="323px" zoomAndPan="magnify"><defs/><g><ellipse cx="173.65" cy="16" fill="#222222" rx="10" ry="10" style="stroke:#222222;stroke-width:1;"/><g id="Inactivo"><rect fill="#F1F1F1" height="50" rx="12.5" ry="12.5" style="stroke:#181818;stroke-width:0.5;" width="75.5078" x="135.65" y="87"/><line style="stroke:#181818;stroke-width:0.5;" x1="135.65" x2="211.1578" y1="113.2969" y2="113.2969"/><text fill="#000000" font-family="sans-serif" font-size="14" lengthAdjust="spacing" textLength="55.5078" x="145.65" y="104.9951">Inactivo</text></g><g id="Explorando"><rect fill="#F1F1F1" height="50" rx="12.5" ry="12.5" style="stroke:#181818;stroke-width:0.5;" width="99.1328" x="43.15" y="214"/><line style="stroke:#181818;stroke-width:0.5;" x1="43.15" x2="142.2828" y1="240.2969" y2="240.2969"/><text fill="#000000" font-family="sans-serif" font-size="14" lengthAdjust="spacing" textLength="79.1328" x="53.15" y="231.9951">Explorando</text></g><g id="Consultando"><rect fill="#F1F1F1" height="50" rx="12.5" ry="12.5" style="stroke:#181818;stroke-width:0.5;" width="107.6641" x="38.65" y="341"/><line style="stroke:#181818;stroke-width:0.5;" x1="38.65" x2="146.3141" y1="367.2969" y2="367.2969"/><text fill="#000000" font-family="sans-serif" font-size="14" lengthAdjust="spacing" textLength="87.6641" x="48.65" y="358.9951">Consultando</text></g><ellipse cx="306.65" cy="239" fill="none" rx="11" ry="11" style="stroke:#222222;stroke-width:1;"/><ellipse cx="306.65" cy="239" fill="#222222" rx="6" ry="6" style="stroke:#222222;stroke-width:1;"/><!--link *start* to Inactivo--><g class="link" data-entity-1="*start*" data-entity-2="Inactivo" data-source-line="1" data-uid="lnk4" id="link_*start*_Inactivo"><path d="M173.65,26.01 C173.65,39.89 173.65,60.97 173.65,80.84" fill="none" id="*start*-to-Inactivo" style="stroke:#181818;stroke-width:1;"/><polygon fill="#181818" points="173.65,86.84,177.65,77.84,173.65,81.84,169.65,77.84,173.65,86.84" style="stroke:#181818;stroke-width:1;"/></g><!--link Inactivo to Explorando--><g class="link" data-entity-1="Inactivo" data-entity-2="Explorando" data-source-line="3" data-uid="lnk6" id="link_Inactivo_Explorando"><path d="M135.29,127.5 C118.07,136.17 99.45,149.04 89.65,167 C81.91,181.19 81.7325,193.5488 84.5225,207.9988" fill="none" id="Inactivo-to-Explorando" style="stroke:#181818;stroke-width:1;"/><polygon fill="#181818" points="85.66,213.89,87.8813,204.2949,84.7121,208.9807,80.0263,205.8115,85.66,213.89" style="stroke:#181818;stroke-width:1;"/><text fill="#000000" font-family="sans-serif" font-size="13" lengthAdjust="spacing" textLength="39.5332" x="90.65" y="180.0669">iniciar</text></g><!--link Explorando to Inactivo--><g class="link" data-entity-1="Explorando" data-entity-2="Inactivo" data-source-line="7" data-uid="lnk11" id="link_Explorando_Inactivo"><path d="M112.74,213.88 C119.98,204.75 128,194.12 134.65,184 C144.54,168.96 151.5203,156.5325 158.8003,142.5425" fill="none" id="Explorando-to-Inactivo" style="stroke:#181818;stroke-width:1;"/><polygon fill="#181818" points="161.57,137.22,153.8672,143.3573,159.2619,141.6554,160.9638,147.0502,161.57,137.22" style="stroke:#181818;stroke-width:1;"/><text fill="#000000" font-family="sans-serif" font-size="13" lengthAdjust="spacing" textLength="27.3076" x="146.65" y="180.0669">salir</text></g><!--link Explorando to Explorando--><g class="link" data-entity-1="Explorando" data-entity-2="Explorando" data-source-line="4" data-uid="lnk7" id="link_Explorando_Explorando"><path d="M142.55,227.41 C161.49,226.96 177.15,230.83 177.15,239 C177.15,247.17 167.4883,251.1825 148.5483,250.7325" fill="none" id="Explorando-to-Explorando" style="stroke:#181818;stroke-width:1;"/><polygon fill="#181818" points="142.55,250.59,151.4525,254.8026,147.5486,250.7088,151.6425,246.8049,142.55,250.59" style="stroke:#181818;stroke-width:1;"/><text fill="#000000" font-family="sans-serif" font-size="13" lengthAdjust="spacing" textLength="88.2261" x="183.15" y="243.5669">cambiar vista</text></g><!--link Explorando to Consultando--><g class="link" data-entity-1="Explorando" data-entity-2="Consultando" data-source-line="5" data-uid="lnk9" id="link_Explorando_Consultando"><path d="M43.25,264.18 C32.2,272.07 21.9,281.98 15.65,294 C6,312.55 15.5172,325.5089 34.4872,337.7389" fill="none" id="Explorando-to-Consultando" style="stroke:#181818;stroke-width:1;"/><polygon fill="#181818" points="39.53,340.99,34.1332,332.7514,35.3276,338.2807,29.7983,339.4752,39.53,340.99" style="stroke:#181818;stroke-width:1;"/><text fill="#000000" font-family="sans-serif" font-size="13" lengthAdjust="spacing" textLength="107.1992" x="16.65" y="307.0669">seleccionar &#225;rea</text></g><!--link Consultando to Explorando--><g class="link" data-entity-1="Consultando" data-entity-2="Explorando" data-source-line="6" data-uid="lnk10" id="link_Consultando_Explorando"><path d="M115.46,340.92 C125.33,327.57 133.62,310.4 128.65,294 C125.45,283.43 122.8932,277.9396 116.6732,269.1396" fill="none" id="Consultando-to-Explorando" style="stroke:#181818;stroke-width:1;"/><polygon fill="#181818" points="113.21,264.24,115.1383,273.8982,116.096,268.323,121.6712,269.2807,113.21,264.24" style="stroke:#181818;stroke-width:1;"/><text fill="#000000" font-family="sans-serif" font-size="13" lengthAdjust="spacing" textLength="55.0215" x="131.65" y="307.0669">regresar</text></g><!--link Inactivo to *end*--><g class="link" data-entity-1="Inactivo" data-entity-2="*end*" data-source-line="9" data-uid="lnk13" id="link_Inactivo_*end*"><path d="M199.3,137.1 C230.09,166.05 275.6082,208.8206 294.5982,226.6706" fill="none" id="Inactivo-to-*end*" style="stroke:#181818;stroke-width:1;"/><polygon fill="#181818" points="298.97,230.78,295.1518,221.7014,295.3268,227.3555,289.6727,227.5305,298.97,230.78" style="stroke:#181818;stroke-width:1;"/></g><!--SRC=[YzQALT3LjLFmp4jCBiaio-VYWh70mguL1JdvHObvAVaALWgPUPd9cOb5N4Y266gI4tEJW6eKoZABInBHLJhdvnMNvfH0bHQdvgGc9sVcvm6L7rvOb9h8XIoFON9HQdfHQZ6czN3t0arCpCaiGlD1j5Oi0000]--></g></svg>