<svg xmlns="http://www.w3.org/2000/svg" xmlns:xlink="http://www.w3.org/1999/xlink" contentStyleType="text/css" data-diagram-type="STATE" height="620px" preserveAspectRatio="none" style="width:497px;height:620px;background:#FFFFFF;" version="1.1" viewBox="0 0 497 620" width="497px" zoomAndPan="magnify"><defs/><g><path d="M19.5,7 L443.5,7 A12.5,12.5 0 0 1 456,19.5 L456,33.2969 L7,33.2969 L7,19.5 A12.5,12.5 0 0 1 19.5,7" fill="#F1F1F1"/><rect fill="none" height="462.2969" rx="12.5" ry="12.5" style="stroke:#181818;stroke-width:0.5;" width="449" x="7" y="7"/><line style="stroke:#181818;stroke-width:0.5;" x1="7" x2="456" y1="33.2969" y2="33.2969"/><text fill="#000000" font-family="sans-serif" font-size="14" lengthAdjust="spacing" textLength="101.083" x="180.9585" y="24.9951">crearEspacio()</text><g id="crearEspacio.SolicitandoDatos"><rect fill="#F1F1F1" height="50" rx="12.5" ry="12.5" style="stroke:#181818;stroke-width:0.5;" width="50" x="19" y="135.2969"/><line style="stroke:#181818;stroke-width:0.5;" x1="19" x2="69" y1="161.5938" y2="161.5938"/><text fill="#000000" font-family="sans-serif" font-size="14" lengthAdjust="spacing" textLength="4.4502" x="41.7749" y="153.292"> </text></g><g id="crearEspacio.CreandoEspacio"><rect fill="#F1F1F1" height="50" rx="12.5" ry="12.5" style="stroke:#181818;stroke-width:0.5;" width="50" x="19" y="301.2969"/><line style="stroke:#181818;stroke-width:0.5;" x1="19" x2="69" y1="327.5938" y2="327.5938"/><text fill="#000000" font-family="sans-serif" font-size="14" lengthAdjust="spacing" textLength="4.4502" x="41.7749" y="319.292"> </text></g><ellipse cx="44" cy="54.2969" fill="#222222" rx="10" ry="10" style="stroke:#222222;stroke-width:1;"/><ellipse cx="44" cy="448.2969" fill="none" rx="11" ry="11" style="stroke:#222222;stroke-width:1;"/><ellipse cx="44" cy="448.2969" fill="#222222" rx="6" ry="6" style="stroke:#222222;stroke-width:1;"/><!--link *start*crearEspacio to SolicitandoDatos--><g class="link" data-entity-1=".start.crearEspacio" data-entity-2="SolicitandoDatos" data-source-line="8" data-uid="lnk3" id="link_.start.crearEspacio_SolicitandoDatos"><path d="M44,64.5269 C44,80.2369 44,106.6569 44,129.1669" fill="none" id="*start*crearEspacio-to-SolicitandoDatos" style="stroke:#008000;stroke-width:1;"/><polygon fill="#008000" points="44,135.1669,48,126.1669,44,130.1669,40,126.1669,44,135.1669" style="stroke:#008000;stroke-width:1;"/><path d="M49,87.2969 L49,112.2969 L360,112.2969 L360,97.2969 L350,87.2969 L49,87.2969" fill="#FEFFDD" style="stroke:#181818;stroke-width:0.5;"/><path d="M350,87.2969 L350,97.2969 L360,97.2969 L350,87.2969" fill="#FEFFDD" style="stroke:#181818;stroke-width:0.5;"/><text fill="#000000" font-family="sans-serif" font-size="13" font-weight="bold" lengthAdjust="spacing" textLength="104.8633" x="55" y="104.3638">Administrador</text><text fill="#000000" font-family="sans-serif" font-size="13" lengthAdjust="spacing" textLength="181.7969" x="163.9956" y="104.3638">solicita crear espacio nuevo</text></g><!--link SolicitandoDatos to CreandoEspacio--><g class="link" data-entity-1="SolicitandoDatos" data-entity-2="CreandoEspacio" data-source-line="13" data-uid="lnk4" id="link_SolicitandoDatos_CreandoEspacio"><path d="M44,185.4969 C44,216.5069 44,263.9469 44,294.9969" fill="none" id="SolicitandoDatos-to-CreandoEspacio" style="stroke:#008000;stroke-width:1;"/><polygon fill="#008000" points="44,300.9969,48,291.9969,44,295.9969,40,291.9969,44,300.9969" style="stroke:#008000;stroke-width:1;"/><path d="M49,208.2969 L49,278.2969 L447,278.2969 L447,218.2969 L437,208.2969 L49,208.2969" fill="#FEFFDD" style="stroke:#181818;stroke-width:0.5;"/><path d="M437,208.2969 L437,218.2969 L447,218.2969 L437,208.2969" fill="#FEFFDD" style="stroke:#181818;stroke-width:0.5;"/><text fill="#000000" font-family="sans-serif" font-size="13" font-weight="bold" lengthAdjust="spacing" textLength="58.9063" x="55" y="225.3638">Sistema</text><text fill="#000000" font-family="sans-serif" font-size="13" lengthAdjust="spacing" textLength="314.1328" x="118.0386" y="225.3638">presenta solicitud de datos mínimos del espacio</text><text fill="#000000" font-family="sans-serif" font-size="13" lengthAdjust="spacing" textLength="225.4497" x="55" y="240.4966">• Nombre del espacio (obligatorio)</text><text fill="#000000" font-family="sans-serif" font-size="13" lengthAdjust="spacing" textLength="209.3711" x="55" y="255.6294">• Permite solicitar crear espacio</text><text fill="#000000" font-family="sans-serif" font-size="13" lengthAdjust="spacing" textLength="236.6978" x="55" y="270.7622">• Permite solicitar cancelar creación</text></g><!--link CreandoEspacio to *end*crearEspacio--><g class="link" data-entity-1="CreandoEspacio" data-entity-2=".end.crearEspacio" data-source-line="21" data-uid="lnk6" id="link_CreandoEspacio_.end.crearEspacio"><path d="M44,351.5769 C44,377.7469 44,412.1469 44,430.9769" fill="none" id="CreandoEspacio-to-*end*crearEspacio" style="stroke:#008000;stroke-width:1;"/><polygon fill="#008000" points="44,436.9769,48,427.9769,44,431.9769,40,427.9769,44,436.9769" style="stroke:#008000;stroke-width:1;"/><path d="M49,374.2969 L49,414.2969 L395,414.2969 L395,384.2969 L385,374.2969 L49,374.2969" fill="#FEFFDD" style="stroke:#181818;stroke-width:0.5;"/><path d="M385,374.2969 L385,384.2969 L395,384.2969 L385,374.2969" fill="#FEFFDD" style="stroke:#181818;stroke-width:0.5;"/><text fill="#000000" font-family="sans-serif" font-size="13" font-weight="bold" lengthAdjust="spacing" textLength="104.8633" x="55" y="391.3638">Administrador</text><text fill="#000000" font-family="sans-serif" font-size="13" lengthAdjust="spacing" textLength="177.8423" x="163.9956" y="391.3638">proporciona datos mínimos</text><text fill="#000000" font-family="sans-serif" font-size="13" font-weight="bold" lengthAdjust="spacing" textLength="58.9063" x="55" y="406.4966">Sistema</text><text fill="#000000" font-family="sans-serif" font-size="13" lengthAdjust="spacing" textLength="262.812" x="118.0386" y="406.4966">crea espacio y transfiere a actualización</text></g><g id="ESPACIO_ABIERTO"><rect fill="#F1F1F1" height="50" rx="12.5" ry="12.5" style="stroke:#181818;stroke-width:0.5;" width="149.1309" x="13.93" y="564.3"/><line style="stroke:#181818;stroke-width:0.5;" x1="13.93" x2="163.0609" y1="590.5969" y2="590.5969"/><text fill="#000000" font-family="sans-serif" font-size="14" lengthAdjust="spacing" textLength="129.1309" x="23.93" y="582.2951">ESPACIO_ABIERTO</text></g><g id="ESPACIOS_ABIERTO"><rect fill="#F1F1F1" height="50" rx="12.5" ry="12.5" style="stroke:#181818;stroke-width:0.5;" width="158.0176" x="295.49" y="564.3"/><line style="stroke:#181818;stroke-width:0.5;" x1="295.49" x2="453.5076" y1="590.5969" y2="590.5969"/><text fill="#000000" font-family="sans-serif" font-size="14" lengthAdjust="spacing" textLength="138.0176" x="305.49" y="582.2951">ESPACIOS_ABIERTO</text></g><!--link crearEspacio to ESPACIO_ABIERTO--><g class="link" data-entity-1="crearEspacio" data-entity-2="ESPACIO_ABIERTO" data-source-line="28" data-uid="lnk8" id="link_crearEspacio_ESPACIO_ABIERTO"><path d="M102.11,469.71 C91.94,487.83 85.5,499.3 85.5,499.3 C85.5,499.3 85.5,534.3 85.5,534.3 C85.5,534.3 86.0188,543.5491 86.8088,557.8391" fill="none" id="crearEspacio-to-ESPACIO_ABIERTO" style="stroke:#008000;stroke-width:1;"/><polygon fill="#008000" points="87.14,563.83,90.6371,554.6229,86.864,558.8376,82.6493,555.0645,87.14,563.83" style="stroke:#008000;stroke-width:1;"/><path d="M90.5,504.3 L90.5,529.3 L326.5,529.3 L326.5,514.3 L316.5,504.3 L90.5,504.3" fill="#FEFFDD" style="stroke:#181818;stroke-width:0.5;"/><path d="M316.5,504.3 L316.5,514.3 L326.5,514.3 L316.5,504.3" fill="#FEFFDD" style="stroke:#181818;stroke-width:0.5;"/><text fill="#000000" font-family="sans-serif" font-size="13" lengthAdjust="spacing" textLength="215.1475" x="96.5" y="521.3669">actualizarEspacio(espacioNuevo)</text></g><!--link crearEspacio to ESPACIOS_ABIERTO--><g class="link" data-entity-1="crearEspacio" data-entity-2="ESPACIOS_ABIERTO" data-source-line="33" data-uid="lnk10" id="link_crearEspacio_ESPACIOS_ABIERTO"><path d="M325.89,469.61 C341.63,508.04 353.4346,536.8782 362.3446,558.6182" fill="none" id="crearEspacio-to-ESPACIOS_ABIERTO" style="stroke:#0000FF;stroke-width:1;"/><polygon fill="#0000FF" points="364.62,564.17,364.9081,554.3254,362.7239,559.5435,357.5057,557.3592,364.62,564.17" style="stroke:#0000FF;stroke-width:1;"/><path d="M355.5,504.3 L355.5,529.3 L490.5,529.3 L490.5,514.3 L480.5,504.3 L355.5,504.3" fill="#FEFFDD" style="stroke:#181818;stroke-width:0.5;"/><path d="M480.5,504.3 L480.5,514.3 L490.5,514.3 L480.5,504.3" fill="#FEFFDD" style="stroke:#181818;stroke-width:0.5;"/><text fill="#000000" font-family="sans-serif" font-size="13" lengthAdjust="spacing" textLength="114.9624" x="361.5" y="521.3669">cancelar creación</text></g><!--SRC=[bPBDIiD0483l-nH3lRH2yGLAeTOUUccByLQAJB9ZMRhP3Rk9K4NmMRnxyX7w9Zw9av_6n4J13OHaT-RRRsRN7vH9q64CMXbAZmb1OlKn_n72fvWIH8xGBNo2aRA07WRDYU5e0Cz208yoUi0F1mLMgqYbQAIzmTJwRiISARnQSKh4zd87u-t5tX6PtNZQeK0HPInJhCcD3yN499pEPAoCygb3QTtaAfo2ht9BVw2g09FHeosooCWInKFKhywMJPyVph_912n2CHOQYIDFXZKgdqo29905EZwz6nNpXoHz5YmOdwzliB9nwAYv14CRQhNdLAVig0xSa8iLIvmBTksA_uf34v6k4Y9r-Z2jndmtfLrtgoLyPFyubCJPn3fc6FpHWxxUvLfryKTWZl4FYhWh21Yb6MhrrEVz8aJhqZPz5y5cDb-kxsVNoyNjtLgql6jeVRshtLVvhHc9UeSEFzGPDV11Fx-duMVa5m00]--></g></svg>