<svg xmlns="http://www.w3.org/2000/svg" xmlns:xlink="http://www.w3.org/1999/xlink" contentStyleType="text/css" data-diagram-type="CLASS" height="494px" preserveAspectRatio="none" style="width:572px;height:494px;background:#FFFFFF;" version="1.1" viewBox="0 0 572 494" width="572px" zoomAndPan="magnify"><defs/><g><!--class Ubicaci?n--><g class="entity" data-entity="Ubicaci.n" data-source-line="1" data-uid="ent0002" id="entity_Ubicaci.n"><rect fill="#F1F1F1" height="48" rx="2.5" ry="2.5" style="stroke:#181818;stroke-width:0.5;" width="100.3252" x="271.5" y="331"/><ellipse cx="286.5" cy="347" fill="#ADD1B2" rx="11" ry="11" style="stroke:#181818;stroke-width:1;"/><path d="M289.4688,352.6406 Q288.8906,352.9375 288.25,353.0781 Q287.6094,353.2344 286.9063,353.2344 Q284.4063,353.2344 283.0781,351.5938 Q281.7656,349.9375 281.7656,346.8125 Q281.7656,343.6875 283.0781,342.0313 Q284.4063,340.375 286.9063,340.375 Q287.6094,340.375 288.25,340.5313 Q288.9063,340.6875 289.4688,340.9844 L289.4688,343.7031 Q288.8438,343.125 288.25,342.8594 Q287.6563,342.5781 287.0313,342.5781 Q285.6875,342.5781 285,343.6563 Q284.3125,344.7188 284.3125,346.8125 Q284.3125,348.9063 285,349.9844 Q285.6875,351.0469 287.0313,351.0469 Q287.6563,351.0469 288.25,350.7813 Q288.8438,350.5 289.4688,349.9219 L289.4688,352.6406 Z " fill="#000000"/><text fill="#000000" font-family="sans-serif" font-size="14" lengthAdjust="spacing" textLength="68.3252" x="300.5" y="351.8467">Ubicaci&#243;n</text><line style="stroke:#181818;stroke-width:0.5;" x1="272.5" x2="370.8252" y1="363" y2="363"/><line style="stroke:#181818;stroke-width:0.5;" x1="272.5" x2="370.8252" y1="371" y2="371"/></g><!--class Visitante--><g class="entity" data-entity="Visitante" data-source-line="2" data-uid="ent0003" id="entity_Visitante"><rect fill="#F1F1F1" height="48" rx="2.5" ry="2.5" style="stroke:#181818;stroke-width:0.5;" width="93.6943" x="433.5" y="115"/><ellipse cx="448.5" cy="131" fill="#ADD1B2" rx="11" ry="11" style="stroke:#181818;stroke-width:1;"/><path d="M451.4688,136.6406 Q450.8906,136.9375 450.25,137.0781 Q449.6094,137.2344 448.9063,137.2344 Q446.4063,137.2344 445.0781,135.5938 Q443.7656,133.9375 443.7656,130.8125 Q443.7656,127.6875 445.0781,126.0313 Q446.4063,124.375 448.9063,124.375 Q449.6094,124.375 450.25,124.5313 Q450.9063,124.6875 451.4688,124.9844 L451.4688,127.7031 Q450.8438,127.125 450.25,126.8594 Q449.6563,126.5781 449.0313,126.5781 Q447.6875,126.5781 447,127.6563 Q446.3125,128.7188 446.3125,130.8125 Q446.3125,132.9063 447,133.9844 Q447.6875,135.0469 449.0313,135.0469 Q449.6563,135.0469 450.25,134.7813 Q450.8438,134.5 451.4688,133.9219 L451.4688,136.6406 Z " fill="#000000"/><text fill="#000000" font-family="sans-serif" font-size="14" lengthAdjust="spacing" textLength="61.6943" x="462.5" y="135.8467">Visitante</text><line style="stroke:#181818;stroke-width:0.5;" x1="434.5" x2="526.1943" y1="147" y2="147"/><line style="stroke:#181818;stroke-width:0.5;" x1="434.5" x2="526.1943" y1="155" y2="155"/></g><!--class Espacio--><g class="entity" data-entity="Espacio" data-source-line="3" data-uid="ent0004" id="entity_Espacio"><rect fill="#F1F1F1" height="48" rx="2.5" ry="2.5" style="stroke:#181818;stroke-width:0.5;" width="85.7578" x="150.5" y="331"/><ellipse cx="165.5" cy="347" fill="#ADD1B2" rx="11" ry="11" style="stroke:#181818;stroke-width:1;"/><path d="M168.4688,352.6406 Q167.8906,352.9375 167.25,353.0781 Q166.6094,353.2344 165.9063,353.2344 Q163.4063,353.2344 162.0781,351.5938 Q160.7656,349.9375 160.7656,346.8125 Q160.7656,343.6875 162.0781,342.0313 Q163.4063,340.375 165.9063,340.375 Q166.6094,340.375 167.25,340.5313 Q167.9063,340.6875 168.4688,340.9844 L168.4688,343.7031 Q167.8438,343.125 167.25,342.8594 Q166.6563,342.5781 166.0313,342.5781 Q164.6875,342.5781 164,343.6563 Q163.3125,344.7188 163.3125,346.8125 Q163.3125,348.9063 164,349.9844 Q164.6875,351.0469 166.0313,351.0469 Q166.6563,351.0469 167.25,350.7813 Q167.8438,350.5 168.4688,349.9219 L168.4688,352.6406 Z " fill="#000000"/><text fill="#000000" font-family="sans-serif" font-size="14" lengthAdjust="spacing" textLength="53.7578" x="179.5" y="351.8467">Espacio</text><line style="stroke:#181818;stroke-width:0.5;" x1="151.5" x2="235.2578" y1="363" y2="363"/><line style="stroke:#181818;stroke-width:0.5;" x1="151.5" x2="235.2578" y1="371" y2="371"/></g><!--class Universidad--><g class="entity" data-entity="Universidad" data-source-line="4" data-uid="ent0005" id="entity_Universidad"><rect fill="#F1F1F1" height="48" rx="2.5" ry="2.5" style="stroke:#181818;stroke-width:0.5;" width="115.2002" x="204" y="7"/><ellipse cx="219" cy="23" fill="#ADD1B2" rx="11" ry="11" style="stroke:#181818;stroke-width:1;"/><path d="M221.9688,28.6406 Q221.3906,28.9375 220.75,29.0781 Q220.1094,29.2344 219.4063,29.2344 Q216.9063,29.2344 215.5781,27.5938 Q214.2656,25.9375 214.2656,22.8125 Q214.2656,19.6875 215.5781,18.0313 Q216.9063,16.375 219.4063,16.375 Q220.1094,16.375 220.75,16.5313 Q221.4063,16.6875 221.9688,16.9844 L221.9688,19.7031 Q221.3438,19.125 220.75,18.8594 Q220.1563,18.5781 219.5313,18.5781 Q218.1875,18.5781 217.5,19.6563 Q216.8125,20.7188 216.8125,22.8125 Q216.8125,24.9063 217.5,25.9844 Q218.1875,27.0469 219.5313,27.0469 Q220.1563,27.0469 220.75,26.7813 Q221.3438,26.5 221.9688,25.9219 L221.9688,28.6406 Z " fill="#000000"/><text fill="#000000" font-family="sans-serif" font-size="14" lengthAdjust="spacing" textLength="83.2002" x="233" y="27.8467">Universidad</text><line style="stroke:#181818;stroke-width:0.5;" x1="205" x2="318.2002" y1="39" y2="39"/><line style="stroke:#181818;stroke-width:0.5;" x1="205" x2="318.2002" y1="47" y2="47"/></g><!--class Edificio--><g class="entity" data-entity="Edificio" data-source-line="5" data-uid="ent0006" id="entity_Edificio"><rect fill="#F1F1F1" height="48" rx="2.5" ry="2.5" style="stroke:#181818;stroke-width:0.5;" width="82.5928" x="280" y="115"/><ellipse cx="295" cy="131" fill="#ADD1B2" rx="11" ry="11" style="stroke:#181818;stroke-width:1;"/><path d="M297.9688,136.6406 Q297.3906,136.9375 296.75,137.0781 Q296.1094,137.2344 295.4063,137.2344 Q292.9063,137.2344 291.5781,135.5938 Q290.2656,133.9375 290.2656,130.8125 Q290.2656,127.6875 291.5781,126.0313 Q292.9063,124.375 295.4063,124.375 Q296.1094,124.375 296.75,124.5313 Q297.4063,124.6875 297.9688,124.9844 L297.9688,127.7031 Q297.3438,127.125 296.75,126.8594 Q296.1563,126.5781 295.5313,126.5781 Q294.1875,126.5781 293.5,127.6563 Q292.8125,128.7188 292.8125,130.8125 Q292.8125,132.9063 293.5,133.9844 Q294.1875,135.0469 295.5313,135.0469 Q296.1563,135.0469 296.75,134.7813 Q297.3438,134.5 297.9688,133.9219 L297.9688,136.6406 Z " fill="#000000"/><text fill="#000000" font-family="sans-serif" font-size="14" lengthAdjust="spacing" textLength="50.5928" x="309" y="135.8467">Edificio</text><line style="stroke:#181818;stroke-width:0.5;" x1="281" x2="361.5928" y1="147" y2="147"/><line style="stroke:#181818;stroke-width:0.5;" x1="281" x2="361.5928" y1="155" y2="155"/></g><!--class Exterior--><g class="entity" data-entity="Exterior" data-source-line="6" data-uid="ent0007" id="entity_Exterior"><rect fill="#F1F1F1" height="48" rx="2.5" ry="2.5" style="stroke:#181818;stroke-width:0.5;" width="87.2002" x="158" y="115"/><ellipse cx="173" cy="131" fill="#ADD1B2" rx="11" ry="11" style="stroke:#181818;stroke-width:1;"/><path d="M175.9688,136.6406 Q175.3906,136.9375 174.75,137.0781 Q174.1094,137.2344 173.4063,137.2344 Q170.9063,137.2344 169.5781,135.5938 Q168.2656,133.9375 168.2656,130.8125 Q168.2656,127.6875 169.5781,126.0313 Q170.9063,124.375 173.4063,124.375 Q174.1094,124.375 174.75,124.5313 Q175.4063,124.6875 175.9688,124.9844 L175.9688,127.7031 Q175.3438,127.125 174.75,126.8594 Q174.1563,126.5781 173.5313,126.5781 Q172.1875,126.5781 171.5,127.6563 Q170.8125,128.7188 170.8125,130.8125 Q170.8125,132.9063 171.5,133.9844 Q172.1875,135.0469 173.5313,135.0469 Q174.1563,135.0469 174.75,134.7813 Q175.3438,134.5 175.9688,133.9219 L175.9688,136.6406 Z " fill="#000000"/><text fill="#000000" font-family="sans-serif" font-size="14" lengthAdjust="spacing" textLength="55.2002" x="187" y="135.8467">Exterior</text><line style="stroke:#181818;stroke-width:0.5;" x1="159" x2="244.2002" y1="147" y2="147"/><line style="stroke:#181818;stroke-width:0.5;" x1="159" x2="244.2002" y1="155" y2="155"/></g><!--class Planta--><g class="entity" data-entity="Planta" data-source-line="7" data-uid="ent0008" id="entity_Planta"><rect fill="#F1F1F1" height="48" rx="2.5" ry="2.5" style="stroke:#181818;stroke-width:0.5;" width="75.8525" x="283.5" y="223"/><ellipse cx="298.5" cy="239" fill="#ADD1B2" rx="11" ry="11" style="stroke:#181818;stroke-width:1;"/><path d="M301.4688,244.6406 Q300.8906,244.9375 300.25,245.0781 Q299.6094,245.2344 298.9063,245.2344 Q296.4063,245.2344 295.0781,243.5938 Q293.7656,241.9375 293.7656,238.8125 Q293.7656,235.6875 295.0781,234.0313 Q296.4063,232.375 298.9063,232.375 Q299.6094,232.375 300.25,232.5313 Q300.9063,232.6875 301.4688,232.9844 L301.4688,235.7031 Q300.8438,235.125 300.25,234.8594 Q299.6563,234.5781 299.0313,234.5781 Q297.6875,234.5781 297,235.6563 Q296.3125,236.7188 296.3125,238.8125 Q296.3125,240.9063 297,241.9844 Q297.6875,243.0469 299.0313,243.0469 Q299.6563,243.0469 300.25,242.7813 Q300.8438,242.5 301.4688,241.9219 L301.4688,244.6406 Z " fill="#000000"/><text fill="#000000" font-family="sans-serif" font-size="14" lengthAdjust="spacing" textLength="43.8525" x="312.5" y="243.8467">Planta</text><line style="stroke:#181818;stroke-width:0.5;" x1="284.5" x2="358.3525" y1="255" y2="255"/><line style="stroke:#181818;stroke-width:0.5;" x1="284.5" x2="358.3525" y1="263" y2="263"/></g><!--class AreaDeportiva--><g class="entity" data-entity="AreaDeportiva" data-source-line="8" data-uid="ent0009" id="entity_AreaDeportiva"><rect fill="#F1F1F1" height="48" rx="2.5" ry="2.5" style="stroke:#181818;stroke-width:0.5;" width="133.3701" x="7" y="223"/><ellipse cx="22" cy="239" fill="#ADD1B2" rx="11" ry="11" style="stroke:#181818;stroke-width:1;"/><path d="M24.9688,244.6406 Q24.3906,244.9375 23.75,245.0781 Q23.1094,245.2344 22.4063,245.2344 Q19.9063,245.2344 18.5781,243.5938 Q17.2656,241.9375 17.2656,238.8125 Q17.2656,235.6875 18.5781,234.0313 Q19.9063,232.375 22.4063,232.375 Q23.1094,232.375 23.75,232.5313 Q24.4063,232.6875 24.9688,232.9844 L24.9688,235.7031 Q24.3438,235.125 23.75,234.8594 Q23.1563,234.5781 22.5313,234.5781 Q21.1875,234.5781 20.5,235.6563 Q19.8125,236.7188 19.8125,238.8125 Q19.8125,240.9063 20.5,241.9844 Q21.1875,243.0469 22.5313,243.0469 Q23.1563,243.0469 23.75,242.7813 Q24.3438,242.5 24.9688,241.9219 L24.9688,244.6406 Z " fill="#000000"/><text fill="#000000" font-family="sans-serif" font-size="14" lengthAdjust="spacing" textLength="101.3701" x="36" y="243.8467">AreaDeportiva</text><line style="stroke:#181818;stroke-width:0.5;" x1="8" x2="139.3701" y1="255" y2="255"/><line style="stroke:#181818;stroke-width:0.5;" x1="8" x2="139.3701" y1="263" y2="263"/></g><!--class Verde--><g class="entity" data-entity="Verde" data-source-line="9" data-uid="ent0010" id="entity_Verde"><rect fill="#F1F1F1" height="48" rx="2.5" ry="2.5" style="stroke:#181818;stroke-width:0.5;" width="73.4463" x="175" y="223"/><ellipse cx="190" cy="239" fill="#ADD1B2" rx="11" ry="11" style="stroke:#181818;stroke-width:1;"/><path d="M192.9688,244.6406 Q192.3906,244.9375 191.75,245.0781 Q191.1094,245.2344 190.4063,245.2344 Q187.9063,245.2344 186.5781,243.5938 Q185.2656,241.9375 185.2656,238.8125 Q185.2656,235.6875 186.5781,234.0313 Q187.9063,232.375 190.4063,232.375 Q191.1094,232.375 191.75,232.5313 Q192.4063,232.6875 192.9688,232.9844 L192.9688,235.7031 Q192.3438,235.125 191.75,234.8594 Q191.1563,234.5781 190.5313,234.5781 Q189.1875,234.5781 188.5,235.6563 Q187.8125,236.7188 187.8125,238.8125 Q187.8125,240.9063 188.5,241.9844 Q189.1875,243.0469 190.5313,243.0469 Q191.1563,243.0469 191.75,242.7813 Q192.3438,242.5 192.9688,241.9219 L192.9688,244.6406 Z " fill="#000000"/><text fill="#000000" font-family="sans-serif" font-size="14" lengthAdjust="spacing" textLength="41.4463" x="204" y="243.8467">Verde</text><line style="stroke:#181818;stroke-width:0.5;" x1="176" x2="247.4463" y1="255" y2="255"/><line style="stroke:#181818;stroke-width:0.5;" x1="176" x2="247.4463" y1="263" y2="263"/></g><!--class Recorrido--><g class="entity" data-entity="Recorrido" data-source-line="10" data-uid="ent0011" id="entity_Recorrido"><rect fill="#F1F1F1" height="48" rx="2.5" ry="2.5" style="stroke:#181818;stroke-width:0.5;" width="99.457" x="466" y="223"/><ellipse cx="481" cy="239" fill="#ADD1B2" rx="11" ry="11" style="stroke:#181818;stroke-width:1;"/><path d="M483.9688,244.6406 Q483.3906,244.9375 482.75,245.0781 Q482.1094,245.2344 481.4063,245.2344 Q478.9063,245.2344 477.5781,243.5938 Q476.2656,241.9375 476.2656,238.8125 Q476.2656,235.6875 477.5781,234.0313 Q478.9063,232.375 481.4063,232.375 Q482.1094,232.375 482.75,232.5313 Q483.4063,232.6875 483.9688,232.9844 L483.9688,235.7031 Q483.3438,235.125 482.75,234.8594 Q482.1563,234.5781 481.5313,234.5781 Q480.1875,234.5781 479.5,235.6563 Q478.8125,236.7188 478.8125,238.8125 Q478.8125,240.9063 479.5,241.9844 Q480.1875,243.0469 481.5313,243.0469 Q482.1563,243.0469 482.75,242.7813 Q483.3438,242.5 483.9688,241.9219 L483.9688,244.6406 Z " fill="#000000"/><text fill="#000000" font-family="sans-serif" font-size="14" lengthAdjust="spacing" textLength="67.457" x="495" y="243.8467">Recorrido</text><line style="stroke:#181818;stroke-width:0.5;" x1="467" x2="564.457" y1="255" y2="255"/><line style="stroke:#181818;stroke-width:0.5;" x1="467" x2="564.457" y1="263" y2="263"/></g><!--class Pasillo--><g class="entity" data-entity="Pasillo" data-source-line="11" data-uid="ent0012" id="entity_Pasillo"><rect fill="#F1F1F1" height="48" rx="2.5" ry="2.5" style="stroke:#181818;stroke-width:0.5;" width="76.5498" x="180" y="439"/><ellipse cx="195" cy="455" fill="#ADD1B2" rx="11" ry="11" style="stroke:#181818;stroke-width:1;"/><path d="M197.9688,460.6406 Q197.3906,460.9375 196.75,461.0781 Q196.1094,461.2344 195.4063,461.2344 Q192.9063,461.2344 191.5781,459.5938 Q190.2656,457.9375 190.2656,454.8125 Q190.2656,451.6875 191.5781,450.0313 Q192.9063,448.375 195.4063,448.375 Q196.1094,448.375 196.75,448.5313 Q197.4063,448.6875 197.9688,448.9844 L197.9688,451.7031 Q197.3438,451.125 196.75,450.8594 Q196.1563,450.5781 195.5313,450.5781 Q194.1875,450.5781 193.5,451.6563 Q192.8125,452.7188 192.8125,454.8125 Q192.8125,456.9063 193.5,457.9844 Q194.1875,459.0469 195.5313,459.0469 Q196.1563,459.0469 196.75,458.7813 Q197.3438,458.5 197.9688,457.9219 L197.9688,460.6406 Z " fill="#000000"/><text fill="#000000" font-family="sans-serif" font-size="14" lengthAdjust="spacing" textLength="44.5498" x="209" y="459.8467">Pasillo</text><line style="stroke:#181818;stroke-width:0.5;" x1="181" x2="255.5498" y1="471" y2="471"/><line style="stroke:#181818;stroke-width:0.5;" x1="181" x2="255.5498" y1="479" y2="479"/></g><!--class Hall--><g class="entity" data-entity="Hall" data-source-line="12" data-uid="ent0013" id="entity_Hall"><rect fill="#F1F1F1" height="48" rx="2.5" ry="2.5" style="stroke:#181818;stroke-width:0.5;" width="58.8857" x="292" y="439"/><ellipse cx="307" cy="455" fill="#ADD1B2" rx="11" ry="11" style="stroke:#181818;stroke-width:1;"/><path d="M309.9688,460.6406 Q309.3906,460.9375 308.75,461.0781 Q308.1094,461.2344 307.4063,461.2344 Q304.9063,461.2344 303.5781,459.5938 Q302.2656,457.9375 302.2656,454.8125 Q302.2656,451.6875 303.5781,450.0313 Q304.9063,448.375 307.4063,448.375 Q308.1094,448.375 308.75,448.5313 Q309.4063,448.6875 309.9688,448.9844 L309.9688,451.7031 Q309.3438,451.125 308.75,450.8594 Q308.1563,450.5781 307.5313,450.5781 Q306.1875,450.5781 305.5,451.6563 Q304.8125,452.7188 304.8125,454.8125 Q304.8125,456.9063 305.5,457.9844 Q306.1875,459.0469 307.5313,459.0469 Q308.1563,459.0469 308.75,458.7813 Q309.3438,458.5 309.9688,457.9219 L309.9688,460.6406 Z " fill="#000000"/><text fill="#000000" font-family="sans-serif" font-size="14" lengthAdjust="spacing" textLength="26.8857" x="321" y="459.8467">Hall</text><line style="stroke:#181818;stroke-width:0.5;" x1="293" x2="349.8857" y1="471" y2="471"/><line style="stroke:#181818;stroke-width:0.5;" x1="293" x2="349.8857" y1="479" y2="479"/></g><!--class Parking--><g class="entity" data-entity="Parking" data-source-line="13" data-uid="ent0014" id="entity_Parking"><rect fill="#F1F1F1" height="48" rx="2.5" ry="2.5" style="stroke:#181818;stroke-width:0.5;" width="84.5342" x="386" y="439"/><ellipse cx="401" cy="455" fill="#ADD1B2" rx="11" ry="11" style="stroke:#181818;stroke-width:1;"/><path d="M403.9688,460.6406 Q403.3906,460.9375 402.75,461.0781 Q402.1094,461.2344 401.4063,461.2344 Q398.9063,461.2344 397.5781,459.5938 Q396.2656,457.9375 396.2656,454.8125 Q396.2656,451.6875 397.5781,450.0313 Q398.9063,448.375 401.4063,448.375 Q402.1094,448.375 402.75,448.5313 Q403.4063,448.6875 403.9688,448.9844 L403.9688,451.7031 Q403.3438,451.125 402.75,450.8594 Q402.1563,450.5781 401.5313,450.5781 Q400.1875,450.5781 399.5,451.6563 Q398.8125,452.7188 398.8125,454.8125 Q398.8125,456.9063 399.5,457.9844 Q400.1875,459.0469 401.5313,459.0469 Q402.1563,459.0469 402.75,458.7813 Q403.3438,458.5 403.9688,457.9219 L403.9688,460.6406 Z " fill="#000000"/><text fill="#000000" font-family="sans-serif" font-size="14" lengthAdjust="spacing" textLength="52.5342" x="415" y="459.8467">Parking</text><line style="stroke:#181818;stroke-width:0.5;" x1="387" x2="469.5342" y1="471" y2="471"/><line style="stroke:#181818;stroke-width:0.5;" x1="387" x2="469.5342" y1="479" y2="479"/></g><!--link Visitante to Ubicaci?n--><g class="link" data-entity-1="Visitante" data-entity-2="Ubicaci.n" data-source-line="15" data-uid="lnk15" id="link_Visitante_Ubicaci.n"><path codeLine="15" d="M463.18,163.31 C432.6,204.47 372.9486,284.764 342.3786,325.904" fill="none" id="Visitante-to-Ubicaci&#243;n" style="stroke:#181818;stroke-width:1;"/><polygon fill="#181818" points="338.8,330.72,347.3786,325.8818,341.7822,326.7067,340.9573,321.1103,338.8,330.72" style="stroke:#181818;stroke-width:1;"/></g><!--link Visitante to Recorrido--><g class="link" data-entity-1="Visitante" data-entity-2="Recorrido" data-source-line="16" data-uid="lnk16" id="link_Visitante_Recorrido"><path codeLine="16" d="M488.09,163 C493.92,180.66 500.0581,199.2428 505.9181,216.9828" fill="none" id="Visitante-to-Recorrido" style="stroke:#181818;stroke-width:1;"/><polygon fill="#181818" points="507.8,222.68,508.7752,212.8795,506.2317,217.9323,501.1789,215.3888,507.8,222.68" style="stroke:#181818;stroke-width:1;"/></g><!--link Recorrido to Ubicaci?n--><g class="link" data-entity-1="Recorrido" data-entity-2="Ubicaci.n" data-source-line="17" data-uid="lnk17" id="link_Recorrido_Ubicaci.n"><path codeLine="17" d="M473.4,271 C440.98,288.72 406.8709,307.3567 374.3809,325.1067" fill="none" id="Recorrido-to-Ubicaci&#243;n" style="stroke:#181818;stroke-width:1;"/><polygon fill="none" points="363.85,330.86,371.0332,331.4937,374.3809,325.1067,367.1977,324.4731,363.85,330.86" style="stroke:#181818;stroke-width:1;"/></g><!--reverse link Universidad to Edificio--><g class="link" data-entity-1="Universidad" data-entity-2="Edificio" data-source-line="18" data-uid="lnk18" id="link_Universidad_Edificio"><path codeLine="18" d="M280.4284,65.4447 C290.4184,83.1047 298.26,96.94 308.3,114.68" fill="none" id="Universidad-backto-Edificio" style="stroke:#181818;stroke-width:1;"/><polygon fill="#181818" points="274.52,55,273.9926,62.1918,280.4284,65.4447,280.9557,58.2529,274.52,55" style="stroke:#181818;stroke-width:1;"/></g><!--reverse link Edificio to Planta--><g class="link" data-entity-1="Edificio" data-entity-2="Planta" data-source-line="19" data-uid="lnk19" id="link_Edificio_Planta"><path codeLine="19" d="M321.5,175 C321.5,192.66 321.5,204.94 321.5,222.68" fill="none" id="Edificio-backto-Planta" style="stroke:#181818;stroke-width:1;"/><polygon fill="#181818" points="321.5,163,317.5,169,321.5,175,325.5,169,321.5,163" style="stroke:#181818;stroke-width:1;"/></g><!--reverse link Universidad to Exterior--><g class="link" data-entity-1="Universidad" data-entity-2="Exterior" data-source-line="20" data-uid="lnk20" id="link_Universidad_Exterior"><path codeLine="20" d="M242.5716,65.4447 C232.5816,83.1047 224.74,96.94 214.7,114.68" fill="none" id="Universidad-backto-Exterior" style="stroke:#181818;stroke-width:1;"/><polygon fill="#181818" points="248.48,55,242.0443,58.2529,242.5716,65.4447,249.0074,62.1918,248.48,55" style="stroke:#181818;stroke-width:1;"/></g><!--reverse link Exterior to AreaDeportiva--><g class="link" data-entity-1="Exterior" data-entity-2="AreaDeportiva" data-source-line="21" data-uid="lnk21" id="link_Exterior_AreaDeportiva"><path codeLine="21" d="M164.4869,170.6528 C143.1569,188.3128 123.08,204.94 101.66,222.68" fill="none" id="Exterior-backto-AreaDeportiva" style="stroke:#181818;stroke-width:1;"/><polygon fill="#181818" points="173.73,163,166.5575,163.7453,164.4869,170.6528,171.6594,169.9074,173.73,163" style="stroke:#181818;stroke-width:1;"/></g><!--reverse link Exterior to Verde--><g class="link" data-entity-1="Exterior" data-entity-2="Verde" data-source-line="22" data-uid="lnk22" id="link_Exterior_Verde"><path codeLine="22" d="M204.7997,174.9467 C206.4697,192.6067 207.63,204.94 209.3,222.68" fill="none" id="Exterior-backto-Verde" style="stroke:#181818;stroke-width:1;"/><polygon fill="#181818" points="203.67,163,200.2526,169.3499,204.7997,174.9467,208.2171,168.5968,203.67,163" style="stroke:#181818;stroke-width:1;"/></g><!--reverse link Planta to Ubicaci?n--><g class="link" data-entity-1="Planta" data-entity-2="Ubicaci.n" data-source-line="23" data-uid="lnk23" id="link_Planta_Ubicaci.n"><path codeLine="23" d="M321.5,283 C321.5,300.66 321.5,312.94 321.5,330.68" fill="none" id="Planta-backto-Ubicaci&#243;n" style="stroke:#181818;stroke-width:1;"/><polygon fill="#181818" points="321.5,271,317.5,277,321.5,283,325.5,277,321.5,271" style="stroke:#181818;stroke-width:1;"/></g><!--link Espacio to Ubicaci?n--><g class="link" data-entity-1="Espacio" data-entity-2="Ubicaci.n" data-source-line="24" data-uid="lnk24" id="link_Espacio_Ubicaci.n"><path codeLine="24" d="M236.75,355 C248.23,355 241.7,355 253.18,355" fill="none" id="Espacio-to-Ubicaci&#243;n" style="stroke:#181818;stroke-width:1;"/><polygon fill="none" points="271.18,355,253.18,349,253.18,361,271.18,355" style="stroke:#181818;stroke-width:1;"/></g><!--reverse link Ubicaci?n to Pasillo--><g class="link" data-entity-1="Ubicaci.n" data-entity-2="Pasillo" data-source-line="25" data-uid="lnk26" id="link_Ubicaci.n_Pasillo"><path codeLine="25" d="M286.6061,391.9094 C269.4461,409.5694 258.4,420.94 241.16,438.68" fill="none" id="Ubicaci&#243;n-backto-Pasillo" style="stroke:#181818;stroke-width:1;"/><polygon fill="none" points="299.15,379,282.303,387.7281,290.9093,396.0906,299.15,379" style="stroke:#181818;stroke-width:1;"/></g><!--reverse link Ubicaci?n to Hall--><g class="link" data-entity-1="Ubicaci.n" data-entity-2="Hall" data-source-line="26" data-uid="lnk28" id="link_Ubicaci.n_Hall"><path codeLine="26" d="M321.5,397 C321.5,414.66 321.5,420.94 321.5,438.68" fill="none" id="Ubicaci&#243;n-backto-Hall" style="stroke:#181818;stroke-width:1;"/><polygon fill="none" points="321.5,379,315.5,397,327.5,397,321.5,379" style="stroke:#181818;stroke-width:1;"/></g><!--reverse link Ubicaci?n to Parking--><g class="link" data-entity-1="Ubicaci.n" data-entity-2="Parking" data-source-line="27" data-uid="lnk30" id="link_Ubicaci.n_Parking"><path codeLine="27" d="M357.5052,391.6704 C375.3252,409.3304 387.05,420.94 404.96,438.68" fill="none" id="Ubicaci&#243;n-backto-Parking" style="stroke:#181818;stroke-width:1;"/><polygon fill="none" points="344.72,379,353.2817,395.9321,361.7287,387.4087,344.72,379" style="stroke:#181818;stroke-width:1;"/></g><!--link Verde to Ubicaci?n--><g class="link" data-entity-1="Verde" data-entity-2="Ubicaci.n" data-source-line="28" data-uid="lnk31" id="link_Verde_Ubicaci.n"><path codeLine="28" d="M235.37,271 C253.69,288.66 265.9284,300.4501 284.3384,318.1901" fill="none" id="Verde-to-Ubicaci&#243;n" style="stroke:#181818;stroke-width:1;"/><polygon fill="none" points="297.3,330.68,288.5017,313.8696,280.1751,322.5107,297.3,330.68" style="stroke:#181818;stroke-width:1;"/></g><!--link AreaDeportiva to Ubicaci?n--><g class="link" data-entity-1="AreaDeportiva" data-entity-2="Ubicaci.n" data-source-line="29" data-uid="lnk32" id="link_AreaDeportiva_Ubicaci.n"><path codeLine="29" d="M127.31,271 C170.05,289.27 212.819,307.5443 254.619,325.4143" fill="none" id="AreaDeportiva-to-Ubicaci&#243;n" style="stroke:#181818;stroke-width:1;"/><polygon fill="none" points="271.17,332.49,256.9776,319.8973,252.2605,330.9313,271.17,332.49" style="stroke:#181818;stroke-width:1;"/></g><!--reverse link Exterior to Edificio--><!--link AreaDeportiva to Recorrido--><!--SRC=[RL51Zi8m3Bpt5JaZ-Gj8Au6qnsebk20E8J6ijL5IEGLnu5SyOJ-stTH9qyBDCsCxdebnEaQrEv7HXdwVlZ69s5EaNliU1MzZD-X1qCxJ3JcIrJRhbiuqDMplFJ855jYwOPKMyC6eDzW5xkcMkJsoHINW2qrW9fkNjJgISnbzQkUAm3_aBqrJhbK0QrMxcIlJvb8DVAW7AcjAhG0cPxb8h3XwxSx6Sv7OkUMPb9mtuxf4LBT8w0eO7kjQa4GKNBk5yf_E6rgIUgECoSE2dHty-dw90WxVP2twenlIBTuNqxc7wn_u0m00]--></g></svg>