<svg xmlns="http://www.w3.org/2000/svg" xmlns:xlink="http://www.w3.org/1999/xlink" contentStyleType="text/css" data-diagram-type="CLASS" height="494px" preserveAspectRatio="none" style="width:244px;height:494px;background:#FFFFFF;" version="1.1" viewBox="0 0 244 494" width="244px" zoomAndPan="magnify"><defs/><g><!--class Tipo--><g class="entity" data-entity="Tipo" data-source-line="1" data-uid="ent0002" id="entity_Tipo"><rect fill="#F1F1F1" height="48" rx="2.5" ry="2.5" style="stroke:#181818;stroke-width:0.5;" width="61.8936" x="94.65" y="439"/><ellipse cx="109.65" cy="455" fill="#EB937F" rx="11" ry="11" style="stroke:#181818;stroke-width:1;"/><path d="M113.7594,461 L106.0406,461 L106.0406,448.6094 L113.7594,448.6094 L113.7594,450.7656 L108.4938,450.7656 L108.4938,453.4375 L113.2594,453.4375 L113.2594,455.5938 L108.4938,455.5938 L108.4938,458.8438 L113.7594,458.8438 L113.7594,461 Z " fill="#000000"/><text fill="#000000" font-family="sans-serif" font-size="14" lengthAdjust="spacing" textLength="29.8936" x="123.65" y="459.8467">Tipo</text><line style="stroke:#181818;stroke-width:0.5;" x1="95.65" x2="155.5436" y1="471" y2="471"/><line style="stroke:#181818;stroke-width:0.5;" x1="95.65" x2="155.5436" y1="479" y2="479"/></g><!--class Universidad--><g class="entity" data-entity="Universidad" data-source-line="3" data-uid="ent0003" id="entity_Universidad"><rect fill="#F1F1F1" height="48" rx="2.5" ry="2.5" style="stroke:#181818;stroke-width:0.5;" width="115.2002" x="7" y="7"/><ellipse cx="22" cy="23" fill="#ADD1B2" rx="11" ry="11" style="stroke:#181818;stroke-width:1;"/><path d="M24.9688,28.6406 Q24.3906,28.9375 23.75,29.0781 Q23.1094,29.2344 22.4063,29.2344 Q19.9063,29.2344 18.5781,27.5938 Q17.2656,25.9375 17.2656,22.8125 Q17.2656,19.6875 18.5781,18.0313 Q19.9063,16.375 22.4063,16.375 Q23.1094,16.375 23.75,16.5313 Q24.4063,16.6875 24.9688,16.9844 L24.9688,19.7031 Q24.3438,19.125 23.75,18.8594 Q23.1563,18.5781 22.5313,18.5781 Q21.1875,18.5781 20.5,19.6563 Q19.8125,20.7188 19.8125,22.8125 Q19.8125,24.9063 20.5,25.9844 Q21.1875,27.0469 22.5313,27.0469 Q23.1563,27.0469 23.75,26.7813 Q24.3438,26.5 24.9688,25.9219 L24.9688,28.6406 Z " fill="#000000"/><text fill="#000000" font-family="sans-serif" font-size="14" lengthAdjust="spacing" textLength="83.2002" x="36" y="27.8467">Universidad</text><line style="stroke:#181818;stroke-width:0.5;" x1="8" x2="121.2002" y1="39" y2="39"/><line style="stroke:#181818;stroke-width:0.5;" x1="8" x2="121.2002" y1="47" y2="47"/></g><!--class Region--><g class="entity" data-entity="Region" data-source-line="3" data-uid="ent0004" id="entity_Region"><rect fill="#F1F1F1" height="48" rx="2.5" ry="2.5" style="stroke:#181818;stroke-width:0.5;" width="80.5557" x="24.32" y="115"/><ellipse cx="39.32" cy="131" fill="#ADD1B2" rx="11" ry="11" style="stroke:#181818;stroke-width:1;"/><path d="M42.2888,136.6406 Q41.7106,136.9375 41.07,137.0781 Q40.4294,137.2344 39.7263,137.2344 Q37.2263,137.2344 35.8981,135.5938 Q34.5856,133.9375 34.5856,130.8125 Q34.5856,127.6875 35.8981,126.0313 Q37.2263,124.375 39.7263,124.375 Q40.4294,124.375 41.07,124.5313 Q41.7263,124.6875 42.2888,124.9844 L42.2888,127.7031 Q41.6638,127.125 41.07,126.8594 Q40.4763,126.5781 39.8513,126.5781 Q38.5075,126.5781 37.82,127.6563 Q37.1325,128.7188 37.1325,130.8125 Q37.1325,132.9063 37.82,133.9844 Q38.5075,135.0469 39.8513,135.0469 Q40.4763,135.0469 41.07,134.7813 Q41.6638,134.5 42.2888,133.9219 L42.2888,136.6406 Z " fill="#000000"/><text fill="#000000" font-family="sans-serif" font-size="14" lengthAdjust="spacing" textLength="48.5557" x="53.32" y="135.8467">Region</text><line style="stroke:#181818;stroke-width:0.5;" x1="25.32" x2="103.8757" y1="147" y2="147"/><line style="stroke:#181818;stroke-width:0.5;" x1="25.32" x2="103.8757" y1="155" y2="155"/></g><!--class Planta--><g class="entity" data-entity="Planta" data-source-line="4" data-uid="ent0006" id="entity_Planta"><rect fill="#F1F1F1" height="48" rx="2.5" ry="2.5" style="stroke:#181818;stroke-width:0.5;" width="75.8525" x="26.67" y="223"/><ellipse cx="41.67" cy="239" fill="#ADD1B2" rx="11" ry="11" style="stroke:#181818;stroke-width:1;"/><path d="M44.6388,244.6406 Q44.0606,244.9375 43.42,245.0781 Q42.7794,245.2344 42.0763,245.2344 Q39.5763,245.2344 38.2481,243.5938 Q36.9356,241.9375 36.9356,238.8125 Q36.9356,235.6875 38.2481,234.0313 Q39.5763,232.375 42.0763,232.375 Q42.7794,232.375 43.42,232.5313 Q44.0763,232.6875 44.6388,232.9844 L44.6388,235.7031 Q44.0138,235.125 43.42,234.8594 Q42.8263,234.5781 42.2013,234.5781 Q40.8575,234.5781 40.17,235.6563 Q39.4825,236.7188 39.4825,238.8125 Q39.4825,240.9063 40.17,241.9844 Q40.8575,243.0469 42.2013,243.0469 Q42.8263,243.0469 43.42,242.7813 Q44.0138,242.5 44.6388,241.9219 L44.6388,244.6406 Z " fill="#000000"/><text fill="#000000" font-family="sans-serif" font-size="14" lengthAdjust="spacing" textLength="43.8525" x="55.67" y="243.8467">Planta</text><line style="stroke:#181818;stroke-width:0.5;" x1="27.67" x2="101.5225" y1="255" y2="255"/><line style="stroke:#181818;stroke-width:0.5;" x1="27.67" x2="101.5225" y1="263" y2="263"/></g><!--class Espacio--><g class="entity" data-entity="Espacio" data-source-line="5" data-uid="ent0008" id="entity_Espacio"><rect fill="#F1F1F1" height="48" rx="2.5" ry="2.5" style="stroke:#181818;stroke-width:0.5;" width="85.7578" x="82.72" y="331"/><ellipse cx="97.72" cy="347" fill="#ADD1B2" rx="11" ry="11" style="stroke:#181818;stroke-width:1;"/><path d="M100.6888,352.6406 Q100.1106,352.9375 99.47,353.0781 Q98.8294,353.2344 98.1263,353.2344 Q95.6263,353.2344 94.2981,351.5938 Q92.9856,349.9375 92.9856,346.8125 Q92.9856,343.6875 94.2981,342.0313 Q95.6263,340.375 98.1263,340.375 Q98.8294,340.375 99.47,340.5313 Q100.1263,340.6875 100.6888,340.9844 L100.6888,343.7031 Q100.0638,343.125 99.47,342.8594 Q98.8763,342.5781 98.2513,342.5781 Q96.9075,342.5781 96.22,343.6563 Q95.5325,344.7188 95.5325,346.8125 Q95.5325,348.9063 96.22,349.9844 Q96.9075,351.0469 98.2513,351.0469 Q98.8763,351.0469 99.47,350.7813 Q100.0638,350.5 100.6888,349.9219 L100.6888,352.6406 Z " fill="#000000"/><text fill="#000000" font-family="sans-serif" font-size="14" lengthAdjust="spacing" textLength="53.7578" x="111.72" y="351.8467">Espacio</text><line style="stroke:#181818;stroke-width:0.5;" x1="83.72" x2="167.4778" y1="363" y2="363"/><line style="stroke:#181818;stroke-width:0.5;" x1="83.72" x2="167.4778" y1="371" y2="371"/></g><!--class Visitante--><g class="entity" data-entity="Visitante" data-source-line="8" data-uid="ent0011" id="entity_Visitante"><rect fill="#F1F1F1" height="48" rx="2.5" ry="2.5" style="stroke:#181818;stroke-width:0.5;" width="93.6943" x="140.75" y="115"/><ellipse cx="155.75" cy="131" fill="#ADD1B2" rx="11" ry="11" style="stroke:#181818;stroke-width:1;"/><path d="M158.7188,136.6406 Q158.1406,136.9375 157.5,137.0781 Q156.8594,137.2344 156.1563,137.2344 Q153.6563,137.2344 152.3281,135.5938 Q151.0156,133.9375 151.0156,130.8125 Q151.0156,127.6875 152.3281,126.0313 Q153.6563,124.375 156.1563,124.375 Q156.8594,124.375 157.5,124.5313 Q158.1563,124.6875 158.7188,124.9844 L158.7188,127.7031 Q158.0938,127.125 157.5,126.8594 Q156.9063,126.5781 156.2813,126.5781 Q154.9375,126.5781 154.25,127.6563 Q153.5625,128.7188 153.5625,130.8125 Q153.5625,132.9063 154.25,133.9844 Q154.9375,135.0469 156.2813,135.0469 Q156.9063,135.0469 157.5,134.7813 Q158.0938,134.5 158.7188,133.9219 L158.7188,136.6406 Z " fill="#000000"/><text fill="#000000" font-family="sans-serif" font-size="14" lengthAdjust="spacing" textLength="61.6943" x="169.75" y="135.8467">Visitante</text><line style="stroke:#181818;stroke-width:0.5;" x1="141.75" x2="233.4443" y1="147" y2="147"/><line style="stroke:#181818;stroke-width:0.5;" x1="141.75" x2="233.4443" y1="155" y2="155"/></g><!--class Recorrido--><g class="entity" data-entity="Recorrido" data-source-line="8" data-uid="ent0012" id="entity_Recorrido"><rect fill="#F1F1F1" height="48" rx="2.5" ry="2.5" style="stroke:#181818;stroke-width:0.5;" width="99.457" x="137.87" y="223"/><ellipse cx="152.87" cy="239" fill="#ADD1B2" rx="11" ry="11" style="stroke:#181818;stroke-width:1;"/><path d="M155.8388,244.6406 Q155.2606,244.9375 154.62,245.0781 Q153.9794,245.2344 153.2763,245.2344 Q150.7763,245.2344 149.4481,243.5938 Q148.1356,241.9375 148.1356,238.8125 Q148.1356,235.6875 149.4481,234.0313 Q150.7763,232.375 153.2763,232.375 Q153.9794,232.375 154.62,232.5313 Q155.2763,232.6875 155.8388,232.9844 L155.8388,235.7031 Q155.2138,235.125 154.62,234.8594 Q154.0263,234.5781 153.4013,234.5781 Q152.0575,234.5781 151.37,235.6563 Q150.6825,236.7188 150.6825,238.8125 Q150.6825,240.9063 151.37,241.9844 Q152.0575,243.0469 153.4013,243.0469 Q154.0263,243.0469 154.62,242.7813 Q155.2138,242.5 155.8388,241.9219 L155.8388,244.6406 Z " fill="#000000"/><text fill="#000000" font-family="sans-serif" font-size="14" lengthAdjust="spacing" textLength="67.457" x="166.87" y="243.8467">Recorrido</text><line style="stroke:#181818;stroke-width:0.5;" x1="138.87" x2="236.327" y1="255" y2="255"/><line style="stroke:#181818;stroke-width:0.5;" x1="138.87" x2="236.327" y1="263" y2="263"/></g><!--reverse link Universidad to Region--><g class="link" data-entity-1="Universidad" data-entity-2="Region" data-source-line="3" data-uid="lnk5" id="link_Universidad_Region"><path codeLine="3" d="M64.6,67.26 C64.6,84.94 64.6,97.13 64.6,114.79" fill="none" id="Universidad-backto-Region" style="stroke:#181818;stroke-width:1;"/><polygon fill="#181818" points="64.6,55.26,60.6,61.26,64.6,67.26,68.6,61.26,64.6,55.26" style="stroke:#181818;stroke-width:1;"/></g><!--reverse link Region to Planta--><g class="link" data-entity-1="Region" data-entity-2="Planta" data-source-line="4" data-uid="lnk7" id="link_Region_Planta"><path codeLine="4" d="M64.6,175.26 C64.6,192.94 64.6,205.13 64.6,222.79" fill="none" id="Region-backto-Planta" style="stroke:#181818;stroke-width:1;"/><polygon fill="#181818" points="64.6,163.26,60.6,169.26,64.6,175.26,68.6,169.26,64.6,163.26" style="stroke:#181818;stroke-width:1;"/></g><!--reverse link Planta to Espacio--><g class="link" data-entity-1="Planta" data-entity-2="Espacio" data-source-line="5" data-uid="lnk9" id="link_Planta_Espacio"><path codeLine="5" d="M83.9734,281.6619 C94.1434,299.3419 102.08,313.13 112.24,330.79" fill="none" id="Planta-backto-Espacio" style="stroke:#181818;stroke-width:1;"/><polygon fill="#181818" points="77.99,271.26,77.5144,278.4554,83.9734,281.6619,84.449,274.4665,77.99,271.26" style="stroke:#181818;stroke-width:1;"/></g><!--link Espacio to Tipo--><g class="link" data-entity-1="Espacio" data-entity-2="Tipo" data-source-line="6" data-uid="lnk10" id="link_Espacio_Tipo"><path codeLine="6" d="M125.6,379.26 C125.6,396.94 125.6,421.13 125.6,438.79" fill="none" id="Espacio-Tipo" style="stroke:#181818;stroke-width:1;"/></g><!--link Visitante to Recorrido--><g class="link" data-entity-1="Visitante" data-entity-2="Recorrido" data-source-line="8" data-uid="lnk13" id="link_Visitante_Recorrido"><path codeLine="8" d="M187.6,163.26 C187.6,180.94 187.6,199.13 187.6,216.79" fill="none" id="Visitante-to-Recorrido" style="stroke:#181818;stroke-width:1;"/><polygon fill="#181818" points="187.6,222.79,191.6,213.79,187.6,217.79,183.6,213.79,187.6,222.79" style="stroke:#181818;stroke-width:1;"/></g><!--link Recorrido to Espacio--><g class="link" data-entity-1="Recorrido" data-entity-2="Espacio" data-source-line="9" data-uid="lnk14" id="link_Recorrido_Espacio"><path codeLine="9" d="M173.99,271.26 C163.66,288.94 155.5588,302.7719 145.2288,320.4319" fill="none" id="Recorrido-to-Espacio" style="stroke:#181818;stroke-width:1;"/><polygon fill="none" points="139.17,330.79,145.6521,327.6306,145.2288,320.4319,138.7467,323.5913,139.17,330.79" style="stroke:#181818;stroke-width:1;"/></g><!--SRC=[FOon2e0m34JtV4LceR_WvYwYxg4j4j2ajDNlDrXrUiVZxgAS1ywS560Hlc8k72XWvnnESMCLQ7ZCk9DKWeR732MHPuMNQAgThLouMYsQwktAQyuS5FvaNh_v3G00]--></g></svg>