<svg xmlns="http://www.w3.org/2000/svg" xmlns:xlink="http://www.w3.org/1999/xlink" contentStyleType="text/css" data-diagram-type="CLASS" height="386px" preserveAspectRatio="none" style="width:289px;height:386px;background:#FFFFFF;" version="1.1" viewBox="0 0 289 386" width="289px" zoomAndPan="magnify"><defs/><g><!--class Visitante--><g class="entity" data-entity="Visitante" data-source-line="1" data-uid="ent0002" id="entity_Visitante"><rect fill="#F1F1F1" height="48" rx="2.5" ry="2.5" style="stroke:#181818;stroke-width:0.5;" width="93.6943" x="7" y="7"/><ellipse cx="22" cy="23" fill="#ADD1B2" rx="11" ry="11" style="stroke:#181818;stroke-width:1;"/><path d="M24.9688,28.6406 Q24.3906,28.9375 23.75,29.0781 Q23.1094,29.2344 22.4063,29.2344 Q19.9063,29.2344 18.5781,27.5938 Q17.2656,25.9375 17.2656,22.8125 Q17.2656,19.6875 18.5781,18.0313 Q19.9063,16.375 22.4063,16.375 Q23.1094,16.375 23.75,16.5313 Q24.4063,16.6875 24.9688,16.9844 L24.9688,19.7031 Q24.3438,19.125 23.75,18.8594 Q23.1563,18.5781 22.5313,18.5781 Q21.1875,18.5781 20.5,19.6563 Q19.8125,20.7188 19.8125,22.8125 Q19.8125,24.9063 20.5,25.9844 Q21.1875,27.0469 22.5313,27.0469 Q23.1563,27.0469 23.75,26.7813 Q24.3438,26.5 24.9688,25.9219 L24.9688,28.6406 Z " fill="#000000"/><text fill="#000000" font-family="sans-serif" font-size="14" lengthAdjust="spacing" textLength="61.6943" x="36" y="27.8467">Visitante</text><line style="stroke:#181818;stroke-width:0.5;" x1="8" x2="99.6943" y1="39" y2="39"/><line style="stroke:#181818;stroke-width:0.5;" x1="8" x2="99.6943" y1="47" y2="47"/></g><!--class Espacio--><g class="entity" data-entity="Espacio" data-source-line="2" data-uid="ent0003" id="entity_Espacio"><rect fill="#F1F1F1" height="48" rx="2.5" ry="2.5" style="stroke:#181818;stroke-width:0.5;" width="85.7578" x="136" y="7"/><ellipse cx="151" cy="23" fill="#ADD1B2" rx="11" ry="11" style="stroke:#181818;stroke-width:1;"/><path d="M153.9688,28.6406 Q153.3906,28.9375 152.75,29.0781 Q152.1094,29.2344 151.4063,29.2344 Q148.9063,29.2344 147.5781,27.5938 Q146.2656,25.9375 146.2656,22.8125 Q146.2656,19.6875 147.5781,18.0313 Q148.9063,16.375 151.4063,16.375 Q152.1094,16.375 152.75,16.5313 Q153.4063,16.6875 153.9688,16.9844 L153.9688,19.7031 Q153.3438,19.125 152.75,18.8594 Q152.1563,18.5781 151.5313,18.5781 Q150.1875,18.5781 149.5,19.6563 Q148.8125,20.7188 148.8125,22.8125 Q148.8125,24.9063 149.5,25.9844 Q150.1875,27.0469 151.5313,27.0469 Q152.1563,27.0469 152.75,26.7813 Q153.3438,26.5 153.9688,25.9219 L153.9688,28.6406 Z " fill="#000000"/><text fill="#000000" font-family="sans-serif" font-size="14" lengthAdjust="spacing" textLength="53.7578" x="165" y="27.8467">Espacio</text><line style="stroke:#181818;stroke-width:0.5;" x1="137" x2="220.7578" y1="39" y2="39"/><line style="stroke:#181818;stroke-width:0.5;" x1="137" x2="220.7578" y1="47" y2="47"/></g><!--class Campus--><g class="entity" data-entity="Campus" data-source-line="3" data-uid="ent0004" id="entity_Campus"><rect fill="#F1F1F1" height="48" rx="2.5" ry="2.5" style="stroke:#181818;stroke-width:0.5;" width="89.0459" x="134.5" y="115"/><ellipse cx="149.5" cy="131" fill="#ADD1B2" rx="11" ry="11" style="stroke:#181818;stroke-width:1;"/><path d="M152.4688,136.6406 Q151.8906,136.9375 151.25,137.0781 Q150.6094,137.2344 149.9063,137.2344 Q147.4063,137.2344 146.0781,135.5938 Q144.7656,133.9375 144.7656,130.8125 Q144.7656,127.6875 146.0781,126.0313 Q147.4063,124.375 149.9063,124.375 Q150.6094,124.375 151.25,124.5313 Q151.9063,124.6875 152.4688,124.9844 L152.4688,127.7031 Q151.8438,127.125 151.25,126.8594 Q150.6563,126.5781 150.0313,126.5781 Q148.6875,126.5781 148,127.6563 Q147.3125,128.7188 147.3125,130.8125 Q147.3125,132.9063 148,133.9844 Q148.6875,135.0469 150.0313,135.0469 Q150.6563,135.0469 151.25,134.7813 Q151.8438,134.5 152.4688,133.9219 L152.4688,136.6406 Z " fill="#000000"/><text fill="#000000" font-family="sans-serif" font-size="14" lengthAdjust="spacing" textLength="57.0459" x="163.5" y="135.8467">Campus</text><line style="stroke:#181818;stroke-width:0.5;" x1="135.5" x2="222.5459" y1="147" y2="147"/><line style="stroke:#181818;stroke-width:0.5;" x1="135.5" x2="222.5459" y1="155" y2="155"/></g><!--class Edificio--><g class="entity" data-entity="Edificio" data-source-line="4" data-uid="ent0005" id="entity_Edificio"><rect fill="#F1F1F1" height="48" rx="2.5" ry="2.5" style="stroke:#181818;stroke-width:0.5;" width="82.5928" x="77.5" y="223"/><ellipse cx="92.5" cy="239" fill="#ADD1B2" rx="11" ry="11" style="stroke:#181818;stroke-width:1;"/><path d="M95.4688,244.6406 Q94.8906,244.9375 94.25,245.0781 Q93.6094,245.2344 92.9063,245.2344 Q90.4063,245.2344 89.0781,243.5938 Q87.7656,241.9375 87.7656,238.8125 Q87.7656,235.6875 89.0781,234.0313 Q90.4063,232.375 92.9063,232.375 Q93.6094,232.375 94.25,232.5313 Q94.9063,232.6875 95.4688,232.9844 L95.4688,235.7031 Q94.8438,235.125 94.25,234.8594 Q93.6563,234.5781 93.0313,234.5781 Q91.6875,234.5781 91,235.6563 Q90.3125,236.7188 90.3125,238.8125 Q90.3125,240.9063 91,241.9844 Q91.6875,243.0469 93.0313,243.0469 Q93.6563,243.0469 94.25,242.7813 Q94.8438,242.5 95.4688,241.9219 L95.4688,244.6406 Z " fill="#000000"/><text fill="#000000" font-family="sans-serif" font-size="14" lengthAdjust="spacing" textLength="50.5928" x="106.5" y="243.8467">Edificio</text><line style="stroke:#181818;stroke-width:0.5;" x1="78.5" x2="159.0928" y1="255" y2="255"/><line style="stroke:#181818;stroke-width:0.5;" x1="78.5" x2="159.0928" y1="263" y2="263"/></g><!--class Exterior--><g class="entity" data-entity="Exterior" data-source-line="5" data-uid="ent0006" id="entity_Exterior"><rect fill="#F1F1F1" height="48" rx="2.5" ry="2.5" style="stroke:#181818;stroke-width:0.5;" width="87.2002" x="195.5" y="223"/><ellipse cx="210.5" cy="239" fill="#ADD1B2" rx="11" ry="11" style="stroke:#181818;stroke-width:1;"/><path d="M213.4688,244.6406 Q212.8906,244.9375 212.25,245.0781 Q211.6094,245.2344 210.9063,245.2344 Q208.4063,245.2344 207.0781,243.5938 Q205.7656,241.9375 205.7656,238.8125 Q205.7656,235.6875 207.0781,234.0313 Q208.4063,232.375 210.9063,232.375 Q211.6094,232.375 212.25,232.5313 Q212.9063,232.6875 213.4688,232.9844 L213.4688,235.7031 Q212.8438,235.125 212.25,234.8594 Q211.6563,234.5781 211.0313,234.5781 Q209.6875,234.5781 209,235.6563 Q208.3125,236.7188 208.3125,238.8125 Q208.3125,240.9063 209,241.9844 Q209.6875,243.0469 211.0313,243.0469 Q211.6563,243.0469 212.25,242.7813 Q212.8438,242.5 213.4688,241.9219 L213.4688,244.6406 Z " fill="#000000"/><text fill="#000000" font-family="sans-serif" font-size="14" lengthAdjust="spacing" textLength="55.2002" x="224.5" y="243.8467">Exterior</text><line style="stroke:#181818;stroke-width:0.5;" x1="196.5" x2="281.7002" y1="255" y2="255"/><line style="stroke:#181818;stroke-width:0.5;" x1="196.5" x2="281.7002" y1="263" y2="263"/></g><!--class Planta--><g class="entity" data-entity="Planta" data-source-line="6" data-uid="ent0007" id="entity_Planta"><rect fill="#F1F1F1" height="48" rx="2.5" ry="2.5" style="stroke:#181818;stroke-width:0.5;" width="75.8525" x="81" y="331"/><ellipse cx="96" cy="347" fill="#ADD1B2" rx="11" ry="11" style="stroke:#181818;stroke-width:1;"/><path d="M98.9688,352.6406 Q98.3906,352.9375 97.75,353.0781 Q97.1094,353.2344 96.4063,353.2344 Q93.9063,353.2344 92.5781,351.5938 Q91.2656,349.9375 91.2656,346.8125 Q91.2656,343.6875 92.5781,342.0313 Q93.9063,340.375 96.4063,340.375 Q97.1094,340.375 97.75,340.5313 Q98.4063,340.6875 98.9688,340.9844 L98.9688,343.7031 Q98.3438,343.125 97.75,342.8594 Q97.1563,342.5781 96.5313,342.5781 Q95.1875,342.5781 94.5,343.6563 Q93.8125,344.7188 93.8125,346.8125 Q93.8125,348.9063 94.5,349.9844 Q95.1875,351.0469 96.5313,351.0469 Q97.1563,351.0469 97.75,350.7813 Q98.3438,350.5 98.9688,349.9219 L98.9688,352.6406 Z " fill="#000000"/><text fill="#000000" font-family="sans-serif" font-size="14" lengthAdjust="spacing" textLength="43.8525" x="110" y="351.8467">Planta</text><line style="stroke:#181818;stroke-width:0.5;" x1="82" x2="155.8525" y1="363" y2="363"/><line style="stroke:#181818;stroke-width:0.5;" x1="82" x2="155.8525" y1="371" y2="371"/></g><!--link Visitante to Espacio--><g class="link" data-entity-1="Visitante" data-entity-2="Espacio" data-source-line="9" data-uid="lnk8" id="link_Visitante_Espacio"><path codeLine="9" d="M101.36,31 C112.89,31 124.41,31 135.94,31" fill="none" id="Visitante-Espacio" style="stroke:#181818;stroke-width:1;"/></g><!--reverse link Espacio to Campus--><g class="link" data-entity-1="Espacio" data-entity-2="Campus" data-source-line="10" data-uid="lnk9" id="link_Espacio_Campus"><path codeLine="10" d="M179,67 C179,84.66 179,96.94 179,114.68" fill="none" id="Espacio-backto-Campus" style="stroke:#181818;stroke-width:1;"/><polygon fill="#181818" points="179,55,175,61,179,67,183,61,179,55" style="stroke:#181818;stroke-width:1;"/></g><!--reverse link Campus to Edificio--><g class="link" data-entity-1="Campus" data-entity-2="Edificio" data-source-line="11" data-uid="lnk10" id="link_Campus_Edificio"><path codeLine="11" d="M160.0716,173.4447 C150.0816,191.1047 142.24,204.94 132.2,222.68" fill="none" id="Campus-backto-Edificio" style="stroke:#181818;stroke-width:1;"/><polygon fill="#181818" points="165.98,163,159.5443,166.2529,160.0716,173.4447,166.5074,170.1918,165.98,163" style="stroke:#181818;stroke-width:1;"/></g><!--reverse link Campus to Exterior--><g class="link" data-entity-1="Campus" data-entity-2="Exterior" data-source-line="12" data-uid="lnk11" id="link_Campus_Exterior"><path codeLine="12" d="M197.9284,173.4447 C207.9184,191.1047 215.76,204.94 225.8,222.68" fill="none" id="Campus-backto-Exterior" style="stroke:#181818;stroke-width:1;"/><polygon fill="#181818" points="192.02,163,191.4926,170.1918,197.9284,173.4447,198.4557,166.2529,192.02,163" style="stroke:#181818;stroke-width:1;"/></g><!--reverse link Edificio to Planta--><g class="link" data-entity-1="Edificio" data-entity-2="Planta" data-source-line="13" data-uid="lnk12" id="link_Edificio_Planta"><path codeLine="13" d="M119,283 C119,300.66 119,312.94 119,330.68" fill="none" id="Edificio-backto-Planta" style="stroke:#181818;stroke-width:1;"/><polygon fill="#181818" points="119,271,115,277,119,283,123,277,119,271" style="stroke:#181818;stroke-width:1;"/></g><!--SRC=[Iyv9B2vM2CiipYn9p2j9vKe6yrsB2nAJC_EXFEV4t8BIOfXKIcPQ9aBEjQ8ajIWplmZA3SW1cfB8nSK5Dr51jqXN0MuWb5RGqjM56GkX5C12SCDH165Mm6J1eX2R0000]--></g></svg>