<svg xmlns="http://www.w3.org/2000/svg" xmlns:xlink="http://www.w3.org/1999/xlink" contentStyleType="text/css" data-diagram-type="DESCRIPTION" height="631px" preserveAspectRatio="none" style="width:362px;height:631px;background:#FFFFFF;" version="1.1" viewBox="0 0 362 631" width="362px" zoomAndPan="magnify"><defs/><g><!--cluster Gesti?n de Espacios--><g class="cluster" data-entity="Gesti.n de Espacios" data-source-line="5" data-uid="ent0003" id="cluster_Gesti.n de Espacios"><path d="M14.5,6 L173.5742,6 A3.75,3.75 0 0 1 176.0742,8.5 L183.0742,28.2969 L203.5,28.2969 A2.5,2.5 0 0 1 206,30.7969 L206,295.5 A2.5,2.5 0 0 1 203.5,298 L14.5,298 A2.5,2.5 0 0 1 12,295.5 L12,8.5 A2.5,2.5 0 0 1 14.5,6" fill="none" style="stroke:#000000;stroke-width:1.5;"/><line style="stroke:#000000;stroke-width:1.5;" x1="12" x2="183.0742" y1="28.2969" y2="28.2969"/><text fill="#000000" font-family="sans-serif" font-size="14" font-weight="bold" lengthAdjust="spacing" textLength="158.0742" x="16" y="20.9951">Gesti&#243;n de Espacios</text></g><!--cluster Gesti?n de Recorridos--><g class="cluster" data-entity="Gesti.n de Recorridos" data-source-line="12" data-uid="ent0008" id="cluster_Gesti.n de Recorridos"><path d="M8.5,322 L183.9326,322 A3.75,3.75 0 0 1 186.4326,324.5 L193.4326,344.2969 L209.5,344.2969 A2.5,2.5 0 0 1 212,346.7969 L212,621.5 A2.5,2.5 0 0 1 209.5,624 L8.5,624 A2.5,2.5 0 0 1 6,621.5 L6,324.5 A2.5,2.5 0 0 1 8.5,322" fill="none" style="stroke:#000000;stroke-width:1.5;"/><line style="stroke:#000000;stroke-width:1.5;" x1="6" x2="193.4326" y1="344.2969" y2="344.2969"/><text fill="#000000" font-family="sans-serif" font-size="14" font-weight="bold" lengthAdjust="spacing" textLength="174.4326" x="10" y="336.9951">Gesti&#243;n de Recorridos</text></g><!--entity crearEspacio--><g class="entity" data-entity="crearEspacio" data-source-line="6" data-uid="ent0004" id="entity_crearEspacio"><ellipse cx="108.9182" cy="56.9836" fill="#F1F1F1" rx="67.9182" ry="15.9836" style="stroke:#181818;stroke-width:0.5;"/><text fill="#000000" font-family="sans-serif" font-size="14" lengthAdjust="spacing" textLength="101.083" x="58.3767" y="61.6321">crearEspacio()</text></g><!--entity verEspacios--><g class="entity" data-entity="verEspacios" data-source-line="7" data-uid="ent0005" id="entity_verEspacios"><ellipse cx="108.939" cy="123.9878" fill="#F1F1F1" rx="65.439" ry="15.4878" style="stroke:#181818;stroke-width:0.5;"/><text fill="#000000" font-family="sans-serif" font-size="14" lengthAdjust="spacing" textLength="94.6299" x="61.6241" y="128.6362">verEspacios()</text></g><!--entity eliminarEspacio--><g class="entity" data-entity="eliminarEspacio" data-source-line="8" data-uid="ent0006" id="entity_eliminarEspacio"><ellipse cx="108.7756" cy="192.1551" fill="#F1F1F1" rx="76.2756" ry="17.6551" style="stroke:#181818;stroke-width:0.5;"/><text fill="#000000" font-family="sans-serif" font-size="14" lengthAdjust="spacing" textLength="121.8096" x="47.8708" y="196.8036">eliminarEspacio()</text></g><!--entity actualizarEspacio--><g class="entity" data-entity="actualizarEspacio" data-source-line="9" data-uid="ent0007" id="entity_actualizarEspacio"><ellipse cx="109.1428" cy="263.1286" fill="#F1F1F1" rx="81.1428" ry="18.6286" style="stroke:#181818;stroke-width:0.5;"/><text fill="#000000" font-family="sans-serif" font-size="14" lengthAdjust="spacing" textLength="133.3623" x="42.4617" y="267.777">actualizarEspacio()</text></g><!--entity crearRecorrido--><g class="entity" data-entity="crearRecorrido" data-source-line="13" data-uid="ent0009" id="entity_crearRecorrido"><ellipse cx="108.8823" cy="374.0765" fill="#F1F1F1" rx="73.3823" ry="17.0765" style="stroke:#181818;stroke-width:0.5;"/><text fill="#000000" font-family="sans-serif" font-size="14" lengthAdjust="spacing" textLength="114.7822" x="51.4912" y="378.7249">crearRecorrido()</text></g><!--entity verRecorridos--><g class="entity" data-entity="verRecorridos" data-source-line="14" data-uid="ent0010" id="entity_verRecorridos"><ellipse cx="108.777" cy="443.0554" fill="#F1F1F1" rx="70.777" ry="16.5554" style="stroke:#181818;stroke-width:0.5;"/><text fill="#000000" font-family="sans-serif" font-size="14" lengthAdjust="spacing" textLength="108.3291" x="54.6125" y="447.7038">verRecorridos()</text></g><!--entity eliminarRecorrido--><g class="entity" data-entity="eliminarRecorrido" data-source-line="15" data-uid="ent0011" id="entity_eliminarRecorrido"><ellipse cx="109.0606" cy="513.8121" fill="#F1F1F1" rx="82.0606" ry="18.8121" style="stroke:#181818;stroke-width:0.5;"/><text fill="#000000" font-family="sans-serif" font-size="14" lengthAdjust="spacing" textLength="135.5088" x="41.3062" y="518.4606">eliminarRecorrido()</text></g><!--entity actualizarRecorrido--><g class="entity" data-entity="actualizarRecorrido" data-source-line="16" data-uid="ent0012" id="entity_actualizarRecorrido"><ellipse cx="109.0637" cy="587.8127" fill="#F1F1F1" rx="87.0637" ry="19.8127" style="stroke:#181818;stroke-width:0.5;"/><text fill="#000000" font-family="sans-serif" font-size="14" lengthAdjust="spacing" textLength="147.0615" x="35.5329" y="592.4612">actualizarRecorrido()</text></g><!--entity admin--><g class="entity" data-entity="admin" data-source-line="3" data-uid="ent0002" id="entity_admin"><ellipse cx="305.54" cy="289.5" fill="#F1F1F1" rx="8" ry="8" style="stroke:#181818;stroke-width:0.5;"/><path d="M305.54,297.5 L305.54,324.5 M292.54,305.5 L318.54,305.5 M305.54,324.5 L292.54,339.5 M305.54,324.5 L318.54,339.5" fill="none" style="stroke:#181818;stroke-width:0.5;"/><text fill="#000000" font-family="sans-serif" font-size="14" lengthAdjust="spacing" textLength="99.0801" x="256" y="353.9951">Administrador</text></g><!--reverse link crearEspacio to admin--><g class="link" data-entity-1="crearEspacio" data-entity-2="admin" data-source-line="19" data-uid="lnk13" id="link_crearEspacio_admin"><path d="M174.6516,66.3577 C192.9016,71.2977 206.06,77.81 220,91 C273.81,141.92 293.56,230.18 300.65,280.65" fill="none" id="crearEspacio-backto-admin" style="stroke:#181818;stroke-width:1;"/><polygon fill="#181818" points="168.86,64.79,176.5022,71.0026,173.6863,66.0964,178.5925,63.2805,168.86,64.79" style="stroke:#181818;stroke-width:1;"/></g><!--reverse link verEspacios to admin--><g class="link" data-entity-1="verEspacios" data-entity-2="admin" data-source-line="20" data-uid="lnk14" id="link_verEspacios_admin"><path d="M171.7322,133.2394 C190.5022,138.0494 204.71,144.36 220,157 C258.88,189.13 282.06,243.84 294.04,280.69" fill="none" id="verEspacios-backto-admin" style="stroke:#181818;stroke-width:1;"/><polygon fill="#181818" points="165.92,131.75,173.6453,137.8589,170.7635,132.9912,175.6312,130.1094,165.92,131.75" style="stroke:#181818;stroke-width:1;"/></g><!--reverse link eliminarEspacio to admin--><g class="link" data-entity-1="eliminarEspacio" data-entity-2="admin" data-source-line="21" data-uid="lnk15" id="link_eliminarEspacio_admin"><path d="M171.6649,205.4073 C189.8049,210.7573 203.7,216.6 220,227 C241.94,241 261.88,262.09 276.87,280.55" fill="none" id="eliminarEspacio-backto-admin" style="stroke:#181818;stroke-width:1;"/><polygon fill="#181818" points="165.91,203.71,173.4109,210.0926,170.7058,205.1244,175.6739,202.4193,165.91,203.71" style="stroke:#181818;stroke-width:1;"/></g><!--reverse link actualizarEspacio to admin--><g class="link" data-entity-1="actualizarEspacio" data-entity-2="admin" data-source-line="22" data-uid="lnk16" id="link_actualizarEspacio_admin"><path d="M165.8558,279.0799 C195.3458,287.5699 226.7,296.6 255.93,305.01" fill="none" id="actualizarEspacio-backto-admin" style="stroke:#181818;stroke-width:1;"/><polygon fill="#181818" points="160.09,277.42,167.6321,283.7538,164.8948,278.8033,169.8453,276.066,160.09,277.42" style="stroke:#181818;stroke-width:1;"/></g><!--reverse link crearRecorrido to admin--><g class="link" data-entity-1="crearRecorrido" data-entity-2="admin" data-source-line="24" data-uid="lnk17" id="link_crearRecorrido_admin"><path d="M162.3633,359.1962 C192.3633,350.7062 225.53,341.33 255.92,332.74" fill="none" id="crearRecorrido-backto-admin" style="stroke:#181818;stroke-width:1;"/><polygon fill="#181818" points="156.59,360.83,166.3391,362.2281,161.4011,359.4685,164.1607,354.5304,156.59,360.83" style="stroke:#181818;stroke-width:1;"/></g><!--reverse link verRecorridos to admin--><g class="link" data-entity-1="verRecorridos" data-entity-2="admin" data-source-line="25" data-uid="lnk18" id="link_verRecorridos_admin"><path d="M168.2118,430.4609 C187.2618,425.0509 202.59,418.91 220,408 C241.31,394.65 260.92,374.7 275.88,357.07" fill="none" id="verRecorridos-backto-admin" style="stroke:#181818;stroke-width:1;"/><polygon fill="#181818" points="162.44,432.1,172.1904,433.4892,167.2498,430.7341,170.0049,425.7935,162.44,432.1" style="stroke:#181818;stroke-width:1;"/></g><!--reverse link eliminarRecorrido to admin--><g class="link" data-entity-1="eliminarRecorrido" data-entity-2="admin" data-source-line="26" data-uid="lnk19" id="link_eliminarRecorrido_admin"><path d="M178.1515,500.0312 C194.9315,494.5312 206.46,488.45 220,477 C257.41,445.36 280.77,392.85 293.21,357.12" fill="none" id="eliminarRecorrido-backto-admin" style="stroke:#181818;stroke-width:1;"/><polygon fill="#181818" points="172.45,501.9,182.2482,502.8978,177.2013,500.3427,179.7564,495.2958,172.45,501.9" style="stroke:#181818;stroke-width:1;"/></g><!--reverse link actualizarRecorrido to admin--><g class="link" data-entity-1="actualizarRecorrido" data-entity-2="admin" data-source-line="27" data-uid="lnk20" id="link_actualizarRecorrido_admin"><path d="M182.3526,573.3779 C198.1126,567.7679 208.11,561.68 220,550 C273.62,497.34 293.45,407.9 300.61,357.15" fill="none" id="actualizarRecorrido-backto-admin" style="stroke:#181818;stroke-width:1;"/><polygon fill="#181818" points="176.7,575.39,186.5202,576.1402,181.4105,573.7132,183.8374,568.6035,176.7,575.39" style="stroke:#181818;stroke-width:1;"/></g><!--SRC=[TP4n3i8m34NtdCBAL0PkmCA0sBc1bPXYKHha10OGf-88N8mMbJP9qsvztz_Ejniw1WWEXEjJ0Cj29h1hbK8Jd83UsWktx8EWTQ81FM1FbBgYEMDDeFVa0t_UBLY2dUymEw-V2hhlvicW9p12A8FMjz0ng5OwARxJN_6_skW_BwM6kxUahJEMMxfODspuaPfcjBUz5a8Uo3WHjkMOepe57L4XwjJi7tOYIt7J4JEw73ar5lWGkuhliuBDUZrSlOgEaV1iwuasMswi3hF65-JJfcqKvvLzXMIH_WK0]--></g></svg>