<svg xmlns="http://www.w3.org/2000/svg" xmlns:xlink="http://www.w3.org/1999/xlink" contentStyleType="text/css" data-diagram-type="DESCRIPTION" height="1304px" preserveAspectRatio="none" style="width:754px;height:1304px;background:#FFFFFF;" version="1.1" viewBox="0 0 754 1304" width="754px" zoomAndPan="magnify"><defs/><g><!--cluster Gesti?n de Universidad--><g class="cluster" data-entity="Gesti.n de Universidad" data-source-line="8" data-uid="ent0006" id="cluster_Gesti.n de Universidad"><path d="M8.5,6 L193.4414,6 A3.75,3.75 0 0 1 195.9414,8.5 L202.9414,28.2969 L236.5,28.2969 A2.5,2.5 0 0 1 239,30.7969 L239,973.5 A2.5,2.5 0 0 1 236.5,976 L8.5,976 A2.5,2.5 0 0 1 6,973.5 L6,8.5 A2.5,2.5 0 0 1 8.5,6" fill="none" style="stroke:#000000;stroke-width:1.5;"/><line style="stroke:#000000;stroke-width:1.5;" x1="6" x2="202.9414" y1="28.2969" y2="28.2969"/><text fill="#000000" font-family="sans-serif" font-size="14" font-weight="bold" lengthAdjust="spacing" textLength="183.9414" x="10" y="20.9951">Gesti&#243;n de Universidad</text></g><!--cluster Gesti?n de Regiones--><g class="cluster" data-entity="Gesti.n de Regiones" data-source-line="9" data-uid="ent0007" id="cluster_Gesti.n de Regiones"><path d="M35,49 L198.1689,49 A3.75,3.75 0 0 1 200.6689,51.5 L207.6689,71.2969 L210,71.2969 A2.5,2.5 0 0 1 212.5,73.7969 L212.5,331.5 A2.5,2.5 0 0 1 210,334 L35,334 A2.5,2.5 0 0 1 32.5,331.5 L32.5,51.5 A2.5,2.5 0 0 1 35,49" fill="none" style="stroke:#000000;stroke-width:1.5;"/><line style="stroke:#000000;stroke-width:1.5;" x1="32.5" x2="207.6689" y1="71.2969" y2="71.2969"/><text fill="#000000" font-family="sans-serif" font-size="14" font-weight="bold" lengthAdjust="spacing" textLength="162.1689" x="36.5" y="63.9951">Gesti&#243;n de Regiones</text></g><!--cluster Gesti?n de Plantas--><g class="cluster" data-entity="Gesti.n de Plantas" data-source-line="16" data-uid="ent0012" id="cluster_Gesti.n de Plantas"><path d="M37,358 L186.6064,358 A3.75,3.75 0 0 1 189.1064,360.5 L196.1064,380.2969 L208,380.2969 A2.5,2.5 0 0 1 210.5,382.7969 L210.5,637.5 A2.5,2.5 0 0 1 208,640 L37,640 A2.5,2.5 0 0 1 34.5,637.5 L34.5,360.5 A2.5,2.5 0 0 1 37,358" fill="none" style="stroke:#000000;stroke-width:1.5;"/><line style="stroke:#000000;stroke-width:1.5;" x1="34.5" x2="196.1064" y1="380.2969" y2="380.2969"/><text fill="#000000" font-family="sans-serif" font-size="14" font-weight="bold" lengthAdjust="spacing" textLength="148.6064" x="38.5" y="372.9951">Gesti&#243;n de Plantas</text></g><!--cluster Gesti?n de Espacios--><g class="cluster" data-entity="Gesti.n de Espacios" data-source-line="23" data-uid="ent0017" id="cluster_Gesti.n de Espacios"><path d="M32.5,664 L191.5742,664 A3.75,3.75 0 0 1 194.0742,666.5 L201.0742,686.2969 L212.5,686.2969 A2.5,2.5 0 0 1 215,688.7969 L215,949.5 A2.5,2.5 0 0 1 212.5,952 L32.5,952 A2.5,2.5 0 0 1 30,949.5 L30,666.5 A2.5,2.5 0 0 1 32.5,664" fill="none" style="stroke:#000000;stroke-width:1.5;"/><line style="stroke:#000000;stroke-width:1.5;" x1="30" x2="201.0742" y1="686.2969" y2="686.2969"/><text fill="#000000" font-family="sans-serif" font-size="14" font-weight="bold" lengthAdjust="spacing" textLength="158.0742" x="34" y="678.9951">Gesti&#243;n de Espacios</text></g><!--cluster Gesti?n de Recorridos--><g class="cluster" data-entity="Gesti.n de Recorridos" data-source-line="31" data-uid="ent0022" id="cluster_Gesti.n de Recorridos"><path d="M27,1000 L202.4326,1000 A3.75,3.75 0 0 1 204.9326,1002.5 L211.9326,1022.2969 L218,1022.2969 A2.5,2.5 0 0 1 220.5,1024.7969 L220.5,1294.5 A2.5,2.5 0 0 1 218,1297 L27,1297 A2.5,2.5 0 0 1 24.5,1294.5 L24.5,1002.5 A2.5,2.5 0 0 1 27,1000" fill="none" style="stroke:#000000;stroke-width:1.5;"/><line style="stroke:#000000;stroke-width:1.5;" x1="24.5" x2="211.9326" y1="1022.2969" y2="1022.2969"/><text fill="#000000" font-family="sans-serif" font-size="14" font-weight="bold" lengthAdjust="spacing" textLength="174.4326" x="28.5" y="1014.9951">Gesti&#243;n de Recorridos</text></g><!--cluster Interacci?n de Espacios--><g class="cluster" data-entity="Interacci.n de Espacios" data-source-line="38" data-uid="ent0027" id="cluster_Interacci.n de Espacios"><path d="M532,359 L719.375,359 A3.75,3.75 0 0 1 721.875,361.5 L728.875,381.2969 L744,381.2969 A2.5,2.5 0 0 1 746.5,383.7969 L746.5,806.5 A2.5,2.5 0 0 1 744,809 L532,809 A2.5,2.5 0 0 1 529.5,806.5 L529.5,361.5 A2.5,2.5 0 0 1 532,359" fill="none" style="stroke:#000000;stroke-width:1.5;"/><line style="stroke:#000000;stroke-width:1.5;" x1="529.5" x2="728.875" y1="381.2969" y2="381.2969"/><text fill="#000000" font-family="sans-serif" font-size="14" font-weight="bold" lengthAdjust="spacing" textLength="186.375" x="533.5" y="373.9951">Interacci&#243;n de Espacios</text></g><!--cluster Interacci?n de Recorridos--><g class="cluster" data-entity="Interacci.n de Recorridos" data-source-line="47" data-uid="ent0034" id="cluster_Interacci.n de Recorridos"><path d="M531.5,833 L735.2334,833 A3.75,3.75 0 0 1 737.7334,835.5 L744.7334,855.2969 L744.5,855.2969 A2.5,2.5 0 0 1 747,857.7969 L747,994.5 A2.5,2.5 0 0 1 744.5,997 L531.5,997 A2.5,2.5 0 0 1 529,994.5 L529,835.5 A2.5,2.5 0 0 1 531.5,833" fill="none" style="stroke:#000000;stroke-width:1.5;"/><line style="stroke:#000000;stroke-width:1.5;" x1="529" x2="744.7334" y1="855.2969" y2="855.2969"/><text fill="#000000" font-family="sans-serif" font-size="14" font-weight="bold" lengthAdjust="spacing" textLength="202.7334" x="533" y="847.9951">Interacci&#243;n de Recorridos</text></g><!--entity crearRegion--><g class="entity" data-entity="crearRegion" data-source-line="10" data-uid="ent0008" id="entity_crearRegion"><ellipse cx="122.4143" cy="100.0829" fill="#F1F1F1" rx="65.9143" ry="15.5829" style="stroke:#181818;stroke-width:0.5;"/><text fill="#000000" font-family="sans-serif" font-size="14" lengthAdjust="spacing" textLength="95.8809" x="74.4739" y="104.7313">crearRegion()</text></g><!--entity verRegiones--><g class="entity" data-entity="verRegiones" data-source-line="11" data-uid="ent0009" id="entity_verRegiones"><ellipse cx="122.7412" cy="166.2482" fill="#F1F1F1" rx="66.7412" ry="15.7482" style="stroke:#181818;stroke-width:0.5;"/><text fill="#000000" font-family="sans-serif" font-size="14" lengthAdjust="spacing" textLength="98.041" x="73.7207" y="170.8967">verRegiones()</text></g><!--entity editarRegion--><g class="entity" data-entity="editarRegion" data-source-line="12" data-uid="ent0010" id="entity_editarRegion"><ellipse cx="122.2666" cy="232.9533" fill="#F1F1F1" rx="67.7666" ry="15.9533" style="stroke:#181818;stroke-width:0.5;"/><text fill="#000000" font-family="sans-serif" font-size="14" lengthAdjust="spacing" textLength="100.6934" x="71.9199" y="237.6018">editarRegion()</text></g><!--entity eliminarRegion--><g class="entity" data-entity="eliminarRegion" data-source-line="13" data-uid="ent0011" id="entity_eliminarRegion"><ellipse cx="122.6284" cy="301.2257" fill="#F1F1F1" rx="74.1284" ry="17.2257" style="stroke:#181818;stroke-width:0.5;"/><text fill="#000000" font-family="sans-serif" font-size="14" lengthAdjust="spacing" textLength="116.6074" x="64.3247" y="305.8741">eliminarRegion()</text></g><!--entity crearPlanta--><g class="entity" data-entity="crearPlanta" data-source-line="17" data-uid="ent0013" id="entity_crearPlanta"><ellipse cx="122.6414" cy="408.2283" fill="#F1F1F1" rx="64.1414" ry="15.2283" style="stroke:#181818;stroke-width:0.5;"/><text fill="#000000" font-family="sans-serif" font-size="14" lengthAdjust="spacing" textLength="91.1777" x="77.0525" y="412.8767">crearPlanta()</text></g><!--entity verPlantas--><g class="entity" data-entity="verPlantas" data-source-line="18" data-uid="ent0014" id="entity_verPlantas"><ellipse cx="122.2749" cy="472.755" fill="#F1F1F1" rx="61.7749" ry="14.755" style="stroke:#181818;stroke-width:0.5;"/><text fill="#000000" font-family="sans-serif" font-size="14" lengthAdjust="spacing" textLength="84.7246" x="79.9126" y="477.4034">verPlantas()</text></g><!--entity editarPlanta--><g class="entity" data-entity="editarPlanta" data-source-line="19" data-uid="ent0015" id="entity_editarPlanta"><ellipse cx="122.456" cy="539.0912" fill="#F1F1F1" rx="65.956" ry="15.5912" style="stroke:#181818;stroke-width:0.5;"/><text fill="#000000" font-family="sans-serif" font-size="14" lengthAdjust="spacing" textLength="95.9902" x="74.4609" y="543.7396">editarPlanta()</text></g><!--entity eliminarPlanta--><g class="entity" data-entity="eliminarPlanta" data-source-line="20" data-uid="ent0016" id="entity_eliminarPlanta"><ellipse cx="122.7139" cy="606.8428" fill="#F1F1F1" rx="72.2139" ry="16.8428" style="stroke:#181818;stroke-width:0.5;"/><text fill="#000000" font-family="sans-serif" font-size="14" lengthAdjust="spacing" textLength="111.9043" x="66.7618" y="611.4912">eliminarPlanta()</text></g><!--entity crearEspacio--><g class="entity" data-entity="crearEspacio" data-source-line="24" data-uid="ent0018" id="entity_crearEspacio"><ellipse cx="122.4182" cy="714.9836" fill="#F1F1F1" rx="67.9182" ry="15.9836" style="stroke:#181818;stroke-width:0.5;"/><text fill="#000000" font-family="sans-serif" font-size="14" lengthAdjust="spacing" textLength="101.083" x="71.8767" y="719.6321">crearEspacio()</text></g><!--entity verEspacios--><g class="entity" data-entity="verEspacios" data-source-line="25" data-uid="ent0019" id="entity_verEspacios"><ellipse cx="122.439" cy="781.9878" fill="#F1F1F1" rx="65.439" ry="15.4878" style="stroke:#181818;stroke-width:0.5;"/><text fill="#000000" font-family="sans-serif" font-size="14" lengthAdjust="spacing" textLength="94.6299" x="75.1241" y="786.6362">verEspacios()</text></g><!--entity editarEspacio--><g class="entity" data-entity="editarEspacio" data-source-line="26" data-uid="ent0020" id="entity_editarEspacio"><ellipse cx="122.3086" cy="848.8617" fill="#F1F1F1" rx="69.8086" ry="16.3617" style="stroke:#181818;stroke-width:0.5;"/><text fill="#000000" font-family="sans-serif" font-size="14" lengthAdjust="spacing" textLength="105.8955" x="69.3609" y="853.5102">editarEspacio()</text></g><!--entity eliminarEspacio--><g class="entity" data-entity="eliminarEspacio" data-source-line="27" data-uid="ent0021" id="entity_eliminarEspacio"><ellipse cx="122.2756" cy="918.1551" fill="#F1F1F1" rx="76.2756" ry="17.6551" style="stroke:#181818;stroke-width:0.5;"/><text fill="#000000" font-family="sans-serif" font-size="14" lengthAdjust="spacing" textLength="121.8096" x="61.3708" y="922.8036">eliminarEspacio()</text></g><!--entity crearRecorrido--><g class="entity" data-entity="crearRecorrido" data-source-line="32" data-uid="ent0023" id="entity_crearRecorrido"><ellipse cx="122.3823" cy="1052.0765" fill="#F1F1F1" rx="73.3823" ry="17.0765" style="stroke:#181818;stroke-width:0.5;"/><text fill="#000000" font-family="sans-serif" font-size="14" lengthAdjust="spacing" textLength="114.7822" x="64.9912" y="1056.7249">crearRecorrido()</text></g><!--entity verRecorridos--><g class="entity" data-entity="verRecorridos" data-source-line="33" data-uid="ent0024" id="entity_verRecorridos"><ellipse cx="122.277" cy="1121.0554" fill="#F1F1F1" rx="70.777" ry="16.5554" style="stroke:#181818;stroke-width:0.5;"/><text fill="#000000" font-family="sans-serif" font-size="14" lengthAdjust="spacing" textLength="108.3291" x="68.1125" y="1125.7038">verRecorridos()</text></g><!--entity editarRecorrido--><g class="entity" data-entity="editarRecorrido" data-source-line="34" data-uid="ent0025" id="entity_editarRecorrido"><ellipse cx="122.3578" cy="1189.9716" fill="#F1F1F1" rx="75.3578" ry="17.4716" style="stroke:#181818;stroke-width:0.5;"/><text fill="#000000" font-family="sans-serif" font-size="14" lengthAdjust="spacing" textLength="119.5947" x="62.5604" y="1194.62">editarRecorrido()</text></g><!--entity eliminarRecorrido--><g class="entity" data-entity="eliminarRecorrido" data-source-line="35" data-uid="ent0026" id="entity_eliminarRecorrido"><ellipse cx="122.5606" cy="1261.8121" fill="#F1F1F1" rx="82.0606" ry="18.8121" style="stroke:#181818;stroke-width:0.5;"/><text fill="#000000" font-family="sans-serif" font-size="14" lengthAdjust="spacing" textLength="135.5088" x="54.8062" y="1266.4606">eliminarRecorrido()</text></g><!--entity verEspacio--><g class="entity" data-entity="verEspacio" data-source-line="39" data-uid="ent0028" id="entity_verEspacio"><ellipse cx="638.2228" cy="408.9446" fill="#F1F1F1" rx="62.7228" ry="14.9446" style="stroke:#181818;stroke-width:0.5;"/><text fill="#000000" font-family="sans-serif" font-size="14" lengthAdjust="spacing" textLength="87.3359" x="594.5549" y="413.593">verEspacio()</text></g><!--entity cambiarDeEspacio--><g class="entity" data-entity="cambiarDeEspacio" data-source-line="40" data-uid="ent0029" id="entity_cambiarDeEspacio"><ellipse cx="637.9694" cy="478.7939" fill="#F1F1F1" rx="84.4694" ry="19.2939" style="stroke:#181818;stroke-width:0.5;"/><text fill="#000000" font-family="sans-serif" font-size="14" lengthAdjust="spacing" textLength="141.1006" x="567.4191" y="483.4423">cambiarDeEspacio()</text></g><!--entity buscarEspacio--><g class="entity" data-entity="buscarEspacio" data-source-line="41" data-uid="ent0030" id="entity_buscarEspacio"><ellipse cx="638.1587" cy="550.8317" fill="#F1F1F1" rx="72.1587" ry="16.8317" style="stroke:#181818;stroke-width:0.5;"/><text fill="#000000" font-family="sans-serif" font-size="14" lengthAdjust="spacing" textLength="111.7676" x="582.2749" y="555.4802">buscarEspacio()</text></g><!--entity verDetallesEspacio--><g class="entity" data-entity="verDetallesEspacio" data-source-line="42" data-uid="ent0031" id="entity_verDetallesEspacio"><ellipse cx="637.9389" cy="623.0878" fill="#F1F1F1" rx="85.9389" ry="19.5878" style="stroke:#181818;stroke-width:0.5;"/><text fill="#000000" font-family="sans-serif" font-size="14" lengthAdjust="spacing" textLength="144.4844" x="565.6967" y="627.7362">verDetallesEspacio()</text></g><!--entity verEspaciosCercanos--><g class="entity" data-entity="verEspaciosCercanos" data-source-line="43" data-uid="ent0032" id="entity_verEspaciosCercanos"><ellipse cx="638.1805" cy="698.9361" fill="#F1F1F1" rx="92.6805" ry="20.9361" style="stroke:#181818;stroke-width:0.5;"/><text fill="#000000" font-family="sans-serif" font-size="14" lengthAdjust="spacing" textLength="159.7832" x="558.2889" y="703.5845">verEspaciosCercanos()</text></g><!--entity verEspaciosPlanta--><g class="entity" data-entity="verEspaciosPlanta" data-source-line="44" data-uid="ent0033" id="entity_verEspaciosPlanta"><ellipse cx="637.8385" cy="774.0677" fill="#F1F1F1" rx="83.3385" ry="19.0677" style="stroke:#181818;stroke-width:0.5;"/><text fill="#000000" font-family="sans-serif" font-size="14" lengthAdjust="spacing" textLength="138.4824" x="568.5973" y="778.7161">verEspaciosPlanta()</text></g><!--entity listarRecorridos--><g class="entity" data-entity="listarRecorridos" data-source-line="48" data-uid="ent0035" id="entity_listarRecorridos"><ellipse cx="637.7622" cy="886.0524" fill="#F1F1F1" rx="75.7622" ry="17.5524" style="stroke:#181818;stroke-width:0.5;"/><text fill="#000000" font-family="sans-serif" font-size="14" lengthAdjust="spacing" textLength="120.5723" x="577.4761" y="890.7009">listarRecorridos()</text></g><!--entity seleccionarRecorrido--><g class="entity" data-entity="seleccionarRecorrido" data-source-line="49" data-uid="ent0036" id="entity_seleccionarRecorrido"><ellipse cx="637.8199" cy="959.764" fill="#F1F1F1" rx="91.8199" ry="20.764" style="stroke:#181818;stroke-width:0.5;"/><text fill="#000000" font-family="sans-serif" font-size="14" lengthAdjust="spacing" textLength="157.8486" x="558.8956" y="964.4124">seleccionarRecorrido()</text></g><!--entity admin--><g class="entity" data-entity="admin" data-source-line="3" data-uid="ent0002" id="entity_admin"><ellipse cx="314.04" cy="631.5" fill="#F1F1F1" rx="8" ry="8" style="stroke:#181818;stroke-width:0.5;"/><path d="M314.04,639.5 L314.04,666.5 M301.04,647.5 L327.04,647.5 M314.04,666.5 L301.04,681.5 M314.04,666.5 L327.04,681.5" fill="none" style="stroke:#181818;stroke-width:0.5;"/><text fill="#000000" font-family="sans-serif" font-size="14" lengthAdjust="spacing" textLength="99.0801" x="264.5" y="695.9951">Administrador</text></g><!--entity visitante--><g class="entity" data-entity="visitante" data-source-line="4" data-uid="ent0003" id="entity_visitante"><ellipse cx="454.3472" cy="631.5" fill="#F1F1F1" rx="8" ry="8" style="stroke:#181818;stroke-width:0.5;"/><path d="M454.3472,639.5 L454.3472,666.5 M441.3472,647.5 L467.3472,647.5 M454.3472,666.5 L441.3472,681.5 M454.3472,666.5 L467.3472,681.5" fill="none" style="stroke:#181818;stroke-width:0.5;"/><text fill="#000000" font-family="sans-serif" font-size="14" lengthAdjust="spacing" textLength="61.6943" x="423.5" y="695.9951">Visitante</text></g><!--link admin to visitante--><g class="link" data-entity-1="admin" data-entity-2="visitante" data-source-line="6" data-uid="lnk5" id="link_admin_visitante"><path d="M363.83,661 C383.61,661 387.83,661 405.21,661" fill="none" id="admin-to-visitante" style="stroke:#181818;stroke-width:1;"/><polygon fill="none" points="423.21,661,405.21,655,405.21,667,423.21,661" style="stroke:#181818;stroke-width:1;"/></g><!--reverse link crearRegion to admin--><g class="link" data-entity-1="crearRegion" data-entity-2="admin" data-source-line="52" data-uid="lnk37" id="link_crearRegion_admin"><path d="M193.547,104.0891 C215.387,108.3891 232.12,115.94 247,133 C310.67,206.03 314.31,513.84 313.55,622.68" fill="none" id="crearRegion-backto-admin" style="stroke:#181818;stroke-width:1;"/><polygon fill="#181818" points="187.66,102.93,195.7178,108.5933,192.5658,103.8959,197.2632,100.7439,187.66,102.93" style="stroke:#181818;stroke-width:1;"/></g><!--reverse link verRegiones to admin--><g class="link" data-entity-1="verRegiones" data-entity-2="admin" data-source-line="53" data-uid="lnk38" id="link_verRegiones_admin"><path d="M193.7037,170.3157 C215.4237,174.6557 232.05,182.15 247,199 C302.52,261.57 311.42,523.81 312.78,622.88" fill="none" id="verRegiones-backto-admin" style="stroke:#181818;stroke-width:1;"/><polygon fill="#181818" points="187.82,169.14,195.8618,174.8259,192.7231,170.1197,197.4293,166.981,187.82,169.14" style="stroke:#181818;stroke-width:1;"/></g><!--reverse link editarRegion to admin--><g class="link" data-entity-1="editarRegion" data-entity-2="admin" data-source-line="54" data-uid="lnk39" id="link_editarRegion_admin"><path d="M194.7544,237.8212 C216.0644,242.2512 232.15,249.66 247,266 C294.29,318.03 308.05,534.39 311.75,622.95" fill="none" id="editarRegion-backto-admin" style="stroke:#181818;stroke-width:1;"/><polygon fill="#181818" points="188.88,236.6,196.8775,242.3481,193.7753,237.6177,198.5057,234.5155,188.88,236.6" style="stroke:#181818;stroke-width:1;"/></g><!--reverse link eliminarRegion to admin--><g class="link" data-entity-1="eliminarRegion" data-entity-2="admin" data-source-line="55" data-uid="lnk40" id="link_eliminarRegion_admin"><path d="M167.9388,317.8234 C195.6388,330.0534 226.05,347.88 247,377 C300.96,451.99 311.53,564.39 313.15,622.75" fill="none" id="eliminarRegion-backto-admin" style="stroke:#181818;stroke-width:1;"/><polygon fill="#181818" points="162.45,315.4,169.0676,322.6943,167.024,317.4195,172.2988,315.3759,162.45,315.4" style="stroke:#181818;stroke-width:1;"/></g><!--reverse link crearPlanta to admin--><g class="link" data-entity-1="crearPlanta" data-entity-2="admin" data-source-line="57" data-uid="lnk41" id="link_crearPlanta_admin"><path d="M190.7645,412.6601 C212.8145,416.8501 230.42,424.01 247,440 C297.31,488.49 309.7,573.56 312.49,622.81" fill="none" id="crearPlanta-backto-admin" style="stroke:#181818;stroke-width:1;"/><polygon fill="#181818" points="184.87,411.54,192.9651,417.1498,189.7821,412.4734,194.4585,409.2905,184.87,411.54" style="stroke:#181818;stroke-width:1;"/></g><!--reverse link verPlantas to admin--><g class="link" data-entity-1="verPlantas" data-entity-2="admin" data-source-line="58" data-uid="lnk42" id="link_verPlantas_admin"><path d="M187.6594,478.7965 C210.2094,483.1865 228.98,490.36 247,506 C281.68,536.09 298.65,587.57 306.58,622.89" fill="none" id="verPlantas-backto-admin" style="stroke:#181818;stroke-width:1;"/><polygon fill="#181818" points="181.77,477.65,189.8398,483.2961,186.6779,478.6055,191.3685,475.4435,181.77,477.65" style="stroke:#181818;stroke-width:1;"/></g><!--reverse link editarPlanta to admin--><g class="link" data-entity-1="editarPlanta" data-entity-2="admin" data-source-line="59" data-uid="lnk43" id="link_editarPlanta_admin"><path d="M187.1539,547.4305 C209.1239,552.1905 227.63,558.84 247,572 C265.93,584.87 281.53,605 292.79,622.87" fill="none" id="editarPlanta-backto-admin" style="stroke:#181818;stroke-width:1;"/><polygon fill="#181818" points="181.29,546.16,189.2389,551.975,186.1766,547.2187,190.9329,544.1564,181.29,546.16" style="stroke:#181818;stroke-width:1;"/></g><!--reverse link eliminarPlanta to admin--><g class="link" data-entity-1="eliminarPlanta" data-entity-2="admin" data-source-line="60" data-uid="lnk44" id="link_eliminarPlanta_admin"><path d="M175.1402,621.7146 C203.8402,629.8946 235.01,638.78 264.24,647.1" fill="none" id="eliminarPlanta-backto-admin" style="stroke:#181818;stroke-width:1;"/><polygon fill="#181818" points="169.37,620.07,176.9289,626.3837,174.1785,621.4405,179.1217,618.6901,169.37,620.07" style="stroke:#181818;stroke-width:1;"/></g><!--reverse link crearEspacio to admin--><g class="link" data-entity-1="crearEspacio" data-entity-2="admin" data-source-line="62" data-uid="lnk45" id="link_crearEspacio_admin"><path d="M172.2703,701.1056 C201.4303,692.7956 234.24,683.44 264.5,674.82" fill="none" id="crearEspacio-backto-admin" style="stroke:#181818;stroke-width:1;"/><polygon fill="#181818" points="166.5,702.75,176.2517,704.1302,171.3086,701.3797,174.0591,696.4365,166.5,702.75" style="stroke:#181818;stroke-width:1;"/></g><!--reverse link verEspacios to admin--><g class="link" data-entity-1="verEspacios" data-entity-2="admin" data-source-line="63" data-uid="lnk46" id="link_verEspacios_admin"><path d="M185.8284,773.1843 C208.1184,768.2543 227.2,761.4 247,748 C265.37,735.56 280.73,716.32 292,699.09" fill="none" id="verEspacios-backto-admin" style="stroke:#181818;stroke-width:1;"/><polygon fill="#181818" points="179.97,774.48,189.6215,776.442,184.852,773.4002,187.8938,768.6308,179.97,774.48" style="stroke:#181818;stroke-width:1;"/></g><!--reverse link editarEspacio to admin--><g class="link" data-entity-1="editarEspacio" data-entity-2="admin" data-source-line="64" data-uid="lnk47" id="link_editarEspacio_admin"><path d="M193.0088,841.3116 C214.0288,836.5016 230.41,829.47 247,815 C281.31,785.08 298.33,734.19 306.39,699.15" fill="none" id="editarEspacio-backto-admin" style="stroke:#181818;stroke-width:1;"/><polygon fill="#181818" points="187.16,842.65,196.8255,844.5416,192.034,841.5347,195.041,836.7432,187.16,842.65" style="stroke:#181818;stroke-width:1;"/></g><!--reverse link eliminarEspacio to admin--><g class="link" data-entity-1="eliminarEspacio" data-entity-2="admin" data-source-line="65" data-uid="lnk48" id="link_eliminarEspacio_admin"><path d="M198.7781,909.4546 C218.3781,904.3746 232.49,897.33 247,883 C296.93,833.71 309.46,748.46 312.37,699.19" fill="none" id="eliminarEspacio-backto-admin" style="stroke:#181818;stroke-width:1;"/><polygon fill="#181818" points="192.97,910.96,202.6857,912.574,197.8101,909.7055,200.6786,904.8299,192.97,910.96" style="stroke:#181818;stroke-width:1;"/></g><!--reverse link crearRecorrido to admin--><g class="link" data-entity-1="crearRecorrido" data-entity-2="admin" data-source-line="67" data-uid="lnk49" id="link_crearRecorrido_admin"><path d="M157.6267,1033.2627 C186.1567,1016.2927 223.61,989.6 247,952 C296.95,871.73 309.22,758.02 312.15,699.34" fill="none" id="crearRecorrido-backto-admin" style="stroke:#181818;stroke-width:1;"/><polygon fill="#181818" points="152.47,1036.33,162.2499,1035.1669,156.7673,1033.7739,158.1602,1028.2913,152.47,1036.33" style="stroke:#181818;stroke-width:1;"/></g><!--reverse link verRecorridos to admin--><g class="link" data-entity-1="verRecorridos" data-entity-2="admin" data-source-line="68" data-uid="lnk50" id="link_verRecorridos_admin"><path d="M196.1948,1114.7243 C217.1048,1109.8743 232.6,1102.27 247,1086 C297.53,1028.89 309.44,792.37 312.19,699.08" fill="none" id="verRecorridos-backto-admin" style="stroke:#181818;stroke-width:1;"/><polygon fill="#181818" points="190.35,1116.08,200.021,1117.943,195.2207,1114.9503,198.2135,1110.1499,190.35,1116.08" style="stroke:#181818;stroke-width:1;"/></g><!--reverse link editarRecorrido to admin--><g class="link" data-entity-1="editarRecorrido" data-entity-2="admin" data-source-line="69" data-uid="lnk51" id="link_editarRecorrido_admin"><path d="M199.906,1182.9154 C219.666,1177.9054 233.58,1170.5 247,1155 C305.98,1086.89 312.68,802.69 313.12,699.04" fill="none" id="editarRecorrido-backto-admin" style="stroke:#181818;stroke-width:1;"/><polygon fill="#181818" points="194.09,1184.39,203.797,1186.0554,198.9366,1183.1612,201.8309,1178.3008,194.09,1184.39" style="stroke:#181818;stroke-width:1;"/></g><!--reverse link eliminarRecorrido to admin--><g class="link" data-entity-1="eliminarRecorrido" data-entity-2="admin" data-source-line="70" data-uid="lnk52" id="link_eliminarRecorrido_admin"><path d="M203.6161,1252.6267 C222.1761,1247.1667 234.56,1239.83 247,1225 C280.82,1184.69 304.13,819.34 310.94,699.14" fill="none" id="eliminarRecorrido-backto-admin" style="stroke:#181818;stroke-width:1;"/><polygon fill="#181818" points="197.86,1254.32,207.623,1255.6174,202.6567,1252.9089,205.3653,1247.9426,197.86,1254.32" style="stroke:#181818;stroke-width:1;"/></g><!--link visitante to verEspacio--><g class="link" data-entity-1="visitante" data-entity-2="verEspacio" data-source-line="72" data-uid="lnk53" id="link_visitante_verEspacio"><path d="M456.23,622.91 C459.25,574.24 471.85,490.5 521,442 C536.43,426.78 552.4772,419.746 573.1072,415.256" fill="none" id="visitante-to-verEspacio" style="stroke:#181818;stroke-width:1;"/><polygon fill="#181818" points="578.97,413.98,569.3252,411.9855,574.0844,415.0433,571.0265,419.8025,578.97,413.98" style="stroke:#181818;stroke-width:1;"/></g><!--link visitante to cambiarDeEspacio--><g class="link" data-entity-1="visitante" data-entity-2="cambiarDeEspacio" data-source-line="73" data-uid="lnk54" id="link_visitante_cambiarDeEspacio"><path d="M463.54,622.8 C472.32,590.11 489.54,544.02 521,516 C534.5,503.98 546.2028,497.6805 563.4128,492.2005" fill="none" id="visitante-to-cambiarDeEspacio" style="stroke:#181818;stroke-width:1;"/><polygon fill="#181818" points="569.13,490.38,559.3406,489.2992,564.3657,491.897,561.7679,496.9221,569.13,490.38" style="stroke:#181818;stroke-width:1;"/></g><!--link visitante to buscarEspacio--><g class="link" data-entity-1="visitante" data-entity-2="buscarEspacio" data-source-line="74" data-uid="lnk55" id="link_visitante_buscarEspacio"><path d="M481.69,623 C492.51,609.68 506.04,595.65 521,586 C538.85,574.48 554.8732,568.1483 574.7532,562.8383" fill="none" id="visitante-to-buscarEspacio" style="stroke:#181818;stroke-width:1;"/><polygon fill="#181818" points="580.55,561.29,570.8226,559.748,575.7193,562.5803,572.8871,567.477,580.55,561.29" style="stroke:#181818;stroke-width:1;"/></g><!--link visitante to verDetallesEspacio--><g class="link" data-entity-1="visitante" data-entity-2="verDetallesEspacio" data-source-line="75" data-uid="lnk56" id="link_visitante_verDetallesEspacio"><path d="M485.88,654.64 C509.9,649.61 538.3671,643.6484 568.2471,637.3984" fill="none" id="visitante-to-verDetallesEspacio" style="stroke:#181818;stroke-width:1;"/><polygon fill="#181818" points="574.12,636.17,564.4917,634.0974,569.2259,637.1937,566.1296,641.9279,574.12,636.17" style="stroke:#181818;stroke-width:1;"/></g><!--link visitante to verEspaciosCercanos--><g class="link" data-entity-1="visitante" data-entity-2="verEspaciosCercanos" data-source-line="76" data-uid="lnk57" id="link_visitante_verEspaciosCercanos"><path d="M485.88,667.36 C508.58,672.11 534.6472,677.571 563.3172,683.571" fill="none" id="visitante-to-verEspaciosCercanos" style="stroke:#181818;stroke-width:1;"/><polygon fill="#181818" points="569.19,684.8,561.2002,679.0413,564.296,683.7758,559.5615,686.8716,569.19,684.8" style="stroke:#181818;stroke-width:1;"/></g><!--link visitante to verEspaciosPlanta--><g class="link" data-entity-1="visitante" data-entity-2="verEspaciosPlanta" data-source-line="77" data-uid="lnk58" id="link_visitante_verEspaciosPlanta"><path d="M481.68,699.39 C492.51,712.87 506.03,727.11 521,737 C537.4,747.84 551.4458,753.9568 570.0058,759.5568" fill="none" id="visitante-to-verEspaciosPlanta" style="stroke:#181818;stroke-width:1;"/><polygon fill="#181818" points="575.75,761.29,568.2891,754.8608,570.9631,759.8457,565.9782,762.5197,575.75,761.29" style="stroke:#181818;stroke-width:1;"/></g><!--link visitante to seleccionarRecorrido--><g class="link" data-entity-1="visitante" data-entity-2="seleccionarRecorrido" data-source-line="79" data-uid="lnk59" id="link_visitante_seleccionarRecorrido"><path d="M460.58,699.23 C469.83,763.39 491.24,888.84 521,921 C532.4,933.32 542.1716,939.6987 558.0316,945.4687" fill="none" id="visitante-to-seleccionarRecorrido" style="stroke:#181818;stroke-width:1;"/><polygon fill="#181818" points="563.67,947.52,556.5799,940.6841,558.9713,945.8106,553.8448,948.202,563.67,947.52" style="stroke:#181818;stroke-width:1;"/></g><!--link visitante to listarRecorridos--><g class="link" data-entity-1="visitante" data-entity-2="listarRecorridos" data-source-line="80" data-uid="lnk60" id="link_visitante_listarRecorridos"><path d="M465.81,699.22 C475.89,731.21 493.73,776.68 521,809 C543.68,835.88 572.7315,854.3027 598.1815,867.5927" fill="none" id="visitante-to-listarRecorridos" style="stroke:#181818;stroke-width:1;"/><polygon fill="#181818" points="603.5,870.37,597.3738,862.6583,599.0679,868.0556,593.6707,869.7497,603.5,870.37" style="stroke:#181818;stroke-width:1;"/></g><!--SRC=[XLLBRjmm3Dth58HNuuLl41GecgBehWYGxXcPdGfrx43IPDFcL3r2BrRDM1gB53tPMOy_FVA9dkX7XBY0TyUV4KRdoKQtpCQWZOk7xkFux6ONeiTnyHrW03mZnVpT1HTnZdGnlPQJCTTFkFipd5w6DGoCUK7x2uy4tHSAqVtxEyD8y3YxL_B1ZJXslms0wlH0ntGp2XSFW5CWYu70UaA_sivtwAhpeU-OQwfHabnSgxDqfJ5TlqvR0utpv18vxiwWDU3Dx57xDgLMeSfiDMtCrhF2BESenF9HvrKbhO4zNhKxWmelW3rcdqE2tQ9IoxQDMmOKSYLDOLVEEhqwCKFs2B80ZXMARplIVI2xUE_6J56eCjjgOMPepSkKMH9jsYm8TovIh9CBJ0HSnSX297eEgcb-JS_NexNlp78RXvYExBR5voU7_fxOu0KeWvvEmV81CKJHoZr5d2OAub82lY6oJ-GjpgtO2duZj7ef3VfUUuMIjlnJshyezI51UQb04wNSIpDspP2lTgXsPmztGzxQvb0jIeRNIv4RsFghJRd8sX9P92yjfORYprUHKYEtNnOfKr6gQ15Y7oXrhcriUrQcetPDYseU9Qkt_LM7uGDKP7ffai-gSM2lg5SoY_VIxnU_FenRFdbA3GTDZaqUAVR-Fm00]--></g></svg>