<svg xmlns="http://www.w3.org/2000/svg" xmlns:xlink="http://www.w3.org/1999/xlink" contentStyleType="text/css" data-diagram-type="CLASS" height="386px" preserveAspectRatio="none" style="width:259px;height:386px;background:#FFFFFF;" version="1.1" viewBox="0 0 259 386" width="259px" zoomAndPan="magnify"><defs/><g><!--class Mapa--><g class="entity" data-entity="Mapa" data-source-line="1" data-uid="ent0002" id="entity_Mapa"><rect fill="#F1F1F1" height="48" rx="2.5" ry="2.5" style="stroke:#181818;stroke-width:0.5;" width="70.124" x="95.5" y="7"/><ellipse cx="110.5" cy="23" fill="#ADD1B2" rx="11" ry="11" style="stroke:#181818;stroke-width:1;"/><path d="M113.4688,28.6406 Q112.8906,28.9375 112.25,29.0781 Q111.6094,29.2344 110.9063,29.2344 Q108.4063,29.2344 107.0781,27.5938 Q105.7656,25.9375 105.7656,22.8125 Q105.7656,19.6875 107.0781,18.0313 Q108.4063,16.375 110.9063,16.375 Q111.6094,16.375 112.25,16.5313 Q112.9063,16.6875 113.4688,16.9844 L113.4688,19.7031 Q112.8438,19.125 112.25,18.8594 Q111.6563,18.5781 111.0313,18.5781 Q109.6875,18.5781 109,19.6563 Q108.3125,20.7188 108.3125,22.8125 Q108.3125,24.9063 109,25.9844 Q109.6875,27.0469 111.0313,27.0469 Q111.6563,27.0469 112.25,26.7813 Q112.8438,26.5 113.4688,25.9219 L113.4688,28.6406 Z " fill="#000000"/><text fill="#000000" font-family="sans-serif" font-size="14" lengthAdjust="spacing" textLength="38.124" x="124.5" y="27.8467">Mapa</text><line style="stroke:#181818;stroke-width:0.5;" x1="96.5" x2="164.624" y1="39" y2="39"/><line style="stroke:#181818;stroke-width:0.5;" x1="96.5" x2="164.624" y1="47" y2="47"/></g><!--class Edificio--><g class="entity" data-entity="Edificio" data-source-line="2" data-uid="ent0003" id="entity_Edificio"><rect fill="#F1F1F1" height="48" rx="2.5" ry="2.5" style="stroke:#181818;stroke-width:0.5;" width="82.5928" x="42" y="115"/><ellipse cx="57" cy="131" fill="#ADD1B2" rx="11" ry="11" style="stroke:#181818;stroke-width:1;"/><path d="M59.9688,136.6406 Q59.3906,136.9375 58.75,137.0781 Q58.1094,137.2344 57.4063,137.2344 Q54.9063,137.2344 53.5781,135.5938 Q52.2656,133.9375 52.2656,130.8125 Q52.2656,127.6875 53.5781,126.0313 Q54.9063,124.375 57.4063,124.375 Q58.1094,124.375 58.75,124.5313 Q59.4063,124.6875 59.9688,124.9844 L59.9688,127.7031 Q59.3438,127.125 58.75,126.8594 Q58.1563,126.5781 57.5313,126.5781 Q56.1875,126.5781 55.5,127.6563 Q54.8125,128.7188 54.8125,130.8125 Q54.8125,132.9063 55.5,133.9844 Q56.1875,135.0469 57.5313,135.0469 Q58.1563,135.0469 58.75,134.7813 Q59.3438,134.5 59.9688,133.9219 L59.9688,136.6406 Z " fill="#000000"/><text fill="#000000" font-family="sans-serif" font-size="14" lengthAdjust="spacing" textLength="50.5928" x="71" y="135.8467">Edificio</text><line style="stroke:#181818;stroke-width:0.5;" x1="43" x2="123.5928" y1="147" y2="147"/><line style="stroke:#181818;stroke-width:0.5;" x1="43" x2="123.5928" y1="155" y2="155"/></g><!--class Planta--><g class="entity" data-entity="Planta" data-source-line="3" data-uid="ent0004" id="entity_Planta"><rect fill="#F1F1F1" height="48" rx="2.5" ry="2.5" style="stroke:#181818;stroke-width:0.5;" width="75.8525" x="45.5" y="223"/><ellipse cx="60.5" cy="239" fill="#ADD1B2" rx="11" ry="11" style="stroke:#181818;stroke-width:1;"/><path d="M63.4688,244.6406 Q62.8906,244.9375 62.25,245.0781 Q61.6094,245.2344 60.9063,245.2344 Q58.4063,245.2344 57.0781,243.5938 Q55.7656,241.9375 55.7656,238.8125 Q55.7656,235.6875 57.0781,234.0313 Q58.4063,232.375 60.9063,232.375 Q61.6094,232.375 62.25,232.5313 Q62.9063,232.6875 63.4688,232.9844 L63.4688,235.7031 Q62.8438,235.125 62.25,234.8594 Q61.6563,234.5781 61.0313,234.5781 Q59.6875,234.5781 59,235.6563 Q58.3125,236.7188 58.3125,238.8125 Q58.3125,240.9063 59,241.9844 Q59.6875,243.0469 61.0313,243.0469 Q61.6563,243.0469 62.25,242.7813 Q62.8438,242.5 63.4688,241.9219 L63.4688,244.6406 Z " fill="#000000"/><text fill="#000000" font-family="sans-serif" font-size="14" lengthAdjust="spacing" textLength="43.8525" x="74.5" y="243.8467">Planta</text><line style="stroke:#181818;stroke-width:0.5;" x1="46.5" x2="120.3525" y1="255" y2="255"/><line style="stroke:#181818;stroke-width:0.5;" x1="46.5" x2="120.3525" y1="263" y2="263"/></g><!--class Aula--><g class="entity" data-entity="Aula" data-source-line="4" data-uid="ent0005" id="entity_Aula"><rect fill="#F1F1F1" height="48" rx="2.5" ry="2.5" style="stroke:#181818;stroke-width:0.5;" width="62.9189" x="7" y="331"/><ellipse cx="22" cy="347" fill="#ADD1B2" rx="11" ry="11" style="stroke:#181818;stroke-width:1;"/><path d="M24.9688,352.6406 Q24.3906,352.9375 23.75,353.0781 Q23.1094,353.2344 22.4063,353.2344 Q19.9063,353.2344 18.5781,351.5938 Q17.2656,349.9375 17.2656,346.8125 Q17.2656,343.6875 18.5781,342.0313 Q19.9063,340.375 22.4063,340.375 Q23.1094,340.375 23.75,340.5313 Q24.4063,340.6875 24.9688,340.9844 L24.9688,343.7031 Q24.3438,343.125 23.75,342.8594 Q23.1563,342.5781 22.5313,342.5781 Q21.1875,342.5781 20.5,343.6563 Q19.8125,344.7188 19.8125,346.8125 Q19.8125,348.9063 20.5,349.9844 Q21.1875,351.0469 22.5313,351.0469 Q23.1563,351.0469 23.75,350.7813 Q24.3438,350.5 24.9688,349.9219 L24.9688,352.6406 Z " fill="#000000"/><text fill="#000000" font-family="sans-serif" font-size="14" lengthAdjust="spacing" textLength="30.9189" x="36" y="351.8467">Aula</text><line style="stroke:#181818;stroke-width:0.5;" x1="8" x2="68.9189" y1="363" y2="363"/><line style="stroke:#181818;stroke-width:0.5;" x1="8" x2="68.9189" y1="371" y2="371"/></g><!--class Punto de interes--><g class="entity" data-entity="Punto de interes" data-source-line="5" data-uid="ent0006" id="entity_Punto de interes"><rect fill="#F1F1F1" height="48" rx="2.5" ry="2.5" style="stroke:#181818;stroke-width:0.5;" width="147.1719" x="105" y="331"/><ellipse cx="120" cy="347" fill="#ADD1B2" rx="11" ry="11" style="stroke:#181818;stroke-width:1;"/><path d="M122.9688,352.6406 Q122.3906,352.9375 121.75,353.0781 Q121.1094,353.2344 120.4063,353.2344 Q117.9063,353.2344 116.5781,351.5938 Q115.2656,349.9375 115.2656,346.8125 Q115.2656,343.6875 116.5781,342.0313 Q117.9063,340.375 120.4063,340.375 Q121.1094,340.375 121.75,340.5313 Q122.4063,340.6875 122.9688,340.9844 L122.9688,343.7031 Q122.3438,343.125 121.75,342.8594 Q121.1563,342.5781 120.5313,342.5781 Q119.1875,342.5781 118.5,343.6563 Q117.8125,344.7188 117.8125,346.8125 Q117.8125,348.9063 118.5,349.9844 Q119.1875,351.0469 120.5313,351.0469 Q121.1563,351.0469 121.75,350.7813 Q122.3438,350.5 122.9688,349.9219 L122.9688,352.6406 Z " fill="#000000"/><text fill="#000000" font-family="sans-serif" font-size="14" lengthAdjust="spacing" textLength="115.1719" x="134" y="351.8467">Punto de interes</text><line style="stroke:#181818;stroke-width:0.5;" x1="106" x2="251.1719" y1="363" y2="363"/><line style="stroke:#181818;stroke-width:0.5;" x1="106" x2="251.1719" y1="371" y2="371"/></g><!--reverse link Mapa to Edificio--><g class="link" data-entity-1="Mapa" data-entity-2="Edificio" data-source-line="7" data-uid="lnk7" id="link_Mapa_Edificio"><path codeLine="7" d="M115.4361,65.9701 C107.6061,83.6301 101.71,96.94 93.84,114.68" fill="none" id="Mapa-backto-Edificio" style="stroke:#181818;stroke-width:1;"/><polygon fill="#181818" points="120.3,55,114.2114,58.8638,115.4361,65.9701,121.5248,62.1063,120.3,55" style="stroke:#181818;stroke-width:1;"/></g><!--reverse link Mapa to Punto de interes--><g class="link" data-entity-1="Mapa" data-entity-2="Punto de interes" data-source-line="8" data-uid="lnk8" id="link_Mapa_Punto de interes"><path codeLine="8" d="M135.7205,67.0287 C144.5605,126.2887 166.14,271.11 175.01,330.62" fill="none" id="Mapa-backto-Punto de interes" style="stroke:#181818;stroke-width:1;"/><polygon fill="#181818" points="133.95,55.16,130.879,61.6845,135.7205,67.0287,138.7915,60.5042,133.95,55.16" style="stroke:#181818;stroke-width:1;"/></g><!--reverse link Edificio to Planta--><g class="link" data-entity-1="Edificio" data-entity-2="Planta" data-source-line="9" data-uid="lnk9" id="link_Edificio_Planta"><path codeLine="9" d="M83.5,175 C83.5,192.66 83.5,204.94 83.5,222.68" fill="none" id="Edificio-backto-Planta" style="stroke:#181818;stroke-width:1;"/><polygon fill="#181818" points="83.5,163,79.5,169,83.5,175,87.5,169,83.5,163" style="stroke:#181818;stroke-width:1;"/></g><!--reverse link Planta to Aula--><g class="link" data-entity-1="Planta" data-entity-2="Aula" data-source-line="10" data-uid="lnk10" id="link_Planta_Aula"><path codeLine="10" d="M69.0492,282.0452 C61.5492,299.7052 55.93,312.94 48.4,330.68" fill="none" id="Planta-backto-Aula" style="stroke:#181818;stroke-width:1;"/><polygon fill="#181818" points="73.74,271,67.7129,274.959,69.0492,282.0452,75.0763,278.0862,73.74,271" style="stroke:#181818;stroke-width:1;"/></g><!--reverse link Planta to Punto de interes--><g class="link" data-entity-1="Planta" data-entity-2="Punto de interes" data-source-line="11" data-uid="lnk11" id="link_Planta_Punto de interes"><path codeLine="11" d="M112.1197,279.9356 C127.9497,297.5956 141.7,312.94 157.6,330.68" fill="none" id="Planta-backto-Punto de interes" style="stroke:#181818;stroke-width:1;"/><polygon fill="none" points="104.11,271,105.1363,278.1377,112.1197,279.9356,111.0934,272.7979,104.11,271" style="stroke:#181818;stroke-width:1;"/></g><!--SRC=[Iyv9B2vMy4qiIEHA1ZDTKpBJCfCpyw7SW9p4l1AOd6Df3eof552QLvAla9Aga9bNabgKMgp4nGKoHK51IrSNOGXO22I2HJrC4LWUQW-4WXW2jWqga0_aOp430000]--></g></svg>