<svg xmlns="http://www.w3.org/2000/svg" xmlns:xlink="http://www.w3.org/1999/xlink" contentStyleType="text/css" data-diagram-type="STATE" height="620px" preserveAspectRatio="none" style="width:500px;height:620px;background:#FFFFFF;" version="1.1" viewBox="0 0 500 620" width="500px" zoomAndPan="magnify"><defs/><g><path d="M19.5,7 L452.5,7 A12.5,12.5 0 0 1 465,19.5 L465,33.2969 L7,33.2969 L7,19.5 A12.5,12.5 0 0 1 19.5,7" fill="#F1F1F1"/><rect fill="none" height="462.2969" rx="12.5" ry="12.5" style="stroke:#181818;stroke-width:0.5;" width="458" x="7" y="7"/><line style="stroke:#181818;stroke-width:0.5;" x1="7" x2="465" y1="33.2969" y2="33.2969"/><text fill="#000000" font-family="sans-serif" font-size="14" lengthAdjust="spacing" textLength="114.7822" x="178.6089" y="24.9951">crearRecorrido()</text><g id="crearRecorrido.SolicitandoDatos"><rect fill="#F1F1F1" height="50" rx="12.5" ry="12.5" style="stroke:#181818;stroke-width:0.5;" width="50" x="19" y="135.2969"/><line style="stroke:#181818;stroke-width:0.5;" x1="19" x2="69" y1="161.5938" y2="161.5938"/><text fill="#000000" font-family="sans-serif" font-size="14" lengthAdjust="spacing" textLength="4.4502" x="41.7749" y="153.292"> </text></g><g id="crearRecorrido.CreandoRecorrido"><rect fill="#F1F1F1" height="50" rx="12.5" ry="12.5" style="stroke:#181818;stroke-width:0.5;" width="50" x="19" y="301.2969"/><line style="stroke:#181818;stroke-width:0.5;" x1="19" x2="69" y1="327.5938" y2="327.5938"/><text fill="#000000" font-family="sans-serif" font-size="14" lengthAdjust="spacing" textLength="4.4502" x="41.7749" y="319.292"> </text></g><ellipse cx="44" cy="54.2969" fill="#222222" rx="10" ry="10" style="stroke:#222222;stroke-width:1;"/><ellipse cx="44" cy="448.2969" fill="none" rx="11" ry="11" style="stroke:#222222;stroke-width:1;"/><ellipse cx="44" cy="448.2969" fill="#222222" rx="6" ry="6" style="stroke:#222222;stroke-width:1;"/><!--link *start*crearRecorrido to SolicitandoDatos--><g class="link" data-entity-1=".start.crearRecorrido" data-entity-2="SolicitandoDatos" data-source-line="8" data-uid="lnk3" id="link_.start.crearRecorrido_SolicitandoDatos"><path d="M44,64.5269 C44,80.2369 44,106.6569 44,129.1669" fill="none" id="*start*crearRecorrido-to-SolicitandoDatos" style="stroke:#008000;stroke-width:1;"/><polygon fill="#008000" points="44,135.1669,48,126.1669,44,130.1669,40,126.1669,44,135.1669" style="stroke:#008000;stroke-width:1;"/><path d="M49,87.2969 L49,112.2969 L370,112.2969 L370,97.2969 L360,87.2969 L49,87.2969" fill="#FEFFDD" style="stroke:#181818;stroke-width:0.5;"/><path d="M360,87.2969 L360,97.2969 L370,97.2969 L360,87.2969" fill="#FEFFDD" style="stroke:#181818;stroke-width:0.5;"/><text fill="#000000" font-family="sans-serif" font-size="13" font-weight="bold" lengthAdjust="spacing" textLength="104.8633" x="55" y="104.3638">Administrador</text><text fill="#000000" font-family="sans-serif" font-size="13" lengthAdjust="spacing" textLength="191.0454" x="163.9956" y="104.3638">solicita crear recorrido nuevo</text></g><!--link SolicitandoDatos to CreandoRecorrido--><g class="link" data-entity-1="SolicitandoDatos" data-entity-2="CreandoRecorrido" data-source-line="13" data-uid="lnk4" id="link_SolicitandoDatos_CreandoRecorrido"><path d="M44,185.4969 C44,216.5069 44,263.9469 44,294.9969" fill="none" id="SolicitandoDatos-to-CreandoRecorrido" style="stroke:#008000;stroke-width:1;"/><polygon fill="#008000" points="44,300.9969,48,291.9969,44,295.9969,40,291.9969,44,300.9969" style="stroke:#008000;stroke-width:1;"/><path d="M49,208.2969 L49,278.2969 L456,278.2969 L456,218.2969 L446,208.2969 L49,208.2969" fill="#FEFFDD" style="stroke:#181818;stroke-width:0.5;"/><path d="M446,208.2969 L446,218.2969 L456,218.2969 L446,208.2969" fill="#FEFFDD" style="stroke:#181818;stroke-width:0.5;"/><text fill="#000000" font-family="sans-serif" font-size="13" font-weight="bold" lengthAdjust="spacing" textLength="58.9063" x="55" y="225.3638">Sistema</text><text fill="#000000" font-family="sans-serif" font-size="13" lengthAdjust="spacing" textLength="323.3813" x="118.0386" y="225.3638">presenta solicitud de datos mínimos del recorrido</text><text fill="#000000" font-family="sans-serif" font-size="13" lengthAdjust="spacing" textLength="234.6982" x="55" y="240.4966">• Nombre del recorrido (obligatorio)</text><text fill="#000000" font-family="sans-serif" font-size="13" lengthAdjust="spacing" textLength="218.6196" x="55" y="255.6294">• Permite solicitar crear recorrido</text><text fill="#000000" font-family="sans-serif" font-size="13" lengthAdjust="spacing" textLength="236.6978" x="55" y="270.7622">• Permite solicitar cancelar creación</text></g><!--link CreandoRecorrido to *end*crearRecorrido--><g class="link" data-entity-1="CreandoRecorrido" data-entity-2=".end.crearRecorrido" data-source-line="21" data-uid="lnk6" id="link_CreandoRecorrido_.end.crearRecorrido"><path d="M44,351.5769 C44,377.7469 44,412.1469 44,430.9769" fill="none" id="CreandoRecorrido-to-*end*crearRecorrido" style="stroke:#008000;stroke-width:1;"/><polygon fill="#008000" points="44,436.9769,48,427.9769,44,431.9769,40,427.9769,44,436.9769" style="stroke:#008000;stroke-width:1;"/><path d="M49,374.2969 L49,414.2969 L366,414.2969 L366,384.2969 L356,374.2969 L49,374.2969" fill="#FEFFDD" style="stroke:#181818;stroke-width:0.5;"/><path d="M356,374.2969 L356,384.2969 L366,384.2969 L356,374.2969" fill="#FEFFDD" style="stroke:#181818;stroke-width:0.5;"/><text fill="#000000" font-family="sans-serif" font-size="13" font-weight="bold" lengthAdjust="spacing" textLength="104.8633" x="55" y="391.3638">Administrador</text><text fill="#000000" font-family="sans-serif" font-size="13" lengthAdjust="spacing" textLength="177.8423" x="163.9956" y="391.3638">proporciona datos mínimos</text><text fill="#000000" font-family="sans-serif" font-size="13" font-weight="bold" lengthAdjust="spacing" textLength="58.9063" x="55" y="406.4966">Sistema</text><text fill="#000000" font-family="sans-serif" font-size="13" lengthAdjust="spacing" textLength="233.4922" x="118.0386" y="406.4966">crea recorrido y transfiere a edición</text></g><g id="RECORRIDO_ABIERTO"><rect fill="#F1F1F1" height="50" rx="12.5" ry="12.5" style="stroke:#181818;stroke-width:0.5;" width="173.207" x="8.4" y="564.3"/><line style="stroke:#181818;stroke-width:0.5;" x1="8.4" x2="181.607" y1="590.5969" y2="590.5969"/><text fill="#000000" font-family="sans-serif" font-size="14" lengthAdjust="spacing" textLength="153.207" x="18.4" y="582.2951">RECORRIDO_ABIERTO</text></g><g id="RECORRIDOS_ABIERTO"><rect fill="#F1F1F1" height="50" rx="12.5" ry="12.5" style="stroke:#181818;stroke-width:0.5;" width="182.0938" x="285.95" y="564.3"/><line style="stroke:#181818;stroke-width:0.5;" x1="285.95" x2="468.0438" y1="590.5969" y2="590.5969"/><text fill="#000000" font-family="sans-serif" font-size="14" lengthAdjust="spacing" textLength="162.0938" x="295.95" y="582.2951">RECORRIDOS_ABIERTO</text></g><!--link crearRecorrido to RECORRIDO_ABIERTO--><g class="link" data-entity-1="crearRecorrido" data-entity-2="RECORRIDO_ABIERTO" data-source-line="28" data-uid="lnk8" id="link_crearRecorrido_RECORRIDO_ABIERTO"><path d="M108.38,469.71 C98.35,487.83 92,499.3 92,499.3 C92,499.3 92,534.3 92,534.3 C92,534.3 92.5188,543.5491 93.3088,557.8391" fill="none" id="crearRecorrido-to-RECORRIDO_ABIERTO" style="stroke:#008000;stroke-width:1;"/><polygon fill="#008000" points="93.64,563.83,97.1371,554.6229,93.364,558.8376,89.1493,555.0645,93.64,563.83" style="stroke:#008000;stroke-width:1;"/><path d="M97,504.3 L97,529.3 L329,529.3 L329,514.3 L319,504.3 L97,504.3" fill="#FEFFDD" style="stroke:#181818;stroke-width:0.5;"/><path d="M319,504.3 L319,514.3 L329,514.3 L319,504.3" fill="#FEFFDD" style="stroke:#181818;stroke-width:0.5;"/><text fill="#000000" font-family="sans-serif" font-size="13" lengthAdjust="spacing" textLength="211.6118" x="103" y="521.3669">editarRecorrido(recorridoNuevo)</text></g><!--link crearRecorrido to RECORRIDOS_ABIERTO--><g class="link" data-entity-1="crearRecorrido" data-entity-2="RECORRIDOS_ABIERTO" data-source-line="33" data-uid="lnk10" id="link_crearRecorrido_RECORRIDOS_ABIERTO"><path d="M329.07,469.61 C344.59,508.04 356.2209,536.8675 365.0109,558.6075" fill="none" id="crearRecorrido-to-RECORRIDOS_ABIERTO" style="stroke:#0000FF;stroke-width:1;"/><polygon fill="#0000FF" points="367.26,564.17,367.5948,554.3268,365.3858,559.5346,360.1781,557.3256,367.26,564.17" style="stroke:#0000FF;stroke-width:1;"/><path d="M358,504.3 L358,529.3 L493,529.3 L493,514.3 L483,504.3 L358,504.3" fill="#FEFFDD" style="stroke:#181818;stroke-width:0.5;"/><path d="M483,504.3 L483,514.3 L493,514.3 L483,504.3" fill="#FEFFDD" style="stroke:#181818;stroke-width:0.5;"/><text fill="#000000" font-family="sans-serif" font-size="13" lengthAdjust="spacing" textLength="114.9624" x="364" y="521.3669">cancelar creación</text></g><!--SRC=[bPBFQi904CRl-nI3lMX1-W8YMFNWHKliJQHiibDPJ7R291Qa5FeilVVKH_1D-YIT91hphuLk82IxCz_yvjj9zjR5cdK4eNMO7cE4cC9ZzgDKakeK8M3Kx650pDOGw0HwzQt-e0UlIe6i8gCdZuIjARI1JRKpDDCf9Us8gUZ8QQbKY6nkjp3StEmOqMs7uvOEv56EH8TSnhtFDqR-U68YwsoIiZR4epj_3Cavj-W2k6p37V25yZnqfX2JfSfNgsYLgCNz6z1QO33IEKhCcA0Jb3FJmO11CBbuTFfqDf8FW-4LCbVvVl-09KK-O_qG-kI7TYVfR6bGXZuWHrP0Berpi_E_8hKBC3od1FRqvMe6NSrfzbypHwxl7nSKCyN4WIMd6rvqUPY1LImuWYYvvDcYkAC1ZUsWVbEgCS9LMcy-NNdUOhPwcjmlvjxZIjMuHJAjZdfPUvdDpq2LLJfg-E41QoNMtJKwRB_8_W00]--></g></svg>