<svg xmlns="http://www.w3.org/2000/svg" xmlns:xlink="http://www.w3.org/1999/xlink" contentStyleType="text/css" data-diagram-type="STATE" height="696px" preserveAspectRatio="none" style="width:758px;height:696px;background:#FFFFFF;" version="1.1" viewBox="0 0 758 696" width="758px" zoomAndPan="magnify"><defs/><g><path d="M19.5,7 L732.5,7 A12.5,12.5 0 0 1 745,19.5 L745,33.2969 L7,33.2969 L7,19.5 A12.5,12.5 0 0 1 19.5,7" fill="#F1F1F1"/><rect fill="none" height="538.2969" rx="12.5" ry="12.5" style="stroke:#181818;stroke-width:0.5;" width="738" x="7" y="7"/><line style="stroke:#181818;stroke-width:0.5;" x1="7" x2="745" y1="33.2969" y2="33.2969"/><text fill="#000000" font-family="sans-serif" font-size="14" lengthAdjust="spacing" textLength="147.0615" x="302.4692" y="24.9951">actualizarRecorrido()</text><g id="actualizarRecorrido.EditandoDatos"><rect fill="#F1F1F1" height="50" rx="12.5" ry="12.5" style="stroke:#181818;stroke-width:0.5;" width="50" x="145" y="135.2969"/><line style="stroke:#181818;stroke-width:0.5;" x1="145" x2="195" y1="161.5938" y2="161.5938"/><text fill="#000000" font-family="sans-serif" font-size="14" lengthAdjust="spacing" textLength="4.4502" x="167.7749" y="153.292"> </text></g><g id="actualizarRecorrido.GuardandoDatos"><rect fill="#F1F1F1" height="50" rx="12.5" ry="12.5" style="stroke:#181818;stroke-width:0.5;" width="50" x="145" y="392.2969"/><line style="stroke:#181818;stroke-width:0.5;" x1="145" x2="195" y1="418.5938" y2="418.5938"/><text fill="#000000" font-family="sans-serif" font-size="14" lengthAdjust="spacing" textLength="4.4502" x="167.7749" y="410.292"> </text></g><ellipse cx="170" cy="54.2969" fill="#222222" rx="10" ry="10" style="stroke:#222222;stroke-width:1;"/><ellipse cx="170" cy="524.2969" fill="none" rx="11" ry="11" style="stroke:#222222;stroke-width:1;"/><ellipse cx="170" cy="524.2969" fill="#222222" rx="6" ry="6" style="stroke:#222222;stroke-width:1;"/><!--link *start*actualizarRecorrido to EditandoDatos--><g class="link" data-entity-1=".start.actualizarRecorrido" data-entity-2="EditandoDatos" data-source-line="8" data-uid="lnk3" id="link_.start.actualizarRecorrido_EditandoDatos"><path d="M170,64.5269 C170,80.2369 170,106.6569 170,129.1669" fill="none" id="*start*actualizarRecorrido-to-EditandoDatos" style="stroke:#008000;stroke-width:1;"/><polygon fill="#008000" points="170,135.1669,174,126.1669,170,130.1669,166,126.1669,170,135.1669" style="stroke:#008000;stroke-width:1;"/><path d="M175,87.2969 L175,112.2969 L456,112.2969 L456,97.2969 L446,87.2969 L175,87.2969" fill="#FEFFDD" style="stroke:#181818;stroke-width:0.5;"/><path d="M446,87.2969 L446,97.2969 L456,97.2969 L446,87.2969" fill="#FEFFDD" style="stroke:#181818;stroke-width:0.5;"/><text fill="#000000" font-family="sans-serif" font-size="13" font-weight="bold" lengthAdjust="spacing" textLength="104.8633" x="181" y="104.3638">Administrador</text><text fill="#000000" font-family="sans-serif" font-size="13" lengthAdjust="spacing" textLength="151.2583" x="289.9956" y="104.3638">solicita editar recorrido</text></g><!--link EditandoDatos to GuardandoDatos--><g class="link" data-entity-1="EditandoDatos" data-entity-2="GuardandoDatos" data-source-line="13" data-uid="lnk4" id="link_EditandoDatos_GuardandoDatos"><path d="M144.61,168.8069 C103.77,180.8869 28,203.2969 28,203.2969 C28,203.2969 28,374.2969 28,374.2969 C28,374.2969 98.0164,395.005 138.8564,407.085" fill="none" id="EditandoDatos-to-GuardandoDatos" style="stroke:#008000;stroke-width:1;"/><polygon fill="#008000" points="144.61,408.7869,137.1142,402.3984,139.8153,407.3687,134.8451,410.0698,144.61,408.7869" style="stroke:#008000;stroke-width:1;"/><path d="M33,208.2969 L33,369.2969 L287,369.2969 L287,218.2969 L277,208.2969 L33,208.2969" fill="#FEFFDD" style="stroke:#181818;stroke-width:0.5;"/><path d="M277,208.2969 L277,218.2969 L287,218.2969 L277,208.2969" fill="#FEFFDD" style="stroke:#181818;stroke-width:0.5;"/><text fill="#000000" font-family="sans-serif" font-size="13" font-weight="bold" lengthAdjust="spacing" textLength="58.9063" x="39" y="225.3638">Sistema</text><text fill="#000000" font-family="sans-serif" font-size="13" lengthAdjust="spacing" textLength="169.1714" x="102.0386" y="225.3638">presenta datos de edición</text><text fill="#000000" font-family="sans-serif" font-size="13" lengthAdjust="spacing" textLength="233.4097" x="39" y="240.4966">• Nombre del recorrido, descripción</text><text fill="#000000" font-family="sans-serif" font-size="13" lengthAdjust="spacing" textLength="215.4458" x="39" y="255.6294">• Puntos de interés (POI) y orden</text><text fill="#000000" font-family="sans-serif" font-size="13" lengthAdjust="spacing" textLength="193.7368" x="39" y="270.7622">• Punto de inicio y punto final</text><text fill="#000000" font-family="sans-serif" font-size="13" lengthAdjust="spacing" textLength="4.1323" x="39" y="285.895"> </text><text fill="#000000" font-family="sans-serif" font-size="13" font-weight="bold" lengthAdjust="spacing" textLength="58.9063" x="39" y="301.0278">Sistema</text><text fill="#000000" font-family="sans-serif" font-size="13" lengthAdjust="spacing" textLength="110.5952" x="102.0386" y="301.0278">permite solicitar:</text><text fill="#000000" font-family="sans-serif" font-size="13" lengthAdjust="spacing" textLength="175.3604" x="39" y="316.1606">• modificar puntos y orden</text><text fill="#000000" font-family="sans-serif" font-size="13" lengthAdjust="spacing" textLength="228.8711" x="39" y="331.2935">• añadir/eliminar puntos de interés</text><text fill="#000000" font-family="sans-serif" font-size="13" lengthAdjust="spacing" textLength="126.2485" x="39" y="346.4263">• guardar recorrido</text><text fill="#000000" font-family="sans-serif" font-size="13" lengthAdjust="spacing" textLength="118.168" x="39" y="361.5591">• cancelar edición</text></g><!--link GuardandoDatos to EditandoDatos--><g class="link" data-entity-1="GuardandoDatos" data-entity-2="EditandoDatos" data-source-line="27" data-uid="lnk5" id="link_GuardandoDatos_EditandoDatos"><path d="M195.28,407.5969 C231.01,395.2969 292,374.2969 292,374.2969 C292,374.2969 292,203.2969 292,203.2969 C292,203.2969 236.6832,184.2499 200.9532,171.9499" fill="none" id="GuardandoDatos-to-EditandoDatos" style="stroke:#008000;stroke-width:1;"/><polygon fill="#008000" points="195.28,169.9969,202.4879,176.7086,200.0077,171.6244,205.0919,169.1442,195.28,169.9969" style="stroke:#008000;stroke-width:1;"/><path d="M297,276.2969 L297,301.2969 L736,301.2969 L736,286.2969 L726,276.2969 L297,276.2969" fill="#FEFFDD" style="stroke:#181818;stroke-width:0.5;"/><path d="M726,276.2969 L726,286.2969 L736,286.2969 L726,276.2969" fill="#FEFFDD" style="stroke:#181818;stroke-width:0.5;"/><text fill="#000000" font-family="sans-serif" font-size="13" font-weight="bold" lengthAdjust="spacing" textLength="104.8633" x="303" y="293.3638">Administrador</text><text fill="#000000" font-family="sans-serif" font-size="13" lengthAdjust="spacing" textLength="309.1499" x="411.9956" y="293.3638">solicita modificar campos tras validación fallida</text></g><!--link GuardandoDatos to *end*actualizarRecorrido--><g class="link" data-entity-1="GuardandoDatos" data-entity-2=".end.actualizarRecorrido" data-source-line="32" data-uid="lnk7" id="link_GuardandoDatos_.end.actualizarRecorrido"><path d="M144.56,425.3269 C101.29,437.2869 18,460.2969 18,460.2969 C18,460.2969 18,495.2969 18,495.2969 C18,495.2969 118.3193,513.7799 153.1693,520.1999" fill="none" id="GuardandoDatos-to-*end*actualizarRecorrido" style="stroke:#008000;stroke-width:1;"/><polygon fill="#008000" points="159.07,521.2869,150.9436,515.7225,154.1527,520.381,149.4943,523.5902,159.07,521.2869" style="stroke:#008000;stroke-width:1;"/><path d="M23,465.2969 L23,490.2969 L297,490.2969 L297,475.2969 L287,465.2969 L23,465.2969" fill="#FEFFDD" style="stroke:#181818;stroke-width:0.5;"/><path d="M287,465.2969 L287,475.2969 L297,475.2969 L287,465.2969" fill="#FEFFDD" style="stroke:#181818;stroke-width:0.5;"/><text fill="#000000" font-family="sans-serif" font-size="13" font-weight="bold" lengthAdjust="spacing" textLength="104.8633" x="29" y="482.3638">Administrador</text><text fill="#000000" font-family="sans-serif" font-size="13" lengthAdjust="spacing" textLength="144.5361" x="137.9956" y="482.3638">solicita guardar y salir</text></g><!--link GuardandoDatos to *end*actualizarRecorrido--><g class="link" data-entity-1="GuardandoDatos" data-entity-2=".end.actualizarRecorrido" data-source-line="37" data-uid="lnk8" id="link_GuardandoDatos_.end.actualizarRecorrido"><path d="M195.45,426.3969 C233.81,438.5969 302,460.2969 302,460.2969 C302,460.2969 302,495.2969 302,495.2969 C302,495.2969 218.1993,513.0715 186.6693,519.7615" fill="none" id="GuardandoDatos-to-*end*actualizarRecorrido-1" style="stroke:#FF0000;stroke-width:1;"/><polygon fill="#FF0000" points="180.8,521.0069,190.4342,523.0517,185.6911,519.9691,188.7738,515.226,180.8,521.0069" style="stroke:#FF0000;stroke-width:1;"/><path d="M307,465.2969 L307,490.2969 L593,490.2969 L593,475.2969 L583,465.2969 L307,465.2969" fill="#FEFFDD" style="stroke:#181818;stroke-width:0.5;"/><path d="M583,465.2969 L583,475.2969 L593,475.2969 L583,465.2969" fill="#FEFFDD" style="stroke:#181818;stroke-width:0.5;"/><text fill="#000000" font-family="sans-serif" font-size="13" font-weight="bold" lengthAdjust="spacing" textLength="104.8633" x="313" y="482.3638">Administrador</text><text fill="#000000" font-family="sans-serif" font-size="13" lengthAdjust="spacing" textLength="156.2729" x="421.9956" y="482.3638">solicita cancelar edición</text></g><g id="RECORRIDOS_ABIERTO"><rect fill="#F1F1F1" height="50" rx="12.5" ry="12.5" style="stroke:#181818;stroke-width:0.5;" width="182.0938" x="284.95" y="640.3"/><line style="stroke:#181818;stroke-width:0.5;" x1="284.95" x2="467.0438" y1="666.5969" y2="666.5969"/><text fill="#000000" font-family="sans-serif" font-size="14" lengthAdjust="spacing" textLength="162.0938" x="294.95" y="658.2951">RECORRIDOS_ABIERTO</text></g><!--link actualizarRecorrido to RECORRIDOS_ABIERTO--><g class="link" data-entity-1="actualizarRecorrido" data-entity-2="RECORRIDOS_ABIERTO" data-source-line="44" data-uid="lnk10" id="link_actualizarRecorrido_RECORRIDOS_ABIERTO"><path d="M292.26,545.62 C286.55,563.93 283,575.3 283,575.3 C283,575.3 283,610.3 283,610.3 C283,610.3 304.0618,622.5262 328.6618,636.8162" fill="none" id="actualizarRecorrido-to-RECORRIDOS_ABIERTO" style="stroke:#008000;stroke-width:1;"/><polygon fill="#008000" points="333.85,639.83,328.0769,631.8505,329.5265,637.3185,324.0586,638.7681,333.85,639.83" style="stroke:#008000;stroke-width:1;"/><path d="M288,580.3 L288,605.3 L419,605.3 L419,590.3 L409,580.3 L288,580.3" fill="#FEFFDD" style="stroke:#181818;stroke-width:0.5;"/><path d="M409,580.3 L409,590.3 L419,590.3 L409,580.3" fill="#FEFFDD" style="stroke:#181818;stroke-width:0.5;"/><text fill="#000000" font-family="sans-serif" font-size="13" lengthAdjust="spacing" textLength="110.0747" x="294" y="597.3669">abrirRecorridos()</text></g><!--link actualizarRecorrido to RECORRIDOS_ABIERTO--><g class="link" data-entity-1="actualizarRecorrido" data-entity-2="RECORRIDOS_ABIERTO" data-source-line="49" data-uid="lnk11" id="link_actualizarRecorrido_RECORRIDOS_ABIERTO"><path d="M422.82,545.62 C426.02,563.93 428,575.3 428,575.3 C428,575.3 428,610.3 428,610.3 C428,610.3 417.4802,621.2165 403.7302,635.5065" fill="none" id="actualizarRecorrido-to-RECORRIDOS_ABIERTO-1" style="stroke:#FF0000;stroke-width:1;"/><polygon fill="#FF0000" points="399.57,639.83,408.6926,636.1181,403.0368,636.227,402.9279,630.5712,399.57,639.83" style="stroke:#FF0000;stroke-width:1;"/><path d="M433,580.3 L433,605.3 L560,605.3 L560,590.3 L550,580.3 L433,580.3" fill="#FEFFDD" style="stroke:#181818;stroke-width:0.5;"/><path d="M550,580.3 L550,590.3 L560,590.3 L550,580.3" fill="#FEFFDD" style="stroke:#181818;stroke-width:0.5;"/><text fill="#000000" font-family="sans-serif" font-size="13" lengthAdjust="spacing" textLength="106.3677" x="439" y="597.3669">cancelar edición</text></g><!--SRC=[fPJ1Qjj048Rl-nI3Ux5BG-ub6DB455_geFGMGXdlZiEGrQwObGjkAVHPUiinv17y9dcIZgJ8ifIOq5G2mUxy-yytiuFIBOS21NFm7AZS50H5z9jgOKmgiIH0MwxHym-KZ6mKOHS14unUs1zFHl3J6D2dEJlILxKpnoK65y-nZEbv-FCQnUtYq1XSlR-6ewjtDq8Khe-cVG-e9I6gHmmL-cszSRASdhgS0wTIq4KvELvE8KNFLiy2LGu2qjBMHoYunaSVi_lqa-rZz5aFObmg0kLO0nH2YO82kDhDKKLYUViGQlNZxp_m9UPB8Gtv3k-3BfCLBlhIYtLuSk5Gacpl4eml5lC9R22Aeu6mqMcsgF6YtbbnGD-LEeGboLdhQRic7tU6UNIyOgijB1g6OKRStgDZEIRFUWcTRezrfxsf-pYyZIfYCLZo6kfrgRsd3dmmDGTdvIsZqfLgCI_KNKK9lkkuEwoPO8M-MlmxcyxrMuZQVcqWAONqynx8AUJ-8-Chzs1-6VFIhs6_rcnsjiYo-VdYyjlff_ai-xemFGXS2dT7qtXYEli3tayrlURy7Bvr_Wi0]--></g></svg>