<svg xmlns="http://www.w3.org/2000/svg" xmlns:xlink="http://www.w3.org/1999/xlink" contentStyleType="text/css" data-diagram-type="STATE" height="635px" preserveAspectRatio="none" style="width:671px;height:635px;background:#FFFFFF;" version="1.1" viewBox="0 0 671 635" width="671px" zoomAndPan="magnify"><defs/><g><path d="M93.07,7 L428.07,7 A12.5,12.5 0 0 1 440.57,19.5 L440.57,33.2969 L80.57,33.2969 L80.57,19.5 A12.5,12.5 0 0 1 93.07,7" fill="#F1F1F1"/><rect fill="none" height="477.2969" rx="12.5" ry="12.5" style="stroke:#181818;stroke-width:0.5;" width="360" x="80.57" y="7"/><line style="stroke:#181818;stroke-width:0.5;" x1="80.57" x2="440.57" y1="33.2969" y2="33.2969"/><text fill="#000000" font-family="sans-serif" font-size="14" lengthAdjust="spacing" textLength="94.6299" x="213.2551" y="24.9951">verEspacios()</text><g id="abrirEspacios.MostrandoLista"><rect fill="#F1F1F1" height="50" rx="12.5" ry="12.5" style="stroke:#181818;stroke-width:0.5;" width="50" x="92.57" y="135.2969"/><line style="stroke:#181818;stroke-width:0.5;" x1="92.57" x2="142.57" y1="161.5938" y2="161.5938"/><text fill="#000000" font-family="sans-serif" font-size="14" lengthAdjust="spacing" textLength="4.4502" x="115.3449" y="153.292"> </text></g><g id="abrirEspacios.FiltrandoLista"><rect fill="#F1F1F1" height="50" rx="12.5" ry="12.5" style="stroke:#181818;stroke-width:0.5;" width="50" x="92.57" y="331.2969"/><line style="stroke:#181818;stroke-width:0.5;" x1="92.57" x2="142.57" y1="357.5938" y2="357.5938"/><text fill="#000000" font-family="sans-serif" font-size="14" lengthAdjust="spacing" textLength="4.4502" x="115.3449" y="349.292"> </text></g><ellipse cx="117.57" cy="54.2969" fill="#222222" rx="10" ry="10" style="stroke:#222222;stroke-width:1;"/><ellipse cx="117.57" cy="463.2969" fill="none" rx="11" ry="11" style="stroke:#222222;stroke-width:1;"/><ellipse cx="117.57" cy="463.2969" fill="#222222" rx="6" ry="6" style="stroke:#222222;stroke-width:1;"/><!--link *start*abrirEspacios to MostrandoLista--><g class="link" data-entity-1=".start.abrirEspacios" data-entity-2="MostrandoLista" data-source-line="8" data-uid="lnk3" id="link_.start.abrirEspacios_MostrandoLista"><path d="M117.57,64.5269 C117.57,80.2369 117.57,106.6569 117.57,129.1669" fill="none" id="*start*abrirEspacios-to-MostrandoLista" style="stroke:#008000;stroke-width:1;"/><polygon fill="#008000" points="117.57,135.1669,121.57,126.1669,117.57,130.1669,113.57,126.1669,117.57,135.1669" style="stroke:#008000;stroke-width:1;"/><path d="M122.57,87.2969 L122.57,112.2969 L393.57,112.2969 L393.57,97.2969 L383.57,87.2969 L122.57,87.2969" fill="#FEFFDD" style="stroke:#181818;stroke-width:0.5;"/><path d="M383.57,87.2969 L383.57,97.2969 L393.57,97.2969 L383.57,87.2969" fill="#FEFFDD" style="stroke:#181818;stroke-width:0.5;"/><text fill="#000000" font-family="sans-serif" font-size="13" font-weight="bold" lengthAdjust="spacing" textLength="104.8633" x="128.57" y="104.3638">Administrador</text><text fill="#000000" font-family="sans-serif" font-size="13" lengthAdjust="spacing" textLength="141.0322" x="237.5656" y="104.3638">solicita abrir espacios</text></g><!--link MostrandoLista to FiltrandoLista--><g class="link" data-entity-1="MostrandoLista" data-entity-2="FiltrandoLista" data-source-line="13" data-uid="lnk4" id="link_MostrandoLista_FiltrandoLista"><path d="M117.57,185.4769 C117.57,222.6469 117.57,287.4569 117.57,324.8169" fill="none" id="MostrandoLista-to-FiltrandoLista" style="stroke:#008000;stroke-width:1;"/><polygon fill="#008000" points="117.57,330.8169,121.57,321.8169,117.57,325.8169,113.57,321.8169,117.57,330.8169" style="stroke:#008000;stroke-width:1;"/><path d="M122.57,208.2969 L122.57,308.2969 L396.57,308.2969 L396.57,218.2969 L386.57,208.2969 L122.57,208.2969" fill="#FEFFDD" style="stroke:#181818;stroke-width:0.5;"/><path d="M386.57,208.2969 L386.57,218.2969 L396.57,218.2969 L386.57,208.2969" fill="#FEFFDD" style="stroke:#181818;stroke-width:0.5;"/><text fill="#000000" font-family="sans-serif" font-size="13" font-weight="bold" lengthAdjust="spacing" textLength="58.9063" x="128.57" y="225.3638">Sistema</text><text fill="#000000" font-family="sans-serif" font-size="13" lengthAdjust="spacing" textLength="169.8506" x="191.6086" y="225.3638">presenta lista de espacios</text><text fill="#000000" font-family="sans-serif" font-size="13" lengthAdjust="spacing" textLength="201.7349" x="128.57" y="240.4966">• ID y nombre de cada espacio</text><text fill="#000000" font-family="sans-serif" font-size="13" lengthAdjust="spacing" textLength="188.481" x="128.57" y="255.6294">• Permite solicitar filtrar lista</text><text fill="#000000" font-family="sans-serif" font-size="13" lengthAdjust="spacing" textLength="253.627" x="128.57" y="270.7622">• Permite solicitar crear espacio nuevo</text><text fill="#000000" font-family="sans-serif" font-size="13" lengthAdjust="spacing" textLength="228.6172" x="128.57" y="285.895">• Permite solicitar eliminar espacio</text><text fill="#000000" font-family="sans-serif" font-size="13" lengthAdjust="spacing" textLength="213.8398" x="128.57" y="301.0278">• Permite solicitar editar espacio</text></g><!--link FiltrandoLista to FiltrandoLista--><g class="link" data-entity-1="FiltrandoLista" data-entity-2="FiltrandoLista" data-source-line="23" data-uid="lnk5" id="link_FiltrandoLista_FiltrandoLista"><path d="M142.75,344.9969 C152.48,344.4969 160.57,348.2569 160.57,356.2969 C160.57,364.3369 158.4721,368.4048 148.7421,367.9048" fill="none" id="FiltrandoLista-to-FiltrandoLista" style="stroke:#008000;stroke-width:1;"/><polygon fill="#008000" points="142.75,367.5969,151.5329,372.0535,147.7434,367.8535,151.9434,364.064,142.75,367.5969" style="stroke:#008000;stroke-width:1;"/><path d="M165.57,336.2969 L165.57,376.2969 L411.57,376.2969 L411.57,346.2969 L401.57,336.2969 L165.57,336.2969" fill="#FEFFDD" style="stroke:#181818;stroke-width:0.5;"/><path d="M401.57,336.2969 L401.57,346.2969 L411.57,346.2969 L401.57,336.2969" fill="#FEFFDD" style="stroke:#181818;stroke-width:0.5;"/><text fill="#000000" font-family="sans-serif" font-size="13" font-weight="bold" lengthAdjust="spacing" textLength="104.8633" x="171.57" y="353.3638">Administrador</text><text fill="#000000" font-family="sans-serif" font-size="13" lengthAdjust="spacing" textLength="116.6509" x="280.5656" y="353.3638">solicita filtrar lista</text><text fill="#000000" font-family="sans-serif" font-size="13" font-weight="bold" lengthAdjust="spacing" textLength="58.9063" x="171.57" y="368.4966">Sistema</text><text fill="#000000" font-family="sans-serif" font-size="13" lengthAdjust="spacing" textLength="139.4199" x="234.6086" y="368.4966">presenta lista filtrada</text></g><!--link FiltrandoLista to *end*abrirEspacios--><g class="link" data-entity-1="FiltrandoLista" data-entity-2=".end.abrirEspacios" data-source-line="29" data-uid="lnk7" id="link_FiltrandoLista_.end.abrirEspacios"><path d="M117.57,381.6469 C117.57,403.9469 117.57,429.8569 117.57,446.0369" fill="none" id="FiltrandoLista-to-*end*abrirEspacios" style="stroke:#008000;stroke-width:1;"/><polygon fill="#008000" points="117.57,452.0369,121.57,443.0369,117.57,447.0369,113.57,443.0369,117.57,452.0369" style="stroke:#008000;stroke-width:1;"/><path d="M122.57,404.2969 L122.57,429.2969 L431.57,429.2969 L431.57,414.2969 L421.57,404.2969 L122.57,404.2969" fill="#FEFFDD" style="stroke:#181818;stroke-width:0.5;"/><path d="M421.57,404.2969 L421.57,414.2969 L431.57,414.2969 L421.57,404.2969" fill="#FEFFDD" style="stroke:#181818;stroke-width:0.5;"/><text fill="#000000" font-family="sans-serif" font-size="13" font-weight="bold" lengthAdjust="spacing" textLength="104.8633" x="128.57" y="421.3638">Administrador</text><text fill="#000000" font-family="sans-serif" font-size="13" lengthAdjust="spacing" textLength="179.2769" x="237.5656" y="421.3638">solicita una de las opciones</text></g><g id="ESPACIO_ABIERTO"><rect fill="#F1F1F1" height="50" rx="12.5" ry="12.5" style="stroke:#181818;stroke-width:0.5;" width="149.1309" x="7" y="579.3"/><line style="stroke:#181818;stroke-width:0.5;" x1="7" x2="156.1309" y1="605.5969" y2="605.5969"/><text fill="#000000" font-family="sans-serif" font-size="14" lengthAdjust="spacing" textLength="129.1309" x="17" y="597.2951">ESPACIO_ABIERTO</text></g><g id="ESPACIOS_ABIERTO"><rect fill="#F1F1F1" height="50" rx="12.5" ry="12.5" style="stroke:#181818;stroke-width:0.5;" width="158.0176" x="263.56" y="579.3"/><line style="stroke:#181818;stroke-width:0.5;" x1="263.56" x2="421.5776" y1="605.5969" y2="605.5969"/><text fill="#000000" font-family="sans-serif" font-size="14" lengthAdjust="spacing" textLength="138.0176" x="273.56" y="597.2951">ESPACIOS_ABIERTO</text></g><g id="UNIVERSIDAD_DISPONIBLE"><rect fill="#F1F1F1" height="50" rx="12.5" ry="12.5" style="stroke:#181818;stroke-width:0.5;" width="208.2617" x="456.44" y="579.3"/><line style="stroke:#181818;stroke-width:0.5;" x1="456.44" x2="664.7017" y1="605.5969" y2="605.5969"/><text fill="#000000" font-family="sans-serif" font-size="14" lengthAdjust="spacing" textLength="188.2617" x="466.44" y="597.2951">UNIVERSIDAD_DISPONIBLE</text></g><!--link abrirEspacios to ESPACIO_ABIERTO--><g class="link" data-entity-1="abrirEspacios" data-entity-2="ESPACIO_ABIERTO" data-source-line="35" data-uid="lnk9" id="link_abrirEspacios_ESPACIO_ABIERTO"><path d="M80.38,436.53 C38.84,480.29 6.57,514.3 6.57,514.3 C6.57,514.3 6.57,549.3 6.57,549.3 C6.57,549.3 22.8714,561.0333 42.7114,575.3233" fill="none" id="abrirEspacios-to-ESPACIO_ABIERTO" style="stroke:#008000;stroke-width:1;"/><polygon fill="#008000" points="47.58,578.83,42.6149,570.3243,43.5228,575.9078,37.9393,576.8157,47.58,578.83" style="stroke:#008000;stroke-width:1;"/><path d="M11.57,519.3 L11.57,544.3 L130.57,544.3 L130.57,529.3 L120.57,519.3 L11.57,519.3" fill="#FEFFDD" style="stroke:#181818;stroke-width:0.5;"/><path d="M120.57,519.3 L120.57,529.3 L130.57,529.3 L120.57,519.3" fill="#FEFFDD" style="stroke:#181818;stroke-width:0.5;"/><text fill="#000000" font-family="sans-serif" font-size="13" lengthAdjust="spacing" textLength="98.3315" x="17.57" y="536.3669">editarEspacio()</text></g><!--link abrirEspacios to ESPACIO_ABIERTO--><g class="link" data-entity-1="abrirEspacios" data-entity-2="ESPACIO_ABIERTO" data-source-line="40" data-uid="lnk10" id="link_abrirEspacios_ESPACIO_ABIERTO"><path d="M165.38,484.75 C150.3,522.45 139.57,549.3 139.57,549.3 C139.57,549.3 127.5916,560.4517 112.2416,574.7417" fill="none" id="abrirEspacios-to-ESPACIO_ABIERTO-1" style="stroke:#008000;stroke-width:1;"/><polygon fill="#008000" points="107.85,578.83,117.1629,575.6253,111.5096,575.4231,111.7118,569.7698,107.85,578.83" style="stroke:#008000;stroke-width:1;"/><path d="M157.57,519.3 L157.57,544.3 L271.57,544.3 L271.57,529.3 L261.57,519.3 L157.57,519.3" fill="#FEFFDD" style="stroke:#181818;stroke-width:0.5;"/><path d="M261.57,519.3 L261.57,529.3 L271.57,529.3 L261.57,519.3" fill="#FEFFDD" style="stroke:#181818;stroke-width:0.5;"/><text fill="#000000" font-family="sans-serif" font-size="13" lengthAdjust="spacing" textLength="93.8628" x="163.57" y="536.3669">crearEspacio()</text></g><!--link abrirEspacios to ESPACIOS_ABIERTO--><g class="link" data-entity-1="abrirEspacios" data-entity-2="ESPACIOS_ABIERTO" data-source-line="45" data-uid="lnk12" id="link_abrirEspacios_ESPACIOS_ABIERTO"><path d="M315.27,484.54 C324.14,523.13 330.694,551.6629 335.694,573.3829" fill="none" id="abrirEspacios-to-ESPACIOS_ABIERTO" style="stroke:#008000;stroke-width:1;"/><polygon fill="#008000" points="337.04,579.23,338.919,569.5621,335.9183,574.3574,331.1229,571.3567,337.04,579.23" style="stroke:#008000;stroke-width:1;"/><path d="M334.57,519.3 L334.57,544.3 L468.57,544.3 L468.57,529.3 L458.57,519.3 L334.57,519.3" fill="#FEFFDD" style="stroke:#181818;stroke-width:0.5;"/><path d="M458.57,519.3 L458.57,529.3 L468.57,529.3 L458.57,519.3" fill="#FEFFDD" style="stroke:#181818;stroke-width:0.5;"/><text fill="#000000" font-family="sans-serif" font-size="13" lengthAdjust="spacing" textLength="113.1089" x="340.57" y="536.3669">eliminarEspacio()</text></g><!--link abrirEspacios to UNIVERSIDAD_DISPONIBLE--><g class="link" data-entity-1="abrirEspacios" data-entity-2="UNIVERSIDAD_DISPONIBLE" data-source-line="50" data-uid="lnk14" id="link_abrirEspacios_UNIVERSIDAD_DISPONIBLE"><path d="M440.92,461.06 C481.19,508.93 514.5371,548.5789 536.4471,574.6189" fill="none" id="abrirEspacios-to-UNIVERSIDAD_DISPONIBLE" style="stroke:#008000;stroke-width:1;"/><polygon fill="#008000" points="540.31,579.21,537.5763,569.7481,537.0909,575.3841,531.4549,574.8987,540.31,579.21" style="stroke:#008000;stroke-width:1;"/><path d="M514.57,519.3 L514.57,544.3 L660.57,544.3 L660.57,529.3 L650.57,519.3 L514.57,519.3" fill="#FEFFDD" style="stroke:#181818;stroke-width:0.5;"/><path d="M650.57,519.3 L650.57,529.3 L660.57,529.3 L650.57,519.3" fill="#FEFFDD" style="stroke:#181818;stroke-width:0.5;"/><text fill="#000000" font-family="sans-serif" font-size="13" lengthAdjust="spacing" textLength="125.9248" x="520.57" y="536.3669">completarGestion()</text></g><!--SRC=[dLFHQi8m57tFLmJteWFP3uXGrsuKd8hTzY8YQNitWcbIaYh86EnRzcdxajscMjkA1Pj2ItBFFVVSarkpvJ9bcYLKS0dP8GMQAd78DuIOZ6L0MQYvzapA8guCPORszb3k-uCU_IA4uYhGFNmGyw9CffcCrPJZ-MNyYOjgt09MzsiwNDrzQW2v7euR7DHYf48E9NErMtim2iTEd739SsoizEWX75EZ18yuvbZj58vYRGB8k631HSfNerPLHaFgDHK1HY5XjdwgmO147c7POgXB-FlvfRvB3yYJX1hoUCHYTWALc0NeX6EbKpkQVbWjkk1jmKKQMDatbJlOjx62uEZWEQ4D6XUV2l1awDdCkcDTp6ovqaiBsiqly36xNIlEOnU1EsblNE2KgnHDab0VFF9DIFsVgXRrWeNpwCytpiJtbgzpKYjUk7_Cwmz8ITcLqCv99xxWYiBZADt6-JRptxrbuBkEkt7zO36V-PEfrv2gabG0jlyC9aDNAzJ_]--></g></svg>