<svg xmlns="http://www.w3.org/2000/svg" xmlns:xlink="http://www.w3.org/1999/xlink" contentStyleType="text/css" data-diagram-type="STATE" height="242px" preserveAspectRatio="none" style="width:380px;height:242px;background:#FFFFFF;" version="1.1" viewBox="0 0 380 242" width="380px" zoomAndPan="magnify"><defs/><g><g id="Disponible"><rect fill="#F1F1F1" height="50.2656" rx="12.5" ry="12.5" style="stroke:#181818;stroke-width:0.5;" width="256.9766" x="7" y="87"/><line style="stroke:#181818;stroke-width:0.5;" x1="7" x2="263.9766" y1="113.2969" y2="113.2969"/><text fill="#000000" font-family="sans-serif" font-size="14" lengthAdjust="spacing" textLength="73.5684" x="98.7041" y="104.9951">Disponible</text><text fill="#000000" font-family="sans-serif" font-size="12" lengthAdjust="spacing" textLength="236.9766" x="12" y="129.4355">Visualización habilitada / Interactuable.</text></g><ellipse cx="135.49" cy="16" fill="#222222" rx="10" ry="10" style="stroke:#222222;stroke-width:1;"/><ellipse cx="135.49" cy="225.27" fill="none" rx="11" ry="11" style="stroke:#222222;stroke-width:1;"/><ellipse cx="135.49" cy="225.27" fill="#222222" rx="6" ry="6" style="stroke:#222222;stroke-width:1;"/><!--link *start* to Disponible--><g class="link" data-entity-1=".start." data-entity-2="Disponible" data-source-line="1" data-uid="lnk3" id="link_.start._Disponible"><path d="M135.49,26.37 C135.49,40.33 135.49,61.03 135.49,80.75" fill="none" id="*start*-to-Disponible" style="stroke:#181818;stroke-width:1;"/><polygon fill="#181818" points="135.49,86.75,139.49,77.75,135.49,81.75,131.49,77.75,135.49,86.75" style="stroke:#181818;stroke-width:1;"/></g><!--link Disponible to Disponible--><g class="link" data-entity-1="Disponible" data-entity-2="Disponible" data-source-line="6" data-uid="lnk4" id="link_Disponible_Disponible"><path d="M264.34,102.53 C284.9,103.94 298.98,107.14 298.98,112.14 C298.98,117.14 290.8861,119.9324 270.3261,121.3324" fill="none" id="Disponible-to-Disponible" style="stroke:#181818;stroke-width:1;"/><polygon fill="#181818" points="264.34,121.74,273.591,125.1193,269.3284,121.4003,273.0475,117.1378,264.34,121.74" style="stroke:#181818;stroke-width:1;"/><text fill="#000000" font-family="sans-serif" font-size="13" lengthAdjust="spacing" textLength="62.6196" x="304.98" y="116.7069">recorrer()</text></g><!--link Disponible to *end*--><g class="link" data-entity-1="Disponible" data-entity-2=".end." data-source-line="7" data-uid="lnk6" id="link_Disponible_.end."><path d="M135.49,137.53 C135.49,161.42 135.49,190.69 135.49,207.97" fill="none" id="Disponible-to-*end*" style="stroke:#181818;stroke-width:1;"/><polygon fill="#181818" points="135.49,213.97,139.49,204.97,135.49,208.97,131.49,204.97,135.49,213.97" style="stroke:#181818;stroke-width:1;"/><text fill="#000000" font-family="sans-serif" font-size="13" lengthAdjust="spacing" textLength="118.0981" x="136.49" y="180.3369">salirDeRecorrido()</text></g><!--SRC=[YzQALT3LjLDmoImkoC_BJCf9vU8gBaaiIKKMGJ0Lh1J2CejB4tCognAJCmzlpbF8I4pApCaiIKn9LD1NyCmhIIrAJ2ufJGIgrUD2reXg2T2SejJa_AAYr28DJNHbqK0tMIaK0oqfSaaD0YlBJCdNq0G0]--></g></svg>