<svg xmlns="http://www.w3.org/2000/svg" xmlns:xlink="http://www.w3.org/1999/xlink" contentStyleType="text/css" data-diagram-type="STATE" height="696px" preserveAspectRatio="none" style="width:645px;height:696px;background:#FFFFFF;" version="1.1" viewBox="0 0 645 696" width="645px" zoomAndPan="magnify"><defs/><g><path d="M19.5,7 L415.5,7 A12.5,12.5 0 0 1 428,19.5 L428,33.2969 L7,33.2969 L7,19.5 A12.5,12.5 0 0 1 19.5,7" fill="#F1F1F1"/><rect fill="none" height="538.2969" rx="12.5" ry="12.5" style="stroke:#181818;stroke-width:0.5;" width="421" x="7" y="7"/><line style="stroke:#181818;stroke-width:0.5;" x1="7" x2="428" y1="33.2969" y2="33.2969"/><text fill="#000000" font-family="sans-serif" font-size="14" lengthAdjust="spacing" textLength="121.8096" x="156.5952" y="24.9951">eliminarEspacio()</text><g id="eliminarEspacio.ConfirmandoEliminacion"><rect fill="#F1F1F1" height="50" rx="12.5" ry="12.5" style="stroke:#181818;stroke-width:0.5;" width="50" x="19" y="135.2969"/><line style="stroke:#181818;stroke-width:0.5;" x1="19" x2="69" y1="161.5938" y2="161.5938"/><text fill="#000000" font-family="sans-serif" font-size="14" lengthAdjust="spacing" textLength="4.4502" x="41.7749" y="153.292"> </text></g><g id="eliminarEspacio.EliminandoEspacio"><rect fill="#F1F1F1" height="50" rx="12.5" ry="12.5" style="stroke:#181818;stroke-width:0.5;" width="50" x="19" y="362.2969"/><line style="stroke:#181818;stroke-width:0.5;" x1="19" x2="69" y1="388.5938" y2="388.5938"/><text fill="#000000" font-family="sans-serif" font-size="14" lengthAdjust="spacing" textLength="4.4502" x="41.7749" y="380.292"> </text></g><ellipse cx="44" cy="54.2969" fill="#222222" rx="10" ry="10" style="stroke:#222222;stroke-width:1;"/><ellipse cx="44" cy="524.2969" fill="none" rx="11" ry="11" style="stroke:#222222;stroke-width:1;"/><ellipse cx="44" cy="524.2969" fill="#222222" rx="6" ry="6" style="stroke:#222222;stroke-width:1;"/><!--link *start*eliminarEspacio to ConfirmandoEliminacion--><g class="link" data-entity-1=".start.eliminarEspacio" data-entity-2="ConfirmandoEliminacion" data-source-line="8" data-uid="lnk3" id="link_.start.eliminarEspacio_ConfirmandoEliminacion"><path d="M44,64.5269 C44,80.2369 44,106.6569 44,129.1669" fill="none" id="*start*eliminarEspacio-to-ConfirmandoEliminacion" style="stroke:#008000;stroke-width:1;"/><polygon fill="#008000" points="44,135.1669,48,126.1669,44,130.1669,40,126.1669,44,135.1669" style="stroke:#008000;stroke-width:1;"/><path d="M49,87.2969 L49,112.2969 L335,112.2969 L335,97.2969 L325,87.2969 L49,87.2969" fill="#FEFFDD" style="stroke:#181818;stroke-width:0.5;"/><path d="M325,87.2969 L325,97.2969 L335,97.2969 L325,87.2969" fill="#FEFFDD" style="stroke:#181818;stroke-width:0.5;"/><text fill="#000000" font-family="sans-serif" font-size="13" font-weight="bold" lengthAdjust="spacing" textLength="104.8633" x="55" y="104.3638">Administrador</text><text fill="#000000" font-family="sans-serif" font-size="13" lengthAdjust="spacing" textLength="156.7871" x="163.9956" y="104.3638">solicita eliminar espacio</text></g><!--link ConfirmandoEliminacion to EliminandoEspacio--><g class="link" data-entity-1="ConfirmandoEliminacion" data-entity-2="EliminandoEspacio" data-source-line="13" data-uid="lnk4" id="link_ConfirmandoEliminacion_EliminandoEspacio"><path d="M44,185.3769 C44,228.5669 44,312.7369 44,356.0469" fill="none" id="ConfirmandoEliminacion-to-EliminandoEspacio" style="stroke:#008000;stroke-width:1;"/><polygon fill="#008000" points="44,362.0469,48,353.0469,44,357.0469,40,353.0469,44,362.0469" style="stroke:#008000;stroke-width:1;"/><path d="M49,208.2969 L49,339.2969 L419,339.2969 L419,218.2969 L409,208.2969 L49,208.2969" fill="#FEFFDD" style="stroke:#181818;stroke-width:0.5;"/><path d="M409,208.2969 L409,218.2969 L419,218.2969 L409,208.2969" fill="#FEFFDD" style="stroke:#181818;stroke-width:0.5;"/><text fill="#000000" font-family="sans-serif" font-size="13" font-weight="bold" lengthAdjust="spacing" textLength="58.9063" x="55" y="225.3638">Sistema</text><text fill="#000000" font-family="sans-serif" font-size="13" lengthAdjust="spacing" textLength="286.2158" x="118.0386" y="225.3638">presenta información del espacio a eliminar</text><text fill="#000000" font-family="sans-serif" font-size="13" lengthAdjust="spacing" textLength="193.4448" x="55" y="240.4966">• Código, nombre del espacio</text><text fill="#000000" font-family="sans-serif" font-size="13" lengthAdjust="spacing" textLength="169.9331" x="55" y="255.6294">• Edificio asociado, planta</text><text fill="#000000" font-family="sans-serif" font-size="13" lengthAdjust="spacing" textLength="251.5259" x="55" y="270.7622">• Capacidad, tipo de espacio, recursos</text><text fill="#000000" font-family="sans-serif" font-size="13" lengthAdjust="spacing" textLength="254.1855" x="55" y="285.895">• Horario, accesibilidad, observaciones</text><text fill="#000000" font-family="sans-serif" font-size="13" lengthAdjust="spacing" textLength="249.6724" x="55" y="301.0278">• Presenta advertencia de eliminación</text><text fill="#000000" font-family="sans-serif" font-size="13" lengthAdjust="spacing" textLength="263.3706" x="55" y="316.1606">• Permite solicitar confirmar eliminación</text><text fill="#000000" font-family="sans-serif" font-size="13" lengthAdjust="spacing" textLength="255.9438" x="55" y="331.2935">• Permite solicitar cancelar eliminación</text></g><!--link EliminandoEspacio to *end*eliminarEspacio--><g class="link" data-entity-1="EliminandoEspacio" data-entity-2=".end.eliminarEspacio" data-source-line="25" data-uid="lnk6" id="link_EliminandoEspacio_.end.eliminarEspacio"><path d="M44,412.7469 C44,442.5269 44,485.5069 44,506.8369" fill="none" id="EliminandoEspacio-to-*end*eliminarEspacio" style="stroke:#008000;stroke-width:1;"/><polygon fill="#008000" points="44,512.8369,48,503.8369,44,507.8369,40,503.8369,44,512.8369" style="stroke:#008000;stroke-width:1;"/><path d="M49,435.2969 L49,490.2969 L412,490.2969 L412,445.2969 L402,435.2969 L49,435.2969" fill="#FEFFDD" style="stroke:#181818;stroke-width:0.5;"/><path d="M402,435.2969 L402,445.2969 L412,445.2969 L402,435.2969" fill="#FEFFDD" style="stroke:#181818;stroke-width:0.5;"/><text fill="#000000" font-family="sans-serif" font-size="13" font-weight="bold" lengthAdjust="spacing" textLength="104.8633" x="55" y="452.3638">Administrador</text><text fill="#000000" font-family="sans-serif" font-size="13" lengthAdjust="spacing" textLength="233.5303" x="163.9956" y="452.3638">solicita confirmación de eliminación</text><text fill="#000000" font-family="sans-serif" font-size="13" font-weight="bold" lengthAdjust="spacing" textLength="58.9063" x="55" y="467.4966">Sistema</text><text fill="#000000" font-family="sans-serif" font-size="13" lengthAdjust="spacing" textLength="251.9829" x="118.0386" y="467.4966">permite solicitar confirmar eliminación</text><text fill="#000000" font-family="sans-serif" font-size="13" font-weight="bold" lengthAdjust="spacing" textLength="104.8633" x="55" y="482.6294">Administrador</text><text fill="#000000" font-family="sans-serif" font-size="13" lengthAdjust="spacing" textLength="191.5405" x="163.9956" y="482.6294">solicita confirmar eliminación</text></g><g id="ESPACIOS_ABIERTO"><rect fill="#F1F1F1" height="50" rx="12.5" ry="12.5" style="stroke:#181818;stroke-width:0.5;" width="158.0176" x="138.49" y="640.3"/><line style="stroke:#181818;stroke-width:0.5;" x1="138.49" x2="296.5076" y1="666.5969" y2="666.5969"/><text fill="#000000" font-family="sans-serif" font-size="14" lengthAdjust="spacing" textLength="138.0176" x="148.49" y="658.2951">ESPACIOS_ABIERTO</text></g><!--link eliminarEspacio to ESPACIOS_ABIERTO--><g class="link" data-entity-1="eliminarEspacio" data-entity-2="ESPACIOS_ABIERTO" data-source-line="33" data-uid="lnk8" id="link_eliminarEspacio_ESPACIOS_ABIERTO"><path d="M72.53,545.62 C62.64,563.93 56.5,575.3 56.5,575.3 C56.5,575.3 56.5,610.3 56.5,610.3 C56.5,610.3 96.2515,623.6318 138.8515,637.9218" fill="none" id="eliminarEspacio-to-ESPACIOS_ABIERTO" style="stroke:#008000;stroke-width:1;"/><polygon fill="#008000" points="144.54,639.83,137.2794,633.1754,139.7996,638.2399,134.7352,640.7601,144.54,639.83" style="stroke:#008000;stroke-width:1;"/><path d="M61.5,580.3 L61.5,605.3 L328.5,605.3 L328.5,590.3 L318.5,580.3 L61.5,580.3" fill="#FEFFDD" style="stroke:#181818;stroke-width:0.5;"/><path d="M318.5,580.3 L318.5,590.3 L328.5,590.3 L318.5,580.3" fill="#FEFFDD" style="stroke:#181818;stroke-width:0.5;"/><text fill="#000000" font-family="sans-serif" font-size="13" lengthAdjust="spacing" textLength="246.8413" x="67.5" y="597.3669">abrirListaEspacios() - lista actualizada</text></g><!--link eliminarEspacio to ESPACIOS_ABIERTO--><g class="link" data-entity-1="eliminarEspacio" data-entity-2="ESPACIOS_ABIERTO" data-source-line="38" data-uid="lnk9" id="link_eliminarEspacio_ESPACIOS_ABIERTO"><path d="M325.56,545.62 C332.92,563.93 337.5,575.3 337.5,575.3 C337.5,575.3 337.5,610.3 337.5,610.3 C337.5,610.3 309.1014,623.0775 277.3514,637.3675" fill="none" id="eliminarEspacio-to-ESPACIOS_ABIERTO-1" style="stroke:#0000FF;stroke-width:1;"/><polygon fill="#0000FF" points="271.88,639.83,281.7287,639.7838,276.4395,637.7779,278.4454,632.4886,271.88,639.83" style="stroke:#0000FF;stroke-width:1;"/><path d="M342.5,580.3 L342.5,605.3 L638.5,605.3 L638.5,590.3 L628.5,580.3 L342.5,580.3" fill="#FEFFDD" style="stroke:#181818;stroke-width:0.5;"/><path d="M628.5,580.3 L628.5,590.3 L638.5,590.3 L628.5,580.3" fill="#FEFFDD" style="stroke:#181818;stroke-width:0.5;"/><text fill="#000000" font-family="sans-serif" font-size="13" lengthAdjust="spacing" textLength="275.209" x="348.5" y="597.3669">abrirListaEspacios() - cancelar eliminación</text></g><!--SRC=[dLDjQjmm4FslKmpRFqdPfHS82zjbeO50GhV_GYXZQJOCaIKpyWRIKkXPSeKS8JV9IJgsLtRsgoInmI3fpNjlvidfZaE5WYLu3bG_L0HLz0_DmfXKOqr0daiEA8jKeUK8c62qitToEeBVne0-NSr8NyNDOrYnb1XSN7GL2WxxkCrX0-i8EwxhppSmkVvqAqJXPZ8zGWSjDaIbquKwlsitpehfp2c6KoteefnzAQQGecVBDVPD0Mq4cn8AhkFHn_IV8wglZUtxFsPfgNQenDPC9PGeg1aEgwW2bf-V0ZZosHGCFjlwbx-FC7z-SdmRnyfU5aAluJrcuNZ5NLJHiZO_XigZAWqis5GuT6EekOhAaad686JNacBgmT-Ye3GdQ2qbBjXtbR589FVjD6X0N-MkqDsJr1JKGSkVPwTD3c2IadLAEHS1kvcslBa0WoL_29_Z7ABSosahHRrk7xbAsN6ERz_8RkxlQVfjsl_h_eynkx_mrjrTNitcvvVBdxElvullFoxDLljO2Ck5YkEcDfsSmaJFKfEmhTVe-HSwDBtS8R72h-d3MeS3pdh_0000]--></g></svg>