<svg xmlns="http://www.w3.org/2000/svg" xmlns:xlink="http://www.w3.org/1999/xlink" contentStyleType="text/css" data-diagram-type="DESCRIPTION" height="1154px" preserveAspectRatio="none" style="width:666px;height:1154px;background:#FFFFFF;" version="1.1" viewBox="0 0 666 1154" width="666px" zoomAndPan="magnify"><defs/><g><!--cluster Gesti?n de Ubicaciones--><g class="cluster" data-entity="Gesti.n de Ubicaciones" data-source-line="5" data-uid="ent0003" id="cluster_Gesti.n de Ubicaciones"><path d="M28,113 L213.1055,113 A3.75,3.75 0 0 1 215.6055,115.5 L222.6055,135.2969 L230,135.2969 A2.5,2.5 0 0 1 232.5,137.7969 L232.5,414.5 A2.5,2.5 0 0 1 230,417 L28,417 A2.5,2.5 0 0 1 25.5,414.5 L25.5,115.5 A2.5,2.5 0 0 1 28,113" fill="none" style="stroke:#000000;stroke-width:1.5;"/><line style="stroke:#000000;stroke-width:1.5;" x1="25.5" x2="222.6055" y1="135.2969" y2="135.2969"/><text fill="#000000" font-family="sans-serif" font-size="14" font-weight="bold" lengthAdjust="spacing" textLength="184.1055" x="29.5" y="127.9951">Gesti&#243;n de Ubicaciones</text></g><!--cluster Gesti?n de relaciones--><g class="cluster" data-entity="Gesti.n de relaciones" data-source-line="11" data-uid="ent0008" id="cluster_Gesti.n de relaciones"><path d="M31.5,441 L203.3164,441 A3.75,3.75 0 0 1 205.8164,443.5 L212.8164,463.2969 L226.5,463.2969 A2.5,2.5 0 0 1 229,465.7969 L229,735.5 A2.5,2.5 0 0 1 226.5,738 L31.5,738 A2.5,2.5 0 0 1 29,735.5 L29,443.5 A2.5,2.5 0 0 1 31.5,441" fill="none" style="stroke:#000000;stroke-width:1.5;"/><line style="stroke:#000000;stroke-width:1.5;" x1="29" x2="212.8164" y1="463.2969" y2="463.2969"/><text fill="#000000" font-family="sans-serif" font-size="14" font-weight="bold" lengthAdjust="spacing" textLength="170.8164" x="33" y="455.9951">Gesti&#243;n de relaciones</text></g><!--cluster Gesti?n de Recorridos--><g class="cluster" data-entity="Gesti.n de Recorridos" data-source-line="18" data-uid="ent0013" id="cluster_Gesti.n de Recorridos"><path d="M8.5,762 L183.9326,762 A3.75,3.75 0 0 1 186.4326,764.5 L193.4326,784.2969 L249.5,784.2969 A2.5,2.5 0 0 1 252,786.7969 L252,1144.5 A2.5,2.5 0 0 1 249.5,1147 L8.5,1147 A2.5,2.5 0 0 1 6,1144.5 L6,764.5 A2.5,2.5 0 0 1 8.5,762" fill="none" style="stroke:#000000;stroke-width:1.5;"/><line style="stroke:#000000;stroke-width:1.5;" x1="6" x2="193.4326" y1="784.2969" y2="784.2969"/><text fill="#000000" font-family="sans-serif" font-size="14" font-weight="bold" lengthAdjust="spacing" textLength="174.4326" x="10" y="776.9951">Gesti&#243;n de Recorridos</text></g><!--cluster Gesti?n de Univerdidad--><g class="cluster" data-entity="Gesti.n de Univerdidad" data-source-line="26" data-uid="ent0019" id="cluster_Gesti.n de Univerdidad"><path d="M441.5,6 L628.1299,6 A3.75,3.75 0 0 1 630.6299,8.5 L637.6299,28.2969 L656.5,28.2969 A2.5,2.5 0 0 1 659,30.7969 L659,1141.5 A2.5,2.5 0 0 1 656.5,1144 L441.5,1144 A2.5,2.5 0 0 1 439,1141.5 L439,8.5 A2.5,2.5 0 0 1 441.5,6" fill="none" style="stroke:#000000;stroke-width:1.5;"/><line style="stroke:#000000;stroke-width:1.5;" x1="439" x2="637.6299" y1="28.2969" y2="28.2969"/><text fill="#000000" font-family="sans-serif" font-size="14" font-weight="bold" lengthAdjust="spacing" textLength="185.6299" x="443" y="20.9951">Gesti&#243;n de Univerdidad</text></g><!--entity crearUbicacion--><g class="entity" data-entity="crearUbicacion" data-source-line="6" data-uid="ent0004" id="entity_crearUbicacion"><ellipse cx="129.2367" cy="165.1473" fill="#F1F1F1" rx="73.7367" ry="17.1473" style="stroke:#181818;stroke-width:0.5;"/><text fill="#000000" font-family="sans-serif" font-size="14" lengthAdjust="spacing" textLength="115.6504" x="71.4115" y="169.7958">crearUbicacion()</text></g><!--entity verUbicaciones--><g class="entity" data-entity="verUbicaciones" data-source-line="7" data-uid="ent0005" id="entity_verUbicaciones"><ellipse cx="129.1223" cy="234.8245" fill="#F1F1F1" rx="74.6223" ry="17.3245" style="stroke:#181818;stroke-width:0.5;"/><text fill="#000000" font-family="sans-serif" font-size="14" lengthAdjust="spacing" textLength="117.8105" x="70.217" y="239.4729">verUbicaciones()</text></g><!--entity eliminarUbicacion--><g class="entity" data-entity="eliminarUbicacion" data-source-line="8" data-uid="ent0006" id="entity_eliminarUbicacion"><ellipse cx="128.933" cy="306.8866" fill="#F1F1F1" rx="82.433" ry="18.8866" style="stroke:#181818;stroke-width:0.5;"/><text fill="#000000" font-family="sans-serif" font-size="14" lengthAdjust="spacing" textLength="136.377" x="60.7445" y="311.535">eliminarUbicacion()</text></g><!--entity actualizarUbicacion--><g class="entity" data-entity="actualizarUbicacion" data-source-line="9" data-uid="ent0007" id="entity_actualizarUbicacion"><ellipse cx="128.9436" cy="380.8887" fill="#F1F1F1" rx="87.4436" ry="19.8887" style="stroke:#181818;stroke-width:0.5;"/><text fill="#000000" font-family="sans-serif" font-size="14" lengthAdjust="spacing" textLength="147.9297" x="54.9788" y="385.5372">actualizarUbicacion()</text></g><!--entity crearRelacion--><g class="entity" data-entity="crearRelacion" data-source-line="12" data-uid="ent0009" id="entity_crearRelacion"><ellipse cx="128.8109" cy="492.9622" fill="#F1F1F1" rx="70.3109" ry="16.4622" style="stroke:#181818;stroke-width:0.5;"/><text fill="#000000" font-family="sans-serif" font-size="14" lengthAdjust="spacing" textLength="107.1602" x="75.2308" y="497.6106">crearRelacion()</text></g><!--entity verRelaciones--><g class="entity" data-entity="verRelaciones" data-source-line="13" data-uid="ent0010" id="entity_verRelaciones"><ellipse cx="129.1737" cy="561.1347" fill="#F1F1F1" rx="71.1737" ry="16.6347" style="stroke:#181818;stroke-width:0.5;"/><text fill="#000000" font-family="sans-serif" font-size="14" lengthAdjust="spacing" textLength="109.3203" x="74.5136" y="565.7832">verRelaciones()</text></g><!--entity eliminarRelacion--><g class="entity" data-entity="eliminarRelacion" data-source-line="14" data-uid="ent0011" id="entity_eliminarRelacion"><ellipse cx="128.82" cy="631.164" fill="#F1F1F1" rx="78.82" ry="18.164" style="stroke:#181818;stroke-width:0.5;"/><text fill="#000000" font-family="sans-serif" font-size="14" lengthAdjust="spacing" textLength="127.8867" x="64.8767" y="635.8124">eliminarRelacion()</text></g><!--entity actualizarRelacion--><g class="entity" data-entity="actualizarRelacion" data-source-line="15" data-uid="ent0012" id="entity_actualizarRelacion"><ellipse cx="128.7513" cy="703.1503" fill="#F1F1F1" rx="83.7513" ry="19.1503" style="stroke:#181818;stroke-width:0.5;"/><text fill="#000000" font-family="sans-serif" font-size="14" lengthAdjust="spacing" textLength="139.4395" x="59.0315" y="707.7987">actualizarRelacion()</text></g><!--entity crearRecorrido--><g class="entity" data-entity="crearRecorrido" data-source-line="19" data-uid="ent0014" id="entity_crearRecorrido"><ellipse cx="128.8823" cy="814.0765" fill="#F1F1F1" rx="73.3823" ry="17.0765" style="stroke:#181818;stroke-width:0.5;"/><text fill="#000000" font-family="sans-serif" font-size="14" lengthAdjust="spacing" textLength="114.7822" x="71.4912" y="818.7249">crearRecorrido()</text></g><!--entity verRecorridos--><g class="entity" data-entity="verRecorridos" data-source-line="20" data-uid="ent0015" id="entity_verRecorridos"><ellipse cx="128.777" cy="883.0554" fill="#F1F1F1" rx="70.777" ry="16.5554" style="stroke:#181818;stroke-width:0.5;"/><text fill="#000000" font-family="sans-serif" font-size="14" lengthAdjust="spacing" textLength="108.3291" x="74.6125" y="887.7038">verRecorridos()</text></g><!--entity eliminarRecorrido--><g class="entity" data-entity="eliminarRecorrido" data-source-line="21" data-uid="ent0016" id="entity_eliminarRecorrido"><ellipse cx="129.0606" cy="953.8121" fill="#F1F1F1" rx="82.0606" ry="18.8121" style="stroke:#181818;stroke-width:0.5;"/><text fill="#000000" font-family="sans-serif" font-size="14" lengthAdjust="spacing" textLength="135.5088" x="61.3062" y="958.4606">eliminarRecorrido()</text></g><!--entity actualizarRecorrido--><g class="entity" data-entity="actualizarRecorrido" data-source-line="22" data-uid="ent0017" id="entity_actualizarRecorrido"><ellipse cx="129.0637" cy="1027.8127" fill="#F1F1F1" rx="87.0637" ry="19.8127" style="stroke:#181818;stroke-width:0.5;"/><text fill="#000000" font-family="sans-serif" font-size="14" lengthAdjust="spacing" textLength="147.0615" x="55.5329" y="1032.4612">actualizarRecorrido()</text></g><!--entity a?adirUbicacionRecorrido--><g class="entity" data-entity="a.adirUbicacionRecorrido" data-source-line="23" data-uid="ent0018" id="entity_a.adirUbicacionRecorrido"><ellipse cx="128.9516" cy="1106.7903" fill="#F1F1F1" rx="106.9516" ry="23.7903" style="stroke:#181818;stroke-width:0.5;"/><text fill="#000000" font-family="sans-serif" font-size="14" lengthAdjust="spacing" textLength="191.2695" x="33.3168" y="1111.4388">a&#241;adirUbicacionRecorrido()</text></g><!--entity crearUniversidad--><g class="entity" data-entity="crearUniversidad" data-source-line="27" data-uid="ent0020" id="entity_crearUniversidad"><ellipse cx="548.936" cy="59.8872" fill="#F1F1F1" rx="79.936" ry="18.3872" style="stroke:#181818;stroke-width:0.5;"/><text fill="#000000" font-family="sans-serif" font-size="14" lengthAdjust="spacing" textLength="130.5254" x="483.6733" y="64.5356">crearUniversidad()</text></g><!--entity verUniversidades--><g class="entity" data-entity="verUniversidades" data-source-line="28" data-uid="ent0021" id="entity_verUniversidades"><ellipse cx="548.8543" cy="132.0709" fill="#F1F1F1" rx="80.8543" ry="18.5709" style="stroke:#181818;stroke-width:0.5;"/><text fill="#000000" font-family="sans-serif" font-size="14" lengthAdjust="spacing" textLength="132.6855" x="482.5115" y="136.7193">verUniversidades()</text></g><!--entity eliminarUniversidad--><g class="entity" data-entity="eliminarUniversidad" data-source-line="29" data-uid="ent0022" id="entity_eliminarUniversidad"><ellipse cx="548.9024" cy="206.1805" fill="#F1F1F1" rx="88.9024" ry="20.1805" style="stroke:#181818;stroke-width:0.5;"/><text fill="#000000" font-family="sans-serif" font-size="14" lengthAdjust="spacing" textLength="151.252" x="473.2764" y="210.8289">eliminarUniversidad()</text></g><!--entity actualizarUniversidad--><g class="entity" data-entity="actualizarUniversidad" data-source-line="30" data-uid="ent0023" id="entity_actualizarUniversidad"><ellipse cx="549.0289" cy="282.2058" fill="#F1F1F1" rx="94.0289" ry="21.2058" style="stroke:#181818;stroke-width:0.5;"/><text fill="#000000" font-family="sans-serif" font-size="14" lengthAdjust="spacing" textLength="162.8047" x="467.6266" y="286.8542">actualizarUniversidad()</text></g><!--entity crearExterior--><g class="entity" data-entity="crearExterior" data-source-line="32" data-uid="ent0024" id="entity_crearExterior"><ellipse cx="548.9812" cy="354.0962" fill="#F1F1F1" rx="68.4812" ry="16.0962" style="stroke:#181818;stroke-width:0.5;"/><text fill="#000000" font-family="sans-serif" font-size="14" lengthAdjust="spacing" textLength="102.5254" x="497.7185" y="358.7447">crearExterior()</text></g><!--entity verExteriores--><g class="entity" data-entity="verExteriores" data-source-line="33" data-uid="ent0025" id="entity_verExteriores"><ellipse cx="548.8302" cy="421.766" fill="#F1F1F1" rx="69.3302" ry="16.266" style="stroke:#181818;stroke-width:0.5;"/><text fill="#000000" font-family="sans-serif" font-size="14" lengthAdjust="spacing" textLength="104.6855" x="496.4874" y="426.4145">verExteriores()</text></g><!--entity eliminarExterior--><g class="entity" data-entity="eliminarExterior" data-source-line="34" data-uid="ent0026" id="entity_eliminarExterior"><ellipse cx="548.8762" cy="491.7752" fill="#F1F1F1" rx="76.8762" ry="17.7752" style="stroke:#181818;stroke-width:0.5;"/><text fill="#000000" font-family="sans-serif" font-size="14" lengthAdjust="spacing" textLength="123.252" x="487.2502" y="496.4237">eliminarExterior()</text></g><!--entity actualizarExterior--><g class="entity" data-entity="actualizarExterior" data-source-line="35" data-uid="ent0027" id="entity_actualizarExterior"><ellipse cx="548.7591" cy="563.7518" fill="#F1F1F1" rx="81.7591" ry="18.7518" style="stroke:#181818;stroke-width:0.5;"/><text fill="#000000" font-family="sans-serif" font-size="14" lengthAdjust="spacing" textLength="134.8047" x="481.3568" y="568.4003">actualizarExterior()</text></g><!--entity crearEdificio--><g class="entity" data-entity="crearEdificio" data-source-line="37" data-uid="ent0028" id="entity_crearEdificio"><ellipse cx="549.1939" cy="634.2388" fill="#F1F1F1" rx="66.6939" ry="15.7388" style="stroke:#181818;stroke-width:0.5;"/><text fill="#000000" font-family="sans-serif" font-size="14" lengthAdjust="spacing" textLength="97.918" x="500.2349" y="638.8872">crearEdificio()</text></g><!--entity verEdificios--><g class="entity" data-entity="verEdificios" data-source-line="38" data-uid="ent0029" id="entity_verEdificios"><ellipse cx="549.2485" cy="700.2497" fill="#F1F1F1" rx="64.2485" ry="15.2497" style="stroke:#181818;stroke-width:0.5;"/><text fill="#000000" font-family="sans-serif" font-size="14" lengthAdjust="spacing" textLength="91.4648" x="503.5161" y="704.8981">verEdificios()</text></g><!--entity eliminarEdificio--><g class="entity" data-entity="eliminarEdificio" data-source-line="39" data-uid="ent0030" id="entity_eliminarEdificio"><ellipse cx="548.9657" cy="767.8931" fill="#F1F1F1" rx="74.9657" ry="17.3931" style="stroke:#181818;stroke-width:0.5;"/><text fill="#000000" font-family="sans-serif" font-size="14" lengthAdjust="spacing" textLength="118.6445" x="489.6434" y="772.5416">eliminarEdificio()</text></g><!--entity actualizarEdificio--><g class="entity" data-entity="actualizarEdificio" data-source-line="40" data-uid="ent0031" id="entity_actualizarEdificio"><ellipse cx="548.7969" cy="838.8594" fill="#F1F1F1" rx="79.7969" ry="18.3594" style="stroke:#181818;stroke-width:0.5;"/><text fill="#000000" font-family="sans-serif" font-size="14" lengthAdjust="spacing" textLength="130.1973" x="483.6982" y="843.5078">actualizarEdificio()</text></g><!--entity crearPlanta--><g class="entity" data-entity="crearPlanta" data-source-line="42" data-uid="ent0032" id="entity_crearPlanta"><ellipse cx="549.1414" cy="908.2283" fill="#F1F1F1" rx="64.1414" ry="15.2283" style="stroke:#181818;stroke-width:0.5;"/><text fill="#000000" font-family="sans-serif" font-size="14" lengthAdjust="spacing" textLength="91.1777" x="503.5525" y="912.8767">crearPlanta()</text></g><!--entity verPlantas--><g class="entity" data-entity="verPlantas" data-source-line="43" data-uid="ent0033" id="entity_verPlantas"><ellipse cx="548.7749" cy="972.755" fill="#F1F1F1" rx="61.7749" ry="14.755" style="stroke:#181818;stroke-width:0.5;"/><text fill="#000000" font-family="sans-serif" font-size="14" lengthAdjust="spacing" textLength="84.7246" x="506.4126" y="977.4034">verPlantas()</text></g><!--entity eliminarPlanta--><g class="entity" data-entity="eliminarPlanta" data-source-line="44" data-uid="ent0034" id="entity_eliminarPlanta"><ellipse cx="549.2139" cy="1039.8428" fill="#F1F1F1" rx="72.2139" ry="16.8428" style="stroke:#181818;stroke-width:0.5;"/><text fill="#000000" font-family="sans-serif" font-size="14" lengthAdjust="spacing" textLength="111.9043" x="493.2618" y="1044.4912">eliminarPlanta()</text></g><!--entity actualizarPlanta--><g class="entity" data-entity="actualizarPlanta" data-source-line="45" data-uid="ent0035" id="entity_actualizarPlanta"><ellipse cx="548.9617" cy="1109.7923" fill="#F1F1F1" rx="76.9617" ry="17.7923" style="stroke:#181818;stroke-width:0.5;"/><text fill="#000000" font-family="sans-serif" font-size="14" lengthAdjust="spacing" textLength="123.457" x="487.2332" y="1114.4408">actualizarPlanta()</text></g><!--entity admin--><g class="entity" data-entity="admin" data-source-line="3" data-uid="ent0002" id="entity_admin"><ellipse cx="345.54" cy="601.5" fill="#F1F1F1" rx="8" ry="8" style="stroke:#181818;stroke-width:0.5;"/><path d="M345.54,609.5 L345.54,636.5 M332.54,617.5 L358.54,617.5 M345.54,636.5 L332.54,651.5 M345.54,636.5 L358.54,651.5" fill="none" style="stroke:#181818;stroke-width:0.5;"/><text fill="#000000" font-family="sans-serif" font-size="14" lengthAdjust="spacing" textLength="99.0801" x="296" y="665.9951">Administrador</text></g><!--reverse link crearUbicacion to admin--><g class="link" data-entity-1="crearUbicacion" data-entity-2="admin" data-source-line="48" data-uid="lnk36" id="link_crearUbicacion_admin"><path d="M205.7806,170.7558 C227.7506,175.5758 244.45,183.34 260,200 C313.25,257.08 335.37,498.56 342.1,592.96" fill="none" id="crearUbicacion-backto-admin" style="stroke:#181818;stroke-width:1;"/><polygon fill="#181818" points="199.92,169.47,207.8537,175.3057,204.8038,170.5415,209.5681,167.4916,199.92,169.47" style="stroke:#181818;stroke-width:1;"/></g><!--reverse link verUbicaciones to admin--><g class="link" data-entity-1="verUbicaciones" data-entity-2="admin" data-source-line="49" data-uid="lnk37" id="link_verUbicaciones_admin"><path d="M206.4324,241.3525 C228.0724,246.2425 244.4,253.87 260,270 C304.64,316.15 331.02,509.61 340.49,592.75" fill="none" id="verUbicaciones-backto-admin" style="stroke:#181818;stroke-width:1;"/><polygon fill="#181818" points="200.58,240.03,208.477,245.9153,205.457,241.1321,210.2403,238.1121,200.58,240.03" style="stroke:#181818;stroke-width:1;"/></g><!--reverse link eliminarUbicacion to admin--><g class="link" data-entity-1="eliminarUbicacion" data-entity-2="admin" data-source-line="50" data-uid="lnk38" id="link_eliminarUbicacion_admin"><path d="M210.9707,315.9237 C230.9407,321.2037 245.23,328.46 260,343 C328.87,410.83 342.3,531.57 344.47,592.94" fill="none" id="eliminarUbicacion-backto-admin" style="stroke:#181818;stroke-width:1;"/><polygon fill="#181818" points="205.17,314.39,212.8486,320.5576,210.0039,315.6681,214.8935,312.8234,205.17,314.39" style="stroke:#181818;stroke-width:1;"/></g><!--reverse link actualizarUbicacion to admin--><g class="link" data-entity-1="actualizarUbicacion" data-entity-2="admin" data-source-line="51" data-uid="lnk39" id="link_actualizarUbicacion_admin"><path d="M176.7987,401.228 C204.6587,414.738 235.29,433.03 260,460 C295.57,498.82 319.56,555.38 332.62,592.67" fill="none" id="actualizarUbicacion-backto-admin" style="stroke:#181818;stroke-width:1;"/><polygon fill="#181818" points="171.4,398.61,177.7528,406.1361,175.8989,400.7916,181.2434,398.9378,171.4,398.61" style="stroke:#181818;stroke-width:1;"/></g><!--reverse link crearRelacion to admin--><g class="link" data-entity-1="crearRelacion" data-entity-2="admin" data-source-line="53" data-uid="lnk40" id="link_crearRelacion_admin"><path d="M197.3532,502.1038 C220.1832,507.0638 239.6,513.86 260,527 C285.72,543.56 307.31,570.55 322.23,592.88" fill="none" id="crearRelacion-backto-admin" style="stroke:#181818;stroke-width:1;"/><polygon fill="#181818" points="191.49,500.83,199.4356,506.6496,196.376,501.8915,201.1341,498.8319,191.49,500.83" style="stroke:#181818;stroke-width:1;"/></g><!--reverse link verRelaciones to admin--><g class="link" data-entity-1="verRelaciones" data-entity-2="admin" data-source-line="54" data-uid="lnk41" id="link_verRelaciones_admin"><path d="M186.3388,573.803 C210.6288,579.733 234.17,586.17 260,595 C271.77,599.02 284.21,603.94 295.82,608.82" fill="none" id="verRelaciones-backto-admin" style="stroke:#181818;stroke-width:1;"/><polygon fill="#181818" points="180.51,572.38,188.3045,578.4004,185.3673,573.5658,190.2019,570.6286,180.51,572.38" style="stroke:#181818;stroke-width:1;"/></g><!--reverse link eliminarRelacion to admin--><g class="link" data-entity-1="eliminarRelacion" data-entity-2="admin" data-source-line="55" data-uid="lnk42" id="link_eliminarRelacion_admin"><path d="M214.05,631 C243.39,631 269.9,631 295.82,631" fill="none" id="eliminarRelacion-backto-admin" style="stroke:#181818;stroke-width:1;"/><polygon fill="#181818" points="208.05,631,217.05,635,213.05,631,217.05,627,208.05,631" style="stroke:#181818;stroke-width:1;"/></g><!--reverse link actualizarRelacion to admin--><g class="link" data-entity-1="actualizarRelacion" data-entity-2="admin" data-source-line="56" data-uid="lnk43" id="link_actualizarRelacion_admin"><path d="M190.9368,687.2348 C214.2268,680.8548 235.73,674.45 260,666 C271.7,661.93 284.11,657.09 295.72,652.33" fill="none" id="actualizarRelacion-backto-admin" style="stroke:#181818;stroke-width:1;"/><polygon fill="#181818" points="185.15,688.82,194.887,690.3,189.9723,687.499,192.7734,682.5843,185.15,688.82" style="stroke:#181818;stroke-width:1;"/></g><!--reverse link crearRecorrido to admin--><g class="link" data-entity-1="crearRecorrido" data-entity-2="admin" data-source-line="58" data-uid="lnk44" id="link_crearRecorrido_admin"><path d="M168.5801,796.2944 C196.2501,782.7644 230.41,763.73 260,738 C283.04,717.96 304.32,690.95 319.76,669.08" fill="none" id="crearRecorrido-backto-admin" style="stroke:#181818;stroke-width:1;"/><polygon fill="#181818" points="163.19,798.93,173.0323,798.5699,167.6818,796.7336,169.5181,791.3831,163.19,798.93" style="stroke:#181818;stroke-width:1;"/></g><!--reverse link verRecorridos to admin--><g class="link" data-entity-1="verRecorridos" data-entity-2="admin" data-source-line="59" data-uid="lnk45" id="link_verRecorridos_admin"><path d="M201.8064,876.1209 C224.3564,871.2809 242.43,863.76 260,848 C312.36,801.02 332.58,717.66 340.16,669.07" fill="none" id="verRecorridos-backto-admin" style="stroke:#181818;stroke-width:1;"/><polygon fill="#181818" points="195.94,877.38,205.579,879.4022,200.8287,876.3307,203.9002,871.5804,195.94,877.38" style="stroke:#181818;stroke-width:1;"/></g><!--reverse link eliminarRecorrido to admin--><g class="link" data-entity-1="eliminarRecorrido" data-entity-2="admin" data-source-line="60" data-uid="lnk46" id="link_eliminarRecorrido_admin"><path d="M209.9578,944.7056 C230.2678,939.2956 244.99,931.86 260,917 C328.07,849.61 341.88,730.26 344.31,669.24" fill="none" id="eliminarRecorrido-backto-admin" style="stroke:#181818;stroke-width:1;"/><polygon fill="#181818" points="204.16,946.25,213.8863,947.7987,208.9915,944.963,211.8272,940.0682,204.16,946.25" style="stroke:#181818;stroke-width:1;"/></g><!--reverse link actualizarRecorrido to admin--><g class="link" data-entity-1="actualizarRecorrido" data-entity-2="admin" data-source-line="61" data-uid="lnk47" id="link_actualizarRecorrido_admin"><path d="M213.5397,1017.619 C232.8297,1011.989 246.17,1004.59 260,990 C303.89,943.71 330.65,752 340.35,669.28" fill="none" id="actualizarRecorrido-backto-admin" style="stroke:#181818;stroke-width:1;"/><polygon fill="#181818" points="207.78,1019.3,217.5402,1020.6183,212.5797,1017.8991,215.2989,1012.9387,207.78,1019.3" style="stroke:#181818;stroke-width:1;"/></g><!--reverse link a?adirUbicacionRecorrido to admin--><g class="link" data-entity-1="a.adirUbicacionRecorrido" data-entity-2="admin" data-source-line="62" data-uid="lnk48" id="link_a.adirUbicacionRecorrido_admin"><path d="M222.3157,1091.0209 C238.6157,1084.8009 248.51,1077.96 260,1065 C312.13,1006.19 334.93,763.83 341.96,669.15" fill="none" id="a&#241;adirUbicacionRecorrido-backto-admin" style="stroke:#181818;stroke-width:1;"/><polygon fill="#181818" points="216.71,1093.16,226.5447,1093.6885,221.3814,1091.3774,223.6925,1086.2142,216.71,1093.16" style="stroke:#181818;stroke-width:1;"/></g><!--link admin to crearUniversidad--><g class="link" data-entity-1="admin" data-entity-2="crearUniversidad" data-source-line="64" data-uid="lnk49" id="link_admin_crearUniversidad"><path d="M347.44,592.61 C350.89,482.81 366.31,170.59 431,96 C442.91,82.27 454.174,75.4601 471.544,70.1301" fill="none" id="admin-to-crearUniversidad" style="stroke:#181818;stroke-width:1;"/><polygon fill="#181818" points="477.28,68.37,467.5026,67.1861,472.5,69.8368,469.8494,74.8342,477.28,68.37" style="stroke:#181818;stroke-width:1;"/></g><!--link admin to verUniversidades--><g class="link" data-entity-1="admin" data-entity-2="verUniversidades" data-source-line="65" data-uid="lnk50" id="link_admin_verUniversidades"><path d="M348.47,592.84 C354.35,493.65 374.97,231.07 431,168 C443,154.5 454.1981,147.7634 471.4581,142.4234" fill="none" id="admin-to-verUniversidades" style="stroke:#181818;stroke-width:1;"/><polygon fill="#181818" points="477.19,140.65,467.4098,139.4888,472.4134,142.1278,469.7743,147.1314,477.19,140.65" style="stroke:#181818;stroke-width:1;"/></g><!--link admin to eliminarUniversidad--><g class="link" data-entity-1="admin" data-entity-2="eliminarUniversidad" data-source-line="66" data-uid="lnk51" id="link_admin_eliminarUniversidad"><path d="M349.99,592.71 C358.72,505.23 384.19,294.32 431,243 C442.34,230.57 452.1577,224.2358 468.1377,218.7258" fill="none" id="admin-to-eliminarUniversidad" style="stroke:#181818;stroke-width:1;"/><polygon fill="#181818" points="473.81,216.77,463.9977,215.9222,469.0831,218.3999,466.6055,223.4853,473.81,216.77" style="stroke:#181818;stroke-width:1;"/></g><!--link admin to actualizarUniversidad--><g class="link" data-entity-1="admin" data-entity-2="actualizarUniversidad" data-source-line="67" data-uid="lnk52" id="link_admin_actualizarUniversidad"><path d="M345.86,592.95 C346.89,528.19 358.46,396.17 431,320 C442.27,308.17 451.6106,302.0687 467.0806,296.4487" fill="none" id="admin-to-actualizarUniversidad" style="stroke:#181818;stroke-width:1;"/><polygon fill="#181818" points="472.72,294.4,462.8951,293.7135,468.0205,296.1073,465.6267,301.2327,472.72,294.4" style="stroke:#181818;stroke-width:1;"/></g><!--link admin to crearExterior--><g class="link" data-entity-1="admin" data-entity-2="crearExterior" data-source-line="68" data-uid="lnk53" id="link_admin_crearExterior"><path d="M349.15,592.77 C354.91,539.38 373.18,442.9 431,388 C446.03,373.73 460.8718,366.8254 480.6618,361.9854" fill="none" id="admin-to-crearExterior" style="stroke:#181818;stroke-width:1;"/><polygon fill="#181818" points="486.49,360.56,476.7974,358.8126,481.6331,361.7478,478.6979,366.5836,486.49,360.56" style="stroke:#181818;stroke-width:1;"/></g><!--link admin to verExteriores--><g class="link" data-entity-1="admin" data-entity-2="verExteriores" data-source-line="69" data-uid="lnk54" id="link_admin_verExteriores"><path d="M355.13,592.92 C366.09,553.12 388.88,491.62 431,456 C446.75,442.68 461.6507,436.0415 481.2807,431.1115" fill="none" id="admin-to-verExteriores" style="stroke:#181818;stroke-width:1;"/><polygon fill="#181818" points="487.1,429.65,477.3967,427.9627,482.2506,430.8679,479.3454,435.7218,487.1,429.65" style="stroke:#181818;stroke-width:1;"/></g><!--link admin to eliminarExterior--><g class="link" data-entity-1="admin" data-entity-2="eliminarExterior" data-source-line="70" data-uid="lnk55" id="link_admin_eliminarExterior"><path d="M369.15,592.95 C384.14,570.78 405.67,543.94 431,527 C447.74,515.8 462.386,509.6854 481.456,504.4254" fill="none" id="admin-to-eliminarExterior" style="stroke:#181818;stroke-width:1;"/><polygon fill="#181818" points="487.24,502.83,477.5004,501.3671,482.42,504.1595,479.6276,509.0791,487.24,502.83" style="stroke:#181818;stroke-width:1;"/></g><!--link admin to actualizarExterior--><g class="link" data-entity-1="admin" data-entity-2="actualizarExterior" data-source-line="71" data-uid="lnk56" id="link_admin_actualizarExterior"><path d="M395.1,613.42 C406.83,609.27 419.34,604.91 431,601 C453.22,593.55 472.2142,587.4631 493.1942,580.8931" fill="none" id="admin-to-actualizarExterior" style="stroke:#181818;stroke-width:1;"/><polygon fill="#181818" points="498.92,579.1,489.1359,577.9724,494.1485,580.5942,491.5267,585.6068,498.92,579.1" style="stroke:#181818;stroke-width:1;"/></g><!--link admin to crearEdificio--><g class="link" data-entity-1="admin" data-entity-2="crearEdificio" data-source-line="72" data-uid="lnk57" id="link_admin_crearEdificio"><path d="M395.02,631.72 C421.22,632.11 447.9407,632.5114 476.3807,632.9314" fill="none" id="admin-to-crearEdificio" style="stroke:#181818;stroke-width:1;"/><polygon fill="#181818" points="482.38,633.02,473.44,628.8875,477.3805,632.9462,473.3219,636.8867,482.38,633.02" style="stroke:#181818;stroke-width:1;"/></g><!--link admin to verEdificios--><g class="link" data-entity-1="admin" data-entity-2="verEdificios" data-source-line="73" data-uid="lnk58" id="link_admin_verEdificios"><path d="M395.23,653.01 C406.84,657.91 419.27,662.87 431,667 C454.99,675.45 476.5111,681.7196 498.7211,687.6196" fill="none" id="admin-to-verEdificios" style="stroke:#181818;stroke-width:1;"/><polygon fill="#181818" points="504.52,689.16,496.8486,682.9834,499.6876,687.8763,494.7947,690.7152,504.52,689.16" style="stroke:#181818;stroke-width:1;"/></g><!--link admin to eliminarEdificio--><g class="link" data-entity-1="admin" data-entity-2="eliminarEdificio" data-source-line="74" data-uid="lnk59" id="link_admin_eliminarEdificio"><path d="M370.47,669.36 C385.5,690.56 406.62,715.81 431,732 C448.53,743.64 464.2071,750.0605 483.9471,755.5205" fill="none" id="admin-to-eliminarEdificio" style="stroke:#181818;stroke-width:1;"/><polygon fill="#181818" points="489.73,757.12,482.122,750.8655,484.9109,755.7871,479.9894,758.576,489.73,757.12" style="stroke:#181818;stroke-width:1;"/></g><!--link admin to actualizarEdificio--><g class="link" data-entity-1="admin" data-entity-2="actualizarEdificio" data-source-line="75" data-uid="lnk60" id="link_admin_actualizarEdificio"><path d="M355.62,669.03 C366.91,708.06 389.87,767.91 431,803 C445.47,815.35 458.3631,821.7694 476.5131,827.0994" fill="none" id="admin-to-actualizarEdificio" style="stroke:#181818;stroke-width:1;"/><polygon fill="#181818" points="482.27,828.79,474.7617,822.4162,477.4726,827.3812,472.5076,830.092,482.27,828.79" style="stroke:#181818;stroke-width:1;"/></g><!--link admin to crearPlanta--><g class="link" data-entity-1="admin" data-entity-2="crearPlanta" data-source-line="76" data-uid="lnk61" id="link_admin_crearPlanta"><path d="M348.99,669 C354.57,722.59 372.62,819.94 431,875 C446.66,889.77 462.5638,896.7045 483.0638,901.2745" fill="none" id="admin-to-crearPlanta" style="stroke:#181818;stroke-width:1;"/><polygon fill="#181818" points="488.92,902.58,481.006,896.7176,484.0398,901.4921,479.2653,904.5259,488.92,902.58" style="stroke:#181818;stroke-width:1;"/></g><!--link admin to verPlantas--><g class="link" data-entity-1="admin" data-entity-2="verPlantas" data-source-line="77" data-uid="lnk62" id="link_admin_verPlantas"><path d="M345.63,669.11 C346.31,733.92 357.36,865.77 431,940 C446.53,955.66 463.0091,962.7921 484.0191,967.2221" fill="none" id="admin-to-verPlantas" style="stroke:#181818;stroke-width:1;"/><polygon fill="#181818" points="489.89,968.46,481.9089,962.6892,484.9976,967.4284,480.2584,970.5171,489.89,968.46" style="stroke:#181818;stroke-width:1;"/></g><!--link admin to eliminarPlanta--><g class="link" data-entity-1="admin" data-entity-2="eliminarPlanta" data-source-line="78" data-uid="lnk63" id="link_admin_eliminarPlanta"><path d="M350.27,669.24 C359.42,754.44 385.45,956.22 431,1005 C444.53,1019.49 457.9813,1026.5188 476.9813,1031.5688" fill="none" id="admin-to-eliminarPlanta" style="stroke:#181818;stroke-width:1;"/><polygon fill="#181818" points="482.78,1033.11,475.1095,1026.9324,477.9478,1031.8256,473.0545,1034.6639,482.78,1033.11" style="stroke:#181818;stroke-width:1;"/></g><!--link admin to actualizarPlanta--><g class="link" data-entity-1="admin" data-entity-2="actualizarPlanta" data-source-line="79" data-uid="lnk64" id="link_admin_actualizarPlanta"><path d="M348.83,669.27 C355.43,765.5 377.39,1014.14 431,1074 C443.62,1088.09 455.8512,1095.046 473.9412,1100.336" fill="none" id="admin-to-actualizarPlanta" style="stroke:#181818;stroke-width:1;"/><polygon fill="#181818" points="479.7,1102.02,472.1845,1095.6547,474.901,1100.6166,469.9391,1103.3332,479.7,1102.02" style="stroke:#181818;stroke-width:1;"/></g><!--SRC=[VPL1JiCm44NtEOMLLRB83H0I2yGMLU80ndQBHKYGxI84ub288_HYE8qTUyRZT5FbVtt_l3Op6TNHCJSpeqylZabjb71wdfg62pSRrjx9DprfwmoNisaPjumlIjEyS_7AJugr3yewVVcRc5JiwLaBBdnUsVQxOVvpjafmgvWmYflDNivfeTJrBGXyA9ETTWr02GVKgFsDuP92nJ7FUUQZ_i91Gb-YFpIuKUCEzo6u2Jig1FLXEof29wN630gmM2S6iL9UUMdWWnApCLhE5U3WviH18f7ZOGavAdNalA9Gzw3p8A4NqSilzuEnFGReW9gxz-izJTf3IYsv9EVaQjl5pYObYTIi93URbboipWig8_ITcK5XqbdY9UJzfrD6-nsp4KQ5m8jMOajA3GmKOB6E16AbN86H-gZztv_118M22LPYYK8L9JyUYpieUQoKQPJ7aK-E9v3rci1OZGqYNDOGicEXLB_zB8B5C5mTV8Vqx6OOmWkgWsyBO1Kl1U0Icp_tGsbSahWpBMkoaeoLgvSi38kbR8oxij98vOYz1_tQMWDtTlrYmt3BEhoZ-jp4kmYOnC81FhbJ-g8x3YWkJek2R2LZvTWJVM6AYhuup7GTbIf7iwnRdtjS5eQEh28IU8pwVm00]--></g></svg>