<svg xmlns="http://www.w3.org/2000/svg" xmlns:xlink="http://www.w3.org/1999/xlink" contentStyleType="text/css" data-diagram-type="DESCRIPTION" height="335px" preserveAspectRatio="none" style="width:645px;height:335px;background:#FFFFFF;" version="1.1" viewBox="0 0 645 335" width="645px" zoomAndPan="magnify"><defs/><g><!--cluster Ubicaci?n--><g class="cluster" data-entity="Ubicaci.n" data-source-line="7" data-uid="ent0004" id="cluster_Ubicaci.n"><path d="M402.5,6 L480.1172,6 A3.75,3.75 0 0 1 482.6172,8.5 L489.6172,28.2969 L635.5,28.2969 A2.5,2.5 0 0 1 638,30.7969 L638,325.5 A2.5,2.5 0 0 1 635.5,328 L402.5,328 A2.5,2.5 0 0 1 400,325.5 L400,8.5 A2.5,2.5 0 0 1 402.5,6" fill="none" style="stroke:#000000;stroke-width:1.5;"/><line style="stroke:#000000;stroke-width:1.5;" x1="400" x2="489.6172" y1="28.2969" y2="28.2969"/><text fill="#000000" font-family="sans-serif" font-size="14" font-weight="bold" lengthAdjust="spacing" textLength="76.6172" x="404" y="20.9951">Ubicaci&#243;n</text></g><!--cluster Recorrido--><g class="cluster" data-entity="Recorrido" data-source-line="14" data-uid="ent0009" id="cluster_Recorrido"><path d="M8.5,65 L85.9395,65 A3.75,3.75 0 0 1 88.4395,67.5 L95.4395,87.2969 L247.5,87.2969 A2.5,2.5 0 0 1 250,89.7969 L250,303.5 A2.5,2.5 0 0 1 247.5,306 L8.5,306 A2.5,2.5 0 0 1 6,303.5 L6,67.5 A2.5,2.5 0 0 1 8.5,65" fill="none" style="stroke:#000000;stroke-width:1.5;"/><line style="stroke:#000000;stroke-width:1.5;" x1="6" x2="95.4395" y1="87.2969" y2="87.2969"/><text fill="#000000" font-family="sans-serif" font-size="14" font-weight="bold" lengthAdjust="spacing" textLength="76.4395" x="10" y="79.9951">Recorrido</text></g><!--entity buscarUbicacion--><g class="entity" data-entity="buscarUbicacion" data-source-line="8" data-uid="ent0005" id="entity_buscarUbicacion"><ellipse cx="519.1669" cy="59.0334" fill="#F1F1F1" rx="78.1669" ry="18.0334" style="stroke:#181818;stroke-width:0.5;"/><text fill="#000000" font-family="sans-serif" font-size="14" lengthAdjust="spacing" textLength="126.335" x="455.9994" y="63.6818">buscarUbicacion()</text></g><!--entity verDetallesUbicaci?n--><g class="entity" data-entity="verDetallesUbicaci.n" data-source-line="9" data-uid="ent0006" id="entity_verDetallesUbicaci.n"><ellipse cx="518.8549" cy="132.871" fill="#F1F1F1" rx="92.3549" ry="20.871" style="stroke:#181818;stroke-width:0.5;"/><text fill="#000000" font-family="sans-serif" font-size="14" lengthAdjust="spacing" textLength="159.0518" x="439.329" y="137.5194">verDetallesUbicacion()</text></g><!--entity verUbicacionesCercanas--><g class="entity" data-entity="verUbicacionesCercanas" data-source-line="10" data-uid="ent0007" id="entity_verUbicacionesCercanas"><ellipse cx="519.1505" cy="212.0301" fill="#F1F1F1" rx="103.1505" ry="23.0301" style="stroke:#181818;stroke-width:0.5;"/><text fill="#000000" font-family="sans-serif" font-size="14" lengthAdjust="spacing" textLength="182.9775" x="427.6617" y="216.6785">verUbicacionesCercanas()</text></g><!--entity verUbicacionesPlanta--><g class="entity" data-entity="verUbicacionesPlanta" data-source-line="11" data-uid="ent0008" id="entity_verUbicacionesPlanta"><ellipse cx="519.0189" cy="291.1038" fill="#F1F1F1" rx="93.5189" ry="21.1038" style="stroke:#181818;stroke-width:0.5;"/><text fill="#000000" font-family="sans-serif" font-size="14" lengthAdjust="spacing" textLength="161.6631" x="438.1873" y="295.7522">verUbicacionesPlanta()</text></g><!--entity generarRecorrido--><g class="entity" data-entity="generarRecorrido" data-source-line="15" data-uid="ent0010" id="entity_generarRecorrido"><ellipse cx="128.1837" cy="119.1367" fill="#F1F1F1" rx="81.1837" ry="18.6367" style="stroke:#181818;stroke-width:0.5;"/><text fill="#000000" font-family="sans-serif" font-size="14" lengthAdjust="spacing" textLength="133.458" x="61.4547" y="123.7852">generarRecorrido()</text></g><!--entity verRecorridosDisponibles--><g class="entity" data-entity="verRecorridosDisponibles" data-source-line="16" data-uid="ent0011" id="entity_verRecorridosDisponibles"><ellipse cx="127.9965" cy="196.0993" fill="#F1F1F1" rx="105.9965" ry="23.5993" style="stroke:#181818;stroke-width:0.5;"/><text fill="#000000" font-family="sans-serif" font-size="14" lengthAdjust="spacing" textLength="189.1914" x="33.4008" y="200.7477">verRecorridosDisponibles()</text></g><!--entity seguirRecorrido--><g class="entity" data-entity="seguirRecorrido" data-source-line="17" data-uid="ent0012" id="entity_seguirRecorrido"><ellipse cx="128.2273" cy="272.1455" fill="#F1F1F1" rx="76.2273" ry="17.6455" style="stroke:#181818;stroke-width:0.5;"/><text fill="#000000" font-family="sans-serif" font-size="14" lengthAdjust="spacing" textLength="121.6934" x="67.3807" y="276.7939">seguirRecorrido()</text></g><!--entity visitante--><g class="entity" data-entity="visitante" data-source-line="3" data-uid="ent0002" id="entity_visitante"><ellipse cx="324.8472" cy="145.5" fill="#F1F1F1" rx="8" ry="8" style="stroke:#181818;stroke-width:0.5;"/><path d="M324.8472,153.5 L324.8472,180.5 M311.8472,161.5 L337.8472,161.5 M324.8472,180.5 L311.8472,195.5 M324.8472,180.5 L337.8472,195.5" fill="none" style="stroke:#181818;stroke-width:0.5;"/><text fill="#000000" font-family="sans-serif" font-size="14" lengthAdjust="spacing" textLength="61.6943" x="294" y="209.9951">Visitante</text></g><!--entity consultarMapa--><g class="entity" data-entity="consultarMapa" data-source-line="5" data-uid="ent0003" id="entity_consultarMapa"><ellipse cx="128.0899" cy="32.018" fill="#F1F1F1" rx="73.0899" ry="17.018" style="stroke:#181818;stroke-width:0.5;"/><text fill="#000000" font-family="sans-serif" font-size="14" lengthAdjust="spacing" textLength="114.0645" x="71.0577" y="36.6664">consultarMapa()</text></g><!--reverse link consultarMapa to visitante--><g class="link" data-entity-1="consultarMapa" data-entity-2="visitante" data-source-line="20" data-uid="lnk14" id="link_consultarMapa_visitante"><path d="M183.4109,46.3499 C209.1109,54.6299 234.41,65.57 258,84 C276.3,98.3 291.85,118.97 303.25,136.99" fill="none" id="consultarMapa-backto-visitante" style="stroke:#181818;stroke-width:1;"/><polygon fill="#181818" points="177.7,44.51,185.0398,51.0772,182.4591,46.0433,187.493,43.4626,177.7,44.51" style="stroke:#181818;stroke-width:1;"/></g><!--link visitante to buscarUbicacion--><g class="link" data-entity-1="visitante" data-entity-2="buscarUbicacion" data-source-line="22" data-uid="lnk15" id="link_visitante_buscarUbicacion"><path d="M349.62,136.67 C360.76,121.41 375.3,104.92 392,94 C410.34,82.01 426.9301,75.5492 447.7501,70.3292" fill="none" id="visitante-to-buscarUbicacion" style="stroke:#181818;stroke-width:1;"/><polygon fill="#181818" points="453.57,68.87,443.8674,67.1788,448.7201,70.086,445.813,74.9387,453.57,68.87" style="stroke:#181818;stroke-width:1;"/></g><!--link visitante to verDetallesUbicaci?n--><g class="link" data-entity-1="visitante" data-entity-2="verDetallesUbicaci.n" data-source-line="23" data-uid="lnk16" id="link_visitante_verDetallesUbicaci.n"><path d="M356,168.44 C381.52,162.85 413.2486,155.9121 445.7986,148.7921" fill="none" id="visitante-to-verDetallesUbicaci&#243;n" style="stroke:#181818;stroke-width:1;"/><polygon fill="#181818" points="451.66,147.51,442.0131,145.5256,446.7755,148.5784,443.7226,153.3408,451.66,147.51" style="stroke:#181818;stroke-width:1;"/></g><!--link visitante to verUbicacionesCercanas--><g class="link" data-entity-1="visitante" data-entity-2="verUbicacionesCercanas" data-source-line="24" data-uid="lnk17" id="link_visitante_verUbicacionesCercanas"><path d="M356,180.78 C378.57,185.13 404.6782,190.1658 434.2882,195.8658" fill="none" id="visitante-to-verUbicacionesCercanas" style="stroke:#181818;stroke-width:1;"/><polygon fill="#181818" points="440.18,197,432.0984,191.3708,435.2701,196.0548,430.5861,199.2266,440.18,197" style="stroke:#181818;stroke-width:1;"/></g><!--link visitante to verUbicacionesPlanta--><g class="link" data-entity-1="visitante" data-entity-2="verUbicacionesPlanta" data-source-line="25" data-uid="lnk18" id="link_visitante_verUbicacionesPlanta"><path d="M351.67,213.17 C362.67,227.07 376.55,241.85 392,252 C408.94,263.13 423.4763,269.485 442.7763,275.315" fill="none" id="visitante-to-verUbicacionesPlanta" style="stroke:#181818;stroke-width:1;"/><polygon fill="#181818" points="448.52,277.05,441.0612,270.6184,443.7336,275.6042,438.7478,278.2766,448.52,277.05" style="stroke:#181818;stroke-width:1;"/></g><!--reverse link generarRecorrido to visitante--><g class="link" data-entity-1="generarRecorrido" data-entity-2="visitante" data-source-line="27" data-uid="lnk19" id="link_generarRecorrido_visitante"><path d="M186.3326,134.7004 C209.9626,141.2404 232.55,147.59 258,155 C269.73,158.41 282.59,162.28 293.81,165.7" fill="none" id="generarRecorrido-backto-visitante" style="stroke:#181818;stroke-width:1;"/><polygon fill="#181818" points="180.55,133.1,188.157,139.3557,185.3688,134.4337,190.2909,131.6456,180.55,133.1" style="stroke:#181818;stroke-width:1;"/></g><!--reverse link verRecorridosDisponibles to visitante--><g class="link" data-entity-1="verRecorridosDisponibles" data-entity-2="visitante" data-source-line="28" data-uid="lnk20" id="link_verRecorridosDisponibles_visitante"><path d="M229.6055,185.1672 C255.0355,182.4272 274.75,180.3 293.77,178.26" fill="none" id="verRecorridosDisponibles-backto-visitante" style="stroke:#181818;stroke-width:1;"/><polygon fill="#181818" points="223.64,185.81,233.0167,188.8228,228.6112,185.2744,232.1597,180.8689,223.64,185.81" style="stroke:#181818;stroke-width:1;"/></g><!--reverse link seguirRecorrido to visitante--><g class="link" data-entity-1="seguirRecorrido" data-entity-2="visitante" data-source-line="29" data-uid="lnk21" id="link_seguirRecorrido_visitante"><path d="M195.9556,260.4552 C218.2556,255.1252 237.24,248.6 258,237 C271.04,229.71 283.49,219.3 293.99,209.08" fill="none" id="seguirRecorrido-backto-visitante" style="stroke:#181818;stroke-width:1;"/><polygon fill="#181818" points="190.12,261.85,199.8033,263.6482,194.983,260.6877,197.9436,255.8674,190.12,261.85" style="stroke:#181818;stroke-width:1;"/></g><!--SRC=[XP91JiGm34NtEOMLLRle3H0RPek4a63lPaong98gJcU3E1L7c8jDssbBwmdGNVtyVvpljFIM80M8tBmdE78abpXuOz2b4C6-id12dyW22foMFsDw8OT2u8ANlaqO7x73iSVkAaLfZUdGVM13O5zgTkZu_Etjfu7XMrpgNXp66GS_-QZQwBILd2WUA67RalpOJi9RabMlZEI1eaC_Q6Tv1lrjyDGEgM16VWMZ-6kJmpEv42CVWugX8KyHuuedGrtCJB8oER1qmNCzt7sP9WkrYL3JipfOrUPBh6y0ghwhxg7OxRlSDOnOhR7KFBl7N5TcAV-qNSCVHYfqXYNSLTNcEHU_vNJJg49H_080]--></g></svg>