<svg xmlns="http://www.w3.org/2000/svg" xmlns:xlink="http://www.w3.org/1999/xlink" contentStyleType="text/css" data-diagram-type="DESCRIPTION" height="470px" preserveAspectRatio="none" style="width:624px;height:470px;background:#FFFFFF;" version="1.1" viewBox="0 0 624 470" width="624px" zoomAndPan="magnify"><defs/><g><!--cluster Gesti?n de Espacio--><g class="cluster" data-entity="Gesti.n de Espacio" data-source-line="5" data-uid="ent0003" id="cluster_Gesti.n de Espacio"><path d="M402.5,6 L553.2412,6 A3.75,3.75 0 0 1 555.7412,8.5 L562.7412,28.2969 L614.5,28.2969 A2.5,2.5 0 0 1 617,30.7969 L617,460.5 A2.5,2.5 0 0 1 614.5,463 L402.5,463 A2.5,2.5 0 0 1 400,460.5 L400,8.5 A2.5,2.5 0 0 1 402.5,6" fill="none" style="stroke:#000000;stroke-width:1.5;"/><line style="stroke:#000000;stroke-width:1.5;" x1="400" x2="562.7412" y1="28.2969" y2="28.2969"/><text fill="#000000" font-family="sans-serif" font-size="14" font-weight="bold" lengthAdjust="spacing" textLength="149.7412" x="404" y="20.9951">Gesti&#243;n de Espacio</text></g><!--cluster Gesti?n de Recorrido--><g class="cluster" data-entity="Gesti.n de Recorrido" data-source-line="14" data-uid="ent0010" id="cluster_Gesti.n de Recorrido"><path d="M8.5,107 L175.5996,107 A3.75,3.75 0 0 1 178.0996,109.5 L185.0996,129.2969 L247.5,129.2969 A2.5,2.5 0 0 1 250,131.7969 L250,348.5 A2.5,2.5 0 0 1 247.5,351 L8.5,351 A2.5,2.5 0 0 1 6,348.5 L6,109.5 A2.5,2.5 0 0 1 8.5,107" fill="none" style="stroke:#000000;stroke-width:1.5;"/><line style="stroke:#000000;stroke-width:1.5;" x1="6" x2="185.0996" y1="129.2969" y2="129.2969"/><text fill="#000000" font-family="sans-serif" font-size="14" font-weight="bold" lengthAdjust="spacing" textLength="166.0996" x="10" y="121.9951">Gesti&#243;n de Recorrido</text></g><!--entity verEspacioActual--><g class="entity" data-entity="verEspacioActual" data-source-line="6" data-uid="ent0004" id="entity_verEspacioActual"><ellipse cx="508.3249" cy="59.965" fill="#F1F1F1" rx="80.3249" ry="18.465" style="stroke:#181818;stroke-width:0.5;"/><text fill="#000000" font-family="sans-serif" font-size="14" lengthAdjust="spacing" textLength="131.4414" x="442.6042" y="64.6134">verEspacioActual()</text></g><!--entity cambiarDeEspacio--><g class="entity" data-entity="cambiarDeEspacio" data-source-line="7" data-uid="ent0005" id="entity_cambiarDeEspacio"><ellipse cx="508.4694" cy="132.7939" fill="#F1F1F1" rx="84.4694" ry="19.2939" style="stroke:#181818;stroke-width:0.5;"/><text fill="#000000" font-family="sans-serif" font-size="14" lengthAdjust="spacing" textLength="141.1006" x="437.9191" y="137.4423">cambiarDeEspacio()</text></g><!--entity buscarEspacio--><g class="entity" data-entity="buscarEspacio" data-source-line="8" data-uid="ent0006" id="entity_buscarEspacio"><ellipse cx="508.6587" cy="204.8317" fill="#F1F1F1" rx="72.1587" ry="16.8317" style="stroke:#181818;stroke-width:0.5;"/><text fill="#000000" font-family="sans-serif" font-size="14" lengthAdjust="spacing" textLength="111.7676" x="452.7749" y="209.4802">buscarEspacio()</text></g><!--entity verDetallesEspacio--><g class="entity" data-entity="verDetallesEspacio" data-source-line="9" data-uid="ent0007" id="entity_verDetallesEspacio"><ellipse cx="508.4389" cy="277.0878" fill="#F1F1F1" rx="85.9389" ry="19.5878" style="stroke:#181818;stroke-width:0.5;"/><text fill="#000000" font-family="sans-serif" font-size="14" lengthAdjust="spacing" textLength="144.4844" x="436.1967" y="281.7362">verDetallesEspacio()</text></g><!--entity verEspaciosCercanos--><g class="entity" data-entity="verEspaciosCercanos" data-source-line="10" data-uid="ent0008" id="entity_verEspaciosCercanos"><ellipse cx="508.6805" cy="352.9361" fill="#F1F1F1" rx="92.6805" ry="20.9361" style="stroke:#181818;stroke-width:0.5;"/><text fill="#000000" font-family="sans-serif" font-size="14" lengthAdjust="spacing" textLength="159.7832" x="428.7889" y="357.5845">verEspaciosCercanos()</text></g><!--entity verEspaciosPlanta--><g class="entity" data-entity="verEspaciosPlanta" data-source-line="11" data-uid="ent0009" id="entity_verEspaciosPlanta"><ellipse cx="508.3385" cy="428.0677" fill="#F1F1F1" rx="83.3385" ry="19.0677" style="stroke:#181818;stroke-width:0.5;"/><text fill="#000000" font-family="sans-serif" font-size="14" lengthAdjust="spacing" textLength="138.4824" x="439.0973" y="432.7161">verEspaciosPlanta()</text></g><!--entity verRecorridosDisponibles--><g class="entity" data-entity="verRecorridosDisponibles" data-source-line="15" data-uid="ent0011" id="entity_verRecorridosDisponibles"><ellipse cx="127.9965" cy="166.0993" fill="#F1F1F1" rx="105.9965" ry="23.5993" style="stroke:#181818;stroke-width:0.5;"/><text fill="#000000" font-family="sans-serif" font-size="14" lengthAdjust="spacing" textLength="189.1914" x="33.4008" y="170.7477">verRecorridosDisponibles()</text></g><!--entity salirrRecorrido--><g class="entity" data-entity="salirrRecorrido" data-source-line="16" data-uid="ent0012" id="entity_salirrRecorrido"><ellipse cx="128.0614" cy="241.0123" fill="#F1F1F1" rx="70.5614" ry="16.5123" style="stroke:#181818;stroke-width:0.5;"/><text fill="#000000" font-family="sans-serif" font-size="14" lengthAdjust="spacing" textLength="107.7891" x="74.1669" y="245.6607">salirRecorrido()</text></g><!--entity seleccionarRecorrido--><g class="entity" data-entity="seleccionarRecorrido" data-source-line="17" data-uid="ent0013" id="entity_seleccionarRecorrido"><ellipse cx="127.8199" cy="313.764" fill="#F1F1F1" rx="91.8199" ry="20.764" style="stroke:#181818;stroke-width:0.5;"/><text fill="#000000" font-family="sans-serif" font-size="14" lengthAdjust="spacing" textLength="157.8486" x="48.8956" y="318.4124">seleccionarRecorrido()</text></g><!--entity visitante--><g class="entity" data-entity="visitante" data-source-line="3" data-uid="ent0002" id="entity_visitante"><ellipse cx="324.8472" cy="211.5" fill="#F1F1F1" rx="8" ry="8" style="stroke:#181818;stroke-width:0.5;"/><path d="M324.8472,219.5 L324.8472,246.5 M311.8472,227.5 L337.8472,227.5 M324.8472,246.5 L311.8472,261.5 M324.8472,246.5 L337.8472,261.5" fill="none" style="stroke:#181818;stroke-width:0.5;"/><text fill="#000000" font-family="sans-serif" font-size="14" lengthAdjust="spacing" textLength="61.6943" x="294" y="275.9951">Visitante</text></g><!--link visitante to verEspacioActual--><g class="link" data-entity-1="visitante" data-entity-2="verEspacioActual" data-source-line="20" data-uid="lnk14" id="link_visitante_verEspacioActual"><path d="M334.13,202.74 C343,170.02 360.37,123.9 392,96 C405.86,83.77 418.0976,77.4393 435.7276,72.0993" fill="none" id="visitante-to-verEspacioActual" style="stroke:#181818;stroke-width:1;"/><polygon fill="#181818" points="441.47,70.36,431.6969,69.1407,436.6847,71.8094,434.016,76.7972,441.47,70.36" style="stroke:#181818;stroke-width:1;"/></g><!--link visitante to cambiarDeEspacio--><g class="link" data-entity-1="visitante" data-entity-2="cambiarDeEspacio" data-source-line="21" data-uid="lnk15" id="link_visitante_cambiarDeEspacio"><path d="M354.81,202.99 C365.41,191.07 378.22,178.75 392,170 C408.35,159.61 422.1329,153.6666 440.4229,148.0666" fill="none" id="visitante-to-cambiarDeEspacio" style="stroke:#181818;stroke-width:1;"/><polygon fill="#181818" points="446.16,146.31,436.3833,145.1201,441.3791,147.7738,438.7254,152.7696,446.16,146.31" style="stroke:#181818;stroke-width:1;"/></g><!--link visitante to buscarEspacio--><g class="link" data-entity-1="visitante" data-entity-2="buscarEspacio" data-source-line="22" data-uid="lnk16" id="link_visitante_buscarEspacio"><path d="M356.38,234.97 C382.62,229.77 415.2947,223.2877 446.8947,217.0177" fill="none" id="visitante-to-buscarEspacio" style="stroke:#181818;stroke-width:1;"/><polygon fill="#181818" points="452.78,215.85,443.1736,213.6781,447.8756,216.8231,444.7306,221.5251,452.78,215.85" style="stroke:#181818;stroke-width:1;"/></g><!--link visitante to verDetallesEspacio--><g class="link" data-entity-1="visitante" data-entity-2="verDetallesEspacio" data-source-line="23" data-uid="lnk17" id="link_visitante_verDetallesEspacio"><path d="M356.38,247.03 C379.99,251.71 407.7048,257.2017 437.2248,263.0617" fill="none" id="visitante-to-verDetallesEspacio" style="stroke:#181818;stroke-width:1;"/><polygon fill="#181818" points="443.11,264.23,435.0611,258.5542,438.2057,263.2564,433.5034,266.4011,443.11,264.23" style="stroke:#181818;stroke-width:1;"/></g><!--link visitante to verEspaciosCercanos--><g class="link" data-entity-1="visitante" data-entity-2="verEspaciosCercanos" data-source-line="24" data-uid="lnk18" id="link_visitante_verEspaciosCercanos"><path d="M354.07,279.22 C364.78,291.7 377.86,304.72 392,314 C407.57,324.22 420.3956,330.1294 437.9856,335.9694" fill="none" id="visitante-to-verEspaciosCercanos" style="stroke:#181818;stroke-width:1;"/><polygon fill="#181818" points="443.68,337.86,436.3988,331.2279,438.9347,336.2845,433.8781,338.8204,443.68,337.86" style="stroke:#181818;stroke-width:1;"/></g><!--link visitante to verEspaciosPlanta--><g class="link" data-entity-1="visitante" data-entity-2="verEspaciosPlanta" data-source-line="25" data-uid="lnk19" id="link_visitante_verEspaciosPlanta"><path d="M333.49,279.17 C342.06,313.04 359.34,361.58 392,391 C405.53,403.19 417.3899,409.5489 434.7299,415.0389" fill="none" id="visitante-to-verEspaciosPlanta" style="stroke:#181818;stroke-width:1;"/><polygon fill="#181818" points="440.45,416.85,433.0771,410.32,435.6832,415.3408,430.6624,417.9469,440.45,416.85" style="stroke:#181818;stroke-width:1;"/></g><!--reverse link seleccionarRecorrido to visitante--><g class="link" data-entity-1="seleccionarRecorrido" data-entity-2="visitante" data-source-line="27" data-uid="lnk20" id="link_seleccionarRecorrido_visitante"><path d="M194.9518,296.596 C216.9118,290.216 235.99,283.91 258,275 C270.07,270.12 282.89,263.79 293.98,257.93" fill="none" id="seleccionarRecorrido-backto-visitante" style="stroke:#181818;stroke-width:1;"/><polygon fill="#181818" points="189.19,298.27,198.9486,299.6002,193.9915,296.875,196.7167,291.9179,189.19,298.27" style="stroke:#181818;stroke-width:1;"/></g><!--reverse link verRecorridosDisponibles to visitante--><g class="link" data-entity-1="verRecorridosDisponibles" data-entity-2="visitante" data-source-line="28" data-uid="lnk21" id="link_verRecorridosDisponibles_visitante"><path d="M200.1277,186.237 C220.7377,192.667 237.69,198.61 258,207 C270.03,211.97 282.84,218.31 293.95,224.17" fill="none" id="verRecorridosDisponibles-backto-visitante" style="stroke:#181818;stroke-width:1;"/><polygon fill="#181818" points="194.4,184.45,201.8003,190.9489,199.1731,185.9391,204.1829,183.312,194.4,184.45" style="stroke:#181818;stroke-width:1;"/></g><!--reverse link salirrRecorrido to visitante--><g class="link" data-entity-1="salirrRecorrido" data-entity-2="visitante" data-source-line="29" data-uid="lnk22" id="link_salirrRecorrido_visitante"><path d="M204.57,241 C237.28,241 268.56,241 293.92,241" fill="none" id="salirrRecorrido-backto-visitante" style="stroke:#181818;stroke-width:1;"/><polygon fill="#181818" points="198.57,241,207.57,245,203.57,241,207.57,237,198.57,241" style="stroke:#181818;stroke-width:1;"/></g><!--SRC=[VPDDJiCm48NtFiKegtYH6o0aH11RnABxYJCK2sDN7gSRnAau0XV3JTEGJDncb_VUvyoFu-WjGGeGxVuzGMyZcMI3LmfD2X6gdMMRq2Ug01cEbpUb3cW-S4zGFHCd-_lZeITuuYpRK7qfoC_0P909ZXGduy6a0Ttff4gAjQvMaC7Fpc9iQKgDa1Gbr0riC2w9bIBZkOQM4Zf7l6IsSW6S77waQD075atD-WtqnULHeWJFwWdxlZBbLp8XHjiNvZnRt5e-16-xtCJb2qLJriVeRFoFZkoepTA684ScL-vHOWLZwck-ID0qzr3Bow1bG2v-4rZjMHVE5nlLrqkOLtShSzwILgekTQdXhcaMVqjzRVgRe1Y_yFy0]--></g></svg>