<svg xmlns="http://www.w3.org/2000/svg" xmlns:xlink="http://www.w3.org/1999/xlink" contentStyleType="text/css" data-diagram-type="STATE" height="700px" preserveAspectRatio="none" style="width:475px;height:700px;background:#FFFFFF;" version="1.1" viewBox="0 0 475 700" width="475px" zoomAndPan="magnify"><defs/><g><path d="M19.5,7 L449.5,7 A12.5,12.5 0 0 1 462,19.5 L462,33.2969 L7,33.2969 L7,19.5 A12.5,12.5 0 0 1 19.5,7" fill="#F1F1F1"/><rect fill="none" height="542.2969" rx="12.5" ry="12.5" style="stroke:#181818;stroke-width:0.5;" width="455" x="7" y="7"/><line style="stroke:#181818;stroke-width:0.5;" x1="7" x2="462" y1="33.2969" y2="33.2969"/><text fill="#000000" font-family="sans-serif" font-size="14" lengthAdjust="spacing" textLength="138.4824" x="165.2588" y="24.9951">verEspaciosPlanta()</text><g id="verEspaciosPlanta.SolicitandoEspaciosPlanta"><rect fill="#F1F1F1" height="50" rx="12.5" ry="12.5" style="stroke:#181818;stroke-width:0.5;" width="50" x="119" y="135.2969"/><line style="stroke:#181818;stroke-width:0.5;" x1="119" x2="169" y1="161.5938" y2="161.5938"/><text fill="#000000" font-family="sans-serif" font-size="14" lengthAdjust="spacing" textLength="4.4502" x="141.7749" y="153.292">&#160;</text></g><g id="verEspaciosPlanta.ConsultandoEspaciosPlanta"><rect fill="#F1F1F1" height="50" rx="12.5" ry="12.5" style="stroke:#181818;stroke-width:0.5;" width="107.6641" x="90" y="271.2969"/><line style="stroke:#181818;stroke-width:0.5;" x1="90" x2="197.6641" y1="297.5938" y2="297.5938"/><text fill="#000000" font-family="sans-serif" font-size="14" lengthAdjust="spacing" textLength="87.6641" x="100" y="289.292">Consultando</text></g><g class="entity" data-entity="c" data-uid="ent0005" id="entity_c"><polygon fill="#F1F1F1" points="144,422.2969,156,434.2969,144,446.2969,132,434.2969,144,422.2969" style="stroke:#181818;stroke-width:0.5;"/></g><ellipse cx="144" cy="54.2969" fill="#222222" rx="10" ry="10" style="stroke:#222222;stroke-width:1;"/><ellipse cx="144" cy="528.2969" fill="none" rx="11" ry="11" style="stroke:#222222;stroke-width:1;"/><ellipse cx="144" cy="528.2969" fill="#222222" rx="6" ry="6" style="stroke:#222222;stroke-width:1;"/><!--link *start*verEspaciosPlanta to SolicitandoEspaciosPlanta--><g class="link" data-entity-1=".start.verEspaciosPlanta" data-entity-2="SolicitandoEspaciosPlanta" data-source-line="9" data-uid="lnk3" id="link_.start.verEspaciosPlanta_SolicitandoEspaciosPlanta"><path d="M144,64.5269 C144,80.2369 144,106.6569 144,129.1669" fill="none" id="*start*verEspaciosPlanta-to-SolicitandoEspaciosPlanta" style="stroke:#008000;stroke-width:1;"/><polygon fill="#008000" points="144,135.1669,148,126.1669,144,130.1669,140,126.1669,144,135.1669" style="stroke:#008000;stroke-width:1;"/><path d="M149,87.2969 L149,112.2969 L453,112.2969 L453,97.2969 L443,87.2969 L149,87.2969" fill="#FEFFDD" style="stroke:#181818;stroke-width:0.5;"/><path d="M443,87.2969 L443,97.2969 L453,97.2969 L443,87.2969" fill="#FEFFDD" style="stroke:#181818;stroke-width:0.5;"/><text fill="#000000" font-family="sans-serif" font-size="13" font-weight="bold" lengthAdjust="spacing" textLength="65.9839" x="155" y="104.3638">Visitante</text><text fill="#000000" font-family="sans-serif" font-size="13" lengthAdjust="spacing" textLength="212.9067" x="225.1162" y="104.3638">solicita ver espacios de la planta</text></g><!--link SolicitandoEspaciosPlanta to ConsultandoEspaciosPlanta--><g class="link" data-entity-1="SolicitandoEspaciosPlanta" data-entity-2="ConsultandoEspaciosPlanta" data-source-line="14" data-uid="lnk4" id="link_SolicitandoEspaciosPlanta_ConsultandoEspaciosPlanta"><path d="M144,185.5669 C144,209.8469 144,240.9869 144,265.2069" fill="none" id="SolicitandoEspaciosPlanta-to-ConsultandoEspaciosPlanta" style="stroke:#008000;stroke-width:1;"/><polygon fill="#008000" points="144,271.2069,148,262.2069,144,266.2069,140,262.2069,144,271.2069" style="stroke:#008000;stroke-width:1;"/><path d="M149,208.2969 L149,248.2969 L371,248.2969 L371,218.2969 L361,208.2969 L149,208.2969" fill="#FEFFDD" style="stroke:#181818;stroke-width:0.5;"/><path d="M361,208.2969 L361,218.2969 L371,218.2969 L361,208.2969" fill="#FEFFDD" style="stroke:#181818;stroke-width:0.5;"/><text fill="#000000" font-family="sans-serif" font-size="13" font-weight="bold" lengthAdjust="spacing" textLength="58.9063" x="155" y="225.3638">Sistema</text><text fill="#000000" font-family="sans-serif" font-size="13" lengthAdjust="spacing" textLength="57.6685" x="218.0386" y="225.3638">presenta</text><text fill="#000000" font-family="sans-serif" font-size="13" lengthAdjust="spacing" textLength="201.208" x="155" y="240.4966">&#8226; lista de espacios de la planta</text></g><!--link ConsultandoEspaciosPlanta to c--><g class="link" data-entity-1="ConsultandoEspaciosPlanta" data-entity-2="c" data-source-line="20" data-uid="lnk5" id="link_ConsultandoEspaciosPlanta_c"><path d="M89.83,315.3569 C55.68,326.7369 18,339.2969 18,339.2969 C18,339.2969 18,404.2969 18,404.2969 C18,404.2969 100.2029,423.211 129.0929,429.861" fill="none" id="ConsultandoEspaciosPlanta-to-c" style="stroke:#008000;stroke-width:1;"/><polygon fill="#008000" points="134.94,431.2069,127.0666,425.29,130.0674,430.0853,125.2721,433.0861,134.94,431.2069" style="stroke:#008000;stroke-width:1;"/><path d="M23,344.2969 L23,399.2969 L245,399.2969 L245,354.2969 L235,344.2969 L23,344.2969" fill="#FEFFDD" style="stroke:#181818;stroke-width:0.5;"/><path d="M235,344.2969 L235,354.2969 L245,354.2969 L235,344.2969" fill="#FEFFDD" style="stroke:#181818;stroke-width:0.5;"/><text fill="#000000" font-family="sans-serif" font-size="13" font-weight="bold" lengthAdjust="spacing" textLength="65.9839" x="29" y="361.3638">Visitante</text><text fill="#000000" font-family="sans-serif" font-size="13" lengthAdjust="spacing" textLength="45.7729" x="99.1162" y="361.3638">solicita</text><text fill="#000000" font-family="sans-serif" font-size="13" lengthAdjust="spacing" textLength="157.2441" x="29" y="376.4966">&#8226; continuar consultando</text><text fill="#000000" font-family="sans-serif" font-size="13" lengthAdjust="spacing" textLength="201.4556" x="29" y="391.6294">&#8226; salir de espacios de la planta</text></g><!--link c to ConsultandoEspaciosPlanta--><g class="link" data-entity-1="c" data-entity-2="ConsultandoEspaciosPlanta" data-source-line="27" data-uid="lnk6" id="link_c_ConsultandoEspaciosPlanta"><path d="M152.67,430.9269 C177.99,423.9969 250,404.2969 250,404.2969 C250,404.2969 250,339.2969 250,339.2969 C250,339.2969 229.8976,331.3382 203.8176,320.9982" fill="none" id="c-to-ConsultandoEspaciosPlanta" style="stroke:#008000;stroke-width:1;"/><polygon fill="#008000" points="198.24,318.7869,205.1322,325.8223,202.888,320.6297,208.0807,318.3855,198.24,318.7869" style="stroke:#008000;stroke-width:1;"/><path d="M255,359.2969 L255,384.2969 L421,384.2969 L421,369.2969 L411,359.2969 L255,359.2969" fill="#FEFFDD" style="stroke:#181818;stroke-width:0.5;"/><path d="M411,359.2969 L411,369.2969 L421,369.2969 L411,359.2969" fill="#FEFFDD" style="stroke:#181818;stroke-width:0.5;"/><text fill="#000000" font-family="sans-serif" font-size="13" lengthAdjust="spacing" textLength="145.4438" x="261" y="376.3638">continuar consultando</text></g><!--link c to *end*verEspaciosPlanta--><g class="link" data-entity-1="c" data-entity-2=".end.verEspaciosPlanta" data-source-line="32" data-uid="lnk8" id="link_c_.end.verEspaciosPlanta"><path d="M144,446.5769 C144,464.6169 144,493.6969 144,511.0569" fill="none" id="c-to-*end*verEspaciosPlanta" style="stroke:#008000;stroke-width:1;"/><polygon fill="#008000" points="144,517.0569,148,508.0569,144,512.0569,140,508.0569,144,517.0569" style="stroke:#008000;stroke-width:1;"/><path d="M149,469.2969 L149,494.2969 L359,494.2969 L359,479.2969 L349,469.2969 L149,469.2969" fill="#FEFFDD" style="stroke:#181818;stroke-width:0.5;"/><path d="M349,469.2969 L349,479.2969 L359,479.2969 L349,469.2969" fill="#FEFFDD" style="stroke:#181818;stroke-width:0.5;"/><text fill="#000000" font-family="sans-serif" font-size="13" lengthAdjust="spacing" textLength="189.6553" x="155" y="486.3638">salir de espacios de la planta</text></g><g id="Explorando"><rect fill="#F1F1F1" height="50" rx="12.5" ry="12.5" style="stroke:#181818;stroke-width:0.5;" width="99.1328" x="185" y="644"/><line style="stroke:#181818;stroke-width:0.5;" x1="185" x2="284.1328" y1="670.2969" y2="670.2969"/><text fill="#000000" font-family="sans-serif" font-size="14" lengthAdjust="spacing" textLength="79.1328" x="195" y="661.9951">Explorando</text></g><!--link verEspaciosPlanta to Explorando--><g class="link" data-entity-1="verEspaciosPlanta" data-entity-2="Explorando" data-source-line="38" data-uid="lnk10" id="link_verEspaciosPlanta_Explorando"><path d="M234.5,549.17 C234.5,588.07 234.5,616.18 234.5,637.76" fill="none" id="verEspaciosPlanta-to-Explorando" style="stroke:#008000;stroke-width:1;"/><polygon fill="#008000" points="234.5,643.76,238.5,634.76,234.5,638.76,230.5,634.76,234.5,643.76" style="stroke:#008000;stroke-width:1;"/><path d="M239.5,584 L239.5,609 L309.5,609 L309.5,594 L299.5,584 L239.5,584" fill="#FEFFDD" style="stroke:#181818;stroke-width:0.5;"/><path d="M299.5,584 L299.5,594 L309.5,594 L299.5,584" fill="#FEFFDD" style="stroke:#181818;stroke-width:0.5;"/><text fill="#000000" font-family="sans-serif" font-size="13" lengthAdjust="spacing" textLength="49.6768" x="245.5" y="601.0669">regresa</text></g><!--SRC=[fPD1QiCm44NtEiNWRjf2w0MCDoNxGY2RaCL47beHHH8QfJIKGi_Ie_KabUJOiOdTOYg3iUG__xyPRDuhuz3Z0RGo54wEm5bzIXiXE60WU2M_P8TIMNxIQ082CXHNfxTt1RmB0N4rTKMyed9bjP8geAdjiA0lVRI6ZpgBSb5lFraaeIpbYrMIggh9tTnlOR6vUVP4PhkefgCXousDBjQaplVveDnLQyMf853viAk0pmPf1a1d2wW9D8Axy92f6xEuH7URJkyp_jxf6E9ASQ03Pa3dYQaLVtz-HM4SJYByc_P2Eiam89KpXzOnIMk2CaVqwQaDwjuoQkNd4il_p72QfmiQ2OaVrxZTd0O-XBZ-dVefopUdhSz0Wo1FKS8eMgSV]--></g></svg>