<svg xmlns="http://www.w3.org/2000/svg" xmlns:xlink="http://www.w3.org/1999/xlink" contentStyleType="text/css" data-diagram-type="STATE" height="650px" preserveAspectRatio="none" style="width:623px;height:650px;background:#FFFFFF;" version="1.1" viewBox="0 0 623 650" width="623px" zoomAndPan="magnify"><defs/><g><path d="M19.5,7 L424.5,7 A12.5,12.5 0 0 1 437,19.5 L437,33.2969 L7,33.2969 L7,19.5 A12.5,12.5 0 0 1 19.5,7" fill="#F1F1F1"/><rect fill="none" height="492.2969" rx="12.5" ry="12.5" style="stroke:#181818;stroke-width:0.5;" width="430" x="7" y="7"/><line style="stroke:#181818;stroke-width:0.5;" x1="7" x2="437" y1="33.2969" y2="33.2969"/><text fill="#000000" font-family="sans-serif" font-size="14" lengthAdjust="spacing" textLength="135.5088" x="154.2456" y="24.9951">eliminarRecorrido()</text><g id="eliminarRecorrido.ConfirmandoEliminacion"><rect fill="#F1F1F1" height="50" rx="12.5" ry="12.5" style="stroke:#181818;stroke-width:0.5;" width="50" x="19" y="135.2969"/><line style="stroke:#181818;stroke-width:0.5;" x1="19" x2="69" y1="161.5938" y2="161.5938"/><text fill="#000000" font-family="sans-serif" font-size="14" lengthAdjust="spacing" textLength="4.4502" x="41.7749" y="153.292"> </text></g><g id="eliminarRecorrido.EliminandoRecorrido"><rect fill="#F1F1F1" height="50" rx="12.5" ry="12.5" style="stroke:#181818;stroke-width:0.5;" width="50" x="19" y="346.2969"/><line style="stroke:#181818;stroke-width:0.5;" x1="19" x2="69" y1="372.5938" y2="372.5938"/><text fill="#000000" font-family="sans-serif" font-size="14" lengthAdjust="spacing" textLength="4.4502" x="41.7749" y="364.292"> </text></g><ellipse cx="44" cy="54.2969" fill="#222222" rx="10" ry="10" style="stroke:#222222;stroke-width:1;"/><ellipse cx="44" cy="478.2969" fill="none" rx="11" ry="11" style="stroke:#222222;stroke-width:1;"/><ellipse cx="44" cy="478.2969" fill="#222222" rx="6" ry="6" style="stroke:#222222;stroke-width:1;"/><!--link *start*eliminarRecorrido to ConfirmandoEliminacion--><g class="link" data-entity-1=".start.eliminarRecorrido" data-entity-2="ConfirmandoEliminacion" data-source-line="8" data-uid="lnk3" id="link_.start.eliminarRecorrido_ConfirmandoEliminacion"><path d="M44,64.5269 C44,80.2369 44,106.6569 44,129.1669" fill="none" id="*start*eliminarRecorrido-to-ConfirmandoEliminacion" style="stroke:#008000;stroke-width:1;"/><polygon fill="#008000" points="44,135.1669,48,126.1669,44,130.1669,40,126.1669,44,135.1669" style="stroke:#008000;stroke-width:1;"/><path d="M49,87.2969 L49,112.2969 L345,112.2969 L345,97.2969 L335,87.2969 L49,87.2969" fill="#FEFFDD" style="stroke:#181818;stroke-width:0.5;"/><path d="M335,87.2969 L335,97.2969 L345,97.2969 L335,87.2969" fill="#FEFFDD" style="stroke:#181818;stroke-width:0.5;"/><text fill="#000000" font-family="sans-serif" font-size="13" font-weight="bold" lengthAdjust="spacing" textLength="104.8633" x="55" y="104.3638">Administrador</text><text fill="#000000" font-family="sans-serif" font-size="13" lengthAdjust="spacing" textLength="166.0356" x="163.9956" y="104.3638">solicita eliminar recorrido</text></g><!--link ConfirmandoEliminacion to EliminandoRecorrido--><g class="link" data-entity-1="ConfirmandoEliminacion" data-entity-2="EliminandoRecorrido" data-source-line="13" data-uid="lnk4" id="link_ConfirmandoEliminacion_EliminandoRecorrido"><path d="M44,185.6769 C44,225.9569 44,299.8969 44,340.0669" fill="none" id="ConfirmandoEliminacion-to-EliminandoRecorrido" style="stroke:#008000;stroke-width:1;"/><polygon fill="#008000" points="44,346.0669,48,337.0669,44,341.0669,40,337.0669,44,346.0669" style="stroke:#008000;stroke-width:1;"/><path d="M49,208.2969 L49,323.2969 L428,323.2969 L428,218.2969 L418,208.2969 L49,208.2969" fill="#FEFFDD" style="stroke:#181818;stroke-width:0.5;"/><path d="M418,208.2969 L418,218.2969 L428,218.2969 L418,208.2969" fill="#FEFFDD" style="stroke:#181818;stroke-width:0.5;"/><text fill="#000000" font-family="sans-serif" font-size="13" font-weight="bold" lengthAdjust="spacing" textLength="58.9063" x="55" y="225.3638">Sistema</text><text fill="#000000" font-family="sans-serif" font-size="13" lengthAdjust="spacing" textLength="295.4644" x="118.0386" y="225.3638">presenta información del recorrido a eliminar</text><text fill="#000000" font-family="sans-serif" font-size="13" lengthAdjust="spacing" textLength="233.4097" x="55" y="240.4966">• Nombre del recorrido, descripción</text><text fill="#000000" font-family="sans-serif" font-size="13" lengthAdjust="spacing" textLength="215.4458" x="55" y="255.6294">• Puntos de interés (POI) y orden</text><text fill="#000000" font-family="sans-serif" font-size="13" lengthAdjust="spacing" textLength="193.7368" x="55" y="270.7622">• Punto de inicio y punto final</text><text fill="#000000" font-family="sans-serif" font-size="13" lengthAdjust="spacing" textLength="249.6724" x="55" y="285.895">• Presenta advertencia de eliminación</text><text fill="#000000" font-family="sans-serif" font-size="13" lengthAdjust="spacing" textLength="263.3706" x="55" y="301.0278">• Permite solicitar confirmar eliminación</text><text fill="#000000" font-family="sans-serif" font-size="13" lengthAdjust="spacing" textLength="255.9438" x="55" y="316.1606">• Permite solicitar cancelar eliminación</text></g><!--link EliminandoRecorrido to *end*eliminarRecorrido--><g class="link" data-entity-1="EliminandoRecorrido" data-entity-2=".end.eliminarRecorrido" data-source-line="24" data-uid="lnk6" id="link_EliminandoRecorrido_.end.eliminarRecorrido"><path d="M44,396.6469 C44,418.9469 44,444.8569 44,461.0369" fill="none" id="EliminandoRecorrido-to-*end*eliminarRecorrido" style="stroke:#008000;stroke-width:1;"/><polygon fill="#008000" points="44,467.0369,48,458.0369,44,462.0369,40,458.0369,44,467.0369" style="stroke:#008000;stroke-width:1;"/><path d="M49,419.2969 L49,444.2969 L370,444.2969 L370,429.2969 L360,419.2969 L49,419.2969" fill="#FEFFDD" style="stroke:#181818;stroke-width:0.5;"/><path d="M360,419.2969 L360,429.2969 L370,429.2969 L360,419.2969" fill="#FEFFDD" style="stroke:#181818;stroke-width:0.5;"/><text fill="#000000" font-family="sans-serif" font-size="13" font-weight="bold" lengthAdjust="spacing" textLength="104.8633" x="55" y="436.3638">Administrador</text><text fill="#000000" font-family="sans-serif" font-size="13" lengthAdjust="spacing" textLength="191.5405" x="163.9956" y="436.3638">solicita confirmar eliminación</text></g><g id="RECORRIDOS_ABIERTO"><rect fill="#F1F1F1" height="50" rx="12.5" ry="12.5" style="stroke:#181818;stroke-width:0.5;" width="182.0938" x="130.95" y="594.3"/><line style="stroke:#181818;stroke-width:0.5;" x1="130.95" x2="313.0438" y1="620.5969" y2="620.5969"/><text fill="#000000" font-family="sans-serif" font-size="14" lengthAdjust="spacing" textLength="162.0938" x="140.95" y="612.2951">RECORRIDOS_ABIERTO</text></g><!--link eliminarRecorrido to RECORRIDOS_ABIERTO--><g class="link" data-entity-1="eliminarRecorrido" data-entity-2="RECORRIDOS_ABIERTO" data-source-line="30" data-uid="lnk8" id="link_eliminarRecorrido_RECORRIDOS_ABIERTO"><path d="M86.41,499.59 C76.33,517.84 70,529.3 70,529.3 C70,529.3 70,564.3 70,564.3 C70,564.3 107.2462,577.5312 147.4662,591.8212" fill="none" id="eliminarRecorrido-to-RECORRIDOS_ABIERTO" style="stroke:#008000;stroke-width:1;"/><polygon fill="#008000" points="153.12,593.83,145.9785,587.0477,148.4085,592.156,143.3002,594.586,153.12,593.83" style="stroke:#008000;stroke-width:1;"/><path d="M75,534.3 L75,559.3 L324,559.3 L324,544.3 L314,534.3 L75,534.3" fill="#FEFFDD" style="stroke:#181818;stroke-width:0.5;"/><path d="M314,534.3 L314,544.3 L324,544.3 L314,534.3" fill="#FEFFDD" style="stroke:#181818;stroke-width:0.5;"/><text fill="#000000" font-family="sans-serif" font-size="13" lengthAdjust="spacing" textLength="228.8711" x="81" y="551.3669">abrirRecorridos() - lista actualizada</text></g><!--link eliminarRecorrido to RECORRIDOS_ABIERTO--><g class="link" data-entity-1="eliminarRecorrido" data-entity-2="RECORRIDOS_ABIERTO" data-source-line="35" data-uid="lnk9" id="link_eliminarRecorrido_RECORRIDOS_ABIERTO"><path d="M321.02,499.59 C328.38,517.84 333,529.3 333,529.3 C333,529.3 333,564.3 333,564.3 C333,564.3 307.0653,576.9149 277.6953,591.2049" fill="none" id="eliminarRecorrido-to-RECORRIDOS_ABIERTO-1" style="stroke:#0000FF;stroke-width:1;"/><polygon fill="#0000FF" points="272.3,593.83,282.143,593.4892,276.7961,591.6424,278.6429,586.2955,272.3,593.83" style="stroke:#0000FF;stroke-width:1;"/><path d="M338,534.3 L338,559.3 L616,559.3 L616,544.3 L606,534.3 L338,534.3" fill="#FEFFDD" style="stroke:#181818;stroke-width:0.5;"/><path d="M606,534.3 L606,544.3 L616,544.3 L606,534.3" fill="#FEFFDD" style="stroke:#181818;stroke-width:0.5;"/><text fill="#000000" font-family="sans-serif" font-size="13" lengthAdjust="spacing" textLength="257.2388" x="344" y="551.3669">abrirRecorridos() - cancelar eliminación</text></g><!--SRC=[dLF1JkCm4BtxAqRbqgwsuWUgIYpqqCiMfTmGGeuzHICSEngxI0KXyItSEFC9_Cb-oKuJahGqNQr8f4Zsl7dl-OqJxycNcdK1ZZocJObG1hVPBfIAIIS4T5IGrvoX2Sna0-W8WuFTuMW0Jqg1F7NVG5v1dWU_8Ywqjs5MznWA_X3tMHHOIrcpNV-uWV7roHqZ-flnz0WXL5WVX50Mul- -sfZaqpCh68g9jGqyESsd48CZGqctHmDk9RTDw6tD98zgFqTqTwtrdU6OhQLOma9NXah6Y5uCaLy5aJ3qyUx1ekkCGUUsOlZpyWg_Gv4pxkD-oZ8QfhBYQA6NQvz2b9f89EIFjmZ3oyLy11i8RF4BiCP9Ha7gPRMp4cNNeHh3sZuW9_I6zBO9cs3sj94BaW2Qs1dCPvJytmtQ6tHz-6PMtPnwXh0t9BbFtxah__3SUdXMwl1lsTNEPkUBB9jVB9QtPx_ci-ngeVPiw9ofQut34Oob4BT1cxJMZXwrrQhLwrVBtHg_AzOVT2Fu5m00]--></g></svg>