<svg xmlns="http://www.w3.org/2000/svg" xmlns:xlink="http://www.w3.org/1999/xlink" contentStyleType="text/css" data-diagram-type="CLASS" height="1195px" preserveAspectRatio="none" style="width:1472px;height:1195px;background:#FFFFFF;" version="1.1" viewBox="0 0 1472 1195" width="1472px" zoomAndPan="magnify"><defs/><g><g class="entity" data-entity="uneatlantico" data-source-line="3" data-uid="ent0002" id="entity_uneatlantico"><rect fill="#F1F1F1" height="77.1875" rx="2.5" ry="2.5" style="stroke:#181818;stroke-width:0.5;" width="365.1104" x="7" y="634"/><text fill="#000000" font-family="sans-serif" font-size="14" lengthAdjust="spacing" textLength="158.0742" x="110.5181" y="648.9951">uneatlantico : Campus</text><line style="stroke:#181818;stroke-width:0.5;" x1="8" x2="371.1104" y1="654.2969" y2="654.2969"/><text fill="#000000" font-family="sans-serif" font-size="14" lengthAdjust="spacing" textLength="314.7676" x="13" y="671.292">nombre = "Univerdad Europea del Atl&#225;ntico"</text><text fill="#000000" font-family="sans-serif" font-size="14" lengthAdjust="spacing" textLength="90.9385" x="13" y="687.5889">direccion = "</text><text fill="#000000" font-family="sans-serif" font-size="14" lengthAdjust="spacing" textLength="353.1104" x="13" y="703.8857">Calle Isabel Torres, 21, 39011 Santander, Espa&#241;a"</text></g><g class="entity" data-entity="edificioPrincipal" data-source-line="9" data-uid="ent0003" id="entity_edificioPrincipal"><rect fill="#F1F1F1" height="60.8906" rx="2.5" ry="2.5" style="stroke:#181818;stroke-width:0.5;" width="331.7168" x="432" y="356"/><text fill="#000000" font-family="sans-serif" font-size="14" lengthAdjust="spacing" textLength="174.4736" x="510.6216" y="370.9951">edificioPrincipal : Edificio</text><line style="stroke:#181818;stroke-width:0.5;" x1="433" x2="762.7168" y1="376.2969" y2="376.2969"/><text fill="#000000" font-family="sans-serif" font-size="14" lengthAdjust="spacing" textLength="319.7168" x="438" y="393.292">nombre = "Centro de estudios universitarios"</text><text fill="#000000" font-family="sans-serif" font-size="14" lengthAdjust="spacing" textLength="112.0684" x="438" y="409.5889">numPlantas = 7</text></g><g class="entity" data-entity="sotano3" data-source-line="14" data-uid="ent0004" id="entity_sotano3"><rect fill="#F1F1F1" height="60.8906" rx="2.5" ry="2.5" style="stroke:#181818;stroke-width:0.5;" width="187.875" x="885" y="117"/><text fill="#000000" font-family="sans-serif" font-size="14" lengthAdjust="spacing" textLength="113.7432" x="922.0659" y="131.9951">sotano3 : Planta</text><line style="stroke:#181818;stroke-width:0.5;" x1="886" x2="1071.875" y1="137.2969" y2="137.2969"/><text fill="#000000" font-family="sans-serif" font-size="14" lengthAdjust="spacing" textLength="88.9082" x="891" y="154.292">numero = -3</text><text fill="#000000" font-family="sans-serif" font-size="14" lengthAdjust="spacing" textLength="175.875" x="891" y="170.5889">descripcion = "S&#243;tano 3"</text></g><g class="entity" data-entity="planta0" data-source-line="19" data-uid="ent0005" id="entity_planta0"><rect fill="#F1F1F1" height="60.8906" rx="2.5" ry="2.5" style="stroke:#181818;stroke-width:0.5;" width="204.5137" x="876.5" y="307"/><text fill="#000000" font-family="sans-serif" font-size="14" lengthAdjust="spacing" textLength="110.6738" x="923.4199" y="321.9951">planta0 : Planta</text><line style="stroke:#181818;stroke-width:0.5;" x1="877.5" x2="1080.0137" y1="327.2969" y2="327.2969"/><text fill="#000000" font-family="sans-serif" font-size="14" lengthAdjust="spacing" textLength="83.8564" x="882.5" y="344.292">numero = 0</text><text fill="#000000" font-family="sans-serif" font-size="14" lengthAdjust="spacing" textLength="192.5137" x="882.5" y="360.5889">descripcion = "Planta Baja"</text></g><g class="entity" data-entity="aula1" data-source-line="24" data-uid="ent0006" id="entity_aula1"><rect fill="#F1F1F1" height="93.4844" rx="2.5" ry="2.5" style="stroke:#181818;stroke-width:0.5;" width="157.4756" x="1251" y="431"/><text fill="#000000" font-family="sans-serif" font-size="14" lengthAdjust="spacing" textLength="106.2031" x="1276.6362" y="445.9951">aula1 : Espacio</text><line style="stroke:#181818;stroke-width:0.5;" x1="1252" x2="1407.4756" y1="451.2969" y2="451.2969"/><text fill="#000000" font-family="sans-serif" font-size="14" lengthAdjust="spacing" textLength="145.4756" x="1257" y="468.292">nombre = "Aula 0.1"</text><text fill="#000000" font-family="sans-serif" font-size="14" lengthAdjust="spacing" textLength="91.2598" x="1257" y="484.5889">tipo = "Aula"</text><text fill="#000000" font-family="sans-serif" font-size="14" lengthAdjust="spacing" textLength="110.127" x="1257" y="500.8857">capacidad = 40</text><text fill="#000000" font-family="sans-serif" font-size="14" lengthAdjust="spacing" textLength="114.1807" x="1257" y="517.1826">ptoInteres: false</text></g><g class="entity" data-entity="entrada" data-source-line="31" data-uid="ent0007" id="entity_entrada"><rect fill="#F1F1F1" height="60.8906" rx="2.5" ry="2.5" style="stroke:#181818;stroke-width:0.5;" width="271.0752" x="1194" y="263"/><text fill="#000000" font-family="sans-serif" font-size="14" lengthAdjust="spacing" textLength="122.1514" x="1268.4619" y="277.9951">entrada : Espacio</text><line style="stroke:#181818;stroke-width:0.5;" x1="1195" x2="1464.0752" y1="283.2969" y2="283.2969"/><text fill="#000000" font-family="sans-serif" font-size="14" lengthAdjust="spacing" textLength="259.0752" x="1200" y="300.292">nombre = "Entrada a la universidad"</text><text fill="#000000" font-family="sans-serif" font-size="14" lengthAdjust="spacing" textLength="109.6074" x="1200" y="316.5889">ptoInteres: true</text></g><g class="entity" data-entity="ORI" data-source-line="36" data-uid="ent0008" id="entity_ORI"><rect fill="#F1F1F1" height="93.4844" rx="2.5" ry="2.5" style="stroke:#181818;stroke-width:0.5;" width="124.7178" x="1267" y="135"/><text fill="#000000" font-family="sans-serif" font-size="14" lengthAdjust="spacing" textLength="92.251" x="1283.2334" y="149.9951">ORI : Espacio</text><line style="stroke:#181818;stroke-width:0.5;" x1="1268" x2="1390.7178" y1="155.2969" y2="155.2969"/><text fill="#000000" font-family="sans-serif" font-size="14" lengthAdjust="spacing" textLength="112.7178" x="1273" y="172.292">nombre = "ORI"</text><text fill="#000000" font-family="sans-serif" font-size="14" lengthAdjust="spacing" textLength="106.7637" x="1273" y="188.5889">tipo = "oficina"</text><text fill="#000000" font-family="sans-serif" font-size="14" lengthAdjust="spacing" textLength="101.2197" x="1273" y="204.8857">capacidad = 7</text><text fill="#000000" font-family="sans-serif" font-size="14" lengthAdjust="spacing" textLength="109.6074" x="1273" y="221.1826">ptoInteres: true</text></g><g class="entity" data-entity="planta_2" data-source-line="43" data-uid="ent0009" id="entity_planta_2"><rect fill="#F1F1F1" height="44.5938" rx="2.5" ry="2.5" style="stroke:#181818;stroke-width:0.5;" width="133.7314" x="912" y="669"/><text fill="#000000" font-family="sans-serif" font-size="14" lengthAdjust="spacing" textLength="119.7314" x="919" y="683.9951">Planta -2 : Planta</text><line style="stroke:#181818;stroke-width:0.5;" x1="913" x2="1044.7314" y1="689.2969" y2="689.2969"/><text fill="#000000" font-family="sans-serif" font-size="14" lengthAdjust="spacing" textLength="88.9082" x="918" y="706.292">numero = -2</text></g><g class="entity" data-entity="pasillo_2" data-source-line="46" data-uid="ent0010" id="entity_pasillo_2"><rect fill="#F1F1F1" height="36.2969" rx="2.5" ry="2.5" style="stroke:#181818;stroke-width:0.5;" width="135.126" x="1262" y="559.5"/><text fill="#000000" font-family="sans-serif" font-size="14" lengthAdjust="spacing" textLength="121.126" x="1269" y="574.4951">Pasillo -2 : Pasillo</text><line style="stroke:#181818;stroke-width:0.5;" x1="1263" x2="1396.126" y1="579.7969" y2="579.7969"/></g><g class="entity" data-entity="pasillo0" data-source-line="47" data-uid="ent0011" id="entity_pasillo0"><rect fill="#F1F1F1" height="36.2969" rx="2.5" ry="2.5" style="stroke:#181818;stroke-width:0.5;" width="130.0742" x="1264.5" y="359.5"/><text fill="#000000" font-family="sans-serif" font-size="14" lengthAdjust="spacing" textLength="116.0742" x="1271.5" y="374.4951">Pasillo 0 : Pasillo</text><line style="stroke:#181818;stroke-width:0.5;" x1="1265.5" x2="1393.5742" y1="379.7969" y2="379.7969"/></g><g class="entity" data-entity="cafeteria" data-source-line="49" data-uid="ent0012" id="entity_cafeteria"><rect fill="#F1F1F1" height="77.1875" rx="2.5" ry="2.5" style="stroke:#181818;stroke-width:0.5;" width="161.9873" x="1248.5" y="631"/><text fill="#000000" font-family="sans-serif" font-size="14" lengthAdjust="spacing" textLength="131.5986" x="1263.6943" y="645.9951">Cafeteria : Espacio</text><line style="stroke:#181818;stroke-width:0.5;" x1="1249.5" x2="1409.4873" y1="651.2969" y2="651.2969"/><text fill="#000000" font-family="sans-serif" font-size="14" lengthAdjust="spacing" textLength="149.9873" x="1254.5" y="668.292">nombre = "cafeter&#237;a"</text><text fill="#000000" font-family="sans-serif" font-size="14" lengthAdjust="spacing" textLength="110.127" x="1254.5" y="684.5889">capacidad = 40</text><text fill="#000000" font-family="sans-serif" font-size="14" lengthAdjust="spacing" textLength="121.0713" x="1254.5" y="700.8857">ptoInteres = true</text></g><g class="entity" data-entity="aula6" data-source-line="54" data-uid="ent0013" id="entity_aula6"><rect fill="#F1F1F1" height="93.4844" rx="2.5" ry="2.5" style="stroke:#181818;stroke-width:0.5;" width="259.0576" x="1200" y="743"/><text fill="#000000" font-family="sans-serif" font-size="14" lengthAdjust="spacing" textLength="106.2031" x="1276.4272" y="757.9951">aula6 : Espacio</text><line style="stroke:#181818;stroke-width:0.5;" x1="1201" x2="1458.0576" y1="763.2969" y2="763.2969"/><text fill="#000000" font-family="sans-serif" font-size="14" lengthAdjust="spacing" textLength="150.5273" x="1206" y="780.292">nombre = "Aula -2.6"</text><text fill="#000000" font-family="sans-serif" font-size="14" lengthAdjust="spacing" textLength="247.0576" x="1206" y="796.5889">tipo = "Laboratorio de inform&#225;tica"</text><text fill="#000000" font-family="sans-serif" font-size="14" lengthAdjust="spacing" textLength="110.127" x="1206" y="812.8857">capacidad = 40</text><text fill="#000000" font-family="sans-serif" font-size="14" lengthAdjust="spacing" textLength="109.6074" x="1206" y="829.1826">ptoInteres: true</text></g><g class="entity" data-entity="parkingSotano" data-source-line="62" data-uid="ent0014" id="entity_parkingSotano"><rect fill="#F1F1F1" height="93.4844" rx="2.5" ry="2.5" style="stroke:#181818;stroke-width:0.5;" width="270.1318" x="1194.5" y="7"/><text fill="#000000" font-family="sans-serif" font-size="14" lengthAdjust="spacing" textLength="168.0889" x="1245.5215" y="21.9951">parkingSotano : Parking</text><line style="stroke:#181818;stroke-width:0.5;" x1="1195.5" x2="1463.6318" y1="27.2969" y2="27.2969"/><text fill="#000000" font-family="sans-serif" font-size="14" lengthAdjust="spacing" textLength="258.1318" x="1200.5" y="44.292">nombre = "Estacionamiento Sotano"</text><text fill="#000000" font-family="sans-serif" font-size="14" lengthAdjust="spacing" textLength="119.0342" x="1200.5" y="60.5889">capacidad = 100</text><text fill="#000000" font-family="sans-serif" font-size="14" lengthAdjust="spacing" textLength="206.999" x="1200.5" y="76.8857">tipoVehiculo = "Autom&#243;viles"</text><text fill="#000000" font-family="sans-serif" font-size="14" lengthAdjust="spacing" textLength="109.6074" x="1200.5" y="93.1826">ptoInteres: true</text></g><g class="entity" data-entity="exterior" data-source-line="69" data-uid="ent0015" id="entity_exterior"><rect fill="#F1F1F1" height="60.8906" rx="2.5" ry="2.5" style="stroke:#181818;stroke-width:0.5;" width="309.582" x="824" y="939"/><text fill="#000000" font-family="sans-serif" font-size="14" lengthAdjust="spacing" textLength="123.7852" x="916.8984" y="953.9951">exterior : Exterior</text><line style="stroke:#181818;stroke-width:0.5;" x1="825" x2="1132.582" y1="959.2969" y2="959.2969"/><text fill="#000000" font-family="sans-serif" font-size="14" lengthAdjust="spacing" textLength="297.582" x="830" y="976.292">nombre = "Zona exterior edificioPrincipal"</text><text fill="#000000" font-family="sans-serif" font-size="14" lengthAdjust="spacing" textLength="87.7871" x="830" y="992.5889">area = 5000</text></g><g class="entity" data-entity="areaVerde1" data-source-line="74" data-uid="ent0016" id="entity_areaVerde1"><rect fill="#F1F1F1" height="93.4844" rx="2.5" ry="2.5" style="stroke:#181818;stroke-width:0.5;" width="263.5557" x="1197.5" y="983"/><text fill="#000000" font-family="sans-serif" font-size="14" lengthAdjust="spacing" textLength="136.9443" x="1260.8057" y="997.9951">areaVerde1 : Verde</text><line style="stroke:#181818;stroke-width:0.5;" x1="1198.5" x2="1460.0557" y1="1003.2969" y2="1003.2969"/><text fill="#000000" font-family="sans-serif" font-size="14" lengthAdjust="spacing" textLength="173.1816" x="1203.5" y="1020.292">nombre = "&#193;rea Verde 1</text><text fill="#000000" font-family="sans-serif" font-size="14" lengthAdjust="spacing" textLength="218.2715" x="1203.5" y="1036.5889">superficie = "C&#233;sped sint&#233;tico"</text><text fill="#000000" font-family="sans-serif" font-size="14" lengthAdjust="spacing" textLength="251.5557" x="1203.5" y="1052.8857">descripcion = "Punto de encuentro"</text><text fill="#000000" font-family="sans-serif" font-size="14" lengthAdjust="spacing" textLength="121.0713" x="1203.5" y="1069.1826">ptoInteres = true</text></g><g class="entity" data-entity="canchaPadel1" data-source-line="81" data-uid="ent0017" id="entity_canchaPadel1"><rect fill="#F1F1F1" height="77.1875" rx="2.5" ry="2.5" style="stroke:#181818;stroke-width:0.5;" width="226.6045" x="1216" y="1111"/><text fill="#000000" font-family="sans-serif" font-size="14" lengthAdjust="spacing" textLength="212.6045" x="1223" y="1125.9951">canchaPadel1 : AreaDeportiva</text><line style="stroke:#181818;stroke-width:0.5;" x1="1217" x2="1441.6045" y1="1131.2969" y2="1131.2969"/><text fill="#000000" font-family="sans-serif" font-size="14" lengthAdjust="spacing" textLength="205.0303" x="1222" y="1148.292">nombre = "Cancha de Padel"</text><text fill="#000000" font-family="sans-serif" font-size="14" lengthAdjust="spacing" textLength="126.7314" x="1222" y="1164.5889">deporte = "Padel"</text><text fill="#000000" font-family="sans-serif" font-size="14" lengthAdjust="spacing" textLength="121.0713" x="1222" y="1180.8857">ptoInteres = true</text></g><g class="entity" data-entity="pabellon" data-source-line="87" data-uid="ent0018" id="entity_pabellon"><rect fill="#F1F1F1" height="77.1875" rx="2.5" ry="2.5" style="stroke:#181818;stroke-width:0.5;" width="232.8623" x="1213" y="871"/><text fill="#000000" font-family="sans-serif" font-size="14" lengthAdjust="spacing" textLength="175.1709" x="1241.8457" y="885.9951">pabellon : AreaDeportiva</text><line style="stroke:#181818;stroke-width:0.5;" x1="1214" x2="1444.8623" y1="891.2969" y2="891.2969"/><text fill="#000000" font-family="sans-serif" font-size="14" lengthAdjust="spacing" textLength="220.8623" x="1219" y="908.292">nombre = "Pabell&#243;n Deportivo"</text><text fill="#000000" font-family="sans-serif" font-size="14" lengthAdjust="spacing" textLength="143.9307" x="1219" y="924.5889">deporte = "M&#250;ltiple"</text><text fill="#000000" font-family="sans-serif" font-size="14" lengthAdjust="spacing" textLength="121.0713" x="1219" y="940.8857">ptoInteres = true</text></g><g class="entity" data-entity="visitante" data-source-line="92" data-uid="ent0019" id="entity_visitante"><rect fill="#F1F1F1" height="36.2969" rx="2.5" ry="2.5" style="stroke:#181818;stroke-width:0.5;" width="128.1191" x="534" y="500.5"/><text fill="#000000" font-family="sans-serif" font-size="14" lengthAdjust="spacing" textLength="114.1191" x="541" y="515.4951">pablo : Visitante</text><line style="stroke:#181818;stroke-width:0.5;" x1="535" x2="661.1191" y1="520.7969" y2="520.7969"/></g><g class="entity" data-entity="recorrido" data-source-line="95" data-uid="ent0020" id="entity_recorrido"><rect fill="#F1F1F1" height="223.2656" rx="2.5" ry="2.5" style="stroke:#181818;stroke-width:0.5;" width="187.8721" x="885.5" y="407"/><text fill="#000000" font-family="sans-serif" font-size="14" lengthAdjust="spacing" textLength="173.8721" x="892.5" y="421.9951">TourEspacios : Recorrido</text><line style="stroke:#181818;stroke-width:1;" x1="885.5" x2="1073.3721" y1="427.2969" y2="427.2969"/><text fill="#000000" font-family="sans-serif" font-size="14" lengthAdjust="spacing" textLength="8.9072" x="894.9536" y="442.292">1</text><text fill="#000000" font-family="sans-serif" font-size="14" lengthAdjust="spacing" textLength="55.0088" x="918.3145" y="442.292">Entrada</text><line style="stroke:#181818;stroke-width:1;" x1="913.3145" x2="913.3145" y1="427.2969" y2="447.5938"/><line style="stroke:#181818;stroke-width:1;" x1="885.5" x2="1073.3721" y1="447.5938" y2="447.5938"/><text fill="#000000" font-family="sans-serif" font-size="14" lengthAdjust="spacing" textLength="8.9072" x="894.9536" y="462.5889">2</text><text fill="#000000" font-family="sans-serif" font-size="14" lengthAdjust="spacing" textLength="57.9072" x="918.3145" y="462.5889">Pasillo 0</text><line style="stroke:#181818;stroke-width:1;" x1="913.3145" x2="913.3145" y1="447.5938" y2="467.8906"/><line style="stroke:#181818;stroke-width:1;" x1="885.5" x2="1073.3721" y1="467.8906" y2="467.8906"/><text fill="#000000" font-family="sans-serif" font-size="14" lengthAdjust="spacing" textLength="8.9072" x="894.9536" y="482.8857">3</text><text fill="#000000" font-family="sans-serif" font-size="14" lengthAdjust="spacing" textLength="57.6338" x="918.3145" y="482.8857">Aula 0.1</text><line style="stroke:#181818;stroke-width:1;" x1="913.3145" x2="913.3145" y1="467.8906" y2="488.1875"/><line style="stroke:#181818;stroke-width:1;" x1="885.5" x2="1073.3721" y1="488.1875" y2="488.1875"/><text fill="#000000" font-family="sans-serif" font-size="14" lengthAdjust="spacing" textLength="8.9072" x="894.9536" y="503.1826">4</text><text fill="#000000" font-family="sans-serif" font-size="14" lengthAdjust="spacing" textLength="57.9072" x="918.3145" y="503.1826">Pasillo 0</text><line style="stroke:#181818;stroke-width:1;" x1="913.3145" x2="913.3145" y1="488.1875" y2="508.4844"/><line style="stroke:#181818;stroke-width:1;" x1="885.5" x2="1073.3721" y1="508.4844" y2="508.4844"/><text fill="#000000" font-family="sans-serif" font-size="14" lengthAdjust="spacing" textLength="8.9072" x="894.9536" y="523.4795">5</text><text fill="#000000" font-family="sans-serif" font-size="14" lengthAdjust="spacing" textLength="62.959" x="918.3145" y="523.4795">Pasillo -2</text><line style="stroke:#181818;stroke-width:1;" x1="913.3145" x2="913.3145" y1="508.4844" y2="528.7813"/><line style="stroke:#181818;stroke-width:1;" x1="885.5" x2="1073.3721" y1="528.7813" y2="528.7813"/><text fill="#000000" font-family="sans-serif" font-size="14" lengthAdjust="spacing" textLength="8.9072" x="894.9536" y="543.7764">6</text><text fill="#000000" font-family="sans-serif" font-size="14" lengthAdjust="spacing" textLength="64.2236" x="918.3145" y="543.7764">Cafeter&#237;a</text><line style="stroke:#181818;stroke-width:1;" x1="913.3145" x2="913.3145" y1="528.7813" y2="549.0781"/><line style="stroke:#181818;stroke-width:1;" x1="885.5" x2="1073.3721" y1="549.0781" y2="549.0781"/><text fill="#000000" font-family="sans-serif" font-size="14" lengthAdjust="spacing" textLength="8.9072" x="894.9536" y="564.0732">7</text><text fill="#000000" font-family="sans-serif" font-size="14" lengthAdjust="spacing" textLength="62.959" x="918.3145" y="564.0732">Pasillo -2</text><line style="stroke:#181818;stroke-width:1;" x1="913.3145" x2="913.3145" y1="549.0781" y2="569.375"/><line style="stroke:#181818;stroke-width:1;" x1="885.5" x2="1073.3721" y1="569.375" y2="569.375"/><text fill="#000000" font-family="sans-serif" font-size="14" lengthAdjust="spacing" textLength="8.9072" x="894.9536" y="584.3701">8</text><text fill="#000000" font-family="sans-serif" font-size="14" lengthAdjust="spacing" textLength="57.9072" x="918.3145" y="584.3701">Pasillo 0</text><line style="stroke:#181818;stroke-width:1;" x1="913.3145" x2="913.3145" y1="569.375" y2="589.6719"/><line style="stroke:#181818;stroke-width:1;" x1="885.5" x2="1073.3721" y1="589.6719" y2="589.6719"/><text fill="#000000" font-family="sans-serif" font-size="14" lengthAdjust="spacing" textLength="8.9072" x="894.9536" y="604.667">9</text><text fill="#000000" font-family="sans-serif" font-size="14" lengthAdjust="spacing" textLength="55.0088" x="918.3145" y="604.667">Entrada</text><line style="stroke:#181818;stroke-width:1;" x1="913.3145" x2="913.3145" y1="589.6719" y2="609.9688"/><line style="stroke:#181818;stroke-width:1;" x1="885.5" x2="1073.3721" y1="609.9688" y2="609.9688"/><text fill="#000000" font-family="sans-serif" font-size="14" lengthAdjust="spacing" textLength="17.8145" x="890.5" y="624.9639">10</text><text fill="#000000" font-family="sans-serif" font-size="14" lengthAdjust="spacing" textLength="59.7393" x="918.3145" y="624.9639">Pabell&#243;n</text><line style="stroke:#181818;stroke-width:1;" x1="913.3145" x2="913.3145" y1="609.9688" y2="630.2656"/></g><!--reverse link uneatlantico to edificioPrincipal--><g class="link" data-entity-1="uneatlantico" data-entity-2="edificioPrincipal" data-source-line="109" data-uid="lnk21" id="link_uneatlantico_edificioPrincipal"><path codeLine="109" d="M244.988,626.0211 C292.458,586.1411 360.74,530.92 432,482.5 C466.81,458.85 507.69,435.04 540.05,417.04" fill="none" id="uneatlantico-backto-edificioPrincipal" style="stroke:#181818;stroke-width:1;"/><polygon fill="#181818" points="235.8,633.74,242.9669,632.9432,244.988,626.0211,237.821,626.8179,235.8,633.74" style="stroke:#181818;stroke-width:1;"/></g><!--reverse link uneatlantico to exterior--><g class="link" data-entity-1="uneatlantico" data-entity-2="exterior" data-source-line="110" data-uid="lnk22" id="link_uneatlantico_exterior"><path codeLine="110" d="M303.8681,715.2543 C462.2281,774.9743 752.5,884.46 896.93,938.93" fill="none" id="uneatlantico-backto-exterior" style="stroke:#181818;stroke-width:1;"/><polygon fill="#181818" points="292.64,711.02,296.8426,716.8799,303.8681,715.2543,299.6655,709.3944,292.64,711.02" style="stroke:#181818;stroke-width:1;"/></g><!--reverse link edificioPrincipal to sotano3--><g class="link" data-entity-1="edificioPrincipal" data-entity-2="sotano3" data-source-line="112" data-uid="lnk23" id="link_edificioPrincipal_sotano3"><path codeLine="112" d="M657.5399,349.5885 C730.2699,303.7185 856.86,223.89 929.6,178.02" fill="none" id="edificioPrincipal-backto-sotano3" style="stroke:#181818;stroke-width:1;"/><polygon fill="#181818" points="647.39,355.99,654.5988,356.1726,657.5399,349.5885,650.3312,349.406,647.39,355.99" style="stroke:#181818;stroke-width:1;"/></g><!--reverse link edificioPrincipal to planta0--><g class="link" data-entity-1="edificioPrincipal" data-entity-2="planta0" data-source-line="113" data-uid="lnk24" id="link_edificioPrincipal_planta0"><path codeLine="113" d="M776.0309,363.611 C814.2309,358.671 841.88,355.1 876.41,350.63" fill="none" id="edificioPrincipal-backto-planta0" style="stroke:#181818;stroke-width:1;"/><polygon fill="#181818" points="764.13,365.15,770.5935,368.3475,776.0309,363.611,769.5674,360.4135,764.13,365.15" style="stroke:#181818;stroke-width:1;"/></g><!--reverse link edificioPrincipal to planta_2--><g class="link" data-entity-1="edificioPrincipal" data-entity-2="planta_2" data-source-line="114" data-uid="lnk25" id="link_edificioPrincipal_planta_2"><path codeLine="114" d="M686.7943,422.584 C717.7043,438.174 740.72,454.44 764,482.5 C814.89,543.84 765.24,597.65 824,651.5 C847.72,673.24 881.75,683.48 911.78,688.18" fill="none" id="edificioPrincipal-backto-planta_2" style="stroke:#181818;stroke-width:1;"/><polygon fill="#181818" points="676.08,417.18,679.6358,423.4534,686.7943,422.584,683.2385,416.3105,676.08,417.18" style="stroke:#181818;stroke-width:1;"/></g><!--reverse link planta0 to aula1--><g class="link" data-entity-1="planta0" data-entity-2="aula1" data-source-line="116" data-uid="lnk26" id="link_planta0_aula1"><path codeLine="116" d="M1093.1705,370.7248 C1110.7405,376.4448 1117.3,378.99 1134,385.5 C1146.05,390.2 1201.99,416.74 1250.8,440.12" fill="none" id="planta0-backto-aula1" style="stroke:#181818;stroke-width:1;"/><polygon fill="#181818" points="1081.76,367.01,1086.227,372.6709,1093.1705,370.7248,1088.7035,365.0639,1081.76,367.01" style="stroke:#181818;stroke-width:1;"/></g><!--reverse link planta0 to ORI--><g class="link" data-entity-1="planta0" data-entity-2="ORI" data-source-line="117" data-uid="lnk27" id="link_planta0_ORI"><path codeLine="117" d="M1059.3926,301.9669 C1122.9226,273.5269 1205.7,236.47 1266.93,209.06" fill="none" id="planta0-backto-ORI" style="stroke:#181818;stroke-width:1;"/><polygon fill="#181818" points="1048.44,306.87,1055.5507,308.0693,1059.3926,301.9669,1052.282,300.7676,1048.44,306.87" style="stroke:#181818;stroke-width:1;"/></g><!--reverse link planta0 to entrada--><g class="link" data-entity-1="planta0" data-entity-2="entrada" data-source-line="118" data-uid="lnk28" id="link_planta0_entrada"><path codeLine="118" d="M1093.6453,323.1557 C1128.7053,318.7257 1156.62,315.2 1193.89,310.5" fill="none" id="planta0-backto-entrada" style="stroke:#181818;stroke-width:1;"/><polygon fill="#181818" points="1081.74,324.66,1088.1941,327.8763,1093.6453,323.1557,1087.1912,319.9394,1081.74,324.66" style="stroke:#181818;stroke-width:1;"/></g><!--reverse link planta0 to pasillo0--><g class="link" data-entity-1="planta0" data-entity-2="pasillo0" data-source-line="119" data-uid="lnk29" id="link_planta0_pasillo0"><path codeLine="119" d="M1093.6617,350.5489 C1152.6217,357.3189 1213.15,364.26 1264.25,370.13" fill="none" id="planta0-backto-pasillo0" style="stroke:#181818;stroke-width:1;"/><polygon fill="#181818" points="1081.74,349.18,1087.2445,353.8383,1093.6617,350.5489,1088.1571,345.8906,1081.74,349.18" style="stroke:#181818;stroke-width:1;"/></g><!--reverse link sotano3 to parkingSotano--><g class="link" data-entity-1="sotano3" data-entity-2="parkingSotano" data-source-line="120" data-uid="lnk30" id="link_sotano3_parkingSotano"><path codeLine="120" d="M1084.9757,119.184 C1122.0757,109.174 1153.87,100.6 1194.23,89.72" fill="none" id="sotano3-backto-parkingSotano" style="stroke:#181818;stroke-width:1;"/><polygon fill="none" points="1073.39,122.31,1080.2248,124.6089,1084.9757,119.184,1078.1409,116.8851,1073.39,122.31" style="stroke:#181818;stroke-width:1;"/></g><!--reverse link planta_2 to cafeteria--><g class="link" data-entity-1="planta_2" data-entity-2="cafeteria" data-source-line="123" data-uid="lnk31" id="link_planta_2_cafeteria"><path codeLine="123" d="M1058.3461,686.5535 C1115.8161,682.9235 1187.12,678.43 1248.31,674.56" fill="none" id="planta_2-backto-cafeteria" style="stroke:#181818;stroke-width:1;"/><polygon fill="#181818" points="1046.37,687.31,1052.6102,690.9238,1058.3461,686.5535,1052.1059,682.9397,1046.37,687.31" style="stroke:#181818;stroke-width:1;"/></g><!--reverse link planta_2 to aula6--><g class="link" data-entity-1="planta_2" data-entity-2="aula6" data-source-line="124" data-uid="lnk32" id="link_planta_2_aula6"><path codeLine="124" d="M1057.922,713.4084 C1101.272,725.5984 1147.75,738.67 1199.91,753.34" fill="none" id="planta_2-backto-aula6" style="stroke:#181818;stroke-width:1;"/><polygon fill="#181818" points="1046.37,710.16,1051.0632,715.6349,1057.922,713.4084,1053.2288,707.9335,1046.37,710.16" style="stroke:#181818;stroke-width:1;"/></g><!--reverse link planta_2 to pasillo_2--><g class="link" data-entity-1="planta_2" data-entity-2="pasillo_2" data-source-line="125" data-uid="lnk33" id="link_planta_2_pasillo_2"><path codeLine="125" d="M1058.0112,676.3152 C1085.7612,669.8952 1106.25,663.54 1134,651.5 C1162.96,638.94 1165.09,626.17 1194,613.5 C1215.36,604.14 1239.73,596.72 1261.81,591.11" fill="none" id="planta_2-backto-pasillo_2" style="stroke:#181818;stroke-width:1;"/><polygon fill="#181818" points="1046.32,679.02,1053.0672,681.5647,1058.0112,676.3152,1051.264,673.7705,1046.32,679.02" style="stroke:#181818;stroke-width:1;"/></g><!--reverse link exterior to areaVerde1--><g class="link" data-entity-1="exterior" data-entity-2="areaVerde1" data-source-line="128" data-uid="lnk34" id="link_exterior_areaVerde1"><path codeLine="128" d="M1145.9567,998.0718 C1167.0867,1001.7018 1176.8,1003.38 1197.47,1006.94" fill="none" id="exterior-backto-areaVerde1" style="stroke:#181818;stroke-width:1;"/><polygon fill="#181818" points="1134.13,996.04,1139.3661,1000.9981,1145.9567,998.0718,1140.7206,993.1136,1134.13,996.04" style="stroke:#181818;stroke-width:1;"/></g><!--reverse link exterior to canchaPadel1--><g class="link" data-entity-1="exterior" data-entity-2="canchaPadel1" data-source-line="129" data-uid="lnk35" id="link_exterior_canchaPadel1"><path codeLine="129" d="M1038.939,1006.4806 C1081.679,1032.7906 1135.7,1064.63 1194,1093.5 C1206.01,1099.45 1218.82,1105.34 1231.57,1110.93" fill="none" id="exterior-backto-canchaPadel1" style="stroke:#181818;stroke-width:1;"/><polygon fill="#181818" points="1028.72,1000.19,1031.7326,1006.7417,1038.939,1006.4806,1035.9264,999.929,1028.72,1000.19" style="stroke:#181818;stroke-width:1;"/></g><!--reverse link exterior to pabellon--><g class="link" data-entity-1="exterior" data-entity-2="pabellon" data-source-line="130" data-uid="lnk36" id="link_exterior_pabellon"><path codeLine="130" d="M1145.9565,940.927 C1172.3665,936.387 1187.59,933.76 1212.79,929.42" fill="none" id="exterior-backto-pabellon" style="stroke:#181818;stroke-width:1;"/><polygon fill="#181818" points="1134.13,942.96,1140.7209,945.8857,1145.9565,940.927,1139.3656,938.0013,1134.13,942.96" style="stroke:#181818;stroke-width:1;"/></g><!--link visitante to recorrido--><g class="link" data-entity-1="visitante" data-entity-2="recorrido" data-source-line="132" data-uid="lnk37" id="link_visitante_recorrido"><path codeLine="132" d="M662.01,518.5 C720.63,518.5 802.97,518.5 871.36,518.5" fill="none" id="visitante-to-recorrido" style="stroke:#181818;stroke-width:1;"/><polygon fill="#181818" points="877.36,518.5,868.36,514.5,872.36,518.5,868.36,522.5,877.36,518.5" style="stroke:#181818;stroke-width:1;"/></g><!--link recorrido to entrada--><g class="link" data-entity-1="recorrido" data-entity-2="entrada" data-source-line="133" data-uid="lnk38" id="link_recorrido_entrada"><path codeLine="133" d="M1074,437.5 C1142.3,437.5 1134.35,374.77 1194,341.5 C1205.48,335.1 1206.8726,333.8559 1219.4626,328.6759" fill="none" id="recorrido-to-entrada" style="stroke:#181818;stroke-width:1;"/><polygon fill="none" points="1230.56,324.11,1223.4893,322.6938,1219.4626,328.6759,1226.5333,330.0921,1230.56,324.11" style="stroke:#181818;stroke-width:1;"/></g><!--link recorrido to pasillo0--><g class="link" data-entity-1="recorrido" data-entity-2="pasillo0" data-source-line="134" data-uid="lnk39" id="link_recorrido_pasillo0"><path codeLine="134" d="M1074,457.5 C1130.81,457.5 1139.84,430.64 1194,413.5 C1216.7,406.32 1230.2336,402.3783 1252.5836,396.5083" fill="none" id="recorrido-to-pasillo0" style="stroke:#181818;stroke-width:1;"/><polygon fill="none" points="1264.19,393.46,1257.3707,391.1154,1252.5836,396.5083,1259.4029,398.8529,1264.19,393.46" style="stroke:#181818;stroke-width:1;"/></g><!--link recorrido to aula1--><g class="link" data-entity-1="recorrido" data-entity-2="aula1" data-source-line="135" data-uid="lnk40" id="link_recorrido_aula1"><path codeLine="135" d="M1074,477.5 C1133.32,477.5 1188.41,477.5 1238.81,477.5" fill="none" id="recorrido-to-aula1" style="stroke:#181818;stroke-width:1;"/><polygon fill="none" points="1250.81,477.5,1244.81,473.5,1238.81,477.5,1244.81,481.5,1250.81,477.5" style="stroke:#181818;stroke-width:1;"/></g><!--link recorrido to pasillo_2--><g class="link" data-entity-1="recorrido" data-entity-2="pasillo_2" data-source-line="136" data-uid="lnk41" id="link_recorrido_pasillo_2"><path codeLine="136" d="M1074,518.5 C1092.71,518.5 1181.3956,540.0706 1250.3456,557.4906" fill="none" id="recorrido-to-pasillo_2" style="stroke:#181818;stroke-width:1;"/><polygon fill="none" points="1261.98,560.43,1257.1426,555.0822,1250.3456,557.4906,1255.183,562.8384,1261.98,560.43" style="stroke:#181818;stroke-width:1;"/></g><!--link recorrido to cafeteria--><g class="link" data-entity-1="recorrido" data-entity-2="cafeteria" data-source-line="137" data-uid="lnk42" id="link_recorrido_cafeteria"><path codeLine="137" d="M1074,538.5 C1136.89,538.5 1138.11,584.65 1194,613.5 C1211.19,622.38 1219.0698,626.2709 1237.1598,633.9309" fill="none" id="recorrido-to-cafeteria" style="stroke:#181818;stroke-width:1;"/><polygon fill="none" points="1248.21,638.61,1244.2446,632.5871,1237.1598,633.9309,1241.1252,639.9539,1248.21,638.61" style="stroke:#181818;stroke-width:1;"/></g><!--link recorrido to pabellon--><g class="link" data-entity-1="recorrido" data-entity-2="pabellon" data-source-line="138" data-uid="lnk43" id="link_recorrido_pabellon"><path codeLine="138" d="M1074,619.5 C1190.88,619.5 1115.84,766.6 1194,853.5 C1199.84,859.99 1196.736,858.8203 1203.976,863.9303" fill="none" id="recorrido-to-pabellon" style="stroke:#181818;stroke-width:1;"/><polygon fill="none" points="1213.78,870.85,1211.1846,864.1222,1203.976,863.9303,1206.5714,870.6582,1213.78,870.85" style="stroke:#181818;stroke-width:1;"/></g><!--SRC=[ZLQzRjmu4Exr50ELWJUGjF7wOc03E7ik3DpXZ3XnaSQW9MxCd9OKICeu84YHHqdf8iN1NLgzM8P_Mf7QnDbA_6Q6yyrmVhQbMmrQW6GVxZGqJD9QCy6pJDn-n4_8Uqw9RWdNh1Pm2XkowtgL0r4GIJvbW3ykThUImXhoTvpTKzcG1ivxAJfAeA4jdEbs-6eDSgjl_TNepvXOP4FQbiA58hUe_bP8ITKHLEKHB5yMPGbNw8xmXieZE5ST6VudUVPvJvOsRClmlal9UCqwqYBZSuzPpdE5bFY6SYq5iWMgTDymOG8riIYcYSIZuydxtQM97UzSmycKWnB8K2pHirEmVWFuAHXJzB66nTAbWQfQiYuaucfuDDgmZ6Bhx6r5V6y0atkBGzSwCtXDFiP98trBIfCeJ6Z8ayFIt9mX2iNpqgL0iqu4r24rCJUOHr_32yUXq-A2QuhFU0fRqYeQFHUccZGayUtHrFcvLoQ09CAJeAzyvaVBFdBppvkBn8L1qliHY-CIfbBuWT1EdlJeKxse3htMJPLMGOMseobHh6s5jtK7P-o-RwgPQd5OizZpsP0jHQeiJNKTy3GPNZ1y-vsNHSmdO5fIgmCbjJfOKOlg-IfE_L_aLaYY1VQRwKJ6jqBkXgyuE7wlqi9xx9k7o7yP_t1bsz2covvzkgQoMTafRKBWPCUmC0KujJcBiYZ64Axf7QlxrdU75hlXyPwrL3rTglG_ynn2cjpvJzSJ0K_flKTcU-bil3cFHEByNSDnWHodZO_mDGvfQhhVVhY7siEfj-6BkSaAeRGorNTK6fzkU0uFggCDACRry32PyyaawaqcpOZbTM_dRVxJaXhPreJNT-IIu1unVC-GoP-q4rApU-ABUQ8m6-jMQ7nQXK3Bs5lv1FqbYyuifXR3ECHW5ARUBwrWUEGG3CICmT_3znQBfwNva-s5VbfJnTVCB2NKijxlmybuH-qTwI1_Athfkr2XnHjQuqvbZMj96Kw6S0dhL-27R0QLEOq39eEbEOVvdy6BH7myFUCyWvK1DkCKoU0arVWZkU9bvByidDZdpJPpz8VZsM8nB_S3Ahurico- -etSB-QVIFrw_QKK1t8Mrh11xUgC4DmiqTalk0WRPtRufo0iE9bCMN1pKrcBSNR7i1spCRJV79Y5C2gixjZfCJxjf5WIAZpBncg3nUBLlfAoyUlqj4IH6AET22eh64EUI9PMub8uWO-d1XZ7HBIoedqofluBR-Ou_m00]--></g></svg>