<svg xmlns="http://www.w3.org/2000/svg" xmlns:xlink="http://www.w3.org/1999/xlink" contentStyleType="text/css" data-diagram-type="STATE" height="524px" preserveAspectRatio="none" style="width:377px;height:524px;background:#FFFFFF;" version="1.1" viewBox="0 0 377 524" width="377px" zoomAndPan="magnify"><defs/><g><ellipse cx="190.27" cy="16" fill="#222222" rx="10" ry="10" style="stroke:#222222;stroke-width:1;"/><g id="NavegandoMen&#250;"><rect fill="#F1F1F1" height="50" rx="12.5" ry="12.5" style="stroke:#181818;stroke-width:0.5;" width="138.1797" x="121.27" y="87"/><line style="stroke:#181818;stroke-width:0.5;" x1="121.27" x2="259.4497" y1="113.2969" y2="113.2969"/><text fill="#000000" font-family="sans-serif" font-size="14" lengthAdjust="spacing" textLength="118.1797" x="131.27" y="104.9951">NavegandoMen&#250;</text></g><g id="ExplorandoEdificio"><rect fill="#F1F1F1" height="50" rx="12.5" ry="12.5" style="stroke:#181818;stroke-width:0.5;" width="149.7256" x="64.27" y="214"/><line style="stroke:#181818;stroke-width:0.5;" x1="64.27" x2="213.9956" y1="240.2969" y2="240.2969"/><text fill="#000000" font-family="sans-serif" font-size="14" lengthAdjust="spacing" textLength="129.7256" x="74.27" y="231.9951">ExplorandoEdificio</text></g><g id="ExplorandoPlanta"><rect fill="#F1F1F1" height="50" rx="12.5" ry="12.5" style="stroke:#181818;stroke-width:0.5;" width="142.9854" x="67.77" y="341"/><line style="stroke:#181818;stroke-width:0.5;" x1="67.77" x2="210.7554" y1="367.2969" y2="367.2969"/><text fill="#000000" font-family="sans-serif" font-size="14" lengthAdjust="spacing" textLength="122.9854" x="77.77" y="358.9951">ExplorandoPlanta</text></g><g id="ViendoPuntoDeInteres"><rect fill="#F1F1F1" height="50" rx="12.5" ry="12.5" style="stroke:#181818;stroke-width:0.5;" width="176.8096" x="50.77" y="468"/><line style="stroke:#181818;stroke-width:0.5;" x1="50.77" x2="227.5796" y1="494.2969" y2="494.2969"/><text fill="#000000" font-family="sans-serif" font-size="14" lengthAdjust="spacing" textLength="156.8096" x="60.77" y="485.9951">ViendoPuntoDeInteres</text></g><ellipse cx="290.27" cy="239" fill="none" rx="11" ry="11" style="stroke:#222222;stroke-width:1;"/><ellipse cx="290.27" cy="239" fill="#222222" rx="6" ry="6" style="stroke:#222222;stroke-width:1;"/><!--link *start* to NavegandoMen?--><g class="link" data-entity-1="*start*" data-entity-2="NavegandoMen&#250;" data-source-line="1" data-uid="lnk4" id="link_*start*_NavegandoMen&#250;"><path d="M190.27,26.01 C190.27,39.89 190.27,60.97 190.27,80.84" fill="none" id="*start*-to-NavegandoMen&#250;" style="stroke:#181818;stroke-width:1;"/><polygon fill="#181818" points="190.27,86.84,194.27,77.84,190.27,81.84,186.27,77.84,190.27,86.84" style="stroke:#181818;stroke-width:1;"/></g><!--link NavegandoMen? to ExplorandoEdificio--><g class="link" data-entity-1="NavegandoMen&#250;" data-entity-2="ExplorandoEdificio" data-source-line="2" data-uid="lnk6" id="link_NavegandoMen&#250;_ExplorandoEdificio"><path d="M134.53,137.09 C122.83,144.87 112,154.74 105.27,167 C96.84,182.33 101.7028,195.3081 112.3128,209.2281" fill="none" id="NavegandoMen&#250;-to-ExplorandoEdificio" style="stroke:#181818;stroke-width:1;"/><polygon fill="#181818" points="115.95,214,113.6755,204.4174,112.919,210.0234,107.313,209.267,115.95,214" style="stroke:#181818;stroke-width:1;"/><text fill="#000000" font-family="sans-serif" font-size="13" lengthAdjust="spacing" textLength="40.2061" x="106.27" y="180.0669">Entrar</text></g><!--link ExplorandoEdificio to NavegandoMen?--><g class="link" data-entity-1="ExplorandoEdificio" data-entity-2="NavegandoMen&#250;" data-source-line="8" data-uid="lnk13" id="link_ExplorandoEdificio_NavegandoMen&#250;"><path d="M149.07,213.97 C158.09,191.86 169.1341,164.7957 178.1641,142.6557" fill="none" id="ExplorandoEdificio-to-NavegandoMen&#250;" style="stroke:#181818;stroke-width:1;"/><polygon fill="#181818" points="180.43,137.1,173.3273,143.9229,178.5417,141.7297,180.7349,146.9441,180.43,137.1" style="stroke:#181818;stroke-width:1;"/><text fill="#000000" font-family="sans-serif" font-size="13" lengthAdjust="spacing" textLength="58.7095" x="169.27" y="180.0669">Regresar</text></g><!--link ExplorandoEdificio to ExplorandoPlanta--><g class="link" data-entity-1="ExplorandoEdificio" data-entity-2="ExplorandoPlanta" data-source-line="3" data-uid="lnk8" id="link_ExplorandoEdificio_ExplorandoPlanta"><path d="M84.17,264.21 C72.61,271.99 61.91,281.83 55.27,294 C44.97,312.85 54.8048,325.7634 74.8248,337.7734" fill="none" id="ExplorandoEdificio-to-ExplorandoPlanta" style="stroke:#181818;stroke-width:1;"/><polygon fill="#181818" points="79.97,340.86,74.31,332.8,75.6823,338.2878,70.1945,339.6602,79.97,340.86" style="stroke:#181818;stroke-width:1;"/><text fill="#000000" font-family="sans-serif" font-size="13" lengthAdjust="spacing" textLength="120.5356" x="56.27" y="307.0669">Seleccionar planta</text></g><!--link ExplorandoPlanta to ExplorandoEdificio--><g class="link" data-entity-1="ExplorandoPlanta" data-entity-2="ExplorandoEdificio" data-source-line="7" data-uid="lnk12" id="link_ExplorandoPlanta_ExplorandoEdificio"><path d="M166.12,340.91 C177.51,327.7 186.98,310.66 181.27,294 C177.53,283.1 174.4059,277.3402 167.2359,268.6402" fill="none" id="ExplorandoPlanta-to-ExplorandoEdificio" style="stroke:#181818;stroke-width:1;"/><polygon fill="#181818" points="163.42,264.01,166.0571,273.4992,166.5999,267.8685,172.2307,268.4113,163.42,264.01" style="stroke:#181818;stroke-width:1;"/><text fill="#000000" font-family="sans-serif" font-size="13" lengthAdjust="spacing" textLength="58.7095" x="183.27" y="307.0669">Regresar</text></g><!--link ExplorandoPlanta to ViendoPuntoDeInteres--><g class="link" data-entity-1="ExplorandoPlanta" data-entity-2="ViendoPuntoDeInteres" data-source-line="4" data-uid="lnk10" id="link_ExplorandoPlanta_ViendoPuntoDeInteres"><path d="M67.69,383.55 C34.67,394.91 6,412.58 22.27,438 C30.4,450.72 37.156,457.5387 50.396,465.0187" fill="none" id="ExplorandoPlanta-to-ViendoPuntoDeInteres" style="stroke:#181818;stroke-width:1;"/><polygon fill="#181818" points="55.62,467.97,49.7516,460.0604,51.2667,465.5106,45.8165,467.0257,55.62,467.97" style="stroke:#181818;stroke-width:1;"/><text fill="#000000" font-family="sans-serif" font-size="13" lengthAdjust="spacing" textLength="186.7607" x="23.27" y="434.0669">Seleccionar punto de inter&#233;s</text></g><!--link ViendoPuntoDeInteres to ExplorandoPlanta--><g class="link" data-entity-1="ViendoPuntoDeInteres" data-entity-2="ExplorandoPlanta" data-source-line="6" data-uid="lnk11" id="link_ViendoPuntoDeInteres_ExplorandoPlanta"><path d="M191.01,467.81 C209.49,455.54 223.67,439.35 214.27,421 C208.12,409 202.7813,402.6006 191.8713,394.6606" fill="none" id="ViendoPuntoDeInteres-to-ExplorandoPlanta" style="stroke:#181818;stroke-width:1;"/><polygon fill="#181818" points="187.02,391.13,191.9431,399.6601,191.0627,394.0722,196.6506,393.1917,187.02,391.13" style="stroke:#181818;stroke-width:1;"/><text fill="#000000" font-family="sans-serif" font-size="13" lengthAdjust="spacing" textLength="58.7095" x="217.27" y="434.0669">Regresar</text></g><!--link NavegandoMen? to *end*--><g class="link" data-entity-1="NavegandoMen&#250;" data-entity-2="*end*" data-source-line="10" data-uid="lnk15" id="link_NavegandoMen&#250;_*end*"><path d="M211.39,137.22 C219.31,146.45 228.31,157.12 236.27,167 C254.14,189.19 270.6528,211.3282 280.5328,224.7482" fill="none" id="NavegandoMen&#250;-to-*end*" style="stroke:#181818;stroke-width:1;"/><polygon fill="#181818" points="284.09,229.58,281.9753,219.9608,281.1256,225.5535,275.533,224.7038,284.09,229.58" style="stroke:#181818;stroke-width:1;"/><text fill="#000000" font-family="sans-serif" font-size="13" lengthAdjust="spacing" textLength="120.6563" x="249.27" y="180.0669">Salir del programa</text></g><!--SRC=[TP0n3i8m34NtdC8pKY_0m4G61X02YQLYi1eJHGfEvGR4bRW2Qoz6qgafOVJ_VhB_RrTNQ9eD7F195jc4FV7uKUKuRUXNxuDaJHjtSvqBi0RDKL1KnIkHeqUEc80pUUgIpoZGJwBwsShenL4M7Xp3bdOSIMXOuja4G-2oFRu7fQhKdqzEP9DRF3-xNqrRGOgyYzPcGAtGDbMV4g5tab9uw2LOmJj-0G00]--></g></svg>