<svg xmlns="http://www.w3.org/2000/svg" xmlns:xlink="http://www.w3.org/1999/xlink" contentStyleType="text/css" data-diagram-type="STATE" height="635px" preserveAspectRatio="none" style="width:720px;height:635px;background:#FFFFFF;" version="1.1" viewBox="0 0 720 635" width="720px" zoomAndPan="magnify"><defs/><g><path d="M123.1,7 L458.1,7 A12.5,12.5 0 0 1 470.6,19.5 L470.6,33.2969 L110.6,33.2969 L110.6,19.5 A12.5,12.5 0 0 1 123.1,7" fill="#F1F1F1"/><rect fill="none" height="477.2969" rx="12.5" ry="12.5" style="stroke:#181818;stroke-width:0.5;" width="360" x="110.6" y="7"/><line style="stroke:#181818;stroke-width:0.5;" x1="110.6" x2="470.6" y1="33.2969" y2="33.2969"/><text fill="#000000" font-family="sans-serif" font-size="14" lengthAdjust="spacing" textLength="108.3291" x="236.4354" y="24.9951">verRecorridos()</text><g id="abrirRecorridos.MostrandoLista"><rect fill="#F1F1F1" height="50" rx="12.5" ry="12.5" style="stroke:#181818;stroke-width:0.5;" width="50" x="122.6" y="135.2969"/><line style="stroke:#181818;stroke-width:0.5;" x1="122.6" x2="172.6" y1="161.5938" y2="161.5938"/><text fill="#000000" font-family="sans-serif" font-size="14" lengthAdjust="spacing" textLength="4.4502" x="145.3749" y="153.292"> </text></g><g id="abrirRecorridos.FiltrandoLista"><rect fill="#F1F1F1" height="50" rx="12.5" ry="12.5" style="stroke:#181818;stroke-width:0.5;" width="50" x="122.6" y="331.2969"/><line style="stroke:#181818;stroke-width:0.5;" x1="122.6" x2="172.6" y1="357.5938" y2="357.5938"/><text fill="#000000" font-family="sans-serif" font-size="14" lengthAdjust="spacing" textLength="4.4502" x="145.3749" y="349.292"> </text></g><ellipse cx="147.6" cy="54.2969" fill="#222222" rx="10" ry="10" style="stroke:#222222;stroke-width:1;"/><ellipse cx="147.6" cy="463.2969" fill="none" rx="11" ry="11" style="stroke:#222222;stroke-width:1;"/><ellipse cx="147.6" cy="463.2969" fill="#222222" rx="6" ry="6" style="stroke:#222222;stroke-width:1;"/><!--link *start*abrirRecorridos to MostrandoLista--><g class="link" data-entity-1=".start.abrirRecorridos" data-entity-2="MostrandoLista" data-source-line="8" data-uid="lnk3" id="link_.start.abrirRecorridos_MostrandoLista"><path d="M147.6,64.5269 C147.6,80.2369 147.6,106.6569 147.6,129.1669" fill="none" id="*start*abrirRecorridos-to-MostrandoLista" style="stroke:#008000;stroke-width:1;"/><polygon fill="#008000" points="147.6,135.1669,151.6,126.1669,147.6,130.1669,143.6,126.1669,147.6,135.1669" style="stroke:#008000;stroke-width:1;"/><path d="M152.6,87.2969 L152.6,112.2969 L432.6,112.2969 L432.6,97.2969 L422.6,87.2969 L152.6,87.2969" fill="#FEFFDD" style="stroke:#181818;stroke-width:0.5;"/><path d="M422.6,87.2969 L422.6,97.2969 L432.6,97.2969 L422.6,87.2969" fill="#FEFFDD" style="stroke:#181818;stroke-width:0.5;"/><text fill="#000000" font-family="sans-serif" font-size="13" font-weight="bold" lengthAdjust="spacing" textLength="104.8633" x="158.6" y="104.3638">Administrador</text><text fill="#000000" font-family="sans-serif" font-size="13" lengthAdjust="spacing" textLength="150.2808" x="267.5956" y="104.3638">solicita abrir recorridos</text></g><!--link MostrandoLista to FiltrandoLista--><g class="link" data-entity-1="MostrandoLista" data-entity-2="FiltrandoLista" data-source-line="13" data-uid="lnk4" id="link_MostrandoLista_FiltrandoLista"><path d="M147.6,185.4769 C147.6,222.6469 147.6,287.4569 147.6,324.8169" fill="none" id="MostrandoLista-to-FiltrandoLista" style="stroke:#008000;stroke-width:1;"/><polygon fill="#008000" points="147.6,330.8169,151.6,321.8169,147.6,325.8169,143.6,321.8169,147.6,330.8169" style="stroke:#008000;stroke-width:1;"/><path d="M152.6,208.2969 L152.6,308.2969 L435.6,308.2969 L435.6,218.2969 L425.6,208.2969 L152.6,208.2969" fill="#FEFFDD" style="stroke:#181818;stroke-width:0.5;"/><path d="M425.6,208.2969 L425.6,218.2969 L435.6,218.2969 L425.6,208.2969" fill="#FEFFDD" style="stroke:#181818;stroke-width:0.5;"/><text fill="#000000" font-family="sans-serif" font-size="13" font-weight="bold" lengthAdjust="spacing" textLength="58.9063" x="158.6" y="225.3638">Sistema</text><text fill="#000000" font-family="sans-serif" font-size="13" lengthAdjust="spacing" textLength="179.0991" x="221.6386" y="225.3638">presenta lista de recorridos</text><text fill="#000000" font-family="sans-serif" font-size="13" lengthAdjust="spacing" textLength="210.9834" x="158.6" y="240.4966">• ID y nombre de cada recorrido</text><text fill="#000000" font-family="sans-serif" font-size="13" lengthAdjust="spacing" textLength="188.481" x="158.6" y="255.6294">• Permite solicitar filtrar lista</text><text fill="#000000" font-family="sans-serif" font-size="13" lengthAdjust="spacing" textLength="262.8755" x="158.6" y="270.7622">• Permite solicitar crear recorrido nuevo</text><text fill="#000000" font-family="sans-serif" font-size="13" lengthAdjust="spacing" textLength="237.8657" x="158.6" y="285.895">• Permite solicitar eliminar recorrido</text><text fill="#000000" font-family="sans-serif" font-size="13" lengthAdjust="spacing" textLength="223.0884" x="158.6" y="301.0278">• Permite solicitar editar recorrido</text></g><!--link FiltrandoLista to FiltrandoLista--><g class="link" data-entity-1="FiltrandoLista" data-entity-2="FiltrandoLista" data-source-line="23" data-uid="lnk5" id="link_FiltrandoLista_FiltrandoLista"><path d="M172.78,344.9969 C182.51,344.4969 190.6,348.2569 190.6,356.2969 C190.6,364.3369 188.5021,368.4048 178.7721,367.9048" fill="none" id="FiltrandoLista-to-FiltrandoLista" style="stroke:#008000;stroke-width:1;"/><polygon fill="#008000" points="172.78,367.5969,181.5629,372.0535,177.7734,367.8535,181.9734,364.064,172.78,367.5969" style="stroke:#008000;stroke-width:1;"/><path d="M195.6,336.2969 L195.6,376.2969 L441.6,376.2969 L441.6,346.2969 L431.6,336.2969 L195.6,336.2969" fill="#FEFFDD" style="stroke:#181818;stroke-width:0.5;"/><path d="M431.6,336.2969 L431.6,346.2969 L441.6,346.2969 L431.6,336.2969" fill="#FEFFDD" style="stroke:#181818;stroke-width:0.5;"/><text fill="#000000" font-family="sans-serif" font-size="13" font-weight="bold" lengthAdjust="spacing" textLength="104.8633" x="201.6" y="353.3638">Administrador</text><text fill="#000000" font-family="sans-serif" font-size="13" lengthAdjust="spacing" textLength="116.6509" x="310.5956" y="353.3638">solicita filtrar lista</text><text fill="#000000" font-family="sans-serif" font-size="13" font-weight="bold" lengthAdjust="spacing" textLength="58.9063" x="201.6" y="368.4966">Sistema</text><text fill="#000000" font-family="sans-serif" font-size="13" lengthAdjust="spacing" textLength="139.4199" x="264.6386" y="368.4966">presenta lista filtrada</text></g><!--link FiltrandoLista to *end*abrirRecorridos--><g class="link" data-entity-1="FiltrandoLista" data-entity-2=".end.abrirRecorridos" data-source-line="29" data-uid="lnk7" id="link_FiltrandoLista_.end.abrirRecorridos"><path d="M147.6,381.6469 C147.6,403.9469 147.6,429.8569 147.6,446.0369" fill="none" id="FiltrandoLista-to-*end*abrirRecorridos" style="stroke:#008000;stroke-width:1;"/><polygon fill="#008000" points="147.6,452.0369,151.6,443.0369,147.6,447.0369,143.6,443.0369,147.6,452.0369" style="stroke:#008000;stroke-width:1;"/><path d="M152.6,404.2969 L152.6,429.2969 L461.6,429.2969 L461.6,414.2969 L451.6,404.2969 L152.6,404.2969" fill="#FEFFDD" style="stroke:#181818;stroke-width:0.5;"/><path d="M451.6,404.2969 L451.6,414.2969 L461.6,414.2969 L451.6,404.2969" fill="#FEFFDD" style="stroke:#181818;stroke-width:0.5;"/><text fill="#000000" font-family="sans-serif" font-size="13" font-weight="bold" lengthAdjust="spacing" textLength="104.8633" x="158.6" y="421.3638">Administrador</text><text fill="#000000" font-family="sans-serif" font-size="13" lengthAdjust="spacing" textLength="179.2769" x="267.5956" y="421.3638">solicita una de las opciones</text></g><g id="RECORRIDO_ABIERTO"><rect fill="#F1F1F1" height="50" rx="12.5" ry="12.5" style="stroke:#181818;stroke-width:0.5;" width="173.207" x="7" y="579.3"/><line style="stroke:#181818;stroke-width:0.5;" x1="7" x2="180.207" y1="605.5969" y2="605.5969"/><text fill="#000000" font-family="sans-serif" font-size="14" lengthAdjust="spacing" textLength="153.207" x="17" y="597.2951">RECORRIDO_ABIERTO</text></g><g id="RECORRIDOS_ABIERTO"><rect fill="#F1F1F1" height="50" rx="12.5" ry="12.5" style="stroke:#181818;stroke-width:0.5;" width="182.0938" x="288.56" y="579.3"/><line style="stroke:#181818;stroke-width:0.5;" x1="288.56" x2="470.6538" y1="605.5969" y2="605.5969"/><text fill="#000000" font-family="sans-serif" font-size="14" lengthAdjust="spacing" textLength="162.0938" x="298.56" y="597.2951">RECORRIDOS_ABIERTO</text></g><g id="UNIVERSIDAD_DISPONIBLE"><rect fill="#F1F1F1" height="50" rx="12.5" ry="12.5" style="stroke:#181818;stroke-width:0.5;" width="208.2617" x="505.47" y="579.3"/><line style="stroke:#181818;stroke-width:0.5;" x1="505.47" x2="713.7317" y1="605.5969" y2="605.5969"/><text fill="#000000" font-family="sans-serif" font-size="14" lengthAdjust="spacing" textLength="188.2617" x="515.47" y="597.2951">UNIVERSIDAD_DISPONIBLE</text></g><!--link abrirRecorridos to RECORRIDO_ABIERTO--><g class="link" data-entity-1="abrirRecorridos" data-entity-2="RECORRIDO_ABIERTO" data-source-line="35" data-uid="lnk9" id="link_abrirRecorridos_RECORRIDO_ABIERTO"><path d="M110.41,423.31 C59.47,473.26 17.6,514.3 17.6,514.3 C17.6,514.3 17.6,549.3 17.6,549.3 C17.6,549.3 34.1591,561.0645 54.2691,575.3545" fill="none" id="abrirRecorridos-to-RECORRIDO_ABIERTO" style="stroke:#008000;stroke-width:1;"/><polygon fill="#008000" points="59.16,578.83,54.1406,570.3562,55.0842,575.9338,49.5066,576.8774,59.16,578.83" style="stroke:#008000;stroke-width:1;"/><path d="M22.6,519.3 L22.6,544.3 L154.6,544.3 L154.6,529.3 L144.6,519.3 L22.6,519.3" fill="#FEFFDD" style="stroke:#181818;stroke-width:0.5;"/><path d="M144.6,519.3 L144.6,529.3 L154.6,529.3 L144.6,519.3" fill="#FEFFDD" style="stroke:#181818;stroke-width:0.5;"/><text fill="#000000" font-family="sans-serif" font-size="13" lengthAdjust="spacing" textLength="111.0522" x="28.6" y="536.3669">editarRecorrido()</text></g><!--link abrirRecorridos to RECORRIDO_ABIERTO--><g class="link" data-entity-1="abrirRecorridos" data-entity-2="RECORRIDO_ABIERTO" data-source-line="40" data-uid="lnk10" id="link_abrirRecorridos_RECORRIDO_ABIERTO"><path d="M190.69,484.75 C174.87,522.45 163.6,549.3 163.6,549.3 C163.6,549.3 148.6003,560.8747 130.0803,575.1647" fill="none" id="abrirRecorridos-to-RECORRIDO_ABIERTO-1" style="stroke:#008000;stroke-width:1;"/><polygon fill="#008000" points="125.33,578.83,134.899,576.4989,129.2886,575.7756,130.0119,570.1651,125.33,578.83" style="stroke:#008000;stroke-width:1;"/><path d="M182.6,519.3 L182.6,544.3 L309.6,544.3 L309.6,529.3 L299.6,519.3 L182.6,519.3" fill="#FEFFDD" style="stroke:#181818;stroke-width:0.5;"/><path d="M299.6,519.3 L299.6,529.3 L309.6,529.3 L299.6,519.3" fill="#FEFFDD" style="stroke:#181818;stroke-width:0.5;"/><text fill="#000000" font-family="sans-serif" font-size="13" lengthAdjust="spacing" textLength="106.5835" x="188.6" y="536.3669">crearRecorrido()</text></g><!--link abrirRecorridos to RECORRIDOS_ABIERTO--><g class="link" data-entity-1="abrirRecorridos" data-entity-2="RECORRIDOS_ABIERTO" data-source-line="45" data-uid="lnk12" id="link_abrirRecorridos_RECORRIDOS_ABIERTO"><path d="M349.97,484.54 C359.6,523.13 366.7273,551.6885 372.1473,573.4085" fill="none" id="abrirRecorridos-to-RECORRIDOS_ABIERTO" style="stroke:#008000;stroke-width:1;"/><polygon fill="#008000" points="373.6,579.23,375.302,569.5293,372.3894,574.3788,367.54,571.4662,373.6,579.23" style="stroke:#008000;stroke-width:1;"/><path d="M370.6,519.3 L370.6,544.3 L516.6,544.3 L516.6,529.3 L506.6,519.3 L370.6,519.3" fill="#FEFFDD" style="stroke:#181818;stroke-width:0.5;"/><path d="M506.6,519.3 L506.6,529.3 L516.6,529.3 L506.6,519.3" fill="#FEFFDD" style="stroke:#181818;stroke-width:0.5;"/><text fill="#000000" font-family="sans-serif" font-size="13" lengthAdjust="spacing" textLength="125.8296" x="376.6" y="536.3669">eliminarRecorrido()</text></g><!--link abrirRecorridos to UNIVERSIDAD_DISPONIBLE--><g class="link" data-entity-1="abrirRecorridos" data-entity-2="UNIVERSIDAD_DISPONIBLE" data-source-line="50" data-uid="lnk14" id="link_abrirRecorridos_UNIVERSIDAD_DISPONIBLE"><path d="M471.08,448.42 C518.02,500.91 558.4997,546.1681 583.8597,574.5181" fill="none" id="abrirRecorridos-to-UNIVERSIDAD_DISPONIBLE" style="stroke:#008000;stroke-width:1;"/><polygon fill="#008000" points="587.86,578.99,584.8409,569.6153,584.5264,575.2634,578.8783,574.949,587.86,578.99" style="stroke:#008000;stroke-width:1;"/><path d="M560.6,519.3 L560.6,544.3 L706.6,544.3 L706.6,529.3 L696.6,519.3 L560.6,519.3" fill="#FEFFDD" style="stroke:#181818;stroke-width:0.5;"/><path d="M696.6,519.3 L696.6,529.3 L706.6,529.3 L696.6,519.3" fill="#FEFFDD" style="stroke:#181818;stroke-width:0.5;"/><text fill="#000000" font-family="sans-serif" font-size="13" lengthAdjust="spacing" textLength="125.9248" x="566.6" y="536.3669">completarGestion()</text></g><!--SRC=[fPFHQeCm58RlynIXksa7PIzG2krqG-XgqMqtfPHepaPeJ2JQGXc3FSiURK-oOrojEYgqLL1C_lFdovzZjX4gPOObL0e5-Ju5ccgvBpu8oNAM0sMH4IQ0M1iZkCueosXl1xMH_g17FmYXU9KLFRnHzQIpt335zKpW-F_v1o7hyrQml5tHuVBctG2erN3Syg1MepHwQ5KGR-p0A1fFU2AKABHScz5TDAQPbY8MM6FvgQbmRGaeNlhWHQf7QxKwI0ls54U8iv0mIv0Qo42XZxHk7DeGFr_Vr7Fe7fsIo42XY1bdHrcbMe191Avss9IXRvR7bDuTkjW0g-sUgYtikdn12aooNj8bvlRLb1wYFSRQpEwIM3kEztyGtSTGwZaxdnLxynB0hR9dBx7ZTHeBhQ3PWkIJaFO_LbysSE_z8F0SVpsPUcxmx9C6G7a6LMr_G2hZQsnjtrpX6fwW_MklyvrVvjwh6uIUCt7MZXSk_BatdRajQ9sa4Z2EHyXoJBfc_Wi0]--></g></svg>