<svg xmlns="http://www.w3.org/2000/svg" xmlns:xlink="http://www.w3.org/1999/xlink" contentStyleType="text/css" data-diagram-type="STATE" height="715px" preserveAspectRatio="none" style="width:399px;height:715px;background:#FFFFFF;" version="1.1" viewBox="0 0 399 715" width="399px" zoomAndPan="magnify"><defs/><g><path d="M19.5,7 L373.5,7 A12.5,12.5 0 0 1 386,19.5 L386,33.2969 L7,33.2969 L7,19.5 A12.5,12.5 0 0 1 19.5,7" fill="#F1F1F1"/><rect fill="none" height="557.2969" rx="12.5" ry="12.5" style="stroke:#181818;stroke-width:0.5;" width="379" x="7" y="7"/><line style="stroke:#181818;stroke-width:0.5;" x1="7" x2="386" y1="33.2969" y2="33.2969"/><text fill="#000000" font-family="sans-serif" font-size="14" lengthAdjust="spacing" textLength="90.7266" x="151.1367" y="24.9951">verDetalles()</text><g id="verDetalles.SolicitandoDetalles"><rect fill="#F1F1F1" height="50" rx="12.5" ry="12.5" style="stroke:#181818;stroke-width:0.5;" width="50" x="97" y="150.2969"/><line style="stroke:#181818;stroke-width:0.5;" x1="97" x2="147" y1="176.5938" y2="176.5938"/><text fill="#000000" font-family="sans-serif" font-size="14" lengthAdjust="spacing" textLength="4.4502" x="119.7749" y="168.292">&#160;</text></g><g id="verDetalles.ConsultandoDetalles"><rect fill="#F1F1F1" height="50" rx="12.5" ry="12.5" style="stroke:#181818;stroke-width:0.5;" width="107.6641" x="68" y="286.2969"/><line style="stroke:#181818;stroke-width:0.5;" x1="68" x2="175.6641" y1="312.5938" y2="312.5938"/><text fill="#000000" font-family="sans-serif" font-size="14" lengthAdjust="spacing" textLength="87.6641" x="78" y="304.292">Consultando</text></g><g class="entity" data-entity="c" data-uid="ent0005" id="entity_c"><polygon fill="#F1F1F1" points="122,437.2969,134,449.2969,122,461.2969,110,449.2969,122,437.2969" style="stroke:#181818;stroke-width:0.5;"/></g><ellipse cx="122" cy="54.2969" fill="#222222" rx="10" ry="10" style="stroke:#222222;stroke-width:1;"/><ellipse cx="122" cy="543.2969" fill="none" rx="11" ry="11" style="stroke:#222222;stroke-width:1;"/><ellipse cx="122" cy="543.2969" fill="#222222" rx="6" ry="6" style="stroke:#222222;stroke-width:1;"/><!--link *start*verDetalles to SolicitandoDetalles--><g class="link" data-entity-1=".start.verDetalles" data-entity-2="SolicitandoDetalles" data-source-line="9" data-uid="lnk3" id="link_.start.verDetalles_SolicitandoDetalles"><path d="M122,64.6369 C122,82.8269 122,117.5369 122,143.9069" fill="none" id="*start*verDetalles-to-SolicitandoDetalles" style="stroke:#008000;stroke-width:1;"/><polygon fill="#008000" points="122,149.9069,126,140.9069,122,144.9069,118,140.9069,122,149.9069" style="stroke:#008000;stroke-width:1;"/><path d="M127,87.2969 L127,127.2969 L341,127.2969 L341,97.2969 L331,87.2969 L127,87.2969" fill="#FEFFDD" style="stroke:#181818;stroke-width:0.5;"/><path d="M331,87.2969 L331,97.2969 L341,97.2969 L331,87.2969" fill="#FEFFDD" style="stroke:#181818;stroke-width:0.5;"/><text fill="#000000" font-family="sans-serif" font-size="13" font-weight="bold" lengthAdjust="spacing" textLength="65.9839" x="133" y="104.3638">Visitante</text><text fill="#000000" font-family="sans-serif" font-size="13" lengthAdjust="spacing" textLength="119.6089" x="203.1162" y="104.3638">solicita ver detalle</text><text fill="#000000" font-family="sans-serif" font-size="13" lengthAdjust="spacing" textLength="90.6953" x="203.2495" y="119.4966">de un espacio</text></g><!--link SolicitandoDetalles to ConsultandoDetalles--><g class="link" data-entity-1="SolicitandoDetalles" data-entity-2="ConsultandoDetalles" data-source-line="15" data-uid="lnk4" id="link_SolicitandoDetalles_ConsultandoDetalles"><path d="M122,200.5669 C122,224.8469 122,255.9869 122,280.2069" fill="none" id="SolicitandoDetalles-to-ConsultandoDetalles" style="stroke:#008000;stroke-width:1;"/><polygon fill="#008000" points="122,286.2069,126,277.2069,122,281.2069,118,277.2069,122,286.2069" style="stroke:#008000;stroke-width:1;"/><path d="M127,223.2969 L127,263.2969 L290,263.2969 L290,233.2969 L280,223.2969 L127,223.2969" fill="#FEFFDD" style="stroke:#181818;stroke-width:0.5;"/><path d="M280,223.2969 L280,233.2969 L290,233.2969 L280,223.2969" fill="#FEFFDD" style="stroke:#181818;stroke-width:0.5;"/><text fill="#000000" font-family="sans-serif" font-size="13" font-weight="bold" lengthAdjust="spacing" textLength="58.9063" x="133" y="240.3638">Sistema</text><text fill="#000000" font-family="sans-serif" font-size="13" lengthAdjust="spacing" textLength="57.6685" x="196.0386" y="240.3638">presenta</text><text fill="#000000" font-family="sans-serif" font-size="13" lengthAdjust="spacing" textLength="142.6953" x="133" y="255.4966">&#8226; Detalles del espacio</text></g><!--link ConsultandoDetalles to c--><g class="link" data-entity-1="ConsultandoDetalles" data-entity-2="c" data-source-line="21" data-uid="lnk5" id="link_ConsultandoDetalles_c"><path d="M67.87,334.1569 C42.6,344.3669 18,354.2969 18,354.2969 C18,354.2969 18,419.2969 18,419.2969 C18,419.2969 82.2009,437.1938 107.3509,444.2138" fill="none" id="ConsultandoDetalles-to-c" style="stroke:#008000;stroke-width:1;"/><polygon fill="#008000" points="113.13,445.8269,105.5368,439.5545,108.3141,444.4826,103.386,447.26,113.13,445.8269" style="stroke:#008000;stroke-width:1;"/><path d="M23,359.2969 L23,414.2969 L201,414.2969 L201,369.2969 L191,359.2969 L23,359.2969" fill="#FEFFDD" style="stroke:#181818;stroke-width:0.5;"/><path d="M191,359.2969 L191,369.2969 L201,369.2969 L191,359.2969" fill="#FEFFDD" style="stroke:#181818;stroke-width:0.5;"/><text fill="#000000" font-family="sans-serif" font-size="13" font-weight="bold" lengthAdjust="spacing" textLength="65.9839" x="29" y="376.3638">Visitante</text><text fill="#000000" font-family="sans-serif" font-size="13" lengthAdjust="spacing" textLength="45.7729" x="99.1162" y="376.3638">solicita</text><text fill="#000000" font-family="sans-serif" font-size="13" lengthAdjust="spacing" textLength="157.2441" x="29" y="391.4966">&#8226; continuar consultando</text><text fill="#000000" font-family="sans-serif" font-size="13" lengthAdjust="spacing" textLength="114.9307" x="29" y="406.6294">&#8226; salir de detalles</text></g><!--link c to ConsultandoDetalles--><g class="link" data-entity-1="c" data-entity-2="ConsultandoDetalles" data-source-line="28" data-uid="lnk6" id="link_c_ConsultandoDetalles"><path d="M130.36,445.4069 C151.61,438.0769 206,419.2969 206,419.2969 C206,419.2969 206,354.2969 206,354.2969 C206,354.2969 194.4171,348.499 175.7471,339.169" fill="none" id="c-to-ConsultandoDetalles" style="stroke:#008000;stroke-width:1;"/><polygon fill="#008000" points="170.38,336.4869,176.6426,344.0882,174.8526,338.722,180.2188,336.932,170.38,336.4869" style="stroke:#008000;stroke-width:1;"/><path d="M211,374.2969 L211,399.2969 L377,399.2969 L377,384.2969 L367,374.2969 L211,374.2969" fill="#FEFFDD" style="stroke:#181818;stroke-width:0.5;"/><path d="M367,374.2969 L367,384.2969 L377,384.2969 L367,374.2969" fill="#FEFFDD" style="stroke:#181818;stroke-width:0.5;"/><text fill="#000000" font-family="sans-serif" font-size="13" lengthAdjust="spacing" textLength="145.4438" x="217" y="391.3638">continuar consultando</text></g><!--link c to *end*verDetalles--><g class="link" data-entity-1="c" data-entity-2=".end.verDetalles" data-source-line="33" data-uid="lnk8" id="link_c_.end.verDetalles"><path d="M122,461.5769 C122,479.6169 122,508.6969 122,526.0569" fill="none" id="c-to-*end*verDetalles" style="stroke:#008000;stroke-width:1;"/><polygon fill="#008000" points="122,532.0569,126,523.0569,122,527.0569,118,523.0569,122,532.0569" style="stroke:#008000;stroke-width:1;"/><path d="M127,484.2969 L127,509.2969 L251,509.2969 L251,494.2969 L241,484.2969 L127,484.2969" fill="#FEFFDD" style="stroke:#181818;stroke-width:0.5;"/><path d="M241,484.2969 L241,494.2969 L251,494.2969 L241,484.2969" fill="#FEFFDD" style="stroke:#181818;stroke-width:0.5;"/><text fill="#000000" font-family="sans-serif" font-size="13" lengthAdjust="spacing" textLength="103.1304" x="133" y="501.3638">salir de detalles</text></g><g id="Explorando"><rect fill="#F1F1F1" height="50" rx="12.5" ry="12.5" style="stroke:#181818;stroke-width:0.5;" width="99.1328" x="147" y="659"/><line style="stroke:#181818;stroke-width:0.5;" x1="147" x2="246.1328" y1="685.2969" y2="685.2969"/><text fill="#000000" font-family="sans-serif" font-size="14" lengthAdjust="spacing" textLength="79.1328" x="157" y="676.9951">Explorando</text></g><!--link verDetalles to Explorando--><g class="link" data-entity-1="verDetalles" data-entity-2="Explorando" data-source-line="39" data-uid="lnk10" id="link_verDetalles_Explorando"><path d="M196.5,564.04 C196.5,603.08 196.5,631.21 196.5,652.78" fill="none" id="verDetalles-to-Explorando" style="stroke:#008000;stroke-width:1;"/><polygon fill="#008000" points="196.5,658.78,200.5,649.78,196.5,653.78,192.5,649.78,196.5,658.78" style="stroke:#008000;stroke-width:1;"/><path d="M201.5,599 L201.5,624 L271.5,624 L271.5,609 L261.5,599 L201.5,599" fill="#FEFFDD" style="stroke:#181818;stroke-width:0.5;"/><path d="M261.5,599 L261.5,609 L271.5,609 L261.5,599" fill="#FEFFDD" style="stroke:#181818;stroke-width:0.5;"/><text fill="#000000" font-family="sans-serif" font-size="13" lengthAdjust="spacing" textLength="49.6768" x="207.5" y="616.0669">regresa</text></g><!--SRC=[dLDHIiGm4FtFAORweyBY1Kf_r1CixC-o7zbqqB3PISYauYA2P_5ediGajJMBAQ8JA9tCc_VU32qVD3dfvH6C9WmdX-2iEQL420uo83oXlyCWZK46oT0K-ULL0oz2G8mHsyGJCMjhjD91KcydQ0cwjSI3oUKCB_8AN47RgaUh5NRTgBMzti5gU_7W4Mctwcfoa85aOx-bDDiXNxJxRgCvGGEsD_iE-AirJGdzs3ps_eWUOI10Tb9fco58_IWHGyoFcflIxTAqDRDhpG6FCbjr7Xafo5pxU7k7cRr7K_NrxQcYUUP9_N5TimTbAMWQf4zlayHSPMbqMkkqMLwmf_wte6NnMQ927x-UEjqlRb-5A7-5alB-sHdhi_ePgyS8OIacZay0]--></g></svg>