<svg xmlns="http://www.w3.org/2000/svg" xmlns:xlink="http://www.w3.org/1999/xlink" contentStyleType="text/css" data-diagram-type="STATE" height="696px" preserveAspectRatio="none" style="width:625px;height:696px;background:#FFFFFF;" version="1.1" viewBox="0 0 625 696" width="625px" zoomAndPan="magnify"><defs/><g><path d="M19.5,7 L599.5,7 A12.5,12.5 0 0 1 612,19.5 L612,33.2969 L7,33.2969 L7,19.5 A12.5,12.5 0 0 1 19.5,7" fill="#F1F1F1"/><rect fill="none" height="538.2969" rx="12.5" ry="12.5" style="stroke:#181818;stroke-width:0.5;" width="605" x="7" y="7"/><line style="stroke:#181818;stroke-width:0.5;" x1="7" x2="612" y1="33.2969" y2="33.2969"/><text fill="#000000" font-family="sans-serif" font-size="14" lengthAdjust="spacing" textLength="133.3623" x="242.8188" y="24.9951">actualizarEspacio()</text><g id="actualizarEspacio.EditandoDatos"><rect fill="#F1F1F1" height="50" rx="12.5" ry="12.5" style="stroke:#181818;stroke-width:0.5;" width="50" x="146" y="135.2969"/><line style="stroke:#181818;stroke-width:0.5;" x1="146" x2="196" y1="161.5938" y2="161.5938"/><text fill="#000000" font-family="sans-serif" font-size="14" lengthAdjust="spacing" textLength="4.4502" x="168.7749" y="153.292"> </text></g><g id="actualizarEspacio.GuardandoDatos"><rect fill="#F1F1F1" height="50" rx="12.5" ry="12.5" style="stroke:#181818;stroke-width:0.5;" width="50" x="146" y="392.2969"/><line style="stroke:#181818;stroke-width:0.5;" x1="146" x2="196" y1="418.5938" y2="418.5938"/><text fill="#000000" font-family="sans-serif" font-size="14" lengthAdjust="spacing" textLength="4.4502" x="168.7749" y="410.292"> </text></g><ellipse cx="171" cy="54.2969" fill="#222222" rx="10" ry="10" style="stroke:#222222;stroke-width:1;"/><ellipse cx="171" cy="524.2969" fill="none" rx="11" ry="11" style="stroke:#222222;stroke-width:1;"/><ellipse cx="171" cy="524.2969" fill="#222222" rx="6" ry="6" style="stroke:#222222;stroke-width:1;"/><!--link *start*actualizarEspacio to EditandoDatos--><g class="link" data-entity-1=".start.actualizarEspacio" data-entity-2="EditandoDatos" data-source-line="8" data-uid="lnk3" id="link_.start.actualizarEspacio_EditandoDatos"><path d="M171,64.5269 C171,80.2369 171,106.6569 171,129.1669" fill="none" id="*start*actualizarEspacio-to-EditandoDatos" style="stroke:#008000;stroke-width:1;"/><polygon fill="#008000" points="171,135.1669,175,126.1669,171,130.1669,167,126.1669,171,135.1669" style="stroke:#008000;stroke-width:1;"/><path d="M176,87.2969 L176,112.2969 L448,112.2969 L448,97.2969 L438,87.2969 L176,87.2969" fill="#FEFFDD" style="stroke:#181818;stroke-width:0.5;"/><path d="M438,87.2969 L438,97.2969 L448,97.2969 L438,87.2969" fill="#FEFFDD" style="stroke:#181818;stroke-width:0.5;"/><text fill="#000000" font-family="sans-serif" font-size="13" font-weight="bold" lengthAdjust="spacing" textLength="104.8633" x="182" y="104.3638">Administrador</text><text fill="#000000" font-family="sans-serif" font-size="13" lengthAdjust="spacing" textLength="142.0098" x="290.9956" y="104.3638">solicita editar espacio</text></g><!--link EditandoDatos to GuardandoDatos--><g class="link" data-entity-1="EditandoDatos" data-entity-2="GuardandoDatos" data-source-line="13" data-uid="lnk4" id="link_EditandoDatos_GuardandoDatos"><path d="M145.74,168.2369 C102.28,180.1569 18,203.2969 18,203.2969 C18,203.2969 18,374.2969 18,374.2969 C18,374.2969 96.4937,395.8498 139.9537,407.7698" fill="none" id="EditandoDatos-to-GuardandoDatos" style="stroke:#008000;stroke-width:1;"/><polygon fill="#008000" points="145.74,409.3569,138.1186,403.1188,140.9181,408.0343,136.0025,410.8339,145.74,409.3569" style="stroke:#008000;stroke-width:1;"/><path d="M23,208.2969 L23,369.2969 L298,369.2969 L298,218.2969 L288,208.2969 L23,208.2969" fill="#FEFFDD" style="stroke:#181818;stroke-width:0.5;"/><path d="M288,208.2969 L288,218.2969 L298,218.2969 L288,208.2969" fill="#FEFFDD" style="stroke:#181818;stroke-width:0.5;"/><text fill="#000000" font-family="sans-serif" font-size="13" font-weight="bold" lengthAdjust="spacing" textLength="58.9063" x="29" y="225.3638">Sistema</text><text fill="#000000" font-family="sans-serif" font-size="13" lengthAdjust="spacing" textLength="169.1714" x="92.0386" y="225.3638">presenta datos de edición</text><text fill="#000000" font-family="sans-serif" font-size="13" lengthAdjust="spacing" textLength="193.4448" x="29" y="240.4966">• Código, nombre del espacio</text><text fill="#000000" font-family="sans-serif" font-size="13" lengthAdjust="spacing" textLength="169.9331" x="29" y="255.6294">• Edificio asociado, planta</text><text fill="#000000" font-family="sans-serif" font-size="13" lengthAdjust="spacing" textLength="251.5259" x="29" y="270.7622">• Capacidad, tipo de espacio, recursos</text><text fill="#000000" font-family="sans-serif" font-size="13" lengthAdjust="spacing" textLength="254.1855" x="29" y="285.895">• Horario, accesibilidad, observaciones</text><text fill="#000000" font-family="sans-serif" font-size="13" lengthAdjust="spacing" textLength="4.1323" x="29" y="301.0278"> </text><text fill="#000000" font-family="sans-serif" font-size="13" font-weight="bold" lengthAdjust="spacing" textLength="58.9063" x="29" y="316.1606">Sistema</text><text fill="#000000" font-family="sans-serif" font-size="13" lengthAdjust="spacing" textLength="110.5952" x="92.0386" y="316.1606">permite solicitar:</text><text fill="#000000" font-family="sans-serif" font-size="13" lengthAdjust="spacing" textLength="127.8164" x="29" y="331.2935">• modificar campos</text><text fill="#000000" font-family="sans-serif" font-size="13" lengthAdjust="spacing" textLength="117" x="29" y="346.4263">• guardar espacio</text><text fill="#000000" font-family="sans-serif" font-size="13" lengthAdjust="spacing" textLength="118.168" x="29" y="361.5591">• cancelar edición</text></g><!--link GuardandoDatos to EditandoDatos--><g class="link" data-entity-1="GuardandoDatos" data-entity-2="EditandoDatos" data-source-line="27" data-uid="lnk5" id="link_GuardandoDatos_EditandoDatos"><path d="M196.45,408.1969 C234.81,395.9969 303,374.2969 303,374.2969 C303,374.2969 303,203.2969 303,203.2969 C303,203.2969 240.5278,183.4154 202.1678,171.2154" fill="none" id="GuardandoDatos-to-EditandoDatos" style="stroke:#008000;stroke-width:1;"/><polygon fill="#008000" points="196.45,169.3969,203.8144,175.9365,201.2148,170.9123,206.239,168.3127,196.45,169.3969" style="stroke:#008000;stroke-width:1;"/><path d="M308,276.2969 L308,301.2969 L603,301.2969 L603,286.2969 L593,276.2969 L308,276.2969" fill="#FEFFDD" style="stroke:#181818;stroke-width:0.5;"/><path d="M593,276.2969 L593,286.2969 L603,286.2969 L593,276.2969" fill="#FEFFDD" style="stroke:#181818;stroke-width:0.5;"/><text fill="#000000" font-family="sans-serif" font-size="13" font-weight="bold" lengthAdjust="spacing" textLength="104.8633" x="314" y="293.3638">Administrador</text><text fill="#000000" font-family="sans-serif" font-size="13" lengthAdjust="spacing" textLength="165.9214" x="422.9956" y="293.3638">solicita modificar campos</text></g><!--link GuardandoDatos to *end*actualizarEspacio--><g class="link" data-entity-1="GuardandoDatos" data-entity-2=".end.actualizarEspacio" data-source-line="32" data-uid="lnk7" id="link_GuardandoDatos_.end.actualizarEspacio"><path d="M145.56,425.3269 C102.29,437.2869 19,460.2969 19,460.2969 C19,460.2969 19,495.2969 19,495.2969 C19,495.2969 119.3193,513.7799 154.1693,520.1999" fill="none" id="GuardandoDatos-to-*end*actualizarEspacio" style="stroke:#008000;stroke-width:1;"/><polygon fill="#008000" points="160.07,521.2869,151.9436,515.7225,155.1527,520.381,150.4943,523.5902,160.07,521.2869" style="stroke:#008000;stroke-width:1;"/><path d="M24,465.2969 L24,490.2969 L298,490.2969 L298,475.2969 L288,465.2969 L24,465.2969" fill="#FEFFDD" style="stroke:#181818;stroke-width:0.5;"/><path d="M288,465.2969 L288,475.2969 L298,475.2969 L288,465.2969" fill="#FEFFDD" style="stroke:#181818;stroke-width:0.5;"/><text fill="#000000" font-family="sans-serif" font-size="13" font-weight="bold" lengthAdjust="spacing" textLength="104.8633" x="30" y="482.3638">Administrador</text><text fill="#000000" font-family="sans-serif" font-size="13" lengthAdjust="spacing" textLength="144.5361" x="138.9956" y="482.3638">solicita guardar y salir</text></g><!--link GuardandoDatos to *end*actualizarEspacio--><g class="link" data-entity-1="GuardandoDatos" data-entity-2=".end.actualizarEspacio" data-source-line="37" data-uid="lnk8" id="link_GuardandoDatos_.end.actualizarEspacio"><path d="M196.45,426.3969 C234.81,438.5969 303,460.2969 303,460.2969 C303,460.2969 303,495.2969 303,495.2969 C303,495.2969 219.1993,513.0715 187.6693,519.7615" fill="none" id="GuardandoDatos-to-*end*actualizarEspacio-1" style="stroke:#FF0000;stroke-width:1;"/><polygon fill="#FF0000" points="181.8,521.0069,191.4342,523.0517,186.6911,519.9691,189.7738,515.226,181.8,521.0069" style="stroke:#FF0000;stroke-width:1;"/><path d="M308,465.2969 L308,490.2969 L594,490.2969 L594,475.2969 L584,465.2969 L308,465.2969" fill="#FEFFDD" style="stroke:#181818;stroke-width:0.5;"/><path d="M584,465.2969 L584,475.2969 L594,475.2969 L584,465.2969" fill="#FEFFDD" style="stroke:#181818;stroke-width:0.5;"/><text fill="#000000" font-family="sans-serif" font-size="13" font-weight="bold" lengthAdjust="spacing" textLength="104.8633" x="314" y="482.3638">Administrador</text><text fill="#000000" font-family="sans-serif" font-size="13" lengthAdjust="spacing" textLength="156.2729" x="422.9956" y="482.3638">solicita cancelar edición</text></g><g id="ESPACIOS_ABIERTO"><rect fill="#F1F1F1" height="50" rx="12.5" ry="12.5" style="stroke:#181818;stroke-width:0.5;" width="158.0176" x="230.49" y="640.3"/><line style="stroke:#181818;stroke-width:0.5;" x1="230.49" x2="388.5076" y1="666.5969" y2="666.5969"/><text fill="#000000" font-family="sans-serif" font-size="14" lengthAdjust="spacing" textLength="138.0176" x="240.49" y="658.2951">ESPACIOS_ABIERTO</text></g><!--link actualizarEspacio to ESPACIOS_ABIERTO--><g class="link" data-entity-1="actualizarEspacio" data-entity-2="ESPACIOS_ABIERTO" data-source-line="44" data-uid="lnk10" id="link_actualizarEspacio_ESPACIOS_ABIERTO"><path d="M217.65,545.62 C211.39,563.93 207.5,575.3 207.5,575.3 C207.5,575.3 207.5,610.3 207.5,610.3 C207.5,610.3 230.9874,622.7325 257.9774,637.0225" fill="none" id="actualizarEspacio-to-ESPACIOS_ABIERTO" style="stroke:#008000;stroke-width:1;"/><polygon fill="#008000" points="263.28,639.83,257.1977,632.0837,258.8611,637.4904,253.4544,639.1538,263.28,639.83" style="stroke:#008000;stroke-width:1;"/><path d="M212.5,580.3 L212.5,605.3 L361.5,605.3 L361.5,590.3 L351.5,580.3 L212.5,580.3" fill="#FEFFDD" style="stroke:#181818;stroke-width:0.5;"/><path d="M351.5,580.3 L351.5,590.3 L361.5,590.3 L351.5,580.3" fill="#FEFFDD" style="stroke:#181818;stroke-width:0.5;"/><text fill="#000000" font-family="sans-serif" font-size="13" lengthAdjust="spacing" textLength="128.0449" x="218.5" y="597.3669">abrirListaEspacios()</text></g><!--link actualizarEspacio to ESPACIOS_ABIERTO--><g class="link" data-entity-1="actualizarEspacio" data-entity-2="ESPACIOS_ABIERTO" data-source-line="49" data-uid="lnk11" id="link_actualizarEspacio_ESPACIOS_ABIERTO"><path d="M364.43,545.62 C368.17,563.93 370.5,575.3 370.5,575.3 C370.5,575.3 370.5,610.3 370.5,610.3 C370.5,610.3 357.7723,621.5626 341.6323,635.8526" fill="none" id="actualizarEspacio-to-ESPACIOS_ABIERTO-1" style="stroke:#FF0000;stroke-width:1;"/><polygon fill="#FF0000" points="337.14,639.83,346.53,636.8588,340.8836,636.5155,341.2268,630.8691,337.14,639.83" style="stroke:#FF0000;stroke-width:1;"/><path d="M375.5,580.3 L375.5,605.3 L502.5,605.3 L502.5,590.3 L492.5,580.3 L375.5,580.3" fill="#FEFFDD" style="stroke:#181818;stroke-width:0.5;"/><path d="M492.5,580.3 L492.5,590.3 L502.5,590.3 L492.5,580.3" fill="#FEFFDD" style="stroke:#181818;stroke-width:0.5;"/><text fill="#000000" font-family="sans-serif" font-size="13" lengthAdjust="spacing" textLength="106.3677" x="381.5" y="597.3669">cancelar edición</text></g><!--SRC=[fPDVIkH04CRV-nJ5x8lAoBulCZ2wmwwmuEBicyXIwQuT2fFkK9rP64NmB5x18tYJFSbMT-PVZAEe2GIIhlg-NttfZbViQnIie6HFpQ8cg4EvI2_6n0OR0hJD74k-Hfd46Yq7m0Y3tjUz_G7S60DwjNq3lRLouhX1xy9NR4BiBt-RexZrEhG25mUNS7ZnQIP4_l9mrDM0NEA3QWIViA_oXwDYD7OLUuwDe0jozBaOGGmbM-q5IWe2rBBc1lAkLT7Bh1zTgss8BkbEYAa2K8NPlXQAvDNUPJL7YSFouuFFrV_kxk7ayS7nB0nLgog4jARiKAOQPVh3RV31iWutXBf4rTseOEfmw8RGS1soKoio124xbxWaJiNVWw2a5RIM8XTSjfsXY2H_KvEdk4dawKma5UlOgsZborgu2XbKSxPOrLkEinoTz0Qpw2sLQM4xbjMFsI0ysIGxjyPxTiQpq6z2qDtw7kDLA0k8Uf2awxl3KyXzmF6LkCsjCVt3tWbx-dDySdes_Jq-FfsS_pep7G0iXEM7MkEoD-xjcutwizBBWLuMxdElLFy3]--></g></svg>