<svg xmlns="http://www.w3.org/2000/svg" xmlns:xlink="http://www.w3.org/1999/xlink" contentStyleType="text/css" data-diagram-type="STATE" height="700px" preserveAspectRatio="none" style="width:447px;height:700px;background:#FFFFFF;" version="1.1" viewBox="0 0 447 700" width="447px" zoomAndPan="magnify"><defs/><g><path d="M19.5,7 L421.5,7 A12.5,12.5 0 0 1 434,19.5 L434,33.2969 L7,33.2969 L7,19.5 A12.5,12.5 0 0 1 19.5,7" fill="#F1F1F1"/><rect fill="none" height="542.2969" rx="12.5" ry="12.5" style="stroke:#181818;stroke-width:0.5;" width="427" x="7" y="7"/><line style="stroke:#181818;stroke-width:0.5;" x1="7" x2="434" y1="33.2969" y2="33.2969"/><text fill="#000000" font-family="sans-serif" font-size="14" lengthAdjust="spacing" textLength="159.7832" x="140.6084" y="24.9951">verEspaciosCercanos()</text><g id="verEspaciosCercanos.SolicitandoEspaciosCercanos"><rect fill="#F1F1F1" height="50" rx="12.5" ry="12.5" style="stroke:#181818;stroke-width:0.5;" width="50" x="110" y="135.2969"/><line style="stroke:#181818;stroke-width:0.5;" x1="110" x2="160" y1="161.5938" y2="161.5938"/><text fill="#000000" font-family="sans-serif" font-size="14" lengthAdjust="spacing" textLength="4.4502" x="132.7749" y="153.292">&#160;</text></g><g id="verEspaciosCercanos.ConsultandoEspaicosCercanos"><rect fill="#F1F1F1" height="50" rx="12.5" ry="12.5" style="stroke:#181818;stroke-width:0.5;" width="107.6641" x="81" y="271.2969"/><line style="stroke:#181818;stroke-width:0.5;" x1="81" x2="188.6641" y1="297.5938" y2="297.5938"/><text fill="#000000" font-family="sans-serif" font-size="14" lengthAdjust="spacing" textLength="87.6641" x="91" y="289.292">Consultando</text></g><g class="entity" data-entity="c" data-uid="ent0005" id="entity_c"><polygon fill="#F1F1F1" points="135,422.2969,147,434.2969,135,446.2969,123,434.2969,135,422.2969" style="stroke:#181818;stroke-width:0.5;"/></g><ellipse cx="135" cy="54.2969" fill="#222222" rx="10" ry="10" style="stroke:#222222;stroke-width:1;"/><ellipse cx="135" cy="528.2969" fill="none" rx="11" ry="11" style="stroke:#222222;stroke-width:1;"/><ellipse cx="135" cy="528.2969" fill="#222222" rx="6" ry="6" style="stroke:#222222;stroke-width:1;"/><!--link *start*verEspaciosCercanos to SolicitandoEspaciosCercanos--><g class="link" data-entity-1=".start.verEspaciosCercanos" data-entity-2="SolicitandoEspaciosCercanos" data-source-line="9" data-uid="lnk3" id="link_.start.verEspaciosCercanos_SolicitandoEspaciosCercanos"><path d="M135,64.5269 C135,80.2369 135,106.6569 135,129.1669" fill="none" id="*start*verEspaciosCercanos-to-SolicitandoEspaciosCercanos" style="stroke:#008000;stroke-width:1;"/><polygon fill="#008000" points="135,135.1669,139,126.1669,135,130.1669,131,126.1669,135,135.1669" style="stroke:#008000;stroke-width:1;"/><path d="M140,87.2969 L140,112.2969 L425,112.2969 L425,97.2969 L415,87.2969 L140,87.2969" fill="#FEFFDD" style="stroke:#181818;stroke-width:0.5;"/><path d="M415,87.2969 L415,97.2969 L425,97.2969 L415,87.2969" fill="#FEFFDD" style="stroke:#181818;stroke-width:0.5;"/><text fill="#000000" font-family="sans-serif" font-size="13" font-weight="bold" lengthAdjust="spacing" textLength="65.9839" x="146" y="104.3638">Visitante</text><text fill="#000000" font-family="sans-serif" font-size="13" lengthAdjust="spacing" textLength="194.251" x="216.1162" y="104.3638">solicita ver espacios cercanos</text></g><!--link SolicitandoEspaciosCercanos to ConsultandoEspaicosCercanos--><g class="link" data-entity-1="SolicitandoEspaciosCercanos" data-entity-2="ConsultandoEspaicosCercanos" data-source-line="14" data-uid="lnk4" id="link_SolicitandoEspaciosCercanos_ConsultandoEspaicosCercanos"><path d="M135,185.5669 C135,209.8469 135,240.9869 135,265.2069" fill="none" id="SolicitandoEspaciosCercanos-to-ConsultandoEspaicosCercanos" style="stroke:#008000;stroke-width:1;"/><polygon fill="#008000" points="135,271.2069,139,262.2069,135,266.2069,131,262.2069,135,271.2069" style="stroke:#008000;stroke-width:1;"/><path d="M140,208.2969 L140,248.2969 L343,248.2969 L343,218.2969 L333,208.2969 L140,208.2969" fill="#FEFFDD" style="stroke:#181818;stroke-width:0.5;"/><path d="M333,208.2969 L333,218.2969 L343,218.2969 L333,208.2969" fill="#FEFFDD" style="stroke:#181818;stroke-width:0.5;"/><text fill="#000000" font-family="sans-serif" font-size="13" font-weight="bold" lengthAdjust="spacing" textLength="58.9063" x="146" y="225.3638">Sistema</text><text fill="#000000" font-family="sans-serif" font-size="13" lengthAdjust="spacing" textLength="57.6685" x="209.0386" y="225.3638">presenta</text><text fill="#000000" font-family="sans-serif" font-size="13" lengthAdjust="spacing" textLength="182.5522" x="146" y="240.4966">&#8226; lista de espacios cercanos</text></g><!--link ConsultandoEspaicosCercanos to c--><g class="link" data-entity-1="ConsultandoEspaicosCercanos" data-entity-2="c" data-source-line="20" data-uid="lnk5" id="link_ConsultandoEspaicosCercanos_c"><path d="M80.95,316.6969 C50.3,327.7069 18,339.2969 18,339.2969 C18,339.2969 18,404.2969 18,404.2969 C18,404.2969 92.4159,422.7446 119.9959,429.5746" fill="none" id="ConsultandoEspaicosCercanos-to-c" style="stroke:#008000;stroke-width:1;"/><polygon fill="#008000" points="125.82,431.0169,118.0454,424.9707,120.9666,429.815,116.1224,432.7362,125.82,431.0169" style="stroke:#008000;stroke-width:1;"/><path d="M23,344.2969 L23,399.2969 L226,399.2969 L226,354.2969 L216,344.2969 L23,344.2969" fill="#FEFFDD" style="stroke:#181818;stroke-width:0.5;"/><path d="M216,344.2969 L216,354.2969 L226,354.2969 L216,344.2969" fill="#FEFFDD" style="stroke:#181818;stroke-width:0.5;"/><text fill="#000000" font-family="sans-serif" font-size="13" font-weight="bold" lengthAdjust="spacing" textLength="65.9839" x="29" y="361.3638">Visitante</text><text fill="#000000" font-family="sans-serif" font-size="13" lengthAdjust="spacing" textLength="45.7729" x="99.1162" y="361.3638">solicita</text><text fill="#000000" font-family="sans-serif" font-size="13" lengthAdjust="spacing" textLength="157.2441" x="29" y="376.4966">&#8226; continuar consultando</text><text fill="#000000" font-family="sans-serif" font-size="13" lengthAdjust="spacing" textLength="182.7998" x="29" y="391.6294">&#8226; salir de espacios cercanos</text></g><!--link c to ConsultandoEspaicosCercanos--><g class="link" data-entity-1="c" data-entity-2="ConsultandoEspaicosCercanos" data-source-line="27" data-uid="lnk6" id="link_c_ConsultandoEspaicosCercanos"><path d="M143.52,430.7269 C167.01,423.6269 231,404.2969 231,404.2969 C231,404.2969 231,339.2969 231,339.2969 C231,339.2969 216.4468,332.9321 194.6668,323.4021" fill="none" id="c-to-ConsultandoEspaicosCercanos" style="stroke:#008000;stroke-width:1;"/><polygon fill="#008000" points="189.17,320.9969,195.8118,328.2692,193.7507,323.0012,199.0187,320.9401,189.17,320.9969" style="stroke:#008000;stroke-width:1;"/><path d="M236,359.2969 L236,384.2969 L402,384.2969 L402,369.2969 L392,359.2969 L236,359.2969" fill="#FEFFDD" style="stroke:#181818;stroke-width:0.5;"/><path d="M392,359.2969 L392,369.2969 L402,369.2969 L392,359.2969" fill="#FEFFDD" style="stroke:#181818;stroke-width:0.5;"/><text fill="#000000" font-family="sans-serif" font-size="13" lengthAdjust="spacing" textLength="145.4438" x="242" y="376.3638">continuar consultando</text></g><!--link c to *end*verEspaciosCercanos--><g class="link" data-entity-1="c" data-entity-2=".end.verEspaciosCercanos" data-source-line="32" data-uid="lnk8" id="link_c_.end.verEspaciosCercanos"><path d="M135,446.5769 C135,464.6169 135,493.6969 135,511.0569" fill="none" id="c-to-*end*verEspaciosCercanos" style="stroke:#008000;stroke-width:1;"/><polygon fill="#008000" points="135,517.0569,139,508.0569,135,512.0569,131,508.0569,135,517.0569" style="stroke:#008000;stroke-width:1;"/><path d="M140,469.2969 L140,494.2969 L331,494.2969 L331,479.2969 L321,469.2969 L140,469.2969" fill="#FEFFDD" style="stroke:#181818;stroke-width:0.5;"/><path d="M321,469.2969 L321,479.2969 L331,479.2969 L321,469.2969" fill="#FEFFDD" style="stroke:#181818;stroke-width:0.5;"/><text fill="#000000" font-family="sans-serif" font-size="13" lengthAdjust="spacing" textLength="170.9995" x="146" y="486.3638">salir de espacios cercanos</text></g><g id="Explorando"><rect fill="#F1F1F1" height="50" rx="12.5" ry="12.5" style="stroke:#181818;stroke-width:0.5;" width="99.1328" x="171" y="644"/><line style="stroke:#181818;stroke-width:0.5;" x1="171" x2="270.1328" y1="670.2969" y2="670.2969"/><text fill="#000000" font-family="sans-serif" font-size="14" lengthAdjust="spacing" textLength="79.1328" x="181" y="661.9951">Explorando</text></g><!--link verEspaciosCercanos to Explorando--><g class="link" data-entity-1="verEspaciosCercanos" data-entity-2="Explorando" data-source-line="38" data-uid="lnk10" id="link_verEspaciosCercanos_Explorando"><path d="M220.5,549.17 C220.5,588.07 220.5,616.18 220.5,637.76" fill="none" id="verEspaciosCercanos-to-Explorando" style="stroke:#008000;stroke-width:1;"/><polygon fill="#008000" points="220.5,643.76,224.5,634.76,220.5,638.76,216.5,634.76,220.5,643.76" style="stroke:#008000;stroke-width:1;"/><path d="M225.5,584 L225.5,609 L295.5,609 L295.5,594 L285.5,584 L225.5,584" fill="#FEFFDD" style="stroke:#181818;stroke-width:0.5;"/><path d="M285.5,584 L285.5,594 L295.5,594 L285.5,584" fill="#FEFFDD" style="stroke:#181818;stroke-width:0.5;"/><text fill="#000000" font-family="sans-serif" font-size="13" lengthAdjust="spacing" textLength="49.6768" x="231.5" y="601.0669">regresa</text></g><!--SRC=[fPD1QiCm44NtEiMGRjf2w0MCDo4d27GJifZ8GokYZ8n62GsbqBFqQ3r99JbndQ8w3PL1MDBy_vy7MJQ6M_Iu1MkOmg4bQ9qzf8LI4Z0GxCdFfKLjdCp8QsGdW0AJmlxjtGHUbO8uEkqaFh5suQpH9Y0txgTaM3npB3kRox9ii4uoeuio3LMbdvtHLDTTzl9-1TFbpPCdujMq7ek7B60NVHod7cpoHhMk7uqaIQ3gOLs372rIDu2E9g27DCHDPnI7wgUnx27ZfMyj8IwC1DfY1cmz2N70VFRv_X4BOtkWeGkqtwGZ16Ua-igMzKJQSJ2yGv_UJb7zgQ0r_XfU_R_-_KxJHnLYujKgs_qL_qsfqWyrp9Y_jDRvZ7CMuocM2AgJrnS0]--></g></svg>