<svg xmlns="http://www.w3.org/2000/svg" xmlns:xlink="http://www.w3.org/1999/xlink" contentStyleType="text/css" data-diagram-type="STATE" height="700px" preserveAspectRatio="none" style="width:448px;height:700px;background:#FFFFFF;" version="1.1" viewBox="0 0 448 700" width="448px" zoomAndPan="magnify"><defs/><g><path d="M19.5,7 L422.43,7 A12.5,12.5 0 0 1 434.93,19.5 L434.93,33.2969 L7,33.2969 L7,19.5 A12.5,12.5 0 0 1 19.5,7" fill="#F1F1F1"/><rect fill="none" height="542.2969" rx="12.5" ry="12.5" style="stroke:#181818;stroke-width:0.5;" width="427.93" x="7" y="7"/><line style="stroke:#181818;stroke-width:0.5;" x1="7" x2="434.93" y1="33.2969" y2="33.2969"/><text fill="#000000" font-family="sans-serif" font-size="14" lengthAdjust="spacing" textLength="159.7832" x="141.0734" y="24.9951">verEspaciosCercanos()</text><g id="verEspaciosCercanos.SolicitandoEspaciosCercanos"><rect fill="#F1F1F1" height="50" rx="12.5" ry="12.5" style="stroke:#181818;stroke-width:0.5;" width="50" x="110.93" y="135.2969"/><line style="stroke:#181818;stroke-width:0.5;" x1="110.93" x2="160.93" y1="161.5938" y2="161.5938"/><text fill="#000000" font-family="sans-serif" font-size="14" lengthAdjust="spacing" textLength="4.4502" x="133.7049" y="153.292">&#160;</text></g><g id="verEspaciosCercanos.ConsultandoEspaciosCercanos"><rect fill="#F1F1F1" height="50" rx="12.5" ry="12.5" style="stroke:#181818;stroke-width:0.5;" width="233.8691" x="19" y="271.2969"/><line style="stroke:#181818;stroke-width:0.5;" x1="19" x2="252.8691" y1="297.5938" y2="297.5938"/><text fill="#000000" font-family="sans-serif" font-size="14" lengthAdjust="spacing" textLength="213.8691" x="29" y="289.292">ConsultandoEspaciosCercanos</text></g><g class="entity" data-entity="c" data-uid="ent0005" id="entity_c"><polygon fill="#F1F1F1" points="135.93,422.2969,147.93,434.2969,135.93,446.2969,123.93,434.2969,135.93,422.2969" style="stroke:#181818;stroke-width:0.5;"/></g><ellipse cx="135.93" cy="54.2969" fill="#222222" rx="10" ry="10" style="stroke:#222222;stroke-width:1;"/><ellipse cx="135.93" cy="528.2969" fill="none" rx="11" ry="11" style="stroke:#222222;stroke-width:1;"/><ellipse cx="135.93" cy="528.2969" fill="#222222" rx="6" ry="6" style="stroke:#222222;stroke-width:1;"/><!--link *start*verEspaciosCercanos to SolicitandoEspaciosCercanos--><g class="link" data-entity-1=".start.verEspaciosCercanos" data-entity-2="SolicitandoEspaciosCercanos" data-source-line="8" data-uid="lnk3" id="link_.start.verEspaciosCercanos_SolicitandoEspaciosCercanos"><path d="M135.93,64.5269 C135.93,80.2369 135.93,106.6569 135.93,129.1669" fill="none" id="*start*verEspaciosCercanos-to-SolicitandoEspaciosCercanos" style="stroke:#008000;stroke-width:1;"/><polygon fill="#008000" points="135.93,135.1669,139.93,126.1669,135.93,130.1669,131.93,126.1669,135.93,135.1669" style="stroke:#008000;stroke-width:1;"/><path d="M140.93,87.2969 L140.93,112.2969 L425.93,112.2969 L425.93,97.2969 L415.93,87.2969 L140.93,87.2969" fill="#FEFFDD" style="stroke:#181818;stroke-width:0.5;"/><path d="M415.93,87.2969 L415.93,97.2969 L425.93,97.2969 L415.93,87.2969" fill="#FEFFDD" style="stroke:#181818;stroke-width:0.5;"/><text fill="#000000" font-family="sans-serif" font-size="13" font-weight="bold" lengthAdjust="spacing" textLength="65.9839" x="146.93" y="104.3638">Visitante</text><text fill="#000000" font-family="sans-serif" font-size="13" lengthAdjust="spacing" textLength="194.251" x="217.0462" y="104.3638">solicita ver espacios cercanos</text></g><!--link SolicitandoEspaciosCercanos to ConsultandoEspaciosCercanos--><g class="link" data-entity-1="SolicitandoEspaciosCercanos" data-entity-2="ConsultandoEspaciosCercanos" data-source-line="13" data-uid="lnk4" id="link_SolicitandoEspaciosCercanos_ConsultandoEspaciosCercanos"><path d="M135.93,185.5669 C135.93,209.8469 135.93,240.9869 135.93,265.2069" fill="none" id="SolicitandoEspaciosCercanos-to-ConsultandoEspaciosCercanos" style="stroke:#008000;stroke-width:1;"/><polygon fill="#008000" points="135.93,271.2069,139.93,262.2069,135.93,266.2069,131.93,262.2069,135.93,271.2069" style="stroke:#008000;stroke-width:1;"/><path d="M140.93,208.2969 L140.93,248.2969 L343.93,248.2969 L343.93,218.2969 L333.93,208.2969 L140.93,208.2969" fill="#FEFFDD" style="stroke:#181818;stroke-width:0.5;"/><path d="M333.93,208.2969 L333.93,218.2969 L343.93,218.2969 L333.93,208.2969" fill="#FEFFDD" style="stroke:#181818;stroke-width:0.5;"/><text fill="#000000" font-family="sans-serif" font-size="13" font-weight="bold" lengthAdjust="spacing" textLength="58.9063" x="146.93" y="225.3638">Sistema</text><text fill="#000000" font-family="sans-serif" font-size="13" lengthAdjust="spacing" textLength="57.6685" x="209.9686" y="225.3638">presenta</text><text fill="#000000" font-family="sans-serif" font-size="13" lengthAdjust="spacing" textLength="182.5522" x="146.93" y="240.4966">&#8226; lista de espacios cercanos</text></g><!--link ConsultandoEspaciosCercanos to c--><g class="link" data-entity-1="ConsultandoEspaciosCercanos" data-entity-2="c" data-source-line="19" data-uid="lnk5" id="link_ConsultandoEspaciosCercanos_c"><path d="M67.87,321.7269 C42.13,330.9669 18.93,339.2969 18.93,339.2969 C18.93,339.2969 18.93,404.2969 18.93,404.2969 C18.93,404.2969 93.3459,422.7446 120.9259,429.5746" fill="none" id="ConsultandoEspaciosCercanos-to-c" style="stroke:#008000;stroke-width:1;"/><polygon fill="#008000" points="126.75,431.0169,118.9754,424.9707,121.8966,429.815,117.0524,432.7362,126.75,431.0169" style="stroke:#008000;stroke-width:1;"/><path d="M23.93,344.2969 L23.93,399.2969 L226.93,399.2969 L226.93,354.2969 L216.93,344.2969 L23.93,344.2969" fill="#FEFFDD" style="stroke:#181818;stroke-width:0.5;"/><path d="M216.93,344.2969 L216.93,354.2969 L226.93,354.2969 L216.93,344.2969" fill="#FEFFDD" style="stroke:#181818;stroke-width:0.5;"/><text fill="#000000" font-family="sans-serif" font-size="13" font-weight="bold" lengthAdjust="spacing" textLength="65.9839" x="29.93" y="361.3638">Visitante</text><text fill="#000000" font-family="sans-serif" font-size="13" lengthAdjust="spacing" textLength="45.7729" x="100.0462" y="361.3638">solicita</text><text fill="#000000" font-family="sans-serif" font-size="13" lengthAdjust="spacing" textLength="157.2441" x="29.93" y="376.4966">&#8226; continuar consultando</text><text fill="#000000" font-family="sans-serif" font-size="13" lengthAdjust="spacing" textLength="182.7998" x="29.93" y="391.6294">&#8226; salir de espacios cercanos</text></g><!--link c to ConsultandoEspaciosCercanos--><g class="link" data-entity-1="c" data-entity-2="ConsultandoEspaciosCercanos" data-source-line="26" data-uid="lnk6" id="link_c_ConsultandoEspaciosCercanos"><path d="M144.79,430.6169 C168.55,423.4369 231.93,404.2969 231.93,404.2969 C231.93,404.2969 231.93,339.2969 231.93,339.2969 C231.93,339.2969 218.3869,333.3718 197.2669,324.1318" fill="none" id="c-to-ConsultandoEspaciosCercanos" style="stroke:#008000;stroke-width:1;"/><polygon fill="#008000" points="191.77,321.7269,198.4121,328.9989,196.3508,323.731,201.6187,321.6696,191.77,321.7269" style="stroke:#008000;stroke-width:1;"/><path d="M236.93,359.2969 L236.93,384.2969 L402.93,384.2969 L402.93,369.2969 L392.93,359.2969 L236.93,359.2969" fill="#FEFFDD" style="stroke:#181818;stroke-width:0.5;"/><path d="M392.93,359.2969 L392.93,369.2969 L402.93,369.2969 L392.93,359.2969" fill="#FEFFDD" style="stroke:#181818;stroke-width:0.5;"/><text fill="#000000" font-family="sans-serif" font-size="13" lengthAdjust="spacing" textLength="145.4438" x="242.93" y="376.3638">continuar consultando</text></g><!--link c to *end*verEspaciosCercanos--><g class="link" data-entity-1="c" data-entity-2=".end.verEspaciosCercanos" data-source-line="31" data-uid="lnk8" id="link_c_.end.verEspaciosCercanos"><path d="M135.93,446.9469 C135.93,465.0369 135.93,493.5669 135.93,510.8769" fill="none" id="c-to-*end*verEspaciosCercanos" style="stroke:#008000;stroke-width:1;"/><polygon fill="#008000" points="135.93,516.8769,139.93,507.8769,135.93,511.8769,131.93,507.8769,135.93,516.8769" style="stroke:#008000;stroke-width:1;"/><path d="M140.93,469.2969 L140.93,494.2969 L331.93,494.2969 L331.93,479.2969 L321.93,469.2969 L140.93,469.2969" fill="#FEFFDD" style="stroke:#181818;stroke-width:0.5;"/><path d="M321.93,469.2969 L321.93,479.2969 L331.93,479.2969 L321.93,469.2969" fill="#FEFFDD" style="stroke:#181818;stroke-width:0.5;"/><text fill="#000000" font-family="sans-serif" font-size="13" lengthAdjust="spacing" textLength="170.9995" x="146.93" y="486.3638">salir de espacios cercanos</text></g><g id="ESPACIO_ABIERTO"><rect fill="#F1F1F1" height="50" rx="12.5" ry="12.5" style="stroke:#181818;stroke-width:0.5;" width="149.1309" x="146.4" y="644.3"/><line style="stroke:#181818;stroke-width:0.5;" x1="146.4" x2="295.5309" y1="670.5969" y2="670.5969"/><text fill="#000000" font-family="sans-serif" font-size="14" lengthAdjust="spacing" textLength="129.1309" x="156.4" y="662.2951">ESPACIO_ABIERTO</text></g><!--link verEspaciosCercanos to ESPACIO_ABIERTO--><g class="link" data-entity-1="verEspaciosCercanos" data-entity-2="ESPACIO_ABIERTO" data-source-line="37" data-uid="lnk10" id="link_verEspaciosCercanos_ESPACIO_ABIERTO"><path d="M220.96,549.69 C220.96,588.53 220.96,616.57 220.96,638.11" fill="none" id="verEspaciosCercanos-to-ESPACIO_ABIERTO" style="stroke:#008000;stroke-width:1;"/><polygon fill="#008000" points="220.96,644.11,224.96,635.11,220.96,639.11,216.96,635.11,220.96,644.11" style="stroke:#008000;stroke-width:1;"/><path d="M225.96,584.3 L225.96,609.3 L295.96,609.3 L295.96,594.3 L285.96,584.3 L225.96,584.3" fill="#FEFFDD" style="stroke:#181818;stroke-width:0.5;"/><path d="M285.96,584.3 L285.96,594.3 L295.96,594.3 L285.96,584.3" fill="#FEFFDD" style="stroke:#181818;stroke-width:0.5;"/><text fill="#000000" font-family="sans-serif" font-size="13" lengthAdjust="spacing" textLength="49.6768" x="231.96" y="601.3669">regresa</text></g><!--SRC=[fPF1IiD048Rl-nH3lAXGV84Gg267dYf6l9GYqyrWbwQpOMSh515y5X_D9t6JjZ6Lc5hSXP2TdVd_RuP4LeOhTBY6qZ3vRKLGsN9R7vGIZvxWXLmc5MfZ9IMdaQq02aGzySkh25uLXBKhZS8EgRajZJOUkR0_Aph9gMNPbAUoDCInNbgZAKbK4vzTps4qktXsH3mV9KDkq1Im3JgMwuvNJI1U98z6wX9FySqY0TbBrBq3xKL0Tsc8YvrGMAfz37bt6K_rseUO6_6qnWQmSYJ47fkxp_UFa1Z60mMTeFqc7I0u8jLdZgmbqfQzuGsw-krWrTuAbiQTmwl_Dx_VQLgh7flmQVNB_HN_JQc-twVhaULtutGoVHhVJhBxXwawyd8KyWJLGV0B]--></g></svg>