<svg xmlns="http://www.w3.org/2000/svg" xmlns:xlink="http://www.w3.org/1999/xlink" contentStyleType="text/css" data-diagram-type="STATE" height="712px" preserveAspectRatio="none" style="width:371px;height:712px;background:#FFFFFF;" version="1.1" viewBox="0 0 371 712" width="371px" zoomAndPan="magnify"><defs/><g><path d="M19.5,7 L331.48,7 A12.5,12.5 0 0 1 343.98,19.5 L343.98,33.2969 L7,33.2969 L7,19.5 A12.5,12.5 0 0 1 19.5,7" fill="#F1F1F1"/><rect fill="none" height="572.2969" rx="12.5" ry="12.5" style="stroke:#181818;stroke-width:0.5;" width="336.98" x="7" y="7"/><line style="stroke:#181818;stroke-width:0.5;" x1="7" x2="343.98" y1="33.2969" y2="33.2969"/><text fill="#000000" font-family="sans-serif" font-size="14" lengthAdjust="spacing" textLength="121.707" x="114.6365" y="24.9951">cambiarEspacio()</text><g id="cambiarEspacio.SolicitandoCambio"><rect fill="#F1F1F1" height="50" rx="12.5" ry="12.5" style="stroke:#181818;stroke-width:0.5;" width="50" x="88.98" y="150.2969"/><line style="stroke:#181818;stroke-width:0.5;" x1="88.98" x2="138.98" y1="176.5938" y2="176.5938"/><text fill="#000000" font-family="sans-serif" font-size="14" lengthAdjust="spacing" textLength="4.4502" x="111.7549" y="168.292">&#160;</text></g><g id="cambiarEspacio.SeleccionandoUbicacion"><rect fill="#F1F1F1" height="50" rx="12.5" ry="12.5" style="stroke:#181818;stroke-width:0.5;" width="189.9551" x="19" y="301.2969"/><line style="stroke:#181818;stroke-width:0.5;" x1="19" x2="208.9551" y1="327.5938" y2="327.5938"/><text fill="#000000" font-family="sans-serif" font-size="14" lengthAdjust="spacing" textLength="169.9551" x="29" y="319.292">SeleccionandoUbicacion</text></g><g class="entity" data-entity="c" data-uid="ent0005" id="entity_c"><polygon fill="#F1F1F1" points="113.98,452.2969,125.98,464.2969,113.98,476.2969,101.98,464.2969,113.98,452.2969" style="stroke:#181818;stroke-width:0.5;"/></g><ellipse cx="113.98" cy="54.2969" fill="#222222" rx="10" ry="10" style="stroke:#222222;stroke-width:1;"/><ellipse cx="113.98" cy="558.2969" fill="none" rx="11" ry="11" style="stroke:#222222;stroke-width:1;"/><ellipse cx="113.98" cy="558.2969" fill="#222222" rx="6" ry="6" style="stroke:#222222;stroke-width:1;"/><!--link *start*cambiarEspacio to SolicitandoCambio--><g class="link" data-entity-1=".start.cambiarEspacio" data-entity-2="SolicitandoCambio" data-source-line="8" data-uid="lnk3" id="link_.start.cambiarEspacio_SolicitandoCambio"><path d="M113.98,64.6369 C113.98,82.8269 113.98,117.5369 113.98,143.9069" fill="none" id="*start*cambiarEspacio-to-SolicitandoCambio" style="stroke:#008000;stroke-width:1;"/><polygon fill="#008000" points="113.98,149.9069,117.98,140.9069,113.98,144.9069,109.98,140.9069,113.98,149.9069" style="stroke:#008000;stroke-width:1;"/><path d="M118.98,87.2969 L118.98,127.2969 L334.98,127.2969 L334.98,97.2969 L324.98,87.2969 L118.98,87.2969" fill="#FEFFDD" style="stroke:#181818;stroke-width:0.5;"/><path d="M324.98,87.2969 L324.98,97.2969 L334.98,97.2969 L324.98,87.2969" fill="#FEFFDD" style="stroke:#181818;stroke-width:0.5;"/><text fill="#000000" font-family="sans-serif" font-size="13" font-weight="bold" lengthAdjust="spacing" textLength="65.9839" x="124.98" y="104.3638">Visitante</text><text fill="#000000" font-family="sans-serif" font-size="13" lengthAdjust="spacing" textLength="102.8574" x="195.0962" y="104.3638">solicita cambiar</text><text fill="#000000" font-family="sans-serif" font-size="13" lengthAdjust="spacing" textLength="125.4741" x="195.2295" y="119.4966">su ubicaci&#243;n actual</text></g><!--link SolicitandoCambio to SeleccionandoUbicacion--><g class="link" data-entity-1="SolicitandoCambio" data-entity-2="SeleccionandoUbicacion" data-source-line="14" data-uid="lnk4" id="link_SolicitandoCambio_SeleccionandoUbicacion"><path d="M113.98,200.5669 C113.98,228.2769 113.98,267.3369 113.98,295.0369" fill="none" id="SolicitandoCambio-to-SeleccionandoUbicacion" style="stroke:#008000;stroke-width:1;"/><polygon fill="#008000" points="113.98,301.0369,117.98,292.0369,113.98,296.0369,109.98,292.0369,113.98,301.0369" style="stroke:#008000;stroke-width:1;"/><path d="M118.98,223.2969 L118.98,278.2969 L297.98,278.2969 L297.98,233.2969 L287.98,223.2969 L118.98,223.2969" fill="#FEFFDD" style="stroke:#181818;stroke-width:0.5;"/><path d="M287.98,223.2969 L287.98,233.2969 L297.98,233.2969 L287.98,223.2969" fill="#FEFFDD" style="stroke:#181818;stroke-width:0.5;"/><text fill="#000000" font-family="sans-serif" font-size="13" font-weight="bold" lengthAdjust="spacing" textLength="58.9063" x="124.98" y="240.3638">Sistema</text><text fill="#000000" font-family="sans-serif" font-size="13" lengthAdjust="spacing" textLength="57.6685" x="188.0186" y="240.3638">presenta</text><text fill="#000000" font-family="sans-serif" font-size="13" lengthAdjust="spacing" textLength="158.6914" x="124.98" y="255.4966">&#8226; Opciones de ubicaci&#243;n</text><text fill="#000000" font-family="sans-serif" font-size="13" lengthAdjust="spacing" textLength="121.0942" x="124.98" y="270.6294">&#8226; Mapa interactivo</text></g><!--link SeleccionandoUbicacion to c--><g class="link" data-entity-1="SeleccionandoUbicacion" data-entity-2="c" data-source-line="21" data-uid="lnk5" id="link_SeleccionandoUbicacion_c"><path d="M113.98,351.6069 C113.98,381.1069 113.98,423.6069 113.98,445.6969" fill="none" id="SeleccionandoUbicacion-to-c" style="stroke:#008000;stroke-width:1;"/><polygon fill="#008000" points="113.98,451.6969,117.98,442.6969,113.98,446.6969,109.98,442.6969,113.98,451.6969" style="stroke:#008000;stroke-width:1;"/><path d="M118.98,374.2969 L118.98,429.2969 L324.98,429.2969 L324.98,384.2969 L314.98,374.2969 L118.98,374.2969" fill="#FEFFDD" style="stroke:#181818;stroke-width:0.5;"/><path d="M314.98,374.2969 L314.98,384.2969 L324.98,384.2969 L314.98,374.2969" fill="#FEFFDD" style="stroke:#181818;stroke-width:0.5;"/><text fill="#000000" font-family="sans-serif" font-size="13" font-weight="bold" lengthAdjust="spacing" textLength="65.9839" x="124.98" y="391.3638">Visitante</text><text fill="#000000" font-family="sans-serif" font-size="13" lengthAdjust="spacing" textLength="45.7729" x="195.0962" y="391.3638">solicita</text><text fill="#000000" font-family="sans-serif" font-size="13" lengthAdjust="spacing" textLength="185.2183" x="124.98" y="406.4966">&#8226; confirmar nueva ubicaci&#243;n</text><text fill="#000000" font-family="sans-serif" font-size="13" lengthAdjust="spacing" textLength="118.9487" x="124.98" y="421.6294">&#8226; cancelar cambio</text></g><!--link c to *end*cambiarEspacio--><g class="link" data-entity-1="c" data-entity-2=".end.cambiarEspacio" data-source-line="28" data-uid="lnk7" id="link_c_.end.cambiarEspacio"><path d="M113.98,476.9469 C113.98,495.0369 113.98,523.5669 113.98,540.8769" fill="none" id="c-to-*end*cambiarEspacio" style="stroke:#008000;stroke-width:1;"/><polygon fill="#008000" points="113.98,546.8769,117.98,537.8769,113.98,541.8769,109.98,537.8769,113.98,546.8769" style="stroke:#008000;stroke-width:1;"/><path d="M118.98,499.2969 L118.98,524.2969 L269.98,524.2969 L269.98,509.2969 L259.98,499.2969 L118.98,499.2969" fill="#FEFFDD" style="stroke:#181818;stroke-width:0.5;"/><path d="M259.98,499.2969 L259.98,509.2969 L269.98,509.2969 L259.98,499.2969" fill="#FEFFDD" style="stroke:#181818;stroke-width:0.5;"/><text fill="#000000" font-family="sans-serif" font-size="13" lengthAdjust="spacing" textLength="130.9141" x="124.98" y="516.3638">confirmar / cancelar</text></g><g id="ESPACIO_ABIERTO"><rect fill="#F1F1F1" height="50" rx="12.5" ry="12.5" style="stroke:#181818;stroke-width:0.5;" width="149.1309" x="100.92" y="656.3"/><line style="stroke:#181818;stroke-width:0.5;" x1="100.92" x2="250.0509" y1="682.5969" y2="682.5969"/><text fill="#000000" font-family="sans-serif" font-size="14" lengthAdjust="spacing" textLength="129.1309" x="110.92" y="674.2951">ESPACIO_ABIERTO</text></g><!--link ESPACIO_ABIERTO to cambiarEspacio--><g class="link" data-entity-1="ESPACIO_ABIERTO" data-entity-2="cambiarEspacio" data-source-line="35" data-uid="lnk9" id="link_ESPACIO_ABIERTO_cambiarEspacio"><path d="M200.87,655.83 C215.69,641.54 231.49,626.3 231.49,626.3 C231.49,626.3 231.49,609.3 231.49,609.3 C231.49,609.3 230.5301,603.8974 227.2701,585.5574" fill="none" id="ESPACIO_ABIERTO-to-cambiarEspacio" style="stroke:#181818;stroke-width:1;"/><polygon fill="#181818" points="226.22,579.65,223.8568,589.2111,227.0951,584.5728,231.7334,587.8111,226.22,579.65" style="stroke:#181818;stroke-width:1;"/><text fill="#000000" font-family="sans-serif" font-size="13" lengthAdjust="spacing" textLength="131.022" x="232.49" y="622.3669">cambiarDeEspacio()</text></g><!--link cambiarEspacio to ESPACIO_ABIERTO--><g class="link" data-entity-1="cambiarEspacio" data-entity-2="ESPACIO_ABIERTO" data-source-line="36" data-uid="lnk10" id="link_cambiarEspacio_ESPACIO_ABIERTO"><path d="M83.99,579.65 C78.12,597.99 74.49,609.3 74.49,609.3 C74.49,609.3 74.49,626.3 74.49,626.3 C74.49,626.3 97.6987,638.7112 124.4287,653.0012" fill="none" id="cambiarEspacio-to-ESPACIO_ABIERTO" style="stroke:#181818;stroke-width:1;"/><polygon fill="#181818" points="129.72,655.83,123.6689,648.0593,125.3106,653.4727,119.8972,655.1144,129.72,655.83" style="stroke:#181818;stroke-width:1;"/><text fill="#000000" font-family="sans-serif" font-size="13" lengthAdjust="spacing" textLength="147.9639" x="75.49" y="622.3669">ubicacionConfirmada()</text></g><!--SRC=[bPF1IWCn48RlUOgX7gn2wRsKXRNjeQ2ks5R4KcIQZXgwcon9MYWYUFBiC_WAFe9lqYSnsMsttMuzE0iBcVp_v9iXCNCXKzIOG2masLLAaAfuvHUC6OkMW6Co5QXx9aKk5A21MZbLFwl1AmCNkQ7cFgSQg5XmOL7ELCVhrPvaG35nPvL-TpGLtDUHUm8ExJP_KO9J4B0iFpwVG6Dyygo9vAGHLCj39fFAkPNqxSopH7iQt0dZXPRQpMa0PcFSDfRxAc4MiCZ1Vhub8BSBZ3CboLb-YWjM_Aeu9TY_-pq6F136Ke8PRgh9aBIOxQtVlo1AlPSCp6YFiDY-mXH1k6QrOnPBLMBUuprAL8Bc_vremS2LV18wSREL2rhYCKoEabFi57ntDwgKFdW9obs3urIxCvj5yNBLDyPEOVtn2PteUjYx7ux2o_v3s8sSLMlY5XCtPsgntk0cxFIZn_2YtxiTHj3mioW_WjOsqQNY4R03ZRSTbcfjHw5aPyCxm_hPBm00]--></g></svg>