<svg xmlns="http://www.w3.org/2000/svg" xmlns:xlink="http://www.w3.org/1999/xlink" contentStyleType="text/css" data-diagram-type="STATE" height="745px" preserveAspectRatio="none" style="width:518px;height:745px;background:#FFFFFF;" version="1.1" viewBox="0 0 518 745" width="518px" zoomAndPan="magnify"><defs/><g><path d="M19.5,7 L492.15,7 A12.5,12.5 0 0 1 504.65,19.5 L504.65,33.2969 L7,33.2969 L7,19.5 A12.5,12.5 0 0 1 19.5,7" fill="#F1F1F1"/><rect fill="none" height="587.2969" rx="12.5" ry="12.5" style="stroke:#181818;stroke-width:0.5;" width="497.65" x="7" y="7"/><line style="stroke:#181818;stroke-width:0.5;" x1="7" x2="504.65" y1="33.2969" y2="33.2969"/><text fill="#000000" font-family="sans-serif" font-size="14" lengthAdjust="spacing" textLength="111.7676" x="199.9412" y="24.9951">buscarEspacio()</text><g id="buscarUbicacion.SolicitandoBusqueda"><rect fill="#F1F1F1" height="50" rx="12.5" ry="12.5" style="stroke:#181818;stroke-width:0.5;" width="50" x="188.65" y="150.2969"/><line style="stroke:#181818;stroke-width:0.5;" x1="188.65" x2="238.65" y1="176.5938" y2="176.5938"/><text fill="#000000" font-family="sans-serif" font-size="14" lengthAdjust="spacing" textLength="4.4502" x="211.4249" y="168.292">&#160;</text></g><g id="buscarUbicacion.MostrandoResultados"><rect fill="#F1F1F1" height="50" rx="12.5" ry="12.5" style="stroke:#181818;stroke-width:0.5;" width="171.2998" x="19" y="286.2969"/><line style="stroke:#181818;stroke-width:0.5;" x1="19" x2="190.2998" y1="312.5938" y2="312.5938"/><text fill="#000000" font-family="sans-serif" font-size="14" lengthAdjust="spacing" textLength="151.2998" x="29" y="304.292">MostrandoResultados</text></g><g class="entity" data-entity="c" data-uid="ent0005" id="entity_c"><polygon fill="#F1F1F1" points="213.65,452.2969,225.65,464.2969,213.65,476.2969,201.65,464.2969,213.65,452.2969" style="stroke:#181818;stroke-width:0.5;"/></g><ellipse cx="213.65" cy="54.2969" fill="#222222" rx="10" ry="10" style="stroke:#222222;stroke-width:1;"/><ellipse cx="213.65" cy="573.2969" fill="none" rx="11" ry="11" style="stroke:#222222;stroke-width:1;"/><ellipse cx="213.65" cy="573.2969" fill="#222222" rx="6" ry="6" style="stroke:#222222;stroke-width:1;"/><!--link *start*buscarUbicacion to SolicitandoBusqueda--><g class="link" data-entity-1=".start.buscarUbicacion" data-entity-2="SolicitandoBusqueda" data-source-line="9" data-uid="lnk3" id="link_.start.buscarUbicacion_SolicitandoBusqueda"><path d="M213.65,64.6369 C213.65,82.8269 213.65,117.5369 213.65,143.9069" fill="none" id="*start*buscarUbicacion-to-SolicitandoBusqueda" style="stroke:#008000;stroke-width:1;"/><polygon fill="#008000" points="213.65,149.9069,217.65,140.9069,213.65,144.9069,209.65,140.9069,213.65,149.9069" style="stroke:#008000;stroke-width:1;"/><path d="M218.65,87.2969 L218.65,127.2969 L406.65,127.2969 L406.65,97.2969 L396.65,87.2969 L218.65,87.2969" fill="#FEFFDD" style="stroke:#181818;stroke-width:0.5;"/><path d="M396.65,87.2969 L396.65,97.2969 L406.65,97.2969 L396.65,87.2969" fill="#FEFFDD" style="stroke:#181818;stroke-width:0.5;"/><text fill="#000000" font-family="sans-serif" font-size="13" font-weight="bold" lengthAdjust="spacing" textLength="65.9839" x="224.65" y="104.3638">Visitante</text><text fill="#000000" font-family="sans-serif" font-size="13" lengthAdjust="spacing" textLength="93.6279" x="294.7662" y="104.3638">solicita buscar</text><text fill="#000000" font-family="sans-serif" font-size="13" lengthAdjust="spacing" textLength="90.7461" x="294.8995" y="119.4966">una ubicaci&#243;n</text></g><!--link SolicitandoBusqueda to MostrandoResultados--><g class="link" data-entity-1="SolicitandoBusqueda" data-entity-2="MostrandoResultados" data-source-line="15" data-uid="lnk4" id="link_SolicitandoBusqueda_MostrandoResultados"><path d="M188.29,186.2469 C156.65,198.6669 106.65,218.2969 106.65,218.2969 C106.65,218.2969 105.8998,252.8683 105.3098,280.1283" fill="none" id="SolicitandoBusqueda-to-MostrandoResultados" style="stroke:#008000;stroke-width:1;"/><polygon fill="#008000" points="105.18,286.1269,109.3738,277.2155,105.2882,281.128,101.3757,277.0424,105.18,286.1269" style="stroke:#008000;stroke-width:1;"/><path d="M111.65,223.2969 L111.65,263.2969 L303.65,263.2969 L303.65,233.2969 L293.65,223.2969 L111.65,223.2969" fill="#FEFFDD" style="stroke:#181818;stroke-width:0.5;"/><path d="M293.65,223.2969 L293.65,233.2969 L303.65,233.2969 L293.65,223.2969" fill="#FEFFDD" style="stroke:#181818;stroke-width:0.5;"/><text fill="#000000" font-family="sans-serif" font-size="13" font-weight="bold" lengthAdjust="spacing" textLength="58.9063" x="117.65" y="240.3638">Sistema</text><text fill="#000000" font-family="sans-serif" font-size="13" lengthAdjust="spacing" textLength="57.6685" x="180.6886" y="240.3638">presenta</text><text fill="#000000" font-family="sans-serif" font-size="13" lengthAdjust="spacing" textLength="171.9834" x="117.65" y="255.4966">&#8226; Resultados de b&#250;squeda</text></g><!--link MostrandoResultados to c--><g class="link" data-entity-1="MostrandoResultados" data-entity-2="c" data-source-line="21" data-uid="lnk5" id="link_MostrandoResultados_c"><path d="M104.85,336.6969 C105.14,372.2969 105.65,434.2969 105.65,434.2969 C105.65,434.2969 172.5256,452.2496 198.6456,459.2696" fill="none" id="MostrandoResultados-to-c" style="stroke:#008000;stroke-width:1;"/><polygon fill="#008000" points="204.44,460.8269,196.7866,454.628,199.6114,459.5291,194.7102,462.3539,204.44,460.8269" style="stroke:#008000;stroke-width:1;"/><path d="M110.65,359.2969 L110.65,429.2969 L303.65,429.2969 L303.65,369.2969 L293.65,359.2969 L110.65,359.2969" fill="#FEFFDD" style="stroke:#181818;stroke-width:0.5;"/><path d="M293.65,359.2969 L293.65,369.2969 L303.65,369.2969 L293.65,359.2969" fill="#FEFFDD" style="stroke:#181818;stroke-width:0.5;"/><text fill="#000000" font-family="sans-serif" font-size="13" font-weight="bold" lengthAdjust="spacing" textLength="65.9839" x="116.65" y="376.3638">Visitante</text><text fill="#000000" font-family="sans-serif" font-size="13" lengthAdjust="spacing" textLength="45.7729" x="186.7662" y="376.3638">solicita</text><text fill="#000000" font-family="sans-serif" font-size="13" lengthAdjust="spacing" textLength="151.8931" x="116.65" y="391.4966">&#8226; seleccionar ubicaci&#243;n</text><text fill="#000000" font-family="sans-serif" font-size="13" lengthAdjust="spacing" textLength="172.8403" x="116.65" y="406.6294">&#8226; realizar nueva b&#250;squeda</text><text fill="#000000" font-family="sans-serif" font-size="13" lengthAdjust="spacing" textLength="127.5942" x="116.65" y="421.7622">&#8226; salir de b&#250;squeda</text></g><!--link c to SolicitandoBusqueda--><g class="link" data-entity-1="c" data-entity-2="SolicitandoBusqueda" data-source-line="29" data-uid="lnk6" id="link_c_SolicitandoBusqueda"><path d="M222.42,460.6169 C245.94,453.4369 308.65,434.2969 308.65,434.2969 C308.65,434.2969 308.65,218.2969 308.65,218.2969 C308.65,218.2969 272.7377,202.4228 244.5977,189.9828" fill="none" id="c-to-SolicitandoBusqueda" style="stroke:#008000;stroke-width:1;"/><polygon fill="#008000" points="239.11,187.5569,245.7242,194.8543,243.6831,189.5785,248.9588,187.5374,239.11,187.5569" style="stroke:#008000;stroke-width:1;"/><path d="M313.65,298.7969 L313.65,323.7969 L495.65,323.7969 L495.65,308.7969 L485.65,298.7969 L313.65,298.7969" fill="#FEFFDD" style="stroke:#181818;stroke-width:0.5;"/><path d="M485.65,298.7969 L485.65,308.7969 L495.65,308.7969 L485.65,298.7969" fill="#FEFFDD" style="stroke:#181818;stroke-width:0.5;"/><text fill="#000000" font-family="sans-serif" font-size="13" lengthAdjust="spacing" textLength="161.04" x="319.65" y="315.8638">realizar nueva b&#250;squeda</text></g><!--link c to *end*buscarUbicacion--><g class="link" data-entity-1="c" data-entity-2=".end.buscarUbicacion" data-source-line="34" data-uid="lnk8" id="link_c_.end.buscarUbicacion"><path d="M213.65,476.7469 C213.65,497.6669 213.65,535.7469 213.65,555.8769" fill="none" id="c-to-*end*buscarUbicacion" style="stroke:#008000;stroke-width:1;"/><polygon fill="#008000" points="213.65,561.8769,217.65,552.8769,213.65,556.8769,209.65,552.8769,213.65,561.8769" style="stroke:#008000;stroke-width:1;"/><path d="M218.65,499.2969 L218.65,539.2969 L387.65,539.2969 L387.65,509.2969 L377.65,499.2969 L218.65,499.2969" fill="#FEFFDD" style="stroke:#181818;stroke-width:0.5;"/><path d="M377.65,499.2969 L377.65,509.2969 L387.65,509.2969 L377.65,499.2969" fill="#FEFFDD" style="stroke:#181818;stroke-width:0.5;"/><text fill="#000000" font-family="sans-serif" font-size="13" lengthAdjust="spacing" textLength="148.605" x="224.65" y="516.3638">seleccionar ubicaci&#243;n /</text><text fill="#000000" font-family="sans-serif" font-size="13" lengthAdjust="spacing" textLength="115.7939" x="224.65" y="531.4966">salir de b&#250;squeda</text></g><g id="RECORRIDO_ABIERTO"><rect fill="#F1F1F1" height="50" rx="12.5" ry="12.5" style="stroke:#181818;stroke-width:0.5;" width="173.207" x="169.22" y="689.3"/><line style="stroke:#181818;stroke-width:0.5;" x1="169.22" x2="342.427" y1="715.5969" y2="715.5969"/><text fill="#000000" font-family="sans-serif" font-size="14" lengthAdjust="spacing" textLength="153.207" x="179.22" y="707.2951">RECORRIDO_ABIERTO</text></g><!--link buscarUbicacion to RECORRIDO_ABIERTO--><g class="link" data-entity-1="buscarUbicacion" data-entity-2="RECORRIDO_ABIERTO" data-source-line="41" data-uid="lnk10" id="link_buscarUbicacion_RECORRIDO_ABIERTO"><path d="M255.83,594.79 C255.83,633.66 255.83,661.43 255.83,682.87" fill="none" id="buscarUbicacion-to-RECORRIDO_ABIERTO" style="stroke:#008000;stroke-width:1;"/><polygon fill="#008000" points="255.83,688.87,259.83,679.87,255.83,683.87,251.83,679.87,255.83,688.87" style="stroke:#008000;stroke-width:1;"/><path d="M260.83,629.3 L260.83,654.3 L330.83,654.3 L330.83,639.3 L320.83,629.3 L260.83,629.3" fill="#FEFFDD" style="stroke:#181818;stroke-width:0.5;"/><path d="M320.83,629.3 L320.83,639.3 L330.83,639.3 L320.83,629.3" fill="#FEFFDD" style="stroke:#181818;stroke-width:0.5;"/><text fill="#000000" font-family="sans-serif" font-size="13" lengthAdjust="spacing" textLength="49.6768" x="266.83" y="646.3669">regresa</text></g><!--SRC=[bLDBJiCm4Dtx5AEo0QIg5uWYKUYY2rGf1JPLXHnd15PJEtXif8AGE0jNOCUsD-4aE74_QJ4K9bAapCoRzzxOePbK5JTy3gLKQ1SLGgNBHVt165bk4N97WflhN0ekf5R02JeXDw2gJXsVTE2PCV0H41t_-AwnBgMGbgj2znqzE2nuk-bIapLrCKDofUM5fWOMoRTW0f94t6ifC4q3v-Hq2jt9qPr1LDDk6gE5fb5fZ_S6lBbPaqZoz4PItMenwUKfq0gwyXnWty8f3YwiO_ckcXvKHHZlWsrUCILjfJyvZGaTIx8uvutCoY2Xic6RdwzliCL3uGzi-T7QzbhQLbQCTqUN-EUwDZe8InJr9V6xszjGNJR8I_daQyhX8z_JsU1ztVp5WZXqud47lmhOi4GO_1sBJumxXbue7h3pmjZ-pzKYpGRdeomRNenkp_h3GNOrOZli1dqZSRQUzWK0]--></g></svg>
