<svg xmlns="http://www.w3.org/2000/svg" xmlns:xlink="http://www.w3.org/1999/xlink" contentStyleType="text/css" data-diagram-type="STATE" height="745px" preserveAspectRatio="none" style="width:518px;height:745px;background:#FFFFFF;" version="1.1" viewBox="0 0 518 745" width="518px" zoomAndPan="magnify"><defs/><g><path d="M19.5,7 L492,7 A12.5,12.5 0 0 1 504.5,19.5 L504.5,33.2969 L7,33.2969 L7,19.5 A12.5,12.5 0 0 1 19.5,7" fill="#F1F1F1"/><rect fill="none" height="587.2969" rx="12.5" ry="12.5" style="stroke:#181818;stroke-width:0.5;" width="497.5" x="7" y="7"/><line style="stroke:#181818;stroke-width:0.5;" x1="7" x2="504.5" y1="33.2969" y2="33.2969"/><text fill="#000000" font-family="sans-serif" font-size="14" lengthAdjust="spacing" textLength="111.7676" x="199.8662" y="24.9951">buscarEspacio()</text><g id="buscarEspacio.SolicitandoBusqueda"><rect fill="#F1F1F1" height="50" rx="12.5" ry="12.5" style="stroke:#181818;stroke-width:0.5;" width="50" x="188.5" y="150.2969"/><line style="stroke:#181818;stroke-width:0.5;" x1="188.5" x2="238.5" y1="176.5938" y2="176.5938"/><text fill="#000000" font-family="sans-serif" font-size="14" lengthAdjust="spacing" textLength="4.4502" x="211.2749" y="168.292">&#160;</text></g><g id="buscarEspacio.MostrandoResultados"><rect fill="#F1F1F1" height="50" rx="12.5" ry="12.5" style="stroke:#181818;stroke-width:0.5;" width="171.2998" x="19" y="286.2969"/><line style="stroke:#181818;stroke-width:0.5;" x1="19" x2="190.2998" y1="312.5938" y2="312.5938"/><text fill="#000000" font-family="sans-serif" font-size="14" lengthAdjust="spacing" textLength="151.2998" x="29" y="304.292">MostrandoResultados</text></g><g class="entity" data-entity="c" data-uid="ent0005" id="entity_c"><polygon fill="#F1F1F1" points="213.5,452.2969,225.5,464.2969,213.5,476.2969,201.5,464.2969,213.5,452.2969" style="stroke:#181818;stroke-width:0.5;"/></g><ellipse cx="213.5" cy="54.2969" fill="#222222" rx="10" ry="10" style="stroke:#222222;stroke-width:1;"/><ellipse cx="213.5" cy="573.2969" fill="none" rx="11" ry="11" style="stroke:#222222;stroke-width:1;"/><ellipse cx="213.5" cy="573.2969" fill="#222222" rx="6" ry="6" style="stroke:#222222;stroke-width:1;"/><!--link *start*buscarEspacio to SolicitandoBusqueda--><g class="link" data-entity-1=".start.buscarEspacio" data-entity-2="SolicitandoBusqueda" data-source-line="9" data-uid="lnk3" id="link_.start.buscarEspacio_SolicitandoBusqueda"><path d="M213.5,64.6369 C213.5,82.8269 213.5,117.5369 213.5,143.9069" fill="none" id="*start*buscarEspacio-to-SolicitandoBusqueda" style="stroke:#008000;stroke-width:1;"/><polygon fill="#008000" points="213.5,149.9069,217.5,140.9069,213.5,144.9069,209.5,140.9069,213.5,149.9069" style="stroke:#008000;stroke-width:1;"/><path d="M218.5,87.2969 L218.5,127.2969 L406.5,127.2969 L406.5,97.2969 L396.5,87.2969 L218.5,87.2969" fill="#FEFFDD" style="stroke:#181818;stroke-width:0.5;"/><path d="M396.5,87.2969 L396.5,97.2969 L406.5,97.2969 L396.5,87.2969" fill="#FEFFDD" style="stroke:#181818;stroke-width:0.5;"/><text fill="#000000" font-family="sans-serif" font-size="13" font-weight="bold" lengthAdjust="spacing" textLength="65.9839" x="224.5" y="104.3638">Visitante</text><text fill="#000000" font-family="sans-serif" font-size="13" lengthAdjust="spacing" textLength="93.6279" x="294.6162" y="104.3638">solicita buscar</text><text fill="#000000" font-family="sans-serif" font-size="13" lengthAdjust="spacing" textLength="90.7461" x="294.7495" y="119.4966">una ubicaci&#243;n</text></g><!--link SolicitandoBusqueda to MostrandoResultados--><g class="link" data-entity-1="SolicitandoBusqueda" data-entity-2="MostrandoResultados" data-source-line="15" data-uid="lnk4" id="link_SolicitandoBusqueda_MostrandoResultados"><path d="M188.41,186.1469 C156.79,198.5569 106.5,218.2969 106.5,218.2969 C106.5,218.2969 105.7498,252.8683 105.1598,280.1283" fill="none" id="SolicitandoBusqueda-to-MostrandoResultados" style="stroke:#008000;stroke-width:1;"/><polygon fill="#008000" points="105.03,286.1269,109.2238,277.2155,105.1382,281.128,101.2257,277.0424,105.03,286.1269" style="stroke:#008000;stroke-width:1;"/><path d="M111.5,223.2969 L111.5,263.2969 L303.5,263.2969 L303.5,233.2969 L293.5,223.2969 L111.5,223.2969" fill="#FEFFDD" style="stroke:#181818;stroke-width:0.5;"/><path d="M293.5,223.2969 L293.5,233.2969 L303.5,233.2969 L293.5,223.2969" fill="#FEFFDD" style="stroke:#181818;stroke-width:0.5;"/><text fill="#000000" font-family="sans-serif" font-size="13" font-weight="bold" lengthAdjust="spacing" textLength="58.9063" x="117.5" y="240.3638">Sistema</text><text fill="#000000" font-family="sans-serif" font-size="13" lengthAdjust="spacing" textLength="57.6685" x="180.5386" y="240.3638">presenta</text><text fill="#000000" font-family="sans-serif" font-size="13" lengthAdjust="spacing" textLength="171.9834" x="117.5" y="255.4966">&#8226; Resultados de b&#250;squeda</text></g><!--link MostrandoResultados to c--><g class="link" data-entity-1="MostrandoResultados" data-entity-2="c" data-source-line="21" data-uid="lnk5" id="link_MostrandoResultados_c"><path d="M104.7,336.3969 C104.99,371.9569 105.5,434.2969 105.5,434.2969 C105.5,434.2969 173.0755,452.4399 198.8655,459.3699" fill="none" id="MostrandoResultados-to-c" style="stroke:#008000;stroke-width:1;"/><polygon fill="#008000" points="204.66,460.9269,197.0063,454.7284,199.8313,459.6294,194.9303,462.4543,204.66,460.9269" style="stroke:#008000;stroke-width:1;"/><path d="M110.5,359.2969 L110.5,429.2969 L303.5,429.2969 L303.5,369.2969 L293.5,359.2969 L110.5,359.2969" fill="#FEFFDD" style="stroke:#181818;stroke-width:0.5;"/><path d="M293.5,359.2969 L293.5,369.2969 L303.5,369.2969 L293.5,359.2969" fill="#FEFFDD" style="stroke:#181818;stroke-width:0.5;"/><text fill="#000000" font-family="sans-serif" font-size="13" font-weight="bold" lengthAdjust="spacing" textLength="65.9839" x="116.5" y="376.3638">Visitante</text><text fill="#000000" font-family="sans-serif" font-size="13" lengthAdjust="spacing" textLength="45.7729" x="186.6162" y="376.3638">solicita</text><text fill="#000000" font-family="sans-serif" font-size="13" lengthAdjust="spacing" textLength="151.8931" x="116.5" y="391.4966">&#8226; seleccionar ubicaci&#243;n</text><text fill="#000000" font-family="sans-serif" font-size="13" lengthAdjust="spacing" textLength="172.8403" x="116.5" y="406.6294">&#8226; realizar nueva b&#250;squeda</text><text fill="#000000" font-family="sans-serif" font-size="13" lengthAdjust="spacing" textLength="127.5942" x="116.5" y="421.7622">&#8226; salir de b&#250;squeda</text></g><!--link c to SolicitandoBusqueda--><g class="link" data-entity-1="c" data-entity-2="SolicitandoBusqueda" data-source-line="29" data-uid="lnk6" id="link_c_SolicitandoBusqueda"><path d="M221.93,460.7269 C245.18,453.6269 308.5,434.2969 308.5,434.2969 C308.5,434.2969 308.5,218.2969 308.5,218.2969 C308.5,218.2969 272.5877,202.4228 244.4477,189.9828" fill="none" id="c-to-SolicitandoBusqueda" style="stroke:#008000;stroke-width:1;"/><polygon fill="#008000" points="238.96,187.5569,245.5742,194.8543,243.5331,189.5785,248.8088,187.5374,238.96,187.5569" style="stroke:#008000;stroke-width:1;"/><path d="M313.5,298.7969 L313.5,323.7969 L495.5,323.7969 L495.5,308.7969 L485.5,298.7969 L313.5,298.7969" fill="#FEFFDD" style="stroke:#181818;stroke-width:0.5;"/><path d="M485.5,298.7969 L485.5,308.7969 L495.5,308.7969 L485.5,298.7969" fill="#FEFFDD" style="stroke:#181818;stroke-width:0.5;"/><text fill="#000000" font-family="sans-serif" font-size="13" lengthAdjust="spacing" textLength="161.04" x="319.5" y="315.8638">realizar nueva b&#250;squeda</text></g><!--link c to *end*buscarEspacio--><g class="link" data-entity-1="c" data-entity-2=".end.buscarEspacio" data-source-line="34" data-uid="lnk8" id="link_c_.end.buscarEspacio"><path d="M213.5,476.3469 C213.5,497.1669 213.5,535.9369 213.5,556.0969" fill="none" id="c-to-*end*buscarEspacio" style="stroke:#008000;stroke-width:1;"/><polygon fill="#008000" points="213.5,562.0969,217.5,553.0969,213.5,557.0969,209.5,553.0969,213.5,562.0969" style="stroke:#008000;stroke-width:1;"/><path d="M218.5,499.2969 L218.5,539.2969 L387.5,539.2969 L387.5,509.2969 L377.5,499.2969 L218.5,499.2969" fill="#FEFFDD" style="stroke:#181818;stroke-width:0.5;"/><path d="M377.5,499.2969 L377.5,509.2969 L387.5,509.2969 L377.5,499.2969" fill="#FEFFDD" style="stroke:#181818;stroke-width:0.5;"/><text fill="#000000" font-family="sans-serif" font-size="13" lengthAdjust="spacing" textLength="148.605" x="224.5" y="516.3638">seleccionar ubicaci&#243;n /</text><text fill="#000000" font-family="sans-serif" font-size="13" lengthAdjust="spacing" textLength="115.7939" x="224.5" y="531.4966">salir de b&#250;squeda</text></g><g id="Explorando"><rect fill="#F1F1F1" height="50" rx="12.5" ry="12.5" style="stroke:#181818;stroke-width:0.5;" width="99.1328" x="206" y="689"/><line style="stroke:#181818;stroke-width:0.5;" x1="206" x2="305.1328" y1="715.2969" y2="715.2969"/><text fill="#000000" font-family="sans-serif" font-size="14" lengthAdjust="spacing" textLength="79.1328" x="216" y="706.9951">Explorando</text></g><!--link buscarEspacio to Explorando--><g class="link" data-entity-1="buscarEspacio" data-entity-2="Explorando" data-source-line="41" data-uid="lnk10" id="link_buscarEspacio_Explorando"><path d="M255.5,594.25 C255.5,633.45 255.5,661.48 255.5,682.94" fill="none" id="buscarEspacio-to-Explorando" style="stroke:#008000;stroke-width:1;"/><polygon fill="#008000" points="255.5,688.94,259.5,679.94,255.5,683.94,251.5,679.94,255.5,688.94" style="stroke:#008000;stroke-width:1;"/><path d="M260.5,629 L260.5,654 L330.5,654 L330.5,639 L320.5,629 L260.5,629" fill="#FEFFDD" style="stroke:#181818;stroke-width:0.5;"/><path d="M320.5,629 L320.5,639 L330.5,639 L320.5,629" fill="#FEFFDD" style="stroke:#181818;stroke-width:0.5;"/><text fill="#000000" font-family="sans-serif" font-size="13" lengthAdjust="spacing" textLength="49.6768" x="266.5" y="646.0669">regresa</text></g><!--SRC=[bLD1JiCm4Bpx5Qjo0QIg7uXoGEgH2vMuL3rid1LOTUtWjH458V4Mli2DQt_2It0SsYR5K72aIF7ExCoi7Lugqw335MXboAyRWiRgTViX17lq15LWYMxA3Kfb0Hb6WvtJin4y2G5nTVXHV29gPhMIogEfxKNWkq0rza6NbhrhYrV4GNkiBITQPhz7ar0KyjOgIMNPQSxF5p2Udzmu8hCObpbPI41Z8z-QDkSoRHHLUQsuXNeg9bK9_4NzIjpHlgrW44AbPCo-UJC9GwRksiSbTg-SaxxJdvBcZCuKUrfXijauOZA-c-R7ooli-L37uzgyzwQzjRQtbP4Ts9B_dDRE1fCc6I-4YQCx651RTeHQFSQQ2NIF1pOJFzRTNnB8OmUUJ_2hWPrAHY5UiNp7V6AOTCKZSPw56FvPVSdfGwDjEYKnK7KK8OnYs-KJ]--></g></svg>