<svg xmlns="http://www.w3.org/2000/svg" xmlns:xlink="http://www.w3.org/1999/xlink" contentStyleType="text/css" data-diagram-type="STATE" height="650px" preserveAspectRatio="none" style="width:505px;height:650px;background:#FFFFFF;" version="1.1" viewBox="0 0 505 650" width="505px" zoomAndPan="magnify"><defs/><g><path d="M25.6,7 L387.6,7 A12.5,12.5 0 0 1 400.1,19.5 L400.1,33.2969 L13.1,33.2969 L13.1,19.5 A12.5,12.5 0 0 1 25.6,7" fill="#F1F1F1"/><rect fill="none" height="492.2969" rx="12.5" ry="12.5" style="stroke:#181818;stroke-width:0.5;" width="387" x="13.1" y="7"/><line style="stroke:#181818;stroke-width:0.5;" x1="13.1" x2="400.1" y1="33.2969" y2="33.2969"/><text fill="#000000" font-family="sans-serif" font-size="14" lengthAdjust="spacing" textLength="189.1914" x="112.0043" y="24.9951">verRecorridosDisponibles()</text><g id="verRecorridosDisponibles.CargandoRecorridos"><rect fill="#F1F1F1" height="50" rx="12.5" ry="12.5" style="stroke:#181818;stroke-width:0.5;" width="50" x="25.1" y="135.2969"/><line style="stroke:#181818;stroke-width:0.5;" x1="25.1" x2="75.1" y1="161.5938" y2="161.5938"/><text fill="#000000" font-family="sans-serif" font-size="14" lengthAdjust="spacing" textLength="4.4502" x="47.8749" y="153.292">&#160;</text></g><g id="verRecorridosDisponibles.MostrandoRecorridos"><rect fill="#F1F1F1" height="50" rx="12.5" ry="12.5" style="stroke:#181818;stroke-width:0.5;" width="50" x="25.1" y="331.2969"/><line style="stroke:#181818;stroke-width:0.5;" x1="25.1" x2="75.1" y1="357.5938" y2="357.5938"/><text fill="#000000" font-family="sans-serif" font-size="14" lengthAdjust="spacing" textLength="4.4502" x="47.8749" y="349.292">&#160;</text></g><ellipse cx="50.1" cy="54.2969" fill="#222222" rx="10" ry="10" style="stroke:#222222;stroke-width:1;"/><ellipse cx="50.1" cy="478.2969" fill="none" rx="11" ry="11" style="stroke:#222222;stroke-width:1;"/><ellipse cx="50.1" cy="478.2969" fill="#222222" rx="6" ry="6" style="stroke:#222222;stroke-width:1;"/><!--link *start*verRecorridosDisponibles to CargandoRecorridos--><g class="link" data-entity-1=".start.verRecorridosDisponibles" data-entity-2="CargandoRecorridos" data-source-line="8" data-uid="lnk3" id="link_.start.verRecorridosDisponibles_CargandoRecorridos"><path d="M50.1,64.5269 C50.1,80.2369 50.1,106.6569 50.1,129.1669" fill="none" id="*start*verRecorridosDisponibles-to-CargandoRecorridos" style="stroke:#008000;stroke-width:1;"/><polygon fill="#008000" points="50.1,135.1669,54.1,126.1669,50.1,130.1669,46.1,126.1669,50.1,135.1669" style="stroke:#008000;stroke-width:1;"/><path d="M55.1,87.2969 L55.1,112.2969 L364.1,112.2969 L364.1,97.2969 L354.1,87.2969 L55.1,87.2969" fill="#FEFFDD" style="stroke:#181818;stroke-width:0.5;"/><path d="M354.1,87.2969 L354.1,97.2969 L364.1,97.2969 L354.1,87.2969" fill="#FEFFDD" style="stroke:#181818;stroke-width:0.5;"/><text fill="#000000" font-family="sans-serif" font-size="13" font-weight="bold" lengthAdjust="spacing" textLength="65.9839" x="61.1" y="104.3638">Visitante</text><text fill="#000000" font-family="sans-serif" font-size="13" lengthAdjust="spacing" textLength="218.2578" x="131.2162" y="104.3638">solicita ver recorridos disponibles</text></g><!--link CargandoRecorridos to MostrandoRecorridos--><g class="link" data-entity-1="CargandoRecorridos" data-entity-2="MostrandoRecorridos" data-source-line="13" data-uid="lnk4" id="link_CargandoRecorridos_MostrandoRecorridos"><path d="M50.1,185.4769 C50.1,222.6469 50.1,287.4569 50.1,324.8169" fill="none" id="CargandoRecorridos-to-MostrandoRecorridos" style="stroke:#008000;stroke-width:1;"/><polygon fill="#008000" points="50.1,330.8169,54.1,321.8169,50.1,325.8169,46.1,321.8169,50.1,330.8169" style="stroke:#008000;stroke-width:1;"/><path d="M55.1,208.2969 L55.1,308.2969 L334.1,308.2969 L334.1,218.2969 L324.1,208.2969 L55.1,208.2969" fill="#FEFFDD" style="stroke:#181818;stroke-width:0.5;"/><path d="M324.1,208.2969 L324.1,218.2969 L334.1,218.2969 L324.1,208.2969" fill="#FEFFDD" style="stroke:#181818;stroke-width:0.5;"/><text fill="#000000" font-family="sans-serif" font-size="13" font-weight="bold" lengthAdjust="spacing" textLength="58.9063" x="61.1" y="225.3638">Sistema</text><text fill="#000000" font-family="sans-serif" font-size="13" lengthAdjust="spacing" textLength="179.0991" x="124.1386" y="225.3638">presenta lista de recorridos</text><text fill="#000000" font-family="sans-serif" font-size="13" lengthAdjust="spacing" textLength="150.814" x="61.1" y="240.4966">&#8226; Nombre del recorrido</text><text fill="#000000" font-family="sans-serif" font-size="13" lengthAdjust="spacing" textLength="129.3081" x="61.1" y="255.6294">&#8226; Descripci&#243;n breve</text><text fill="#000000" font-family="sans-serif" font-size="13" lengthAdjust="spacing" textLength="206.2861" x="61.1" y="270.7622">&#8226; N&#250;mero de espacios incluidos</text><text fill="#000000" font-family="sans-serif" font-size="13" lengthAdjust="spacing" textLength="258.6099" x="61.1" y="285.895">&#8226; Permite solicitar seleccionar recorrido</text><text fill="#000000" font-family="sans-serif" font-size="13" lengthAdjust="spacing" textLength="176.7568" x="61.1" y="301.0278">&#8226; Permite solicitar regresar</text></g><!--link MostrandoRecorridos to MostrandoRecorridos--><g class="link" data-entity-1="MostrandoRecorridos" data-entity-2="MostrandoRecorridos" data-source-line="23" data-uid="lnk5" id="link_MostrandoRecorridos_MostrandoRecorridos"><path d="M75.28,343.5969 C85.01,343.0369 93.1,347.2669 93.1,356.2969 C93.1,365.3269 91.0001,369.9016 81.2701,369.3416" fill="none" id="MostrandoRecorridos-to-MostrandoRecorridos" style="stroke:#008000;stroke-width:1;"/><polygon fill="#008000" points="75.28,368.9969,84.0353,373.5074,80.2717,369.2842,84.495,365.5206,75.28,368.9969" style="stroke:#008000;stroke-width:1;"/><path d="M98.1,336.2969 L98.1,376.2969 L391.1,376.2969 L391.1,346.2969 L381.1,336.2969 L98.1,336.2969" fill="#FEFFDD" style="stroke:#181818;stroke-width:0.5;"/><path d="M381.1,336.2969 L381.1,346.2969 L391.1,346.2969 L381.1,336.2969" fill="#FEFFDD" style="stroke:#181818;stroke-width:0.5;"/><text fill="#000000" font-family="sans-serif" font-size="13" font-weight="bold" lengthAdjust="spacing" textLength="65.9839" x="104.1" y="353.3638">Visitante</text><text fill="#000000" font-family="sans-serif" font-size="13" lengthAdjust="spacing" textLength="201.9761" x="174.2162" y="353.3638">visualiza detalles de recorridos</text><text fill="#000000" font-family="sans-serif" font-size="13" font-weight="bold" lengthAdjust="spacing" textLength="58.9063" x="104.1" y="368.4966">Sistema</text><text fill="#000000" font-family="sans-serif" font-size="13" lengthAdjust="spacing" textLength="205.4419" x="167.1386" y="368.4966">permite desplazarse por la lista</text></g><!--link MostrandoRecorridos to *end*verRecorridosDisponibles--><g class="link" data-entity-1="MostrandoRecorridos" data-entity-2=".end.verRecorridosDisponibles" data-source-line="29" data-uid="lnk7" id="link_MostrandoRecorridos_.end.verRecorridosDisponibles"><path d="M50.1,381.5769 C50.1,407.7469 50.1,442.1469 50.1,460.9769" fill="none" id="MostrandoRecorridos-to-*end*verRecorridosDisponibles" style="stroke:#008000;stroke-width:1;"/><polygon fill="#008000" points="50.1,466.9769,54.1,457.9769,50.1,461.9769,46.1,457.9769,50.1,466.9769" style="stroke:#008000;stroke-width:1;"/><path d="M55.1,404.2969 L55.1,444.2969 L353.1,444.2969 L353.1,414.2969 L343.1,404.2969 L55.1,404.2969" fill="#FEFFDD" style="stroke:#181818;stroke-width:0.5;"/><path d="M343.1,404.2969 L343.1,414.2969 L353.1,414.2969 L343.1,404.2969" fill="#FEFFDD" style="stroke:#181818;stroke-width:0.5;"/><text fill="#000000" font-family="sans-serif" font-size="13" font-weight="bold" lengthAdjust="spacing" textLength="65.9839" x="61.1" y="421.3638">Visitante</text><text fill="#000000" font-family="sans-serif" font-size="13" lengthAdjust="spacing" textLength="207.3906" x="131.2162" y="421.3638">solicita seleccionar un recorrido</text><text fill="#000000" font-family="sans-serif" font-size="13" lengthAdjust="spacing" textLength="184.2598" x="61.1" y="436.4966">o regresar al men&#250; principal</text></g><g id="RECORRIDO_ABIERTO"><rect fill="#F1F1F1" height="50" rx="12.5" ry="12.5" style="stroke:#181818;stroke-width:0.5;" width="173.207" x="7" y="594.3"/><line style="stroke:#181818;stroke-width:0.5;" x1="7" x2="180.207" y1="620.5969" y2="620.5969"/><text fill="#000000" font-family="sans-serif" font-size="14" lengthAdjust="spacing" textLength="153.207" x="17" y="612.2951">RECORRIDO_ABIERTO</text></g><g id="UNIVERSIDAD_DISPONIBLE"><rect fill="#F1F1F1" height="50" rx="12.5" ry="12.5" style="stroke:#181818;stroke-width:0.5;" width="208.2617" x="215.47" y="594.3"/><line style="stroke:#181818;stroke-width:0.5;" x1="215.47" x2="423.7317" y1="620.5969" y2="620.5969"/><text fill="#000000" font-family="sans-serif" font-size="14" lengthAdjust="spacing" textLength="188.2617" x="225.47" y="612.2951">UNIVERSIDAD_DISPONIBLE</text></g><!--link verRecorridosDisponibles to RECORRIDO_ABIERTO--><g class="link" data-entity-1="verRecorridosDisponibles" data-entity-2="RECORRIDO_ABIERTO" data-source-line="36" data-uid="lnk9" id="link_verRecorridosDisponibles_RECORRIDO_ABIERTO"><path d="M111.16,499.59 C104.06,517.84 99.6,529.3 99.6,529.3 C99.6,529.3 97.4244,561.6436 95.6444,587.9936" fill="none" id="verRecorridosDisponibles-to-RECORRIDO_ABIERTO" style="stroke:#008000;stroke-width:1;"/><polygon fill="#008000" points="95.24,593.98,99.8375,585.2701,95.577,588.9914,91.8557,584.7309,95.24,593.98" style="stroke:#008000;stroke-width:1;"/><path d="M104.6,534.3 L104.6,559.3 L271.6,559.3 L271.6,544.3 L261.6,534.3 L104.6,534.3" fill="#FEFFDD" style="stroke:#181818;stroke-width:0.5;"/><path d="M261.6,534.3 L261.6,544.3 L271.6,544.3 L261.6,534.3" fill="#FEFFDD" style="stroke:#181818;stroke-width:0.5;"/><text fill="#000000" font-family="sans-serif" font-size="13" lengthAdjust="spacing" textLength="146.5737" x="110.6" y="551.3669">seleccionarRecorrido()</text></g><!--link verRecorridosDisponibles to UNIVERSIDAD_DISPONIBLE--><g class="link" data-entity-1="verRecorridosDisponibles" data-entity-2="UNIVERSIDAD_DISPONIBLE" data-source-line="41" data-uid="lnk11" id="link_verRecorridosDisponibles_UNIVERSIDAD_DISPONIBLE"><path d="M282.76,499.57 C294.69,538.03 303.5119,566.4495 310.2419,588.1395" fill="none" id="verRecorridosDisponibles-to-UNIVERSIDAD_DISPONIBLE" style="stroke:#0000FF;stroke-width:1;"/><polygon fill="#0000FF" points="312.02,593.87,313.1732,584.0889,310.5383,589.0946,305.5326,586.4596,312.02,593.87" style="stroke:#0000FF;stroke-width:1;"/><path d="M305.6,534.3 L305.6,559.3 L498.6,559.3 L498.6,544.3 L488.6,534.3 L305.6,534.3" fill="#FEFFDD" style="stroke:#181818;stroke-width:0.5;"/><path d="M488.6,534.3 L488.6,544.3 L498.6,544.3 L488.6,534.3" fill="#FEFFDD" style="stroke:#181818;stroke-width:0.5;"/><text fill="#000000" font-family="sans-serif" font-size="13" lengthAdjust="spacing" textLength="172.1738" x="311.6" y="551.3669">regresar al men&#250; principal</text></g><!--SRC=[dLFDIkH04BxtKnIp5rsGVG4PK3E7WCv8PlKY8fMaaCPETwZA3EYoiC_YA-pDwxp9FibMekPd9YDe1mBTzTLNNtrTBG_MbyXOWBEUgiUIe0pkiTuO8nLM16lYXBB0RFCWaPKoU9iw4a21oRxWmU44VXa3kbvP9lffmXdoFVeyT4cxc8iW5M-16jJDzriuklbspqJ-zcWwGWODpWSb2xvkwQ4vE4wdrrPiXRwYun_f52Guc-c-RWwuIy-x3ff4ylahcoxJ_aRgzcMDwTydQscbeW8RKIMJa5THJWyHSkefQ_3__Zp3F1GfamPT5ss34Kd6jipivgy7XQsfozky5CIXPYKfCRCgslhChGRibyI5LPNl_Z08ESeKxP572kxYcTG7GHxOrratuisNlHjUwThA2frzgeshqDK3kklWjkDlydErnE4JijJZp-3Uxk2BJUYSVdOE-pQl_9RJeNKLq451VlEYmwAtPqjqGus_ZTdxNliIazdP8adYQ75tSXhFafyBCn3RazDo7HoQjio7HLAtehh6rJo-dYNBE3g9xg9uURcOnwVdis6XZnfxh_OV]--></g></svg>