<svg xmlns="http://www.w3.org/2000/svg" xmlns:xlink="http://www.w3.org/1999/xlink" contentStyleType="text/css" data-diagram-type="CLASS" height="386px" preserveAspectRatio="none" style="width:436px;height:386px;background:#FFFFFF;" version="1.1" viewBox="0 0 436 386" width="436px" zoomAndPan="magnify"><defs/><g><!--class Campus--><g class="entity" data-entity="Campus" data-source-line="1" data-uid="ent0002" id="entity_Campus"><rect fill="#F1F1F1" height="48" rx="2.5" ry="2.5" style="stroke:#181818;stroke-width:0.5;" width="89.0459" x="125.5" y="7"/><ellipse cx="140.5" cy="23" fill="#ADD1B2" rx="11" ry="11" style="stroke:#181818;stroke-width:1;"/><path d="M143.4688,28.6406 Q142.8906,28.9375 142.25,29.0781 Q141.6094,29.2344 140.9063,29.2344 Q138.4063,29.2344 137.0781,27.5938 Q135.7656,25.9375 135.7656,22.8125 Q135.7656,19.6875 137.0781,18.0313 Q138.4063,16.375 140.9063,16.375 Q141.6094,16.375 142.25,16.5313 Q142.9063,16.6875 143.4688,16.9844 L143.4688,19.7031 Q142.8438,19.125 142.25,18.8594 Q141.6563,18.5781 141.0313,18.5781 Q139.6875,18.5781 139,19.6563 Q138.3125,20.7188 138.3125,22.8125 Q138.3125,24.9063 139,25.9844 Q139.6875,27.0469 141.0313,27.0469 Q141.6563,27.0469 142.25,26.7813 Q142.8438,26.5 143.4688,25.9219 L143.4688,28.6406 Z " fill="#000000"/><text fill="#000000" font-family="sans-serif" font-size="14" lengthAdjust="spacing" textLength="57.0459" x="154.5" y="27.8467">Campus</text><line style="stroke:#181818;stroke-width:0.5;" x1="126.5" x2="213.5459" y1="39" y2="39"/><line style="stroke:#181818;stroke-width:0.5;" x1="126.5" x2="213.5459" y1="47" y2="47"/></g><!--class Edificio--><g class="entity" data-entity="Edificio" data-source-line="2" data-uid="ent0003" id="entity_Edificio"><rect fill="#F1F1F1" height="48" rx="2.5" ry="2.5" style="stroke:#181818;stroke-width:0.5;" width="82.5928" x="68.5" y="115"/><ellipse cx="83.5" cy="131" fill="#ADD1B2" rx="11" ry="11" style="stroke:#181818;stroke-width:1;"/><path d="M86.4688,136.6406 Q85.8906,136.9375 85.25,137.0781 Q84.6094,137.2344 83.9063,137.2344 Q81.4063,137.2344 80.0781,135.5938 Q78.7656,133.9375 78.7656,130.8125 Q78.7656,127.6875 80.0781,126.0313 Q81.4063,124.375 83.9063,124.375 Q84.6094,124.375 85.25,124.5313 Q85.9063,124.6875 86.4688,124.9844 L86.4688,127.7031 Q85.8438,127.125 85.25,126.8594 Q84.6563,126.5781 84.0313,126.5781 Q82.6875,126.5781 82,127.6563 Q81.3125,128.7188 81.3125,130.8125 Q81.3125,132.9063 82,133.9844 Q82.6875,135.0469 84.0313,135.0469 Q84.6563,135.0469 85.25,134.7813 Q85.8438,134.5 86.4688,133.9219 L86.4688,136.6406 Z " fill="#000000"/><text fill="#000000" font-family="sans-serif" font-size="14" lengthAdjust="spacing" textLength="50.5928" x="97.5" y="135.8467">Edificio</text><line style="stroke:#181818;stroke-width:0.5;" x1="69.5" x2="150.0928" y1="147" y2="147"/><line style="stroke:#181818;stroke-width:0.5;" x1="69.5" x2="150.0928" y1="155" y2="155"/></g><!--class Exterior--><g class="entity" data-entity="Exterior" data-source-line="3" data-uid="ent0004" id="entity_Exterior"><rect fill="#F1F1F1" height="48" rx="2.5" ry="2.5" style="stroke:#181818;stroke-width:0.5;" width="87.2002" x="186.5" y="115"/><ellipse cx="201.5" cy="131" fill="#ADD1B2" rx="11" ry="11" style="stroke:#181818;stroke-width:1;"/><path d="M204.4688,136.6406 Q203.8906,136.9375 203.25,137.0781 Q202.6094,137.2344 201.9063,137.2344 Q199.4063,137.2344 198.0781,135.5938 Q196.7656,133.9375 196.7656,130.8125 Q196.7656,127.6875 198.0781,126.0313 Q199.4063,124.375 201.9063,124.375 Q202.6094,124.375 203.25,124.5313 Q203.9063,124.6875 204.4688,124.9844 L204.4688,127.7031 Q203.8438,127.125 203.25,126.8594 Q202.6563,126.5781 202.0313,126.5781 Q200.6875,126.5781 200,127.6563 Q199.3125,128.7188 199.3125,130.8125 Q199.3125,132.9063 200,133.9844 Q200.6875,135.0469 202.0313,135.0469 Q202.6563,135.0469 203.25,134.7813 Q203.8438,134.5 204.4688,133.9219 L204.4688,136.6406 Z " fill="#000000"/><text fill="#000000" font-family="sans-serif" font-size="14" lengthAdjust="spacing" textLength="55.2002" x="215.5" y="135.8467">Exterior</text><line style="stroke:#181818;stroke-width:0.5;" x1="187.5" x2="272.7002" y1="147" y2="147"/><line style="stroke:#181818;stroke-width:0.5;" x1="187.5" x2="272.7002" y1="155" y2="155"/></g><!--class Planta--><g class="entity" data-entity="Planta" data-source-line="4" data-uid="ent0005" id="entity_Planta"><rect fill="#F1F1F1" height="48" rx="2.5" ry="2.5" style="stroke:#181818;stroke-width:0.5;" width="75.8525" x="72" y="223"/><ellipse cx="87" cy="239" fill="#ADD1B2" rx="11" ry="11" style="stroke:#181818;stroke-width:1;"/><path d="M89.9688,244.6406 Q89.3906,244.9375 88.75,245.0781 Q88.1094,245.2344 87.4063,245.2344 Q84.9063,245.2344 83.5781,243.5938 Q82.2656,241.9375 82.2656,238.8125 Q82.2656,235.6875 83.5781,234.0313 Q84.9063,232.375 87.4063,232.375 Q88.1094,232.375 88.75,232.5313 Q89.4063,232.6875 89.9688,232.9844 L89.9688,235.7031 Q89.3438,235.125 88.75,234.8594 Q88.1563,234.5781 87.5313,234.5781 Q86.1875,234.5781 85.5,235.6563 Q84.8125,236.7188 84.8125,238.8125 Q84.8125,240.9063 85.5,241.9844 Q86.1875,243.0469 87.5313,243.0469 Q88.1563,243.0469 88.75,242.7813 Q89.3438,242.5 89.9688,241.9219 L89.9688,244.6406 Z " fill="#000000"/><text fill="#000000" font-family="sans-serif" font-size="14" lengthAdjust="spacing" textLength="43.8525" x="101" y="243.8467">Planta</text><line style="stroke:#181818;stroke-width:0.5;" x1="73" x2="146.8525" y1="255" y2="255"/><line style="stroke:#181818;stroke-width:0.5;" x1="73" x2="146.8525" y1="263" y2="263"/></g><!--class Espacio--><g class="entity" data-entity="Espacio" data-source-line="5" data-uid="ent0006" id="entity_Espacio"><rect fill="#F1F1F1" height="48" rx="2.5" ry="2.5" style="stroke:#181818;stroke-width:0.5;" width="85.7578" x="7" y="331"/><ellipse cx="22" cy="347" fill="#ADD1B2" rx="11" ry="11" style="stroke:#181818;stroke-width:1;"/><path d="M24.9688,352.6406 Q24.3906,352.9375 23.75,353.0781 Q23.1094,353.2344 22.4063,353.2344 Q19.9063,353.2344 18.5781,351.5938 Q17.2656,349.9375 17.2656,346.8125 Q17.2656,343.6875 18.5781,342.0313 Q19.9063,340.375 22.4063,340.375 Q23.1094,340.375 23.75,340.5313 Q24.4063,340.6875 24.9688,340.9844 L24.9688,343.7031 Q24.3438,343.125 23.75,342.8594 Q23.1563,342.5781 22.5313,342.5781 Q21.1875,342.5781 20.5,343.6563 Q19.8125,344.7188 19.8125,346.8125 Q19.8125,348.9063 20.5,349.9844 Q21.1875,351.0469 22.5313,351.0469 Q23.1563,351.0469 23.75,350.7813 Q24.3438,350.5 24.9688,349.9219 L24.9688,352.6406 Z " fill="#000000"/><text fill="#000000" font-family="sans-serif" font-size="14" lengthAdjust="spacing" textLength="53.7578" x="36" y="351.8467">Espacio</text><line style="stroke:#181818;stroke-width:0.5;" x1="8" x2="91.7578" y1="363" y2="363"/><line style="stroke:#181818;stroke-width:0.5;" x1="8" x2="91.7578" y1="371" y2="371"/></g><!--class Parking--><g class="entity" data-entity="Parking" data-source-line="6" data-uid="ent0007" id="entity_Parking"><rect fill="#F1F1F1" height="48" rx="2.5" ry="2.5" style="stroke:#181818;stroke-width:0.5;" width="84.5342" x="128.5" y="331"/><ellipse cx="143.5" cy="347" fill="#ADD1B2" rx="11" ry="11" style="stroke:#181818;stroke-width:1;"/><path d="M146.4688,352.6406 Q145.8906,352.9375 145.25,353.0781 Q144.6094,353.2344 143.9063,353.2344 Q141.4063,353.2344 140.0781,351.5938 Q138.7656,349.9375 138.7656,346.8125 Q138.7656,343.6875 140.0781,342.0313 Q141.4063,340.375 143.9063,340.375 Q144.6094,340.375 145.25,340.5313 Q145.9063,340.6875 146.4688,340.9844 L146.4688,343.7031 Q145.8438,343.125 145.25,342.8594 Q144.6563,342.5781 144.0313,342.5781 Q142.6875,342.5781 142,343.6563 Q141.3125,344.7188 141.3125,346.8125 Q141.3125,348.9063 142,349.9844 Q142.6875,351.0469 144.0313,351.0469 Q144.6563,351.0469 145.25,350.7813 Q145.8438,350.5 146.4688,349.9219 L146.4688,352.6406 Z " fill="#000000"/><text fill="#000000" font-family="sans-serif" font-size="14" lengthAdjust="spacing" textLength="52.5342" x="157.5" y="351.8467">Parking</text><line style="stroke:#181818;stroke-width:0.5;" x1="129.5" x2="212.0342" y1="363" y2="363"/><line style="stroke:#181818;stroke-width:0.5;" x1="129.5" x2="212.0342" y1="371" y2="371"/></g><!--class Verde--><g class="entity" data-entity="Verde" data-source-line="7" data-uid="ent0008" id="entity_Verde"><rect fill="#F1F1F1" height="48" rx="2.5" ry="2.5" style="stroke:#181818;stroke-width:0.5;" width="73.4463" x="188.5" y="223"/><ellipse cx="203.5" cy="239" fill="#ADD1B2" rx="11" ry="11" style="stroke:#181818;stroke-width:1;"/><path d="M206.4688,244.6406 Q205.8906,244.9375 205.25,245.0781 Q204.6094,245.2344 203.9063,245.2344 Q201.4063,245.2344 200.0781,243.5938 Q198.7656,241.9375 198.7656,238.8125 Q198.7656,235.6875 200.0781,234.0313 Q201.4063,232.375 203.9063,232.375 Q204.6094,232.375 205.25,232.5313 Q205.9063,232.6875 206.4688,232.9844 L206.4688,235.7031 Q205.8438,235.125 205.25,234.8594 Q204.6563,234.5781 204.0313,234.5781 Q202.6875,234.5781 202,235.6563 Q201.3125,236.7188 201.3125,238.8125 Q201.3125,240.9063 202,241.9844 Q202.6875,243.0469 204.0313,243.0469 Q204.6563,243.0469 205.25,242.7813 Q205.8438,242.5 206.4688,241.9219 L206.4688,244.6406 Z " fill="#000000"/><text fill="#000000" font-family="sans-serif" font-size="14" lengthAdjust="spacing" textLength="41.4463" x="217.5" y="243.8467">Verde</text><line style="stroke:#181818;stroke-width:0.5;" x1="189.5" x2="260.9463" y1="255" y2="255"/><line style="stroke:#181818;stroke-width:0.5;" x1="189.5" x2="260.9463" y1="263" y2="263"/></g><!--class AreaDeportiva--><g class="entity" data-entity="AreaDeportiva" data-source-line="8" data-uid="ent0009" id="entity_AreaDeportiva"><rect fill="#F1F1F1" height="48" rx="2.5" ry="2.5" style="stroke:#181818;stroke-width:0.5;" width="133.3701" x="296.5" y="223"/><ellipse cx="311.5" cy="239" fill="#ADD1B2" rx="11" ry="11" style="stroke:#181818;stroke-width:1;"/><path d="M314.4688,244.6406 Q313.8906,244.9375 313.25,245.0781 Q312.6094,245.2344 311.9063,245.2344 Q309.4063,245.2344 308.0781,243.5938 Q306.7656,241.9375 306.7656,238.8125 Q306.7656,235.6875 308.0781,234.0313 Q309.4063,232.375 311.9063,232.375 Q312.6094,232.375 313.25,232.5313 Q313.9063,232.6875 314.4688,232.9844 L314.4688,235.7031 Q313.8438,235.125 313.25,234.8594 Q312.6563,234.5781 312.0313,234.5781 Q310.6875,234.5781 310,235.6563 Q309.3125,236.7188 309.3125,238.8125 Q309.3125,240.9063 310,241.9844 Q310.6875,243.0469 312.0313,243.0469 Q312.6563,243.0469 313.25,242.7813 Q313.8438,242.5 314.4688,241.9219 L314.4688,244.6406 Z " fill="#000000"/><text fill="#000000" font-family="sans-serif" font-size="14" lengthAdjust="spacing" textLength="101.3701" x="325.5" y="243.8467">AreaDeportiva</text><line style="stroke:#181818;stroke-width:0.5;" x1="297.5" x2="428.8701" y1="255" y2="255"/><line style="stroke:#181818;stroke-width:0.5;" x1="297.5" x2="428.8701" y1="263" y2="263"/></g><!--reverse link Campus to Edificio--><g class="link" data-entity-1="Campus" data-entity-2="Edificio" data-source-line="11" data-uid="lnk10" id="link_Campus_Edificio"><path codeLine="11" d="M151.0716,65.4447 C141.0816,83.1047 133.24,96.94 123.2,114.68" fill="none" id="Campus-backto-Edificio" style="stroke:#181818;stroke-width:1;"/><polygon fill="#181818" points="156.98,55,150.5443,58.2529,151.0716,65.4447,157.5074,62.1918,156.98,55" style="stroke:#181818;stroke-width:1;"/></g><!--reverse link Campus to Exterior--><g class="link" data-entity-1="Campus" data-entity-2="Exterior" data-source-line="12" data-uid="lnk11" id="link_Campus_Exterior"><path codeLine="12" d="M188.9284,65.4447 C198.9184,83.1047 206.76,96.94 216.8,114.68" fill="none" id="Campus-backto-Exterior" style="stroke:#181818;stroke-width:1;"/><polygon fill="#181818" points="183.02,55,182.4926,62.1918,188.9284,65.4447,189.4557,58.2529,183.02,55" style="stroke:#181818;stroke-width:1;"/></g><!--reverse link Edificio to Planta--><g class="link" data-entity-1="Edificio" data-entity-2="Planta" data-source-line="13" data-uid="lnk12" id="link_Edificio_Planta"><path codeLine="13" d="M110,175 C110,192.66 110,204.94 110,222.68" fill="none" id="Edificio-backto-Planta" style="stroke:#181818;stroke-width:1;"/><polygon fill="#181818" points="110,163,106,169,110,175,114,169,110,163" style="stroke:#181818;stroke-width:1;"/></g><!--reverse link Planta to Espacio--><g class="link" data-entity-1="Planta" data-entity-2="Espacio" data-source-line="14" data-uid="lnk13" id="link_Planta_Espacio"><path codeLine="14" d="M91.0716,281.4447 C81.0816,299.1047 73.24,312.94 63.2,330.68" fill="none" id="Planta-backto-Espacio" style="stroke:#181818;stroke-width:1;"/><polygon fill="#181818" points="96.98,271,90.5443,274.2529,91.0716,281.4447,97.5074,278.1918,96.98,271" style="stroke:#181818;stroke-width:1;"/></g><!--reverse link Planta to Parking--><g class="link" data-entity-1="Planta" data-entity-2="Parking" data-source-line="15" data-uid="lnk14" id="link_Planta_Parking"><path codeLine="15" d="M129.2241,281.4015 C139.3841,299.0615 147.37,312.94 157.58,330.68" fill="none" id="Planta-backto-Parking" style="stroke:#181818;stroke-width:1;"/><polygon fill="none" points="123.24,271,122.7649,278.1954,129.2241,281.4015,129.6992,274.206,123.24,271" style="stroke:#181818;stroke-width:1;"/></g><!--reverse link Exterior to Verde--><g class="link" data-entity-1="Exterior" data-entity-2="Verde" data-source-line="16" data-uid="lnk15" id="link_Exterior_Verde"><path codeLine="16" d="M228.3499,174.9864 C227.5099,192.6464 226.94,204.94 226.1,222.68" fill="none" id="Exterior-backto-Verde" style="stroke:#181818;stroke-width:1;"/><polygon fill="#181818" points="228.92,163,224.6394,168.8032,228.3499,174.9864,232.6304,169.1833,228.92,163" style="stroke:#181818;stroke-width:1;"/></g><!--reverse link Exterior to AreaDeportiva--><g class="link" data-entity-1="Exterior" data-entity-2="AreaDeportiva" data-source-line="17" data-uid="lnk16" id="link_Exterior_AreaDeportiva"><path codeLine="17" d="M268.2428,170.4808 C290.3928,188.1408 311.48,204.94 333.74,222.68" fill="none" id="Exterior-backto-AreaDeportiva" style="stroke:#181818;stroke-width:1;"/><polygon fill="#181818" points="258.86,163,261.0578,169.868,268.2428,170.4808,266.045,163.6128,258.86,163" style="stroke:#181818;stroke-width:1;"/></g><!--SRC=[LOvD2eKm38JtFKNNWeUGftjNxaED4lnfIUl3uujjWdILp9SXCsw76EqFZd15ux8OPbh8aLTv9sJoB7BSuKoWjnZWSux06vshg0bvHjaxHkWnU4xq1sDCoREsQTilhe8QgjTC9RiCCKe3OVvrIGtzaNsbJOMgKWy0]--></g></svg>