<svg xmlns="http://www.w3.org/2000/svg" xmlns:xlink="http://www.w3.org/1999/xlink" contentStyleType="text/css" data-diagram-type="STATE" height="904px" preserveAspectRatio="none" style="width:604px;height:904px;background:#FFFFFF;" version="1.1" viewBox="0 0 604 904" width="604px" zoomAndPan="magnify"><defs/><g><!--cluster salirRecorrido--><g class="cluster" data-entity="salirRecorrido" data-source-line="3" data-uid="ent0002" id="cluster_salirRecorrido"><path d="M212.1,7 L578.1,7 A12.5,12.5 0 0 1 590.6,19.5 L590.6,28.2969 L199.6,28.2969 L199.6,19.5 A12.5,12.5 0 0 1 212.1,7" fill="#F1F1F1"/><rect fill="none" height="745" rx="12.5" ry="12.5" style="stroke:#181818;stroke-width:0.5;" width="391" x="199.6" y="7"/><line style="stroke:#181818;stroke-width:0.5;" x1="199.6" x2="590.6" y1="28.2969" y2="28.2969"/><text fill="#000000" font-family="sans-serif" font-size="14" lengthAdjust="spacing" textLength="107.7891" x="341.2055" y="23.9951">salirRecorrido()</text></g><g id="salirRecorrido.SolicitandoSalida"><rect fill="#F1F1F1" height="50" rx="12.5" ry="12.5" style="stroke:#181818;stroke-width:0.5;" width="50" x="225.6" y="157"/><line style="stroke:#181818;stroke-width:0.5;" x1="225.6" x2="275.6" y1="183.2969" y2="183.2969"/><text fill="#000000" font-family="sans-serif" font-size="14" lengthAdjust="spacing" textLength="4.4502" x="248.3749" y="174.9951">&#160;</text></g><g id="salirRecorrido.ConfirmandoSalida"><rect fill="#F1F1F1" height="50" rx="12.5" ry="12.5" style="stroke:#181818;stroke-width:0.5;" width="50" x="225.6" y="347"/><line style="stroke:#181818;stroke-width:0.5;" x1="225.6" x2="275.6" y1="373.2969" y2="373.2969"/><text fill="#000000" font-family="sans-serif" font-size="14" lengthAdjust="spacing" textLength="4.4502" x="248.3749" y="364.9951">&#160;</text></g><g id="salirRecorrido.RegistrandoEstadisticas"><rect fill="#F1F1F1" height="50" rx="12.5" ry="12.5" style="stroke:#181818;stroke-width:0.5;" width="50" x="225.6" y="522"/><line style="stroke:#181818;stroke-width:0.5;" x1="225.6" x2="275.6" y1="548.2969" y2="548.2969"/><text fill="#000000" font-family="sans-serif" font-size="14" lengthAdjust="spacing" textLength="4.4502" x="248.3749" y="539.9951">&#160;</text></g><g class="entity" data-entity="c" data-uid="ent0006" id="entity_c"><polygon fill="#F1F1F1" points="250.6,712,262.6,724,250.6,736,238.6,724,250.6,712" style="stroke:#181818;stroke-width:0.5;"/></g><ellipse cx="250.6" cy="52" fill="#222222" rx="10" ry="10" style="stroke:#222222;stroke-width:1;"/><g id="RECORRIDO_ABIERTO"><rect fill="#F1F1F1" height="50" rx="12.5" ry="12.5" style="stroke:#181818;stroke-width:0.5;" width="173.207" x="7" y="848"/><line style="stroke:#181818;stroke-width:0.5;" x1="7" x2="180.207" y1="874.2969" y2="874.2969"/><text fill="#000000" font-family="sans-serif" font-size="14" lengthAdjust="spacing" textLength="153.207" x="17" y="865.9951">RECORRIDO_ABIERTO</text></g><g id="RECORRIDOS_ABIERTOS"><rect fill="#F1F1F1" height="50" rx="12.5" ry="12.5" style="stroke:#181818;stroke-width:0.5;" width="190.9805" x="313.11" y="848"/><line style="stroke:#181818;stroke-width:0.5;" x1="313.11" x2="504.0905" y1="874.2969" y2="874.2969"/><text fill="#000000" font-family="sans-serif" font-size="14" lengthAdjust="spacing" textLength="170.9805" x="323.11" y="865.9951">RECORRIDOS_ABIERTOS</text></g><!--link *start*salirRecorrido to SolicitandoSalida--><g class="link" data-entity-1=".start.salirRecorrido" data-entity-2="SolicitandoSalida" data-source-line="10" data-uid="lnk3" id="link_.start.salirRecorrido_SolicitandoSalida"><path d="M250.6,62.21 C250.6,81.75 250.6,121.96 250.6,150.64" fill="none" id="*start*salirRecorrido-to-SolicitandoSalida" style="stroke:#008000;stroke-width:1;"/><polygon fill="#008000" points="250.6,156.64,254.6,147.64,250.6,151.64,246.6,147.64,250.6,156.64" style="stroke:#008000;stroke-width:1;"/><path d="M255.6,97 L255.6,122 L510.6,122 L510.6,107 L500.6,97 L255.6,97" fill="#FEFFDD" style="stroke:#181818;stroke-width:0.5;"/><path d="M500.6,97 L500.6,107 L510.6,107 L500.6,97" fill="#FEFFDD" style="stroke:#181818;stroke-width:0.5;"/><text fill="#000000" font-family="sans-serif" font-size="13" font-weight="bold" lengthAdjust="spacing" textLength="65.9839" x="261.6" y="114.0669">Visitante</text><text fill="#000000" font-family="sans-serif" font-size="13" lengthAdjust="spacing" textLength="164.29" x="331.7162" y="114.0669">solicita salir del recorrido</text></g><!--link SolicitandoSalida to ConfirmandoSalida--><g class="link" data-entity-1="SolicitandoSalida" data-entity-2="ConfirmandoSalida" data-source-line="15" data-uid="lnk4" id="link_SolicitandoSalida_ConfirmandoSalida"><path d="M250.6,207.19 C250.6,243.19 250.6,304.48 250.6,340.6" fill="none" id="SolicitandoSalida-to-ConfirmandoSalida" style="stroke:#008000;stroke-width:1;"/><polygon fill="#008000" points="250.6,346.6,254.6,337.6,250.6,341.6,246.6,337.6,250.6,346.6" style="stroke:#008000;stroke-width:1;"/><path d="M255.6,242 L255.6,312 L569.6,312 L569.6,252 L559.6,242 L255.6,242" fill="#FEFFDD" style="stroke:#181818;stroke-width:0.5;"/><path d="M559.6,242 L559.6,252 L569.6,252 L559.6,242" fill="#FEFFDD" style="stroke:#181818;stroke-width:0.5;"/><text fill="#000000" font-family="sans-serif" font-size="13" font-weight="bold" lengthAdjust="spacing" textLength="58.9063" x="261.6" y="259.0669">Sistema</text><text fill="#000000" font-family="sans-serif" font-size="13" lengthAdjust="spacing" textLength="208.9521" x="324.6386" y="259.0669">presenta confirmaci&#243;n de salida</text><text fill="#000000" font-family="sans-serif" font-size="13" lengthAdjust="spacing" textLength="293.3442" x="261.6" y="274.1997">&#8226; Mensaje: "&#191;Est&#225;s seguro que deseas salir?"</text><text fill="#000000" font-family="sans-serif" font-size="13" lengthAdjust="spacing" textLength="94.8403" x="261.6" y="289.3325">&#8226; Bot&#243;n "Salir"</text><text fill="#000000" font-family="sans-serif" font-size="13" lengthAdjust="spacing" textLength="192.9053" x="261.6" y="304.4653">&#8226; Bot&#243;n "Continuar recorrido"</text></g><!--link ConfirmandoSalida to RegistrandoEstadisticas--><g class="link" data-entity-1="ConfirmandoSalida" data-entity-2="RegistrandoEstadisticas" data-source-line="23" data-uid="lnk5" id="link_ConfirmandoSalida_RegistrandoEstadisticas"><path d="M250.6,397.42 C250.6,430.39 250.6,482.8 250.6,515.7" fill="none" id="ConfirmandoSalida-to-RegistrandoEstadisticas" style="stroke:#008000;stroke-width:1;"/><polygon fill="#008000" points="250.6,521.7,254.6,512.7,250.6,516.7,246.6,512.7,250.6,521.7" style="stroke:#008000;stroke-width:1;"/><path d="M255.6,432 L255.6,487 L475.6,487 L475.6,442 L465.6,432 L255.6,432" fill="#FEFFDD" style="stroke:#181818;stroke-width:0.5;"/><path d="M465.6,432 L465.6,442 L475.6,442 L465.6,432" fill="#FEFFDD" style="stroke:#181818;stroke-width:0.5;"/><text fill="#000000" font-family="sans-serif" font-size="13" font-weight="bold" lengthAdjust="spacing" textLength="65.9839" x="261.6" y="449.0669">Visitante</text><text fill="#000000" font-family="sans-serif" font-size="13" lengthAdjust="spacing" textLength="99.8169" x="331.7162" y="449.0669">confirma salida</text><text fill="#000000" font-family="sans-serif" font-size="13" font-weight="bold" lengthAdjust="spacing" textLength="58.9063" x="261.6" y="464.1997">Sistema</text><text fill="#000000" font-family="sans-serif" font-size="13" lengthAdjust="spacing" textLength="135.9668" x="324.6386" y="464.1997">registra estad&#237;sticas:</text><text fill="#000000" font-family="sans-serif" font-size="13" lengthAdjust="spacing" textLength="130.3555" x="261.6" y="479.3325">&#8226; Espacios visitados</text></g><!--link RegistrandoEstadisticas to c--><g class="link" data-entity-1="RegistrandoEstadisticas" data-entity-2="c" data-source-line="30" data-uid="lnk6" id="link_RegistrandoEstadisticas_c"><path d="M250.6,572.33 C250.6,610.65 250.6,677.57 250.6,705.62" fill="none" id="RegistrandoEstadisticas-to-c" style="stroke:#008000;stroke-width:1;"/><polygon fill="#008000" points="250.6,711.62,254.6,702.62,250.6,706.62,246.6,702.62,250.6,711.62" style="stroke:#008000;stroke-width:1;"/><path d="M255.6,607 L255.6,677 L489.6,677 L489.6,617 L479.6,607 L255.6,607" fill="#FEFFDD" style="stroke:#181818;stroke-width:0.5;"/><path d="M479.6,607 L479.6,617 L489.6,617 L479.6,607" fill="#FEFFDD" style="stroke:#181818;stroke-width:0.5;"/><text fill="#000000" font-family="sans-serif" font-size="13" font-weight="bold" lengthAdjust="spacing" textLength="58.9063" x="261.6" y="624.0669">Sistema</text><text fill="#000000" font-family="sans-serif" font-size="13" lengthAdjust="spacing" textLength="119.8501" x="324.6386" y="624.0669">muestra resumen:</text><text fill="#000000" font-family="sans-serif" font-size="13" lengthAdjust="spacing" textLength="153.1436" x="261.6" y="639.1997">&#8226; "Recorrido finalizado"</text><text fill="#000000" font-family="sans-serif" font-size="13" lengthAdjust="spacing" textLength="175.5698" x="261.6" y="654.3325">&#8226; Espacios visitados / Total</text><text fill="#000000" font-family="sans-serif" font-size="13" lengthAdjust="spacing" textLength="213.5098" x="261.6" y="669.4653">&#8226; Permite regresar a exploraci&#243;n</text></g><!--link c to RECORRIDO_ABIERTO--><g class="link" data-entity-1="c" data-entity-2="RECORRIDO_ABIERTO" data-source-line="40" data-uid="lnk8" id="link_c_RECORRIDO_ABIERTO"><path d="M241.54,727.44 C207.7,736.53 90.6,768 90.6,768 C90.6,768 90.6,818 90.6,818 C90.6,818 91.1188,827.2491 91.9088,841.5391" fill="none" id="c-to-RECORRIDO_ABIERTO" style="stroke:#0000FF;stroke-width:1;"/><polygon fill="#0000FF" points="92.24,847.53,95.7371,838.3229,91.964,842.5376,87.7493,838.7645,92.24,847.53" style="stroke:#0000FF;stroke-width:1;"/><path d="M95.6,780.5 L95.6,805.5 L360.6,805.5 L360.6,790.5 L350.6,780.5 L95.6,780.5" fill="#FEFFDD" style="stroke:#181818;stroke-width:0.5;"/><path d="M350.6,780.5 L350.6,790.5 L360.6,790.5 L350.6,780.5" fill="#FEFFDD" style="stroke:#181818;stroke-width:0.5;"/><text fill="#000000" font-family="sans-serif" font-size="13" font-weight="bold" lengthAdjust="spacing" textLength="65.9839" x="101.6" y="797.5669">Visitante</text><text fill="#000000" font-family="sans-serif" font-size="13" lengthAdjust="spacing" textLength="174.8271" x="171.7162" y="797.5669">solicita continuar recorrido</text></g><!--link c to RECORRIDOS_ABIERTOS--><g class="link" data-entity-1="c" data-entity-2="RECORRIDOS_ABIERTOS" data-source-line="45" data-uid="lnk10" id="link_c_RECORRIDOS_ABIERTOS"><path d="M259.16,728.09 C286.45,737.95 369.6,768 369.6,768 C369.6,768 385.8229,811.2622 397.3529,842.0022" fill="none" id="c-to-RECORRIDOS_ABIERTOS" style="stroke:#008000;stroke-width:1;"/><polygon fill="#008000" points="399.46,847.62,400.0445,837.7885,397.704,842.9385,392.5541,840.598,399.46,847.62" style="stroke:#008000;stroke-width:1;"/><path d="M393.6,773 L393.6,813 L589.6,813 L589.6,783 L579.6,773 L393.6,773" fill="#FEFFDD" style="stroke:#181818;stroke-width:0.5;"/><path d="M579.6,773 L579.6,783 L589.6,783 L579.6,773" fill="#FEFFDD" style="stroke:#181818;stroke-width:0.5;"/><text fill="#000000" font-family="sans-serif" font-size="13" lengthAdjust="spacing" textLength="144.1807" x="399.6" y="790.0669">Explorando &#8594; Inactivo</text><text fill="#000000" font-family="sans-serif" font-size="13" lengthAdjust="spacing" textLength="175.6777" x="399.6" y="805.1997">verRecorridosDisponibles()</text></g><!--SRC=[bPJ1RjD048RlVegHUscHgjwho8YsFkI0WkoAIrMXpNeQjhLtpSuweY0aJZm0Rm1tJZn09V8cVHB6kt4SuwI0BLdo-f-P_vlPDTqfNGihAYYLHdTV8zIcl6zVeeYSS0WaIcKpbCPQLHWG1F5mwV0eXezH17o5Y9XlbkMcL58veGkJSq0Xnf9pes-KhPwIPBXGv6mhIVb3mIzA2jeIIfXCv5kZ92P9i77rx1gEhmuM5b5V7oTZ9-1bsd2qqItwdL-Op9FNYbgXmyd9F05Q1uOcG84bs0xRHw0kGXg-eirZN6_RpMxeNMPoXiLAU2krHKBDLkGwNAhLJysMlBTraiVFt-4bQXAtU0hnhmVksEeR0U6YiGRUDSXwGkwgvtaURuBEZ6kpnQqXErvcoqxfHjWUFnxmz-mZkW7xKzFy-pWwz6taFzfarmK0s_Ih7o7_wOOefPexPmYMFdDXQ0_77gS36lbFawiQz8vuW4s5klSIzwVgHcb6-Y2wlkws2YTmQPmeDv9NQ2l5rPcQi_DucFjzNHeRTiSGBVeKJeTi6UPbWtuWwVaiowONipSlpgPfTZdxtvCXnrjZJqVbS2TqXVEkShwxT1g0U0xm-EKhJBMGJYr3aINslo6wK5GRhUObqk7HmCDl]--></g></svg>