<svg xmlns="http://www.w3.org/2000/svg" xmlns:xlink="http://www.w3.org/1999/xlink" contentStyleType="text/css" data-diagram-type="STATE" height="651px" preserveAspectRatio="none" style="width:1088px;height:651px;background:#FFFFFF;" version="1.1" viewBox="0 0 1088 651" width="1088px" zoomAndPan="magnify"><defs/><g><ellipse cx="452" cy="16" fill="#222222" rx="10" ry="10" style="stroke:#222222;stroke-width:1;"/><g id="Cerrado"><rect fill="#F1F1F1" height="50" rx="12.5" ry="12.5" style="stroke:#181818;stroke-width:0.5;" width="75.9316" x="414.03" y="87"/><line style="stroke:#181818;stroke-width:0.5;" x1="414.03" x2="489.9616" y1="113.2969" y2="113.2969"/><text fill="#000000" font-family="sans-serif" font-size="14" lengthAdjust="spacing" textLength="55.9316" x="424.03" y="104.9951">Cerrado</text></g><g id="Abierto"><rect fill="#F1F1F1" height="50" rx="12.5" ry="12.5" style="stroke:#181818;stroke-width:0.5;" width="70.7773" x="416.61" y="214"/><line style="stroke:#181818;stroke-width:0.5;" x1="416.61" x2="487.3873" y1="240.2969" y2="240.2969"/><text fill="#000000" font-family="sans-serif" font-size="14" lengthAdjust="spacing" textLength="50.7773" x="426.61" y="231.9951">Abierto</text></g><g id="EnUso"><rect fill="#F1F1F1" height="50" rx="12.5" ry="12.5" style="stroke:#181818;stroke-width:0.5;" width="63.8252" x="379.09" y="468"/><line style="stroke:#181818;stroke-width:0.5;" x1="379.09" x2="442.9152" y1="494.2969" y2="494.2969"/><text fill="#000000" font-family="sans-serif" font-size="14" lengthAdjust="spacing" textLength="43.8252" x="389.09" y="485.9951">EnUso</text></g><g id="Reservado"><rect fill="#F1F1F1" height="50" rx="12.5" ry="12.5" style="stroke:#181818;stroke-width:0.5;" width="94.3203" x="177.84" y="341"/><line style="stroke:#181818;stroke-width:0.5;" x1="177.84" x2="272.1603" y1="367.2969" y2="367.2969"/><text fill="#000000" font-family="sans-serif" font-size="14" lengthAdjust="spacing" textLength="74.3203" x="187.84" y="358.9951">Reservado</text></g><g id="Mantenimiento"><rect fill="#F1F1F1" height="50" rx="12.5" ry="12.5" style="stroke:#181818;stroke-width:0.5;" width="125.4648" x="438.27" y="595"/><line style="stroke:#181818;stroke-width:0.5;" x1="438.27" x2="563.7348" y1="621.2969" y2="621.2969"/><text fill="#000000" font-family="sans-serif" font-size="14" lengthAdjust="spacing" textLength="105.4648" x="448.27" y="612.9951">Mantenimiento</text></g><!--link *start* to Cerrado--><g class="link" data-entity-1=".start." data-entity-2="Cerrado" data-source-line="1" data-uid="lnk4" id="link_.start._Cerrado"><path d="M452,26.36 C452,40.29 452,60.95 452,80.65" fill="none" id="*start*-to-Cerrado" style="stroke:#181818;stroke-width:1;"/><polygon fill="#181818" points="452,86.65,456,77.65,452,81.65,448,77.65,452,86.65" style="stroke:#181818;stroke-width:1;"/></g><!--link Cerrado to Abierto--><g class="link" data-entity-1="Cerrado" data-entity-2="Abierto" data-source-line="3" data-uid="lnk6" id="link_Cerrado_Abierto"><path d="M413.81,131.17 C399.9,139.91 385.71,151.83 378,167 C366.22,190.17 386.6388,207.2188 410.9188,219.9788" fill="none" id="Cerrado-to-Abierto" style="stroke:#181818;stroke-width:1;"/><polygon fill="#181818" points="416.23,222.77,410.124,215.0423,411.804,220.444,406.4024,222.124,416.23,222.77" style="stroke:#181818;stroke-width:1;"/><text fill="#000000" font-family="sans-serif" font-size="13" lengthAdjust="spacing" textLength="100.0581" x="379" y="180.0669">espacio abierto</text></g><!--link Abierto to Cerrado--><g class="link" data-entity-1="Abierto" data-entity-2="Cerrado" data-source-line="4" data-uid="lnk7" id="link_Abierto_Cerrado"><path d="M472.28,213.73 C481.06,200.33 488.43,183.17 484,167 C481.15,156.6 478.9164,151.2377 473.3264,142.3577" fill="none" id="Abierto-to-Cerrado" style="stroke:#181818;stroke-width:1;"/><polygon fill="#181818" points="470.13,137.28,471.5395,147.0275,472.7937,141.5114,478.3098,142.7656,470.13,137.28" style="stroke:#181818;stroke-width:1;"/><text fill="#000000" font-family="sans-serif" font-size="13" lengthAdjust="spacing" textLength="103.8413" x="487" y="180.0669">espacio cerrado</text></g><!--link Abierto to EnUso--><g class="link" data-entity-1="Abierto" data-entity-2="EnUso" data-source-line="6" data-uid="lnk9" id="link_Abierto_EnUso"><path d="M435.2,264.42 C422.74,284.1 406.78,313.02 400,341 C389.42,384.68 396.563,431.5263 403.353,461.7063" fill="none" id="Abierto-to-EnUso" style="stroke:#181818;stroke-width:1;"/><polygon fill="#181818" points="404.67,467.56,406.597,457.9015,403.5725,462.6819,398.7921,459.6575,404.67,467.56" style="stroke:#181818;stroke-width:1;"/><text fill="#000000" font-family="sans-serif" font-size="13" lengthAdjust="spacing" textLength="86.9058" x="401" y="370.5669">usuario entra</text></g><!--link EnUso to Abierto--><g class="link" data-entity-1="EnUso" data-entity-2="Abierto" data-source-line="7" data-uid="lnk10" id="link_EnUso_Abierto"><path d="M438.59,467.67 C457.65,448.89 481.42,421.11 492,391 C507.38,347.25 487.303,299.7987 470.333,269.6487" fill="none" id="EnUso-to-Abierto" style="stroke:#181818;stroke-width:1;"/><polygon fill="#181818" points="467.39,264.42,468.3187,274.225,469.8425,268.7772,475.2902,270.301,467.39,264.42" style="stroke:#181818;stroke-width:1;"/><text fill="#000000" font-family="sans-serif" font-size="13" lengthAdjust="spacing" textLength="78.6094" x="499" y="370.5669">usuario sale</text></g><!--link Abierto to Reservado--><g class="link" data-entity-1="Abierto" data-entity-2="Reservado" data-source-line="9" data-uid="lnk12" id="link_Abierto_Reservado"><path d="M416.39,239.66 C333.09,239.69 129.37,244.9 87,294 C82.06,299.72 82.74,304.76 87,311 C92.49,319.05 134.143,334.538 171.853,347.438" fill="none" id="Abierto-to-Reservado" style="stroke:#181818;stroke-width:1;"/><polygon fill="#181818" points="177.53,349.38,170.3091,342.6823,172.7991,347.7617,167.7198,350.2517,177.53,349.38" style="stroke:#181818;stroke-width:1;"/><text fill="#000000" font-family="sans-serif" font-size="13" lengthAdjust="spacing" textLength="97.9253" x="88" y="307.0669">reserva creada</text></g><!--link Reservado to Abierto--><g class="link" data-entity-1="Reservado" data-entity-2="Abierto" data-source-line="10" data-uid="lnk13" id="link_Reservado_Abierto"><path d="M218.43,340.78 C215.89,325.74 215.68,306.89 226,294 C249.51,264.64 352.7435,250.0333 410.3035,243.9233" fill="none" id="Reservado-to-Abierto" style="stroke:#181818;stroke-width:1;"/><polygon fill="#181818" points="416.27,243.29,406.8981,240.2624,411.2979,243.8178,407.7425,248.2177,416.27,243.29" style="stroke:#181818;stroke-width:1;"/><text fill="#000000" font-family="sans-serif" font-size="13" lengthAdjust="spacing" textLength="119.5454" x="227" y="307.0669">reserva cancelada</text></g><!--link Reservado to EnUso--><g class="link" data-entity-1="Reservado" data-entity-2="EnUso" data-source-line="11" data-uid="lnk14" id="link_Reservado_EnUso"><path d="M215.27,391.36 C211.04,406.26 209.03,424.91 219,438 C249.45,477.97 279.64,454.35 328,468 C344.75,472.73 357.5983,476.4259 372.9483,480.8859" fill="none" id="Reservado-to-EnUso" style="stroke:#181818;stroke-width:1;"/><polygon fill="#181818" points="378.71,482.56,371.1835,476.2077,373.9086,481.1649,368.9514,483.89,378.71,482.56" style="stroke:#181818;stroke-width:1;"/><text fill="#000000" font-family="sans-serif" font-size="13" lengthAdjust="spacing" textLength="164.4233" x="220" y="434.0669">usuario con reserva llega</text></g><!--link Abierto to Mantenimiento--><g class="link" data-entity-1="Abierto" data-entity-2="Mantenimiento" data-source-line="13" data-uid="lnk16" id="link_Abierto_Mantenimiento"><path d="M487.61,239.35 C537.7,240.21 629.57,248.53 690,294 C741.5,332.75 743.94,358.58 760,421 C785.25,519.12 654.2978,575.0756 569.7878,600.9156" fill="none" id="Abierto-to-Mantenimiento" style="stroke:#181818;stroke-width:1;"/><polygon fill="#181818" points="564.05,602.67,573.8263,603.8636,568.8315,601.208,571.4871,596.2132,564.05,602.67" style="stroke:#181818;stroke-width:1;"/><text fill="#000000" font-family="sans-serif" font-size="13" lengthAdjust="spacing" textLength="153.9053" x="763" y="434.0669">mantenimiento iniciado</text></g><!--link Mantenimiento to Abierto--><g class="link" data-entity-1="Mantenimiento" data-entity-2="Abierto" data-source-line="17" data-uid="lnk19" id="link_Mantenimiento_Abierto"><path d="M542.58,594.53 C552.87,586.45 562.73,576.52 569,565 C573.64,556.47 585.53,400.7 586,391 C587.08,368.8 595.91,360.89 586,341 C565.66,300.2 525.4799,274.2166 493.1399,258.0966" fill="none" id="Mantenimiento-to-Abierto" style="stroke:#181818;stroke-width:1;"/><polygon fill="#181818" points="487.77,255.42,494.0404,263.0149,492.2449,257.6505,497.6092,255.855,487.77,255.42" style="stroke:#181818;stroke-width:1;"/><text fill="#000000" font-family="sans-serif" font-size="13" lengthAdjust="spacing" textLength="166.1245" x="585" y="434.0669">mantenimiento finalizado</text></g><!--link EnUso to Mantenimiento--><g class="link" data-entity-1="EnUso" data-entity-2="Mantenimiento" data-source-line="14" data-uid="lnk17" id="link_EnUso_Mantenimiento"><path d="M403.79,518.23 C400.91,532.73 399.94,550.99 408,565 C415.08,577.3 421.0803,583.841 433.1503,591.481" fill="none" id="EnUso-to-Mantenimiento" style="stroke:#181818;stroke-width:1;"/><polygon fill="#181818" points="438.22,594.69,432.7547,586.4967,433.9952,592.0158,428.4761,593.2563,438.22,594.69" style="stroke:#181818;stroke-width:1;"/><text fill="#000000" font-family="sans-serif" font-size="13" lengthAdjust="spacing" textLength="155.7207" x="409" y="561.0669">desalojo / cierre forzoso</text></g><!--link Reservado to Mantenimiento--><g class="link" data-entity-1="Reservado" data-entity-2="Mantenimiento" data-source-line="15" data-uid="lnk18" id="link_Reservado_Mantenimiento"><path d="M212.48,391.26 C197.83,423.41 178.8,480.44 206,518 C259.02,591.22 362.4188,611.4151 432.0688,616.9451" fill="none" id="Reservado-to-Mantenimiento" style="stroke:#181818;stroke-width:1;"/><polygon fill="#181818" points="438.05,617.42,429.3948,612.7202,433.0657,617.0243,428.7616,620.6951,438.05,617.42" style="stroke:#181818;stroke-width:1;"/><text fill="#000000" font-family="sans-serif" font-size="13" lengthAdjust="spacing" textLength="154.6797" x="207" y="497.5669">mantenimiento urgente</text></g><!--link Mantenimiento to Cerrado--><g class="link" data-entity-1="Mantenimiento" data-entity-2="Cerrado" data-source-line="18" data-uid="lnk20" id="link_Mantenimiento_Cerrado"><path d="M564.21,615.62 C693.69,606.96 977,578.37 977,494 C977,238 977,238 977,238 C977,137.86 616.9869,117.9931 496.1769,114.1031" fill="none" id="Mantenimiento-to-Cerrado" style="stroke:#181818;stroke-width:1;"/><polygon fill="#181818" points="490.18,113.91,499.0466,118.1976,495.1774,114.0709,499.3041,110.2017,490.18,113.91" style="stroke:#181818;stroke-width:1;"/><text fill="#000000" font-family="sans-serif" font-size="13" lengthAdjust="spacing" textLength="102.2227" x="978" y="370.5669">cierre definitivo</text></g><!--link Cerrado to Mantenimiento--><g class="link" data-entity-1="Cerrado" data-entity-2="Mantenimiento" data-source-line="20" data-uid="lnk21" id="link_Cerrado_Mantenimiento"><path d="M413.59,115.51 C305.4,123.61 6,153.67 6,238 C6,238 6,238 6,494 C6,582.08 298.3695,608.4024 431.8195,615.9224" fill="none" id="Cerrado-to-Mantenimiento" style="stroke:#181818;stroke-width:1;"/><polygon fill="#181818" points="437.81,616.26,429.0493,611.76,432.8179,615.9787,428.5992,619.7473,437.81,616.26" style="stroke:#181818;stroke-width:1;"/><text fill="#000000" font-family="sans-serif" font-size="13" lengthAdjust="spacing" textLength="135.3193" x="7" y="370.5669">revisión programada</text></g><!--SRC=[VPAnZi8m38RtF8Ld97Jx3KWdnCY2TDFf1fEQogVKHaxRWTUwH-35I2cbJP2OajZVR_zEyhFwXVLw0riomqgTUspkmQyZaxKAdq3nZ9uLS8ouAREGBYW_5LjYE_cE0zJ53Yr19AsX6wDviuc862YlSQ18re_DRDo3Dy8AtPpAYpqn54_XbInjUPMd9WIgCNUmHsb9kE5aVv0rsPc5FG-JpsELWehIMFgdy04-bJM2azf5enQ-tZVgh4vhkfqSoqVF9ISM37mPtBsAvZTycAeeyTnoNto9qfPHpv6l_m9dqzgmIJTy0m00]--></g></svg>