<svg xmlns="http://www.w3.org/2000/svg" xmlns:xlink="http://www.w3.org/1999/xlink" contentStyleType="text/css" data-diagram-type="STATE" height="934px" preserveAspectRatio="none" style="width:592px;height:934px;background:#FFFFFF;" version="1.1" viewBox="0 0 592 934" width="592px" zoomAndPan="magnify"><defs/><g><!--cluster seleccionarRecorrido--><g class="cluster" data-entity="seleccionarRecorrido" data-source-line="3" data-uid="ent0002" id="cluster_seleccionarRecorrido"><path d="M186.99,7 L566.99,7 A12.5,12.5 0 0 1 579.49,19.5 L579.49,28.2969 L174.49,28.2969 L174.49,19.5 A12.5,12.5 0 0 1 186.99,7" fill="#F1F1F1"/><rect fill="none" height="775" rx="12.5" ry="12.5" style="stroke:#181818;stroke-width:0.5;" width="405" x="174.49" y="7"/><line style="stroke:#181818;stroke-width:0.5;" x1="174.49" x2="579.49" y1="28.2969" y2="28.2969"/><text fill="#000000" font-family="sans-serif" font-size="14" lengthAdjust="spacing" textLength="157.8486" x="298.0657" y="23.9951">seleccionarRecorrido()</text></g><g id="seleccionarRecorrido.ViendoDetalles"><rect fill="#F1F1F1" height="50" rx="12.5" ry="12.5" style="stroke:#181818;stroke-width:0.5;" width="50" x="200.49" y="157"/><line style="stroke:#181818;stroke-width:0.5;" x1="200.49" x2="250.49" y1="183.2969" y2="183.2969"/><text fill="#000000" font-family="sans-serif" font-size="14" lengthAdjust="spacing" textLength="4.4502" x="223.2649" y="174.9951">&#160;</text></g><g id="seleccionarRecorrido.ConfirmandoInicio"><rect fill="#F1F1F1" height="50" rx="12.5" ry="12.5" style="stroke:#181818;stroke-width:0.5;" width="50" x="200.49" y="392"/><line style="stroke:#181818;stroke-width:0.5;" x1="200.49" x2="250.49" y1="418.2969" y2="418.2969"/><text fill="#000000" font-family="sans-serif" font-size="14" lengthAdjust="spacing" textLength="4.4502" x="223.2649" y="409.9951">&#160;</text></g><g id="seleccionarRecorrido.IniciandoRecorrido"><rect fill="#F1F1F1" height="50" rx="12.5" ry="12.5" style="stroke:#181818;stroke-width:0.5;" width="50" x="200.49" y="537"/><line style="stroke:#181818;stroke-width:0.5;" x1="200.49" x2="250.49" y1="563.2969" y2="563.2969"/><text fill="#000000" font-family="sans-serif" font-size="14" lengthAdjust="spacing" textLength="4.4502" x="223.2649" y="554.9951">&#160;</text></g><g class="entity" data-entity="c" data-uid="ent0006" id="entity_c"><polygon fill="#F1F1F1" points="225.49,742,237.49,754,225.49,766,213.49,754,225.49,742" style="stroke:#181818;stroke-width:0.5;"/></g><ellipse cx="225.49" cy="52" fill="#222222" rx="10" ry="10" style="stroke:#222222;stroke-width:1;"/><g id="RECORRIDOS_ABIERTOS"><rect fill="#F1F1F1" height="50" rx="12.5" ry="12.5" style="stroke:#181818;stroke-width:0.5;" width="190.9805" x="7" y="878"/><line style="stroke:#181818;stroke-width:0.5;" x1="7" x2="197.9805" y1="904.2969" y2="904.2969"/><text fill="#000000" font-family="sans-serif" font-size="14" lengthAdjust="spacing" textLength="170.9805" x="17" y="895.9951">RECORRIDOS_ABIERTOS</text></g><g id="RECORRIDO_ABIERTO"><rect fill="#F1F1F1" height="50" rx="12.5" ry="12.5" style="stroke:#181818;stroke-width:0.5;" width="173.207" x="261.89" y="878"/><line style="stroke:#181818;stroke-width:0.5;" x1="261.89" x2="435.097" y1="904.2969" y2="904.2969"/><text fill="#000000" font-family="sans-serif" font-size="14" lengthAdjust="spacing" textLength="153.207" x="271.89" y="895.9951">RECORRIDO_ABIERTO</text></g><!--link *start*seleccionarRecorrido to ViendoDetalles--><g class="link" data-entity-1=".start.seleccionarRecorrido" data-entity-2="ViendoDetalles" data-source-line="10" data-uid="lnk3" id="link_.start.seleccionarRecorrido_ViendoDetalles"><path d="M225.49,62.21 C225.49,81.75 225.49,121.96 225.49,150.64" fill="none" id="*start*seleccionarRecorrido-to-ViendoDetalles" style="stroke:#008000;stroke-width:1;"/><polygon fill="#008000" points="225.49,156.64,229.49,147.64,225.49,151.64,221.49,147.64,225.49,156.64" style="stroke:#008000;stroke-width:1;"/><path d="M230.49,97 L230.49,122 L507.49,122 L507.49,107 L497.49,97 L230.49,97" fill="#FEFFDD" style="stroke:#181818;stroke-width:0.5;"/><path d="M497.49,97 L497.49,107 L507.49,107 L497.49,97" fill="#FEFFDD" style="stroke:#181818;stroke-width:0.5;"/><text fill="#000000" font-family="sans-serif" font-size="13" font-weight="bold" lengthAdjust="spacing" textLength="65.9839" x="236.49" y="114.0669">Visitante</text><text fill="#000000" font-family="sans-serif" font-size="13" lengthAdjust="spacing" textLength="186.7798" x="306.6062" y="114.0669">solicita seleccionar recorrido</text></g><!--link ViendoDetalles to ConfirmandoInicio--><g class="link" data-entity-1="ViendoDetalles" data-entity-2="ConfirmandoInicio" data-source-line="15" data-uid="lnk4" id="link_ViendoDetalles_ConfirmandoInicio"><path d="M225.49,207.49 C225.49,252.36 225.49,341.21 225.49,385.83" fill="none" id="ViendoDetalles-to-ConfirmandoInicio" style="stroke:#008000;stroke-width:1;"/><polygon fill="#008000" points="225.49,391.83,229.49,382.83,225.49,386.83,221.49,382.83,225.49,391.83" style="stroke:#008000;stroke-width:1;"/><path d="M230.49,242 L230.49,357 L558.49,357 L558.49,252 L548.49,242 L230.49,242" fill="#FEFFDD" style="stroke:#181818;stroke-width:0.5;"/><path d="M548.49,242 L548.49,252 L558.49,252 L548.49,242" fill="#FEFFDD" style="stroke:#181818;stroke-width:0.5;"/><text fill="#000000" font-family="sans-serif" font-size="13" font-weight="bold" lengthAdjust="spacing" textLength="58.9063" x="236.49" y="259.0669">Sistema</text><text fill="#000000" font-family="sans-serif" font-size="13" lengthAdjust="spacing" textLength="244.8735" x="299.5286" y="259.0669">presenta vista detallada del recorrido</text><text fill="#000000" font-family="sans-serif" font-size="13" lengthAdjust="spacing" textLength="63.7368" x="236.49" y="274.1997">&#8226; Nombre</text><text fill="#000000" font-family="sans-serif" font-size="13" lengthAdjust="spacing" textLength="87.8896" x="236.49" y="289.3325">&#8226; Descripci&#243;n</text><text fill="#000000" font-family="sans-serif" font-size="13" lengthAdjust="spacing" textLength="185.7705" x="236.49" y="304.4653">&#8226; Lista de espacios en orden</text><text fill="#000000" font-family="sans-serif" font-size="13" lengthAdjust="spacing" textLength="166.8926" x="236.49" y="319.5981">&#8226; Mapa con ruta marcada</text><text fill="#000000" font-family="sans-serif" font-size="13" lengthAdjust="spacing" textLength="168.8921" x="236.49" y="334.731">&#8226; Bot&#243;n "Iniciar recorrido"</text><text fill="#000000" font-family="sans-serif" font-size="13" lengthAdjust="spacing" textLength="123.4048" x="236.49" y="349.8638">&#8226; Bot&#243;n "Cancelar"</text></g><!--link ConfirmandoInicio to IniciandoRecorrido--><g class="link" data-entity-1="ConfirmandoInicio" data-entity-2="IniciandoRecorrido" data-source-line="26" data-uid="lnk5" id="link_ConfirmandoInicio_IniciandoRecorrido"><path d="M225.49,442.26 C225.49,468.55 225.49,504.28 225.49,530.62" fill="none" id="ConfirmandoInicio-to-IniciandoRecorrido" style="stroke:#008000;stroke-width:1;"/><polygon fill="#008000" points="225.49,536.62,229.49,527.62,225.49,531.62,221.49,527.62,225.49,536.62" style="stroke:#008000;stroke-width:1;"/><path d="M230.49,477 L230.49,502 L473.49,502 L473.49,487 L463.49,477 L230.49,477" fill="#FEFFDD" style="stroke:#181818;stroke-width:0.5;"/><path d="M463.49,477 L463.49,487 L473.49,487 L463.49,477" fill="#FEFFDD" style="stroke:#181818;stroke-width:0.5;"/><text fill="#000000" font-family="sans-serif" font-size="13" font-weight="bold" lengthAdjust="spacing" textLength="65.9839" x="236.49" y="494.0669">Visitante</text><text fill="#000000" font-family="sans-serif" font-size="13" lengthAdjust="spacing" textLength="152.5215" x="306.6062" y="494.0669">solicita iniciar recorrido</text></g><!--link IniciandoRecorrido to c--><g class="link" data-entity-1="IniciandoRecorrido" data-entity-2="c" data-source-line="31" data-uid="lnk6" id="link_IniciandoRecorrido_c"><path d="M225.49,587.45 C225.49,628.94 225.49,705.57 225.49,735.69" fill="none" id="IniciandoRecorrido-to-c" style="stroke:#008000;stroke-width:1;"/><polygon fill="#008000" points="225.49,741.69,229.49,732.69,225.49,736.69,221.49,732.69,225.49,741.69" style="stroke:#008000;stroke-width:1;"/><path d="M230.49,622 L230.49,707 L521.49,707 L521.49,632 L511.49,622 L230.49,622" fill="#FEFFDD" style="stroke:#181818;stroke-width:0.5;"/><path d="M511.49,622 L511.49,632 L521.49,632 L511.49,622" fill="#FEFFDD" style="stroke:#181818;stroke-width:0.5;"/><text fill="#000000" font-family="sans-serif" font-size="13" font-weight="bold" lengthAdjust="spacing" textLength="58.9063" x="236.49" y="639.0669">Sistema</text><text fill="#000000" font-family="sans-serif" font-size="13" lengthAdjust="spacing" textLength="207.0923" x="299.5286" y="639.0669">activa el recorrido seleccionado</text><text fill="#000000" font-family="sans-serif" font-size="13" lengthAdjust="spacing" textLength="165.6167" x="236.49" y="654.1997">&#8226; Muestra primer espacio</text><text fill="#000000" font-family="sans-serif" font-size="13" lengthAdjust="spacing" textLength="216.0425" x="236.49" y="669.3325">&#8226; Activa controles de navegaci&#243;n</text><text fill="#000000" font-family="sans-serif" font-size="13" lengthAdjust="spacing" textLength="211.3325" x="236.49" y="684.4653">&#8226; Muestra indicador de progreso</text><text fill="#000000" font-family="sans-serif" font-size="13" lengthAdjust="spacing" textLength="263.8403" x="236.49" y="699.5981">&#8226; Botones "Siguiente", "Anterior", "Salir"</text></g><!--link c to RECORRIDOS_ABIERTOS--><g class="link" data-entity-1="c" data-entity-2="RECORRIDOS_ABIERTOS" data-source-line="42" data-uid="lnk8" id="link_c_RECORRIDOS_ABIERTOS"><path d="M216.83,757.96 C188.36,767.67 99.49,798 99.49,798 C99.49,798 99.49,848 99.49,848 C99.49,848 100.0088,857.2491 100.7988,871.5391" fill="none" id="c-to-RECORRIDOS_ABIERTOS" style="stroke:#0000FF;stroke-width:1;"/><polygon fill="#0000FF" points="101.13,877.53,104.6271,868.3229,100.854,872.5376,96.6393,868.7645,101.13,877.53" style="stroke:#0000FF;stroke-width:1;"/><path d="M104.49,803 L104.49,843 L300.49,843 L300.49,813 L290.49,803 L104.49,803" fill="#FEFFDD" style="stroke:#181818;stroke-width:0.5;"/><path d="M290.49,803 L290.49,813 L300.49,813 L290.49,803" fill="#FEFFDD" style="stroke:#181818;stroke-width:0.5;"/><text fill="#000000" font-family="sans-serif" font-size="13" font-weight="bold" lengthAdjust="spacing" textLength="65.9839" x="110.49" y="820.0669">Visitante</text><text fill="#000000" font-family="sans-serif" font-size="13" lengthAdjust="spacing" textLength="105.3267" x="180.6062" y="820.0669">solicita cancelar</text><text fill="#000000" font-family="sans-serif" font-size="13" lengthAdjust="spacing" textLength="175.6777" x="110.49" y="835.1997">verRecorridosDisponibles()</text></g><!--link c to RECORRIDO_ABIERTO--><g class="link" data-entity-1="c" data-entity-2="RECORRIDO_ABIERTO" data-source-line="48" data-uid="lnk10" id="link_c_RECORRIDO_ABIERTO"><path d="M232.94,758.82 C253.5,769.34 309.49,798 309.49,798 C309.49,798 325.7129,841.2622 337.2429,872.0022" fill="none" id="c-to-RECORRIDO_ABIERTO" style="stroke:#008000;stroke-width:1;"/><polygon fill="#008000" points="339.35,877.62,339.9345,867.7885,337.594,872.9385,332.4441,870.598,339.35,877.62" style="stroke:#008000;stroke-width:1;"/><path d="M333.49,810.5 L333.49,835.5 L533.49,835.5 L533.49,820.5 L523.49,810.5 L333.49,810.5" fill="#FEFFDD" style="stroke:#181818;stroke-width:0.5;"/><path d="M523.49,810.5 L523.49,820.5 L533.49,820.5 L523.49,810.5" fill="#FEFFDD" style="stroke:#181818;stroke-width:0.5;"/><text fill="#000000" font-family="sans-serif" font-size="13" lengthAdjust="spacing" textLength="179.6514" x="339.49" y="827.5669">Consultando &#8594; EnRecorrido</text></g><!--SRC=[bLHjQjj04FslKmpAdwGqz0B6uDZ-OKXga4l-X536gwaxPBKhPjU6K0hzrGFq2Br2Zz2Rv2GTIR4ioJOq4kXZz-sRj- -D59xObIXOW6L7yRaaABrzhbwI94IC184i6SFUeMHal0Zd7Z10UchYyYg5Rqa2UZIhKpqLVC_aSZ-ZYDPIE9wVUlU5fK05BHmhwJ6a7gy0RR4Eni1ePBvwDZGUD-KVtZt2zSF5HeZSu_Lue01gZFEwrBjgxq_rm6WzlkV04LsaqOVr68AtMZLYrmMGdW2bROZqIDhBe5nNoUczdjAouX2fm5f9AHJ8gPAT3YBaDJFcrPCTA7hvyHi- -c8jrBxEA1ZXql3VFwuTl7rb0WebgewWUm4lEHqWTrWY69KbMuKMA4PBjhCtFYeVf4qq7MFI8yWKdI6BalOyE_XrP4hFiZFPlo4_7aeye-EuKa-8-Q-iq4JU8NI3wJHG9wMxBOKegE5oGRBFePsUD3pgVnHVjP5cvN176-m7kQTXbxC6vAK2bk9LTl3TABnJadJ5cwssPwJqFQGJlGjxgPvNQ7cOKFAz-PvCvSFQRgco8PjFbrcsc2rNdoStYtdsQRbwQo3cjI5gs8uElv0mur1wnslTyENLcPXCBvLMpbxDQJ7QOs5hOvKklFpy1NENdUo6Vm00]--></g></svg>