<svg xmlns="http://www.w3.org/2000/svg" xmlns:xlink="http://www.w3.org/1999/xlink" contentStyleType="text/css" data-diagram-type="CLASS" height="337px" preserveAspectRatio="none" style="width:617px;height:337px;background:#FFFFFF;" version="1.1" viewBox="0 0 617 337" width="617px" zoomAndPan="magnify"><defs/><g><g class="entity" data-entity="Campus" data-source-line="2" data-uid="ent0002" id="entity_Campus"><rect fill="#F1F1F1" height="36.2969" rx="2.5" ry="2.5" style="stroke:#181818;stroke-width:0.5;" width="71.0459" x="280.5" y="7"/><text fill="#000000" font-family="sans-serif" font-size="14" lengthAdjust="spacing" textLength="57.0459" x="287.5" y="21.9951">Campus</text><line style="stroke:#181818;stroke-width:0.5;" x1="281.5" x2="350.5459" y1="27.2969" y2="27.2969"/></g><g class="entity" data-entity="Edificio" data-source-line="3" data-uid="ent0003" id="entity_Edificio"><rect fill="#F1F1F1" height="36.2969" rx="2.5" ry="2.5" style="stroke:#181818;stroke-width:0.5;" width="64.5928" x="226.5" y="103"/><text fill="#000000" font-family="sans-serif" font-size="14" lengthAdjust="spacing" textLength="50.5928" x="233.5" y="117.9951">Edificio</text><line style="stroke:#181818;stroke-width:0.5;" x1="227.5" x2="290.0928" y1="123.2969" y2="123.2969"/></g><g class="entity" data-entity="Exterior" data-source-line="4" data-uid="ent0004" id="entity_Exterior"><rect fill="#F1F1F1" height="36.2969" rx="2.5" ry="2.5" style="stroke:#181818;stroke-width:0.5;" width="69.2002" x="393.5" y="103"/><text fill="#000000" font-family="sans-serif" font-size="14" lengthAdjust="spacing" textLength="55.2002" x="400.5" y="117.9951">Exterior</text><line style="stroke:#181818;stroke-width:0.5;" x1="394.5" x2="461.7002" y1="123.2969" y2="123.2969"/></g><g class="entity" data-entity="Planta1" data-source-line="5" data-uid="ent0005" id="entity_Planta1"><rect fill="#F1F1F1" height="36.2969" rx="2.5" ry="2.5" style="stroke:#181818;stroke-width:0.5;" width="66.7598" x="27.5" y="199"/><text fill="#000000" font-family="sans-serif" font-size="14" lengthAdjust="spacing" textLength="52.7598" x="34.5" y="213.9951">Planta1</text><line style="stroke:#181818;stroke-width:0.5;" x1="28.5" x2="93.2598" y1="219.2969" y2="219.2969"/></g><g class="entity" data-entity="Planta_3" data-source-line="6" data-uid="ent0006" id="entity_Planta_3"><rect fill="#F1F1F1" height="36.2969" rx="2.5" ry="2.5" style="stroke:#181818;stroke-width:0.5;" width="73.7598" x="146" y="199"/><text fill="#000000" font-family="sans-serif" font-size="14" lengthAdjust="spacing" textLength="59.7598" x="153" y="213.9951">Planta_3</text><line style="stroke:#181818;stroke-width:0.5;" x1="147" x2="218.7598" y1="219.2969" y2="219.2969"/></g><g class="entity" data-entity="Planta_2" data-source-line="7" data-uid="ent0007" id="entity_Planta_2"><rect fill="#F1F1F1" height="36.2969" rx="2.5" ry="2.5" style="stroke:#181818;stroke-width:0.5;" width="73.7598" x="276" y="199"/><text fill="#000000" font-family="sans-serif" font-size="14" lengthAdjust="spacing" textLength="59.7598" x="283" y="213.9951">Planta_2</text><line style="stroke:#181818;stroke-width:0.5;" x1="277" x2="348.7598" y1="219.2969" y2="219.2969"/></g><g class="entity" data-entity="Cafeteria" data-source-line="8" data-uid="ent0008" id="entity_Cafeteria"><rect fill="#F1F1F1" height="36.2969" rx="2.5" ry="2.5" style="stroke:#181818;stroke-width:0.5;" width="78.2236" x="285" y="295"/><text fill="#000000" font-family="sans-serif" font-size="14" lengthAdjust="spacing" textLength="64.2236" x="292" y="309.9951">Cafeteria</text><line style="stroke:#181818;stroke-width:0.5;" x1="286" x2="362.2236" y1="315.2969" y2="315.2969"/></g><g class="entity" data-entity="ParkingSubterraneo" data-source-line="9" data-uid="ent0009" id="entity_ParkingSubterraneo"><rect fill="#F1F1F1" height="36.2969" rx="2.5" ry="2.5" style="stroke:#181818;stroke-width:0.5;" width="153.4258" x="96.5" y="295"/><text fill="#000000" font-family="sans-serif" font-size="14" lengthAdjust="spacing" textLength="139.4258" x="103.5" y="309.9951">ParkingSubterraneo</text><line style="stroke:#181818;stroke-width:0.5;" x1="97.5" x2="248.9258" y1="315.2969" y2="315.2969"/></g><g class="entity" data-entity="PistaPadel" data-source-line="10" data-uid="ent0010" id="entity_PistaPadel"><rect fill="#F1F1F1" height="36.2969" rx="2.5" ry="2.5" style="stroke:#181818;stroke-width:0.5;" width="86.1055" x="385" y="199"/><text fill="#000000" font-family="sans-serif" font-size="14" lengthAdjust="spacing" textLength="72.1055" x="392" y="213.9951">PistaPadel</text><line style="stroke:#181818;stroke-width:0.5;" x1="386" x2="470.1055" y1="219.2969" y2="219.2969"/></g><g class="entity" data-entity="Polideportivo" data-source-line="11" data-uid="ent0011" id="entity_Polideportivo"><rect fill="#F1F1F1" height="36.2969" rx="2.5" ry="2.5" style="stroke:#181818;stroke-width:0.5;" width="105.7246" x="506" y="199"/><text fill="#000000" font-family="sans-serif" font-size="14" lengthAdjust="spacing" textLength="91.7246" x="513" y="213.9951">Polideportivo</text><line style="stroke:#181818;stroke-width:0.5;" x1="507" x2="610.7246" y1="219.2969" y2="219.2969"/></g><g class="entity" data-entity="Aula1" data-source-line="12" data-uid="ent0012" id="entity_Aula1"><rect fill="#F1F1F1" height="36.2969" rx="2.5" ry="2.5" style="stroke:#181818;stroke-width:0.5;" width="53.8262" x="7" y="295"/><text fill="#000000" font-family="sans-serif" font-size="14" lengthAdjust="spacing" textLength="39.8262" x="14" y="309.9951">Aula1</text><line style="stroke:#181818;stroke-width:0.5;" x1="8" x2="59.8262" y1="315.2969" y2="315.2969"/></g><g class="entity" data-entity="MaquinaExpendedora" data-source-line="13" data-uid="ent0013" id="entity_MaquinaExpendedora"><rect fill="#F1F1F1" height="36.2969" rx="2.5" ry="2.5" style="stroke:#181818;stroke-width:0.5;" width="166.5508" x="398.5" y="295"/><text fill="#000000" font-family="sans-serif" font-size="14" lengthAdjust="spacing" textLength="152.5508" x="405.5" y="309.9951">MaquinaExpendedora</text><line style="stroke:#181818;stroke-width:0.5;" x1="399.5" x2="564.0508" y1="315.2969" y2="315.2969"/></g><!--link Campus to Edificio--><g class="link" data-entity-1="Campus" data-entity-2="Edificio" data-source-line="16" data-uid="lnk14" id="link_Campus_Edificio"><path codeLine="16" d="M305.55,43.24 C295.26,60.2 282.761,80.8195 272.501,97.7395" fill="none" id="Campus-to-Edificio" style="stroke:#181818;stroke-width:1;"/><polygon fill="#181818" points="269.39,102.87,277.4768,97.2483,271.9825,98.5946,270.6362,93.1003,269.39,102.87" style="stroke:#181818;stroke-width:1;"/></g><!--link Campus to Exterior--><g class="link" data-entity-1="Campus" data-entity-2="Exterior" data-source-line="17" data-uid="lnk15" id="link_Campus_Exterior"><path codeLine="17" d="M336.28,43.02 C356.45,59.95 382.6447,81.9322 402.8947,98.9322" fill="none" id="Campus-to-Exterior" style="stroke:#181818;stroke-width:1;"/><polygon fill="#181818" points="407.49,102.79,403.1689,93.9397,403.6605,99.5751,398.0251,100.0668,407.49,102.79" style="stroke:#181818;stroke-width:1;"/></g><!--link Edificio to Planta1--><g class="link" data-entity-1="Edificio" data-entity-2="Planta1" data-source-line="19" data-uid="lnk16" id="link_Edificio_Planta1"><path codeLine="19" d="M226.3,137.52 C189.95,154.78 136.93,179.9464 100.16,197.4064" fill="none" id="Edificio-to-Planta1" style="stroke:#181818;stroke-width:1;"/><polygon fill="#181818" points="94.74,199.98,104.5858,199.7329,99.2567,197.8353,101.1542,192.5062,94.74,199.98" style="stroke:#181818;stroke-width:1;"/></g><!--link Edificio to Planta_3--><g class="link" data-entity-1="Edificio" data-entity-2="Planta_3" data-source-line="20" data-uid="lnk17" id="link_Edificio_Planta_3"><path codeLine="20" d="M245.06,139.24 C231.35,156.2 214.3023,177.2842 200.6223,194.2042" fill="none" id="Edificio-to-Planta_3" style="stroke:#181818;stroke-width:1;"/><polygon fill="#181818" points="196.85,198.87,205.619,194.3862,199.9936,194.9818,199.398,189.3564,196.85,198.87" style="stroke:#181818;stroke-width:1;"/></g><!--link Edificio to Planta_2--><g class="link" data-entity-1="Edificio" data-entity-2="Planta_2" data-source-line="21" data-uid="lnk18" id="link_Edificio_Planta_2"><path codeLine="21" d="M268.9,139.24 C278.65,156.2 290.4513,176.7474 300.1713,193.6674" fill="none" id="Edificio-to-Planta_2" style="stroke:#181818;stroke-width:1;"/><polygon fill="#181818" points="303.16,198.87,302.1453,189.0736,300.6694,194.5345,295.2085,193.0585,303.16,198.87" style="stroke:#181818;stroke-width:1;"/></g><!--link Planta1 to Aula1--><g class="link" data-entity-1="Planta1" data-entity-2="Aula1" data-source-line="23" data-uid="lnk19" id="link_Planta1_Aula1"><path codeLine="23" d="M56.05,235.24 C51.18,252.2 45.4364,272.1832 40.5764,289.1032" fill="none" id="Planta1-to-Aula1" style="stroke:#181818;stroke-width:1;"/><polygon fill="#181818" points="38.92,294.87,45.2492,287.3241,40.3004,290.0643,37.5601,285.1155,38.92,294.87" style="stroke:#181818;stroke-width:1;"/></g><!--link Planta_3 to ParkingSubterraneo--><g class="link" data-entity-1="Planta_3" data-entity-2="ParkingSubterraneo" data-source-line="24" data-uid="lnk20" id="link_Planta_3_ParkingSubterraneo"><path codeLine="24" d="M181.17,235.24 C179.36,252.2 177.2547,271.9837 175.4547,288.9037" fill="none" id="Planta_3-to-ParkingSubterraneo" style="stroke:#181818;stroke-width:1;"/><polygon fill="#181818" points="174.82,294.87,179.7496,286.3436,175.3489,289.8981,171.7945,285.4974,174.82,294.87" style="stroke:#181818;stroke-width:1;"/></g><!--link Planta_2 to Cafeteria--><g class="link" data-entity-1="Planta_2" data-entity-2="Cafeteria" data-source-line="25" data-uid="lnk21" id="link_Planta_2_Cafeteria"><path codeLine="25" d="M315.02,235.24 C317,252.2 319.3092,271.9911 321.2992,288.9111" fill="none" id="Planta_2-to-Cafeteria" style="stroke:#181818;stroke-width:1;"/><polygon fill="#181818" points="322,294.87,324.9214,285.4644,321.416,289.9042,316.9761,286.3988,322,294.87" style="stroke:#181818;stroke-width:1;"/></g><!--link Planta_2 to MaquinaExpendedora--><g class="link" data-entity-1="Planta_2" data-entity-2="MaquinaExpendedora" data-source-line="26" data-uid="lnk22" id="link_Planta_2_MaquinaExpendedora"><path codeLine="26" d="M343.6,235.02 C374.14,252.01 415.5367,275.0332 446.0967,292.0332" fill="none" id="Planta_2-to-MaquinaExpendedora" style="stroke:#181818;stroke-width:1;"/><polygon fill="#181818" points="451.34,294.95,445.4195,287.0793,446.9706,292.5194,441.5305,294.0704,451.34,294.95" style="stroke:#181818;stroke-width:1;"/></g><!--link Exterior to PistaPadel--><g class="link" data-entity-1="Exterior" data-entity-2="PistaPadel" data-source-line="28" data-uid="lnk23" id="link_Exterior_PistaPadel"><path codeLine="28" d="M428,139.24 C428,156.2 428,175.95 428,192.87" fill="none" id="Exterior-to-PistaPadel" style="stroke:#181818;stroke-width:1;"/><polygon fill="#181818" points="428,198.87,432,189.87,428,193.87,424,189.87,428,198.87" style="stroke:#181818;stroke-width:1;"/></g><!--link Exterior to Polideportivo--><g class="link" data-entity-1="Exterior" data-entity-2="Polideportivo" data-source-line="29" data-uid="lnk24" id="link_Exterior_Polideportivo"><path codeLine="29" d="M451.72,139.02 C475.32,155.95 506.4453,178.2919 530.1353,195.2919" fill="none" id="Exterior-to-Polideportivo" style="stroke:#181818;stroke-width:1;"/><polygon fill="#181818" points="535.01,198.79,530.03,190.293,530.9477,195.8749,525.3658,196.7926,535.01,198.79" style="stroke:#181818;stroke-width:1;"/></g><!--SRC=[RP1D3i8W48Ntd8ATgoxKTKsCSMbiuW7CM4OpYWnIQZo-j1MmsWt9-tZpysOcoxAK-zCLFJVIEZ8rMT3OI8LQtZcyt5a41qljvGRkjcsYsYewKqsSzCkZ8tPHLngCX_bO7fS_Uf6Rdx5h0Ca0xaRcScXF0Jimc2PLr7Ye8AoN26jIQDbvUYRRkjLv_0uUBHdOlYmQXOeT2266GB8eLZdDDuk9HFpjSGms0KEyAReGubFKqs6nM34O_yF6slu_NsU4frB5hOU- -LHZ_dsmDm00]--></g></svg>