<svg xmlns="http://www.w3.org/2000/svg" xmlns:xlink="http://www.w3.org/1999/xlink" contentStyleType="text/css" data-diagram-type="STATE" height="715px" preserveAspectRatio="none" style="width:336px;height:715px;background:#FFFFFF;" version="1.1" viewBox="0 0 336 715" width="336px" zoomAndPan="magnify"><defs/><g><path d="M19.5,7 L310.5,7 A12.5,12.5 0 0 1 323,19.5 L323,33.2969 L7,33.2969 L7,19.5 A12.5,12.5 0 0 1 19.5,7" fill="#F1F1F1"/><rect fill="none" height="557.2969" rx="12.5" ry="12.5" style="stroke:#181818;stroke-width:0.5;" width="316" x="7" y="7"/><line style="stroke:#181818;stroke-width:0.5;" x1="7" x2="323" y1="33.2969" y2="33.2969"/><text fill="#000000" font-family="sans-serif" font-size="14" lengthAdjust="spacing" textLength="87.3359" x="121.332" y="24.9951">verEspacio()</text><g id="verEspacio.SolicitandoVerEspacio"><rect fill="#F1F1F1" height="50" rx="12.5" ry="12.5" style="stroke:#181818;stroke-width:0.5;" width="50" x="68" y="150.2969"/><line style="stroke:#181818;stroke-width:0.5;" x1="68" x2="118" y1="176.5938" y2="176.5938"/><text fill="#000000" font-family="sans-serif" font-size="14" lengthAdjust="spacing" textLength="4.4502" x="90.7749" y="168.292">&#160;</text></g><g id="verEspacio.MostrandoEspacio"><rect fill="#F1F1F1" height="50" rx="12.5" ry="12.5" style="stroke:#181818;stroke-width:0.5;" width="147.8457" x="19" y="301.2969"/><line style="stroke:#181818;stroke-width:0.5;" x1="19" x2="166.8457" y1="327.5938" y2="327.5938"/><text fill="#000000" font-family="sans-serif" font-size="14" lengthAdjust="spacing" textLength="127.8457" x="29" y="319.292">MostrandoEspacio</text></g><g class="entity" data-entity="c" data-uid="ent0005" id="entity_c"><polygon fill="#F1F1F1" points="93,437.2969,105,449.2969,93,461.2969,81,449.2969,93,437.2969" style="stroke:#181818;stroke-width:0.5;"/></g><ellipse cx="93" cy="54.2969" fill="#222222" rx="10" ry="10" style="stroke:#222222;stroke-width:1;"/><ellipse cx="93" cy="543.2969" fill="none" rx="11" ry="11" style="stroke:#222222;stroke-width:1;"/><ellipse cx="93" cy="543.2969" fill="#222222" rx="6" ry="6" style="stroke:#222222;stroke-width:1;"/><!--link *start*verEspacio to SolicitandoVerEspacio--><g class="link" data-entity-1=".start.verEspacio" data-entity-2="SolicitandoVerEspacio" data-source-line="9" data-uid="lnk3" id="link_.start.verEspacio_SolicitandoVerEspacio"><path d="M93,64.6369 C93,82.8269 93,117.5369 93,143.9069" fill="none" id="*start*verEspacio-to-SolicitandoVerEspacio" style="stroke:#008000;stroke-width:1;"/><polygon fill="#008000" points="93,149.9069,97,140.9069,93,144.9069,89,140.9069,93,149.9069" style="stroke:#008000;stroke-width:1;"/><path d="M98,87.2969 L98,127.2969 L314,127.2969 L314,97.2969 L304,87.2969 L98,87.2969" fill="#FEFFDD" style="stroke:#181818;stroke-width:0.5;"/><path d="M304,87.2969 L304,97.2969 L314,97.2969 L304,87.2969" fill="#FEFFDD" style="stroke:#181818;stroke-width:0.5;"/><text fill="#000000" font-family="sans-serif" font-size="13" font-weight="bold" lengthAdjust="spacing" textLength="65.9839" x="104" y="104.3638">Visitante</text><text fill="#000000" font-family="sans-serif" font-size="13" lengthAdjust="spacing" textLength="70.9414" x="174.1162" y="104.3638">solicita ver</text><text fill="#000000" font-family="sans-serif" font-size="13" lengthAdjust="spacing" textLength="125.4741" x="174.2495" y="119.4966">su ubicaci&#243;n actual</text></g><!--link SolicitandoVerEspacio to MostrandoEspacio--><g class="link" data-entity-1="SolicitandoVerEspacio" data-entity-2="MostrandoEspacio" data-source-line="15" data-uid="lnk4" id="link_SolicitandoVerEspacio_MostrandoEspacio"><path d="M93,200.5669 C93,228.2769 93,267.3369 93,295.0369" fill="none" id="SolicitandoVerEspacio-to-MostrandoEspacio" style="stroke:#008000;stroke-width:1;"/><polygon fill="#008000" points="93,301.0369,97,292.0369,93,296.0369,89,292.0369,93,301.0369" style="stroke:#008000;stroke-width:1;"/><path d="M98,223.2969 L98,278.2969 L299,278.2969 L299,233.2969 L289,223.2969 L98,223.2969" fill="#FEFFDD" style="stroke:#181818;stroke-width:0.5;"/><path d="M289,223.2969 L289,233.2969 L299,233.2969 L289,223.2969" fill="#FEFFDD" style="stroke:#181818;stroke-width:0.5;"/><text fill="#000000" font-family="sans-serif" font-size="13" font-weight="bold" lengthAdjust="spacing" textLength="58.9063" x="104" y="240.3638">Sistema</text><text fill="#000000" font-family="sans-serif" font-size="13" lengthAdjust="spacing" textLength="57.6685" x="167.0386" y="240.3638">presenta</text><text fill="#000000" font-family="sans-serif" font-size="13" lengthAdjust="spacing" textLength="180.7559" x="104" y="255.4966">&#8226; Ubicaci&#243;n actual en mapa</text><text fill="#000000" font-family="sans-serif" font-size="13" lengthAdjust="spacing" textLength="167.2607" x="104" y="270.6294">&#8226; Detalles de la ubicaci&#243;n</text></g><!--link MostrandoEspacio to c--><g class="link" data-entity-1="MostrandoEspacio" data-entity-2="c" data-source-line="22" data-uid="lnk5" id="link_MostrandoEspacio_c"><path d="M93,351.4969 C93,377.5569 93,411.9069 93,431.2369" fill="none" id="MostrandoEspacio-to-c" style="stroke:#008000;stroke-width:1;"/><polygon fill="#008000" points="93,437.2369,97,428.2369,93,432.2369,89,428.2369,93,437.2369" style="stroke:#008000;stroke-width:1;"/><path d="M98,374.2969 L98,414.2969 L234,414.2969 L234,384.2969 L224,374.2969 L98,374.2969" fill="#FEFFDD" style="stroke:#181818;stroke-width:0.5;"/><path d="M224,374.2969 L224,384.2969 L234,384.2969 L224,374.2969" fill="#FEFFDD" style="stroke:#181818;stroke-width:0.5;"/><text fill="#000000" font-family="sans-serif" font-size="13" font-weight="bold" lengthAdjust="spacing" textLength="65.9839" x="104" y="391.3638">Visitante</text><text fill="#000000" font-family="sans-serif" font-size="13" lengthAdjust="spacing" textLength="45.7729" x="174.1162" y="391.3638">solicita</text><text fill="#000000" font-family="sans-serif" font-size="13" lengthAdjust="spacing" textLength="94.7642" x="104" y="406.4966">&#8226; salir de vista</text></g><!--link c to *end*verEspacio--><g class="link" data-entity-1="c" data-entity-2=".end.verEspacio" data-source-line="28" data-uid="lnk7" id="link_c_.end.verEspacio"><path d="M93,461.5769 C93,479.6169 93,508.6969 93,526.0569" fill="none" id="c-to-*end*verEspacio" style="stroke:#008000;stroke-width:1;"/><polygon fill="#008000" points="93,532.0569,97,523.0569,93,527.0569,89,523.0569,93,532.0569" style="stroke:#008000;stroke-width:1;"/><path d="M98,484.2969 L98,509.2969 L146,509.2969 L146,494.2969 L136,484.2969 L98,484.2969" fill="#FEFFDD" style="stroke:#181818;stroke-width:0.5;"/><path d="M136,484.2969 L136,494.2969 L146,494.2969 L136,484.2969" fill="#FEFFDD" style="stroke:#181818;stroke-width:0.5;"/><text fill="#000000" font-family="sans-serif" font-size="13" lengthAdjust="spacing" textLength="27.3076" x="104" y="501.3638">salir</text></g><g id="Explorando"><rect fill="#F1F1F1" height="50" rx="12.5" ry="12.5" style="stroke:#181818;stroke-width:0.5;" width="99.1328" x="115.5" y="659"/><line style="stroke:#181818;stroke-width:0.5;" x1="115.5" x2="214.6328" y1="685.2969" y2="685.2969"/><text fill="#000000" font-family="sans-serif" font-size="14" lengthAdjust="spacing" textLength="79.1328" x="125.5" y="676.9951">Explorando</text></g><!--link verEspacio to Explorando--><g class="link" data-entity-1="verEspacio" data-entity-2="Explorando" data-source-line="34" data-uid="lnk9" id="link_verEspacio_Explorando"><path d="M165,564.04 C165,603.08 165,631.21 165,652.78" fill="none" id="verEspacio-to-Explorando" style="stroke:#008000;stroke-width:1;"/><polygon fill="#008000" points="165,658.78,169,649.78,165,653.78,161,649.78,165,658.78" style="stroke:#008000;stroke-width:1;"/><path d="M170,599 L170,624 L240,624 L240,609 L230,599 L170,599" fill="#FEFFDD" style="stroke:#181818;stroke-width:0.5;"/><path d="M230,599 L230,609 L240,609 L230,599" fill="#FEFFDD" style="stroke:#181818;stroke-width:0.5;"/><text fill="#000000" font-family="sans-serif" font-size="13" lengthAdjust="spacing" textLength="49.6768" x="176" y="616.0669">regresa</text></g><!--SRC=[bP5DJiCm48NtFiMeR02fuW9HLdJ9gcetLHSJPmHM7TloE14LGk8iN84ZS1DEWkEK_14Ms58aUzwy-Px39sKSUgn0AqFXx0YSrUVs80G730GD-GqxbCe2Cgo6u_ND2bw4WBWwvIhkADbQhQGAQ4gxxyLZsOFbuDlofPQwvfUZ1WbP9f-iafJdtRp3xH7MXwj7JsIEwtnv92IfiT71cZRVALraHRvNt8e3PNT53dnfRfDsFRyMrr0NIaRNpmy3A4EDEYd9bDs4k4J_MSOP0o-cNKBTAWvKOG9rdfXCm5JxUdk7tPmfya25Rb3SKq2jYQ4aq3WACQ4VoETS4sZvpmVjAHYryYr24zFW7wFbP5RymylJajVKubM8PlcPDyzEsvH7J8myHGcZ-B7u1W00]--></g></svg>